# Blender v2.82 (sub 7) OBJ File: ''
# www.blender.org
o asteroid4.001
v 2.488588 -0.846624 0.283174
v 2.555222 -0.931532 -0.020664
v 2.207343 -1.471287 0.246257
v 2.327287 -1.448587 -0.046589
v 2.205737 0.809223 0.624749
v 2.589446 0.835379 0.112897
v 1.845106 1.651314 0.562499
v 2.628984 0.562033 0.230340
v 2.111306 -1.058135 -1.690797
v 2.191431 -1.009897 -1.569228
v 1.820467 -1.841853 -0.712189
v 2.185143 -1.469514 -0.757592
v 2.477092 -1.085252 -0.574342
v 2.328090 -0.819168 -1.276677
v 1.741946 0.515537 -2.097390
v 2.175384 0.908878 -1.308021
v 1.930851 0.148520 -2.059329
v -2.468703 -0.161453 0.185465
v -2.278037 -0.194757 0.370264
v -2.260444 -0.348836 0.201948
v -2.142019 -0.343681 0.366157
v -2.352299 0.547063 0.199176
v -2.288219 0.250946 0.368758
v -2.451603 0.162210 0.238316
v -2.278889 -0.163852 -0.778014
v -2.452147 -0.216364 -0.176209
v -2.534691 -0.058894 -0.175710
v -2.259669 0.785359 -0.500328
v -1.860680 0.712261 -1.245466
v -2.350527 0.689947 -0.389267
v 0.339951 -0.467473 2.218135
v 0.926602 -0.520814 1.969292
v 0.847992 -0.028517 2.072219
v 0.589758 0.686301 1.993941
v 0.333615 0.227932 2.268949
v 0.848119 0.508712 2.015656
v 1.078259 -0.572078 -2.837176
v 1.033958 -0.852371 -2.651241
v 0.761519 -0.741156 -2.685282
v 0.808187 -0.338009 -2.952407
v 0.958053 -1.253672 -2.211798
v 1.363381 -0.822569 -2.535084
v 1.391962 -1.171489 -2.210811
v 0.979732 0.447782 -2.688238
v 1.105299 0.271497 -2.792635
v 0.750131 0.150313 -2.955137
v 0.647089 0.393526 -2.809679
v 1.076355 -0.067122 -2.916860
v 1.466179 -2.072438 0.082139
v 1.234941 -1.961436 0.338283
v 1.001849 -1.980892 -0.199403
v 1.836691 -1.843848 0.206771
v 1.925144 -1.875487 -0.112077
v 1.425482 -1.880306 0.466055
v 1.101120 2.562919 0.138417
v 1.336889 2.571204 0.260359
v 1.930191 1.950999 0.304856
v 1.236028 2.471534 0.520368
v 0.824906 -1.813160 -0.795184
v 0.948529 -1.664071 -1.496262
v 1.160669 -2.041186 -0.509318
v 1.323928 -1.933436 -0.934824
v 1.238581 -1.515936 -1.855346
v 0.106745 1.860205 -0.871470
v 0.107267 2.205880 -0.332251
v -0.246902 -0.145076 2.216317
v -0.257033 -0.363048 2.060577
v -0.404681 -0.246475 1.964732
v -0.142437 0.363864 2.140702
v -0.287730 0.206384 2.161790
v -0.089342 0.058917 2.326644
v -1.504533 0.042376 -2.010058
v -1.170274 -0.216976 -2.255423
v -1.816480 -0.183262 -1.520888
v -1.008246 -0.339134 -2.217799
v -1.302554 0.384820 -2.175933
v -1.725297 0.986610 -1.172314
v -1.152663 0.644880 -2.027205
v 0.084942 -1.140304 0.567895
v -0.665396 -0.815912 0.443779
v -0.430912 -0.971970 -0.028523
v -0.727472 -0.856088 0.042535
v -1.332684 1.897338 0.206720
v -1.075822 2.072146 0.208803
v -1.039127 1.944391 0.385892
v -0.650103 -0.819106 -0.535151
v -0.403133 -0.966112 -0.270736
v -1.404961 1.762948 -0.487830
v -1.359978 1.290907 -1.245523
v -1.017478 1.776898 -0.794613
v -1.050549 2.043417 -0.284171
v -0.128813 0.712504 1.657726
v -0.428103 0.806124 1.275629
v -0.473371 0.510976 1.560440
v 0.130268 0.977920 1.526036
v -0.072679 1.408974 1.057693
v -0.306830 -0.460537 1.864397
v -0.470373 -0.757237 0.911115
v 0.232178 -0.959646 1.345107
v -0.709397 -0.557217 1.055099
v 0.725386 -1.051925 1.559276
v 1.024789 -1.029282 1.575644
v -0.750152 0.264667 1.392294
v -1.042566 0.297907 1.075177
v -0.698318 0.241833 1.550761
v -0.688699 -0.329318 1.414041
v -1.040380 -0.358691 0.986376
v 1.410009 0.746909 1.575296
v 1.475188 0.707553 1.510001
v 1.377455 -0.352681 1.679726
v 1.339400 -0.723970 1.592923
v 1.785137 -0.593672 1.107672
v 1.846729 -0.582382 0.979543
v 1.855829 -0.403957 1.047482
v 1.726327 0.702377 1.018576
v 1.488806 0.915924 1.228370
v 0.986830 1.347216 -1.052518
v 0.987665 1.048371 -1.505537
v 0.182357 -0.550444 -2.343957
v -0.232017 -0.526845 -1.933243
v -0.069335 0.236047 -2.515004
v 0.237679 0.198089 -2.750389
v 0.380991 0.893007 -2.016558
v 0.154881 0.736244 -2.240124
v 0.614628 -1.467795 0.554767
v 1.028649 -1.367193 0.965072
v 0.794868 -1.362744 0.932353
v 1.139094 -1.803585 0.573169
v 1.277256 -1.286240 0.992865
v 0.481167 2.306793 -0.051721
v -0.028653 2.143214 0.531645
v -0.051648 2.291914 0.267312
v 0.973456 1.961191 0.847248
v 0.753627 1.779005 1.005586
v 1.137564 1.477717 1.104964
v 0.531540 2.585085 0.554614
v 0.307681 1.934150 0.855755
v -0.033702 -1.077855 -0.638361
v 0.205554 -1.231638 -0.850452
v 0.449512 -1.462465 0.042448
v -1.595885 -0.262050 0.661941
v -1.541795 -0.414636 0.590878
v -1.350050 -0.569099 0.385166
v -1.511838 -0.568764 -0.034031
v -1.548721 0.369271 0.685543
v -1.073840 -0.692785 -0.360395
v -1.515871 -0.507068 -0.608991
v -0.799483 -0.508110 -1.678989
v -0.883453 -0.217818 -2.367264
v -0.554231 -0.426587 -2.066910
v -0.851290 -0.320898 -2.290032
v -0.289743 -0.322518 -2.222656
v -0.619448 -0.117995 -2.369597
v -0.564986 0.625535 -2.051630
v -0.659854 0.244731 -2.313866
v -0.371582 0.214488 -2.359059
v -0.871028 2.145207 0.204433
v -0.381433 2.065408 0.436011
v -0.425199 2.173659 0.176387
v -0.504204 1.786325 0.624262
v -0.766113 1.083303 0.854310
v -1.214292 0.968727 0.657880
v -0.501433 1.884889 -0.642949
v -0.497730 1.426049 -1.247470
v -0.525066 2.079160 -0.293878
v 2.668029 0.320732 0.209563
v 2.395476 -1.333935 -0.343547
v 2.299261 -0.300503 0.677902
v 2.205665 -1.024299 0.569562
v 1.928858 -1.509459 0.498158
v 1.613245 -1.752471 0.509228
v 2.620329 0.757500 -0.289747
v 2.645589 0.597324 -0.364691
v 2.299351 0.572149 -1.276062
v 2.596593 0.875119 -0.132095
v 1.490216 1.322220 0.919821
v 2.146043 1.710323 0.112909
v 1.887373 2.054132 0.026484
v 2.331995 -0.331416 -1.417189
v 2.153639 -0.260019 -1.871412
v 2.300334 -0.437773 -1.591681
v 1.527551 -1.484305 -1.766953
v 1.614282 -1.891484 -0.860881
v 1.370856 -0.036067 -2.695898
v 1.416681 0.860385 -1.800349
v 1.784575 1.057571 -1.429397
v -2.331018 0.815230 -0.178339
v -2.371735 0.714400 -0.269459
v -1.992189 1.131903 0.203085
v -1.767844 1.220766 0.350088
v -2.488538 0.109503 -0.420049
v -2.002238 -0.353693 -0.818301
v -2.078981 1.065076 -0.505532
v -1.840240 1.385089 -0.365902
v -1.978782 1.267614 -0.402161
v 0.520343 -0.752639 1.945860
v 0.479068 -0.707743 2.035132
v 0.468909 -0.597506 2.115844
v 0.127239 -0.330104 2.261515
v 0.948795 0.763879 1.872004
v 0.138310 0.391104 2.203826
v 0.688108 -1.014694 -2.313267
v 0.423538 -0.606471 -2.588858
v 0.503215 0.142065 -2.909985
v 1.024558 -1.838071 0.428500
v 0.595576 2.698490 0.416939
v 0.927555 2.716715 0.452262
v 0.846810 2.708081 0.332082
v 0.434191 -1.496922 -0.737405
v 0.559413 -1.563441 -1.023273
v -1.283872 0.210856 -2.266230
v -1.187838 0.134604 -2.340656
v -1.395819 -0.346262 -1.789460
v -0.600199 -0.949122 -0.097015
v -0.522343 -0.962997 -0.228638
v -0.997962 2.128686 -0.050631
v -1.365977 1.920144 -0.099255
v 0.852070 1.401257 1.316297
v -0.583095 0.206071 1.765175
v 1.341879 0.073129 1.724789
v 0.986960 -0.750773 1.858247
v 1.201368 -0.948716 1.555761
v 1.316401 0.939134 1.566066
v 1.293312 1.108703 1.447375
v -0.741382 -0.002038 1.455709
v -1.118366 -0.024044 1.061206
v 0.272096 -0.710998 1.903507
v -0.690167 0.511753 1.278754
v 0.543522 1.261074 1.416937
v 2.172236 -1.648463 -0.345361
v 1.706671 1.637361 -0.764467
v 1.875258 1.838846 -0.460071
v 1.630099 -0.510504 1.307659
v 1.726479 -0.557999 1.215149
v 1.626732 -0.737032 1.162477
v 1.718854 -0.380752 1.270195
v 1.562966 0.595372 1.307624
v 1.514612 0.780747 1.395663
v -0.223425 0.749709 -2.032605
v 1.572628 -1.096167 0.939121
v 0.146724 2.413698 0.186314
v 0.332451 2.460587 0.168127
v 0.090306 -0.921112 -1.497999
v 0.171020 -1.262158 0.042743
v 1.019955 1.701428 -0.618973
v -0.148343 -0.001797 -2.500569
v -0.151401 -0.189163 -2.425946
v 1.783656 0.101433 1.134280
v 1.917825 -0.074009 0.994136
v 1.876862 -0.119773 1.088414
v 0.631171 -1.371433 0.791022
v -0.880117 -0.814281 -0.347175
v -0.999327 -0.778800 -0.227799
v -0.316484 -0.688755 -1.495999
v -0.992859 0.347703 -2.312537
v -1.079279 0.502786 -2.203883
v -1.603557 -0.075609 0.704701
v -0.458236 0.021250 -2.393541
v -0.436347 2.171518 -0.029685
v 2.635769 0.079157 -0.506501
v 2.683325 0.322097 -0.403060
v 2.567921 -0.662075 -0.547913
v -2.550262 0.149909 -0.051291
v 1.661897 -0.125117 1.338539
v 1.763657 -0.160063 1.253754
v 1.876567 -0.373620 -2.273193
v 1.594697 -0.597444 -2.474834
v 1.987275 -0.285848 -2.132138
v 1.300087 1.182078 1.268113
v 1.314639 1.144826 1.370238
v 0.151634 -0.472418 2.203187
v 0.191715 -0.599689 2.083831
v 0.348192 -0.699556 2.017675
v 0.250108 -0.028282 2.323858
v -1.958509 0.120671 -1.415699
v -2.027713 1.258235 -0.192022
v -2.159751 1.089042 -0.138333
v -1.977743 1.313932 -0.265779
v -1.090615 -0.720205 -0.084196
v -0.980044 -0.796113 -0.127812
v 1.451561 -1.079174 1.075265
v -0.499329 0.070117 1.886031
v -0.565404 0.134575 1.825059
v 1.515071 -2.042208 -0.482834
v 2.145403 1.646734 -0.341623
v 2.221216 1.618430 -0.132834
v 0.738200 2.676298 0.535354
v 0.418800 0.381562 -2.772804
v 0.338254 -1.030321 -1.853125
v 0.595660 -1.486714 -1.362648
v 0.733049 -1.770759 -0.120645
v 0.480647 -0.149090 -2.897174
v 0.424227 -0.404381 -2.760191
v 2.250587 0.454498 0.677570
v -0.840333 2.050381 0.380197
v -1.014706 0.198243 -2.374483
v -1.059827 0.147484 -2.386561
v -2.284052 -0.342744 -0.156952
v -1.910925 0.403990 -1.401350
v -1.202249 0.410649 -2.115749
v -1.068771 0.389067 -2.173321
v -1.178745 0.182534 -2.232488
v 0.277929 -1.043226 -1.520807
v 0.453545 -1.377396 -1.091218
v 0.316039 -1.269357 -0.932873
v -0.647994 0.147058 1.491050
v -0.532825 0.122252 1.717298
v -0.563563 0.164826 1.647037
v -0.586539 -0.862513 -0.162554
v -0.591948 -0.848427 -0.270997
v -0.877520 -0.741372 -0.258945
v -0.853670 -0.763450 -0.132772
v -2.229938 0.739473 -0.399442
v -1.990365 1.103329 -0.400728
v 0.427703 -0.609850 2.006220
v 0.222916 -0.436584 2.135127
v 1.359872 0.759488 1.493973
v 1.284551 0.930088 1.456531
v 2.027213 -0.947908 -1.711950
v 2.176382 -0.415693 -1.660473
v 1.727876 -0.502626 1.085082
v 1.737400 -0.157672 1.150920
v 1.683192 -0.444012 1.167864
v 2.669461 -0.201423 -0.223509
v 2.538424 0.701108 0.110679
v 2.537130 0.749466 -0.136316
v 0.680779 -1.357896 -1.788510
v -1.069450 1.222219 -1.474590
v -1.242149 0.497278 -2.149944
v 0.176454 -1.173854 -1.098660
v 0.157533 -1.043040 -1.470487
v 0.318328 -1.410147 -0.852345
v 0.230942 -1.057689 -1.665791
v 0.354181 -1.182460 -1.689696
v 0.444562 -1.430708 -1.278731
v 0.242389 -1.297385 -0.913529
v 0.409964 -1.498132 -0.951121
v -0.760916 0.148101 1.457325
v -0.639377 0.059323 1.714209
v -0.625889 -0.907953 -0.360542
v -0.804417 -0.873124 -0.065020
v 0.359138 -0.491286 2.101686
v 0.210162 -0.434141 2.245840
v 0.280483 -0.552898 2.038377
v 1.400078 1.040630 1.334424
v 2.289661 -0.812425 -1.487868
v 1.965525 -1.029118 -1.932462
v 1.789791 -0.677595 -2.319742
v 1.828864 -0.468564 -2.324653
v 1.834854 -0.879082 -2.177990
v 1.818686 -0.077696 1.188299
v 2.598655 0.333092 0.140969
v 2.712809 0.025651 -0.029462
v 2.714785 0.055578 -0.280816
v 2.692685 0.146992 0.134080
v -1.039560 0.195246 -2.280392
v 0.399999 -1.168236 -1.561815
v -2.233896 0.811048 -0.213247
v -1.977903 1.186112 -0.236587
v 1.413144 0.770800 1.406941
v 1.284845 1.039875 1.355443
v 2.180614 -0.795670 -1.537053
v 1.867162 -0.882065 -1.993825
v 1.787962 -0.580800 -2.210719
v 1.963416 -0.337219 -2.025029
v 1.785200 -0.198795 1.070462
v 2.623601 0.126030 -0.027211
v 2.628770 0.156786 -0.276956
v 2.585077 0.526870 -0.312085
vt 0.238780 0.460378
vt 0.279838 0.514054
vt 0.222020 0.476373
vt 0.194149 0.432398
vt 0.214774 0.425715
vt 0.281565 0.595611
vt 0.308754 0.561971
vt 0.358860 0.642205
vt 0.325874 0.644295
vt 0.329610 0.381807
vt 0.324337 0.391451
vt 0.237244 0.361688
vt 0.318601 0.335029
vt 0.259004 0.394308
vt 0.264816 0.430281
vt 0.328350 0.405530
vt 0.313913 0.413540
vt 0.435948 0.440185
vt 0.398737 0.503844
vt 0.413971 0.427069
vt 0.832149 0.612814
vt 0.827380 0.593781
vt 0.845376 0.600132
vt 0.845299 0.615594
vt 0.803270 0.621815
vt 0.776443 0.613863
vt 0.806626 0.604282
vt 0.822127 0.559825
vt 0.812898 0.568462
vt 0.789659 0.523162
vt 0.742053 0.580986
vt 0.707894 0.532834
vt 0.726051 0.508055
vt 0.886749 0.850983
vt 0.916429 0.864834
vt 0.906121 0.908464
vt 0.873504 0.891978
vt 0.827943 0.866293
vt 0.867794 0.854624
vt 0.841143 0.886728
vt 0.427405 0.324549
vt 0.403251 0.312439
vt 0.414669 0.294968
vt 0.453329 0.311764
vt 0.359843 0.300189
vt 0.394340 0.335802
vt 0.357877 0.328265
vt 0.492760 0.397790
vt 0.479636 0.376731
vt 0.497520 0.347157
vt 0.514169 0.380697
vt 0.463740 0.345605
vt 0.153113 0.313904
vt 0.198073 0.300450
vt 0.170420 0.350146
vt 0.173148 0.393535
vt 0.197900 0.383055
vt 0.136752 0.322311
vt 0.407809 0.692191
vt 0.376037 0.701560
vt 0.245128 0.285155
vt 0.298799 0.295362
vt 0.218309 0.314859
vt 0.325228 0.314204
vt 0.250826 0.323095
vt 0.535171 0.641888
vt 0.496338 0.664199
vt 0.539596 0.594661
vt 0.072701 0.106340
vt 0.081762 0.120731
vt 0.063792 0.117232
vt 0.872135 0.810508
vt 0.882404 0.828120
vt 0.856623 0.820580
vt 0.716133 0.450737
vt 0.722694 0.428587
vt 0.748474 0.473787
vt 0.668509 0.454843
vt 0.678011 0.450201
vt 0.658421 0.468994
vt 0.185193 0.132582
vt 0.215930 0.128976
vt 0.219466 0.158972
vt 0.648206 0.702253
vt 0.673525 0.685652
vt 0.671332 0.719666
vt 0.253014 0.142925
vt 0.267896 0.141739
vt 0.239461 0.159763
vt 0.238726 0.147596
vt 0.657731 0.552499
vt 0.659396 0.621931
vt 0.628390 0.604283
vt 0.629604 0.650831
vt 0.797670 0.779514
vt 0.833803 0.778215
vt 0.816173 0.807774
vt 0.793154 0.825916
vt 0.750819 0.804654
vt 0.148035 0.143288
vt 0.102342 0.180188
vt 0.169785 0.529093
vt 0.175583 0.546295
vt 0.165935 0.537523
vt 0.407352 0.241810
vt 0.381675 0.200471
vt 0.411885 0.199890
vt 0.113727 0.245277
vt 0.135324 0.293744
vt 0.099287 0.260614
vt 0.542872 0.714430
vt 0.488778 0.716652
vt 0.540914 0.698824
vt 0.310982 0.724631
vt 0.287057 0.693204
vt 0.326626 0.712671
vt 0.358710 0.761906
vt 0.316598 0.754701
vt 0.253586 0.247857
vt 0.193907 0.237253
vt 0.269699 0.222470
vt 0.394433 0.180144
vt 0.413591 0.157459
vt 0.423646 0.155112
vt 0.431236 0.173953
vt 0.610759 0.457720
vt 0.604100 0.414053
vt 0.624866 0.423596
vt 0.619601 0.698435
vt 0.571861 0.709204
vt 0.576514 0.693802
vt 0.760018 0.747407
vt 0.699316 0.769499
vt 0.760847 0.714147
vt 0.587028 0.652177
vt 0.586725 0.618345
vt 0.275063 0.526908
vt 0.239138 0.421819
vt 0.190500 0.475798
vt 0.215362 0.527807
vt 0.168766 0.433979
vt 0.149914 0.415893
vt 0.325091 0.529605
vt 0.376238 0.486129
vt 0.327521 0.540916
vt 0.284459 0.662656
vt 0.355711 0.612868
vt 0.381678 0.634070
vt 0.345547 0.434251
vt 0.374782 0.415707
vt 0.350223 0.420459
vt 0.366730 0.364490
vt 0.345126 0.370941
vt 0.246728 0.342649
vt 0.444540 0.372389
vt 0.459102 0.477495
vt 0.486836 0.509423
vt 0.430866 0.508336
vt 0.832868 0.573615
vt 0.735603 0.644151
vt 0.735366 0.665960
vt 0.789420 0.561391
vt 0.691099 0.546361
vt 0.720186 0.590338
vt 0.699200 0.616020
vt 0.709890 0.607161
vt 0.048587 0.169873
vt 0.054833 0.177620
vt 0.044505 0.176957
vt 0.816870 0.892047
vt 0.379485 0.281871
vt 0.417306 0.267485
vt 0.551243 0.445459
vt 0.476516 0.710695
vt 0.467713 0.716034
vt 0.446952 0.711439
vt 0.455876 0.705079
vt 0.270533 0.261174
vt 0.269595 0.248804
vt 0.293847 0.255044
vt 0.593653 0.550307
vt 0.895629 0.817597
vt 0.228068 0.140084
vt 0.628531 0.674676
vt 0.660407 0.660998
vt 0.163382 0.194480
vt 0.744916 0.903035
vt 0.722544 0.871797
vt 0.760950 0.880406
vt 0.076890 0.208846
vt 0.088708 0.109242
vt 0.866628 0.973187
vt 0.809438 0.940147
vt 0.859903 0.934020
vt 0.888866 0.942912
vt 0.040744 0.204720
vt 0.050867 0.231227
vt 0.030829 0.230832
vt 0.062375 0.223412
vt 0.795007 0.921741
vt 0.779283 0.916993
vt 0.892181 0.732503
vt 0.868390 0.747923
vt 0.852859 0.708364
vt 0.063039 0.160853
vt 0.876577 0.698136
vt 0.900113 0.705297
vt 0.819266 0.756416
vt 0.770559 0.853687
vt 0.224754 0.397884
vt 0.403700 0.598970
vt 0.423423 0.579922
vt 0.436166 0.684243
vt 0.895889 0.975535
vt 0.904232 0.949495
vt 0.010230 0.258575
vt 0.016874 0.253740
vt 0.024254 0.263067
vt 0.895780 0.983080
vt 0.885886 0.981123
vt 0.241795 0.652457
vt 0.218886 0.636279
vt 0.243339 0.627389
vt 0.478571 0.547737
vt 0.530378 0.467346
vt 0.579613 0.400353
vt 0.329075 0.780024
vt 0.077640 0.271431
vt 0.049641 0.283579
vt 0.051792 0.268175
vt 0.332817 0.219052
vt 0.204322 0.207780
vt 0.261835 0.197883
vt 0.854088 0.658629
vt 0.867781 0.656359
vt 0.195034 0.102584
vt 0.261083 0.122551
vt 0.258032 0.109703
vt 0.270526 0.106507
vt 0.342589 0.187690
vt 0.362994 0.157644
vt 0.417848 0.134160
vt 0.407057 0.145236
vt 0.650553 0.434959
vt 0.656872 0.449642
vt 0.302526 0.082293
vt 0.583513 0.461124
vt 0.452986 0.167633
vt 0.461572 0.187032
vt 0.444282 0.184835
vt 0.578198 0.676250
vt 0.309740 0.494255
vt 0.313679 0.513689
vt 0.294954 0.505428
vt 0.279242 0.454117
vt 0.800366 0.586527
vt 0.185019 0.592522
vt 0.199156 0.588136
vt 0.396734 0.387297
vt 0.398259 0.356589
vt 0.253841 0.675537
vt 0.839246 0.665824
vt 0.826505 0.720960
vt 0.809175 0.679296
vt 0.044583 0.139029
vt 0.053425 0.163174
vt 0.051739 0.149689
vt 0.909002 0.844834
vt 0.449604 0.212261
vt 0.433246 0.213266
vt 0.740198 0.497073
vt 0.904877 0.669190
vt 0.892940 0.644785
vt 0.710039 0.834500
vt 0.677691 0.811088
vt 0.674445 0.782631
vt 0.719702 0.621515
vt 0.734206 0.616924
vt 0.904567 0.622857
vt 0.928607 0.635579
vt 0.214625 0.103994
vt 0.521228 0.691020
vt 0.502876 0.685786
vt 0.879625 0.785666
vt 0.872831 0.779678
vt 0.876856 0.776735
vt 0.905403 0.757756
vt 0.895576 0.771416
vt 0.151022 0.242793
vt 0.131084 0.237305
vt 0.856782 0.840844
vt 0.215660 0.339930
vt 0.532482 0.386176
vt 0.137969 0.479429
vt 0.347713 0.246998
vt 0.330828 0.248263
vt 0.300849 0.272011
vt 0.193877 0.270829
vt 0.470687 0.595095
vt 0.466345 0.282978
vt 0.476218 0.254171
vt 0.483139 0.285143
vt 0.442837 0.272888
vt 0.199484 0.567508
vt 0.255352 0.578158
vt 0.667129 0.740636
vt 0.636969 0.532183
vt 0.451289 0.139314
vt 0.687679 0.437796
vt 0.651757 0.424871
vt 0.669475 0.444014
vt 0.667406 0.433971
vt 0.682842 0.432552
vt 0.283713 0.246419
vt 0.278751 0.235955
vt 0.322837 0.235502
vt 0.863242 0.778150
vt 0.846122 0.752225
vt 0.854425 0.762685
vt 0.866274 0.765086
vt 0.882511 0.774393
vt 0.878208 0.774684
vt 0.253649 0.097546
vt 0.250676 0.106439
vt 0.245483 0.138937
vt 0.237024 0.135999
vt 0.253776 0.118873
vt 0.246133 0.116097
vt 0.753064 0.601763
vt 0.712521 0.617856
vt 0.008198 0.266741
vt 0.189525 0.570311
vt 0.869641 0.983259
vt 0.895280 0.993860
vt 0.871572 0.992087
vt 0.890887 0.988275
vt 0.280443 0.493802
vt 0.330843 0.277626
vt 0.863257 0.762004
vt 0.859072 0.754023
vt 0.882183 0.766658
vt 0.870667 0.773237
vt 0.221538 0.109740
vt 0.227284 0.113163
vt 0.222758 0.121872
vt 0.719398 0.601717
vt 0.916628 0.854041
vt 0.918687 0.850774
vt 0.923981 0.857871
vt 0.924318 0.867382
vt 0.922787 0.878262
vt 0.808253 0.932751
vt 0.800550 0.935350
vt 0.357341 0.373375
vt 0.357235 0.415951
vt 0.277898 0.538092
vt 0.285217 0.537221
vt 0.289320 0.553185
vt 0.303727 0.554892
vt 0.299546 0.511484
vt 0.865364 0.769662
vt 0.380726 0.378290
vt 0.381559 0.399723
vt 0.335005 0.401095
vt 0.338719 0.385190
vt 0.285638 0.520728
vt 0.316677 0.529284
vt 0.317556 0.546915
vt 0.335655 0.034926
vt 0.327331 0.051754
vt 0.294444 0.017438
vt 0.301397 0.004255
vt 0.752984 0.584355
vt 0.386623 0.736191
vt 0.907935 0.813339
vt 0.905277 0.798230
vt 0.050137 0.120450
vt 0.381542 0.114452
vt 0.381691 0.086912
vt 0.021069 0.208787
vt 0.382376 0.589367
vt 0.009839 0.276479
vt 0.549290 0.377205
vt 0.119612 0.455192
vt 0.109216 0.440495
vt 0.372536 0.749073
vt 0.150396 0.290820
vt 0.269359 0.067826
vt 0.656333 0.738294
vt 0.135741 0.398943
vt 0.362546 0.596627
vt 0.756789 0.592560
vt 0.043082 0.130608
vt 0.525982 0.359298
vt 0.138421 0.113100
vt 0.466025 0.216632
vt 0.849915 0.580257
vt 0.383347 0.368275
vt 0.390499 0.400344
vt 0.919255 0.919274
vt 0.763334 0.913800
vt 0.773411 0.918506
vt 0.228349 0.654333
vt 0.913822 0.743046
vt 0.323179 0.553891
vt 0.335233 0.237311
vt 0.323004 0.226948
vt 0.446111 0.135460
vt 0.441504 0.118288
vt 0.441643 0.126820
vt 0.419886 0.115036
vt 0.291228 0.223690
vt 0.265947 0.238112
vt 0.804923 0.948591
vt 0.241618 0.666738
vt 0.393887 0.378733
vt 0.187869 0.580316
vt 0.816339 0.957394
vt 0.660125 0.441474
vt 0.659562 0.427640
vt 0.321936 0.246441
vt 0.273280 0.228987
vt 0.744588 0.588901
vt 0.746332 0.599694
vt 0.720355 0.613210
vt 0.930061 0.875769
vt 0.041156 0.144833
vt 0.046838 0.154374
vt 0.045336 0.164371
vt 0.800064 0.944800
vt 0.788745 0.926291
vt 0.777129 0.924047
vt 0.244654 0.674391
vt 0.181153 0.567342
vt 0.181833 0.582947
vt 0.682157 0.425137
vt 0.447419 0.121671
vt 0.452208 0.130321
vt 0.931209 0.866852
vt 0.927624 0.882267
vt 0.221428 0.663040
vt 0.223773 0.660779
vt 0.229662 0.672706
vt 0.237508 0.673617
vt 0.875242 0.997725
vt 0.180688 0.576703
vt 0.002534 0.263328
vt 0.004102 0.258115
vt 0.166324 0.545482
vn 0.9515 -0.2868 0.1110
vn 0.9820 0.1857 0.0335
vn 0.8638 -0.2480 0.4386
vn 0.7106 -0.5531 0.4350
vn 0.8361 -0.5285 0.1473
vn 0.6571 0.2805 0.6997
vn 0.9680 0.1271 0.2165
vn 0.7188 0.5497 0.4256
vn 0.5700 0.3663 0.7355
vn 0.8107 -0.2052 -0.5484
vn 0.8227 -0.2323 -0.5189
vn 0.5416 -0.7977 -0.2652
vn 0.3756 -0.7762 -0.5064
vn 0.7487 -0.6015 -0.2786
vn 0.9227 -0.3432 -0.1758
vn 0.8274 -0.1732 -0.5342
vn 0.9531 -0.1728 -0.2486
vn 0.5752 0.5080 -0.6411
vn 0.7113 0.4771 -0.5161
vn 0.7529 0.2457 -0.6105
vn -0.5824 -0.3043 0.7538
vn -0.8330 -0.3793 0.4027
vn -0.4948 -0.8365 0.2356
vn -0.4211 -0.7194 0.5524
vn -0.5591 0.1316 0.8186
vn -0.7941 0.3623 0.4879
vn -0.8172 0.0830 0.5703
vn -0.7534 -0.6482 -0.1107
vn -0.9610 -0.2599 -0.0949
vn -0.7918 -0.4696 -0.3906
vn -0.8429 0.5313 -0.0846
vn -0.7427 0.4385 -0.5061
vn -0.7948 0.2688 -0.5441
vn 0.1654 -0.0173 0.9861
vn -0.0338 -0.6503 0.7590
vn 0.4651 -0.2151 0.8588
vn 0.4765 -0.0101 0.8791
vn 0.0693 0.5964 0.7997
vn 0.1891 0.2508 0.9494
vn 0.4035 0.2338 0.8846
vn 0.2857 -0.3355 -0.8977
vn 0.0367 -0.6636 -0.7472
vn -0.3036 -0.6233 -0.7206
vn -0.0931 -0.2780 -0.9561
vn -0.1517 -0.7875 -0.5974
vn 0.4173 -0.5173 -0.7471
vn 0.2998 -0.6843 -0.6647
vn 0.2070 0.7512 -0.6268
vn 0.4268 0.4730 -0.7708
vn 0.0212 0.2878 -0.9575
vn -0.0130 0.6945 -0.7194
vn 0.3920 0.0544 -0.9183
vn -0.2141 -0.8956 0.3899
vn -0.4647 -0.8826 0.0712
vn 0.1297 -0.9725 0.1937
vn 0.5251 -0.7537 0.3952
vn 0.5697 -0.8200 0.0545
vn 0.2347 -0.7622 0.6033
vn 0.5053 0.8618 -0.0443
vn 0.4252 0.5672 0.7054
vn -0.5338 -0.8307 -0.1579
vn -0.2882 -0.8750 -0.3890
vn -0.2200 -0.9672 -0.1270
vn 0.0693 -0.8369 -0.5430
vn 0.0328 -0.9396 -0.3406
vn -0.0464 0.8754 -0.4812
vn 0.0658 0.7881 -0.6120
vn 0.0538 0.8062 -0.5892
vn -0.7930 -0.3191 0.5189
vn -0.5448 -0.7173 0.4344
vn -0.5315 -0.5994 0.5985
vn -0.6574 0.3332 0.6759
vn -0.2795 0.0800 0.9568
vn -0.4013 0.6223 0.6721
vn -0.7639 -0.1072 -0.6364
vn -0.5010 -0.5010 -0.7057
vn -0.7101 -0.5160 -0.4790
vn -0.6296 0.3922 -0.6707
vn -0.2886 0.4233 -0.8588
vn -0.3608 0.6697 -0.6491
vn -0.3889 -0.8926 0.2279
vn -0.3471 -0.9072 0.2377
vn -0.3287 -0.9431 0.0504
vn -0.4359 0.8343 0.3374
vn -0.6014 0.6867 0.4083
vn -0.3679 0.5327 0.7622
vn -0.3450 -0.9383 -0.0258
vn -0.3102 -0.9040 -0.2942
vn -0.2625 -0.9541 -0.1438
vn -0.3884 -0.9214 -0.0116
vn -0.4733 0.6760 -0.5648
vn -0.5631 0.7429 -0.3618
vn -0.2078 0.8170 -0.5379
vn -0.2983 0.8879 -0.3502
vn -0.5149 0.5634 0.6461
vn -0.6371 0.5881 0.4982
vn -0.4919 0.6970 0.5217
vn -0.3600 0.6743 0.6448
vn -0.3721 0.5346 0.7588
vn -0.4595 -0.8306 0.3146
vn -0.3898 -0.8459 0.3640
vn 0.7307 -0.3112 0.6076
vn 0.7401 -0.0859 0.6670
vn 0.8026 -0.1799 0.5688
vn -0.5599 -0.6580 -0.5035
vn -0.3100 -0.8432 -0.4392
vn -0.2416 -0.7551 -0.6095
vn -0.2576 -0.8242 0.5042
vn -0.1365 -0.7787 0.6124
vn 0.0485 -0.7728 0.6328
vn -0.4123 0.6589 0.6292
vn -0.3264 0.6436 0.6923
vn -0.4611 0.8320 0.3084
vn 0.0790 0.5903 0.8033
vn 0.4676 0.5783 0.6686
vn 0.2596 0.4792 0.8384
vn -0.2580 0.5239 0.8117
vn -0.6876 -0.7251 0.0367
vn -0.6332 -0.7693 0.0854
vn -0.7583 -0.6498 -0.0517
vn -0.0560 -0.8911 -0.4503
vn 0.0570 -0.7590 -0.6486
vn -0.1136 -0.3884 -0.9145
vn -0.0006 -0.2366 -0.9716
vn -0.0863 0.6527 -0.7527
vn -0.2852 0.3471 -0.8934
vn 0.0495 0.4572 -0.8880
vn -0.2029 0.9394 0.2763
vn -0.2383 0.7515 0.6152
vn -0.1920 0.9636 0.1862
vn -0.4756 0.4391 0.7622
vn -0.3063 0.4952 0.8130
vn -0.4174 0.3313 0.8462
vn -0.1267 0.9125 -0.3891
vn -0.1052 0.8330 -0.5432
vn 0.9829 0.1666 0.0781
vn 0.8721 -0.4804 -0.0930
vn 0.6482 -0.3337 0.6844
vn 0.7211 -0.0658 0.6898
vn 0.5225 -0.5206 0.6752
vn 0.3784 -0.6439 0.6650
vn 0.9872 0.0751 0.1404
vn 0.8769 0.2150 -0.4298
vn 0.9885 0.1384 0.0611
vn 0.5437 0.4059 0.7346
vn 0.8431 0.5013 0.1948
vn 0.7169 0.6865 -0.1215
vn 0.9557 0.0252 -0.2934
vn 0.8261 -0.1902 -0.5304
vn 0.8563 -0.0932 -0.5081
vn 0.8125 -0.2621 -0.5207
vn 0.8131 -0.2182 -0.5397
vn 0.3569 -0.8675 -0.3464
vn 0.6363 0.1381 -0.7590
vn -0.0224 0.9015 -0.4321
vn 0.1309 0.8484 -0.5128
vn 0.2808 0.7677 -0.5760
vn -0.7127 0.4995 0.4925
vn -0.5083 0.3801 0.7727
vn -0.9461 0.0186 -0.3235
vn -0.6557 0.5630 -0.5031
vn -0.8302 0.5564 -0.0326
vn -0.6419 0.7113 -0.2863
vn -0.7397 0.5001 -0.4502
vn 0.1960 -0.5938 0.7804
vn -0.0091 -0.8221 0.5692
vn -0.1943 -0.6227 0.7580
vn 0.3371 0.4759 0.8123
vn -0.4500 -0.7070 -0.5455
vn -0.5567 -0.5979 -0.5767
vn -0.1750 0.7630 -0.6222
vn -0.3469 0.9377 -0.0209
vn -0.0475 0.7183 0.6941
vn 0.2326 0.8912 0.3894
vn -0.0303 0.9183 -0.3947
vn -0.5338 -0.8262 -0.1802
vn -0.6885 -0.7057 -0.1670
vn -0.8302 -0.5331 -0.1632
vn -0.0984 0.7569 -0.6461
vn -0.5865 -0.2474 0.7712
vn -0.4061 -0.9049 -0.1272
vn -0.2835 0.9525 -0.1112
vn -0.6101 0.7899 -0.0617
vn -0.4657 -0.8638 0.1922
vn 0.1382 0.6651 0.7338
vn -0.1328 -0.8493 0.5109
vn -0.7460 -0.4354 0.5038
vn 0.7472 0.0317 0.6639
vn 0.7266 0.4599 0.5104
vn 0.6667 0.0358 0.7444
vn 0.6830 -0.1301 0.7187
vn 0.3818 -0.4981 0.7785
vn 0.5147 -0.6445 0.5655
vn 0.6780 -0.3716 0.6342
vn 0.2185 -0.7705 0.5988
vn 0.7768 0.4731 0.4157
vn 0.7479 0.4263 0.5089
vn -0.8401 -0.1331 0.5258
vn -0.6597 -0.0711 0.7481
vn -0.3501 -0.8488 0.3961
vn -0.5742 -0.4751 0.6668
vn -0.4870 -0.7778 0.3973
vn -0.6423 0.4655 0.6089
vn -0.1575 0.6668 0.7284
vn 0.7283 -0.6780 -0.0991
vn 0.4761 0.7262 -0.4958
vn 0.1536 0.7231 -0.6734
vn 0.0817 0.7879 -0.6103
vn 0.7016 -0.2577 0.6644
vn 0.8451 -0.1376 0.5166
vn 0.6882 -0.4719 0.5511
vn 0.9028 -0.1469 0.4043
vn 0.8314 0.4294 0.3526
vn 0.9049 0.1911 0.3802
vn 0.7160 0.2570 0.6490
vn 0.1588 0.7899 -0.5923
vn 0.1233 0.8172 -0.5631
vn -0.4936 0.3272 -0.8057
vn 0.3314 -0.6979 0.6350
vn 0.5402 -0.4526 0.7095
vn 0.6087 -0.5962 0.5235
vn -0.6694 -0.6904 -0.2744
vn -0.5286 -0.8486 0.0213
vn -0.5305 -0.8338 -0.1530
vn -0.4458 -0.3525 0.8228
vn -0.3809 -0.7225 0.5770
vn -0.3220 -0.9158 0.2400
vn -0.3248 -0.9457 -0.0098
vn -0.3140 -0.9432 -0.1085
vn -0.4053 -0.8922 -0.1991
vn -0.3572 -0.8829 -0.3048
vn -0.2258 -0.9443 -0.2394
vn -0.2535 -0.8338 -0.4904
vn -0.3722 0.4007 -0.8372
vn -0.2995 0.3711 -0.8790
vn -0.2729 -0.9526 -0.1348
vn -0.2798 0.6570 -0.7000
vn -0.1612 0.0808 -0.9836
vn -0.1804 0.9693 -0.1669
vn 0.9446 -0.0254 -0.3271
vn 0.9672 0.2132 -0.1381
vn 0.9922 0.1238 -0.0176
vn 0.9767 -0.1401 -0.1624
vn -0.9890 0.1196 0.0871
vn 0.7840 0.2068 0.5853
vn 0.8140 -0.1490 -0.5615
vn 0.5787 -0.2073 -0.7888
vn 0.6960 0.6615 0.2792
vn -0.4991 -0.0741 0.8634
vn -0.6210 0.2630 0.7384
vn -0.4838 0.2026 0.8514
vn -0.0127 -0.7194 0.6945
vn -0.1187 -0.6571 0.7444
vn -0.7622 -0.2928 0.5773
vn -0.1302 -0.2969 0.9460
vn -0.4660 -0.0856 -0.8806
vn -0.4114 -0.4885 -0.7695
vn -0.8463 0.0007 -0.5327
vn -0.8294 0.4999 -0.2493
vn -0.8217 0.5292 -0.2118
vn -0.2973 -0.9547 0.0080
vn -0.4127 -0.9100 0.0391
vn -0.3756 0.9076 -0.1878
vn -0.1586 0.8402 -0.5186
vn -0.7961 -0.0565 0.6025
vn -0.6694 0.3691 0.6447
vn -0.8364 -0.1239 0.5339
vn -0.5593 -0.7815 0.2764
vn -0.4295 -0.8150 0.3889
vn -0.1064 0.5403 0.8347
vn 0.2424 -0.9608 -0.1345
vn -0.2877 0.5865 -0.7571
vn -0.6319 -0.6420 -0.4342
vn -0.5082 -0.7917 -0.3390
vn -0.5043 -0.8062 -0.3093
vn -0.6333 -0.7682 0.0940
vn 0.0332 0.7237 -0.6893
vn -0.4095 -0.1620 -0.8978
vn -0.5305 0.2468 -0.8109
vn -0.3010 0.1807 -0.9363
vn -0.4747 -0.4899 -0.7312
vn 0.7434 0.0514 0.6668
vn 0.6848 0.1210 0.7186
vn -0.2113 0.7158 0.6656
vn -0.1705 0.7174 -0.6755
vn -0.3974 0.4064 -0.8227
vn -0.3474 0.2975 -0.8893
vn 0.0191 0.0459 -0.9988
vn -0.6388 0.0506 -0.7677
vn 0.0166 0.7127 -0.7013
vn -0.9585 -0.1968 -0.2065
vn -0.4243 -0.6882 -0.5885
vn -0.4071 -0.9122 -0.0458
vn -0.9195 0.0608 0.3883
vn -0.7811 0.3380 0.5250
vn -0.6067 0.5047 0.6142
vn -0.5705 0.1856 0.8001
vn -0.9565 0.2878 0.0466
vn -0.8517 -0.3933 0.3465
vn -0.2685 -0.9606 -0.0714
vn -0.6199 -0.7329 0.2804
vn -0.6251 -0.6538 -0.4263
vn 0.0135 -0.9694 0.2453
vn -0.0830 -0.8550 -0.5120
vn -0.7564 0.6004 -0.2596
vn -0.6633 0.7150 0.2209
vn 0.7982 -0.1164 0.5911
vn 0.9039 -0.1559 0.3982
vn 0.6539 0.2796 0.7030
vn 0.8417 -0.4795 0.2482
vn 0.9949 0.0543 0.0856
vn 0.9801 -0.1644 -0.1117
vn -0.5304 -0.7420 -0.4100
vn -0.9776 0.0955 0.1873
vn -0.3995 -0.9058 -0.1408
vn -0.9162 0.3205 0.2404
vn 0.0440 -0.5443 0.8377
vn 0.2606 -0.8493 0.4592
vn -0.4200 -0.8148 0.3996
vn 0.7726 0.4427 0.4552
vn 0.7382 0.6740 0.0271
vn 0.9148 0.1934 -0.3545
vn 0.5439 -0.5036 -0.6713
vn 0.9849 0.1609 0.0640
vn 0.8866 0.2281 -0.4023
vn 0.9752 0.1867 0.1186
vn 0.9183 -0.1228 -0.3763
vn 0.8234 0.4003 0.4022
vn 0.9679 -0.1504 -0.2016
vn 0.7642 -0.5275 -0.3711
vn 0.6086 -0.0600 -0.7912
vn 0.8129 0.1726 -0.5562
vn 0.8851 0.4461 -0.1322
vn 0.8909 0.0092 0.4540
vn 0.9631 -0.1886 0.1918
vn -0.4238 -0.8786 -0.2202
vn -0.4643 -0.8821 -0.0801
vn -0.7913 0.5585 -0.2486
vn -0.4067 -0.8554 -0.3207
vn 0.7575 0.5736 -0.3118
vn -0.4593 -0.8195 0.3426
vn 0.8328 0.5481 -0.0780
vn -0.8075 0.5576 -0.1925
vn 0.7978 -0.2077 -0.5660
vn 0.8396 -0.2392 -0.4878
vn 0.7022 0.5142 0.4925
vn 0.7458 0.4367 0.5031
vn 0.9908 0.1308 0.0361
vn -0.7762 -0.5718 -0.2658
vn -0.6017 -0.7654 -0.2282
vn -0.2611 0.3341 -0.9057
vn -0.4305 0.3372 -0.8372
vn -0.9291 -0.3521 -0.1134
vn -0.8077 -0.5880 -0.0428
vn 0.6685 0.4779 0.5699
vn 0.8127 -0.0656 -0.5790
vn 0.8115 -0.0680 0.5804
vn -0.6379 0.5859 -0.4998
vn -0.9078 -0.3785 0.1809
vn -0.5516 -0.7148 -0.4298
vn -0.6346 0.7637 0.1185
vn -0.5335 0.6050 -0.5911
vn -0.8671 0.2103 -0.4516
vn -0.4228 -0.3327 0.8429
vn 0.2711 -0.3581 0.8935
vn 0.3130 0.6232 0.7167
vn 0.9642 0.2539 0.0767
vn 0.7614 0.0081 0.6483
vn 0.4224 -0.2913 0.8583
s 1
f 2/1/1 353/2/2 1/3/3
f 2/1/1 1/3/3 3/4/4
f 3/4/4 4/5/5 2/1/1
f 5/6/6 6/7/7 57/8/8
f 57/8/8 7/9/9 5/6/6
f 9/10/10 10/11/11 11/12/12
f 11/12/12 182/13/13 9/10/10
f 11/12/12 10/11/11 12/14/14
f 12/14/14 10/11/11 13/15/15
f 10/11/11 346/16/16 14/17/17
f 15/18/18 16/19/19 17/20/20
f 19/21/21 18/22/22 20/23/23
f 20/23/23 21/24/24 19/21/21
f 23/25/25 22/26/26 24/27/27
f 26/28/28 27/29/29 25/30/30
f 28/31/31 29/32/32 299/33/33
f 274/34/34 31/35/35 32/36/36
f 32/36/36 33/37/37 274/34/34
f 34/38/38 35/39/39 36/40/40
f 37/41/41 38/42/42 39/43/43
f 39/43/43 40/44/44 37/41/41
f 41/45/45 38/42/42 42/46/46
f 42/46/46 43/47/47 41/45/45
f 44/48/48 45/49/49 46/50/50
f 46/50/50 47/51/51 44/48/48
f 46/50/50 45/49/49 48/52/52
f 50/53/53 51/54/54 49/55/55
f 52/56/56 49/55/55 53/57/57
f 50/53/53 49/55/55 54/58/58
f 57/8/8 56/59/59 58/60/60
f 59/61/61 60/62/62 61/63/63
f 60/62/62 63/64/64 62/65/65
f 65/66/66 130/67/67 64/68/68
f 68/69/69 97/70/70 67/71/71
f 70/72/72 71/73/73 69/74/74
f 72/75/75 73/76/76 74/77/77
f 329/78/78 76/79/79 78/80/80
f 80/81/81 82/82/82 81/83/83
f 84/84/84 83/85/85 85/86/86
f 340/87/87 86/88/88 87/89/89
f 87/89/89 215/90/90 340/87/87
f 89/91/91 88/92/92 90/93/93
f 88/92/92 91/94/94 90/93/93
f 93/95/95 94/96/96 92/97/97
f 95/98/98 96/99/99 93/95/95
f 97/70/70 98/100/100 99/101/101
f 113/102/102 114/103/103 112/104/104
f 119/105/105 120/106/106 152/107/107
f 127/108/108 128/109/109 126/110/110
f 131/111/111 136/112/112 132/113/113
f 134/114/114 135/115/115 133/116/116
f 134/114/114 133/116/116 136/117/112
f 136/117/112 137/118/117 134/114/114
f 209/119/118 140/120/119 139/121/120
f 150/122/121 151/123/122 149/124/123
f 150/122/121 149/124/123 152/107/107
f 152/107/107 149/124/123 153/125/124
f 154/126/125 156/127/126 155/128/127
f 157/129/128 158/130/129 159/131/130
f 161/132/131 160/133/132 162/134/133
f 165/135/134 65/66/66 163/136/135
f 353/2/2 355/137/136 1/3/3
f 167/138/137 12/14/14 13/15/15
f 167/138/137 13/15/15 2/1/1
f 2/1/1 4/5/5 167/138/137
f 113/102/102 169/139/138 168/140/139
f 3/4/4 169/139/138 170/141/140
f 52/56/56 3/4/4 170/141/140
f 170/141/140 171/142/141 52/56/56
f 173/143/142 174/144/143 172/145/144
f 7/9/9 176/146/145 5/6/6
f 177/147/146 178/148/147 57/8/8
f 174/144/143 179/149/148 180/150/149
f 180/150/149 179/149/148 181/151/150
f 42/46/46 350/152/151 43/47/47
f 43/47/47 350/152/151 347/153/152
f 347/153/152 182/13/13 43/47/47
f 183/154/153 182/13/13 11/12/12
f 62/65/65 182/13/13 183/154/153
f 45/49/49 15/18/18 17/20/20
f 17/20/20 184/155/154 45/49/49
f 185/156/155 118/157/156 186/158/157
f 23/25/25 24/27/27 18/22/22
f 18/22/22 19/21/21 23/25/25
f 27/29/29 26/159/28 18/22/22
f 83/85/85 189/160/158 190/161/159
f 25/30/30 27/29/29 191/162/160
f 29/32/32 77/163/161 76/79/79
f 88/92/92 193/164/162 194/165/163
f 194/165/163 193/164/162 195/166/164
f 35/39/39 274/34/34 33/37/37
f 33/37/37 36/40/40 35/39/39
f 197/167/165 196/168/166 198/169/167
f 34/38/38 36/40/40 200/170/168
f 40/44/44 46/50/50 48/52/52
f 40/44/44 48/52/52 37/41/41
f 41/45/45 43/47/47 63/64/64
f 60/62/62 41/45/45 63/64/64
f 202/171/169 203/172/170 39/43/43
f 202/171/169 119/105/105 203/172/170
f 47/51/51 124/173/171 44/48/48
f 51/54/54 61/63/63 49/55/55
f 51/54/54 59/61/61 61/63/63
f 206/174/172 287/175/173 207/176/174
f 207/176/174 208/177/175 206/174/172
f 136/112/112 287/175/173 206/174/172
f 209/119/118 210/178/176 59/61/61
f 337/179/177 335/180/178 210/178/176
f 164/181/179 163/136/135 64/68/68
f 70/72/72 66/182/180 71/73/73
f 76/79/79 77/163/161 89/91/91
f 87/89/89 81/83/83 214/183/181
f 214/183/181 215/90/90 87/89/89
f 216/184/182 217/185/183 83/85/85
f 83/85/85 84/84/84 216/184/182
f 216/184/182 91/94/94 217/185/183
f 96/99/99 160/133/132 161/132/131
f 98/100/100 80/81/81 79/186/184
f 135/187/115 134/188/114 218/189/185
f 127/108/108 126/110/110 101/190/186
f 106/191/187 97/70/70 68/69/69
f 264/192/188 109/193/189 220/194/190
f 264/192/188 220/194/190 110/195/191
f 221/196/192 222/197/193 111/198/194
f 102/199/195 222/197/193 221/196/192
f 218/189/185 223/200/196 224/201/197
f 106/202/187 225/203/198 226/204/199
f 227/205/200 97/70/70 99/101/101
f 227/205/200 99/101/101 101/190/186
f 106/202/187 107/206/201 100/207/202
f 93/95/95 228/208/203 94/96/96
f 96/99/99 95/98/98 229/209/204
f 230/210/205 11/12/12 12/14/14
f 53/57/57 11/12/12 230/210/205
f 56/59/59 232/211/206 231/212/207
f 231/212/207 55/213/208 56/59/59
f 233/214/209 110/195/191 111/215/194
f 234/216/210 233/217/209 235/218/211
f 234/219/210 236/220/212 233/214/209
f 116/221/213 237/222/214 115/223/215
f 64/68/68 117/224/216 123/225/217
f 120/106/106 150/122/121 152/107/107
f 154/126/125 121/226/218 156/127/126
f 124/173/171 64/68/68 123/225/217
f 128/109/109 54/58/58 126/110/110
f 128/109/109 50/53/53 54/58/58
f 158/130/129 131/111/111 132/113/113
f 132/113/113 159/131/130 158/130/129
f 136/117/112 131/227/111 137/118/117
f 129/228/219 240/229/220 281/230/221
f 243/231/222 120/106/106 119/105/105
f 118/157/156 123/225/217 117/224/216
f 135/115/115 176/146/145 133/116/116
f 135/115/115 116/221/213 176/146/145
f 139/121/120 140/120/119 244/232/223
f 244/232/223 138/233/224 139/121/120
f 141/234/225 142/235/226 107/206/201
f 143/236/227 82/82/82 80/81/81
f 252/237/228 253/238/229 146/239/230
f 254/240/231 86/88/88 148/241/232
f 254/240/231 87/89/89 86/88/88
f 73/242/76 149/124/123 151/123/122
f 151/123/122 75/243/233 73/242/76
f 255/244/234 256/245/235 154/126/125
f 154/126/125 155/128/127 255/244/234
f 163/136/135 164/181/179 90/93/93
f 146/239/230 147/246/236 148/241/232
f 164/181/179 239/247/237 154/126/125
f 155/248/127 156/249/126 258/250/238
f 259/251/239 65/66/66 165/135/134
f 260/252/240 261/253/241 354/254/242
f 179/149/148 260/252/240 262/255/243
f 27/29/29 18/22/22 263/256/244
f 27/29/29 263/256/244 191/162/160
f 237/222/214 264/257/188 248/258/245
f 17/20/20 266/259/246 184/155/154
f 266/259/246 267/260/247 184/155/154
f 4/5/5 230/210/205 167/138/137
f 230/210/205 12/14/14 167/138/137
f 269/261/248 116/221/213 135/115/115
f 43/47/47 182/13/13 63/64/64
f 257/262/249 226/204/199 104/263/250
f 104/263/250 145/264/251 257/262/249
f 271/265/252 67/71/71 227/205/200
f 227/205/200 273/266/253 272/267/254
f 71/73/73 66/182/180 199/268/255
f 274/34/34 35/39/39 71/73/73
f 156/249/126 246/269/256 258/250/238
f 258/250/238 246/269/256 247/270/257
f 247/270/257 153/125/124 258/250/238
f 74/77/77 25/30/30 275/271/258
f 74/77/77 275/271/258 72/75/75
f 239/247/237 164/181/179 124/173/171
f 80/272/81 100/207/202 142/235/226
f 142/235/226 143/273/227 80/272/81
f 142/235/226 100/207/202 107/206/201
f 96/99/99 137/274/117 160/133/132
f 160/133/132 137/274/117 131/275/111
f 131/275/111 158/276/129 160/133/132
f 96/99/99 229/209/204 137/274/117
f 189/160/158 276/277/259 277/278/260
f 120/106/106 254/240/231 150/122/121
f 254/240/231 148/241/232 150/122/121
f 144/279/261 279/280/262 143/273/227
f 143/236/227 279/281/262 82/82/82
f 132/113/113 241/282/263 259/251/239
f 259/251/239 159/131/130 132/113/113
f 259/251/239 241/282/263 65/66/66
f 65/66/66 241/282/263 242/283/264
f 102/199/195 281/230/221 222/197/193
f 282/284/265 283/285/266 339/286/267
f 68/287/69 282/288/265 225/203/198
f 225/203/198 106/202/187 68/287/69
f 79/186/184 125/289/268 251/290/269
f 79/186/184 251/290/269 98/100/100
f 98/100/100 251/290/269 99/101/101
f 104/263/250 161/132/131 162/134/133
f 228/208/203 93/95/95 161/132/131
f 201/291/270 229/209/204 95/98/98
f 201/291/270 95/98/98 69/74/74
f 284/292/271 62/65/65 183/154/153
f 288/293/272 124/173/171 47/51/51
f 171/142/141 170/141/140 240/294/220
f 240/294/220 170/141/140 169/139/138
f 208/177/175 242/283/264 206/174/172
f 289/295/273 119/105/105 202/171/169
f 334/296/274 289/295/273 290/297/275
f 176/146/145 7/9/9 58/60/60
f 58/60/60 133/116/116 176/146/145
f 209/119/118 51/54/54 291/298/276
f 55/213/208 231/212/207 245/299/277
f 292/300/278 122/301/279 204/302/280
f 293/303/281 292/300/278 40/44/44
f 249/304/282 168/140/139 294/305/283
f 85/86/86 160/133/132 295/306/284
f 190/161/159 145/264/251 162/134/133
f 164/181/179 154/126/125 328/307/285
f 164/181/179 328/307/285 90/93/93
f 296/308/286 153/125/124 149/124/123
f 216/184/182 165/135/134 91/94/94
f 216/184/182 84/84/84 157/129/128
f 299/33/33 76/79/79 211/309/287
f 211/309/287 72/75/75 299/33/33
f 256/245/235 329/78/78 78/80/80
f 296/310/286 255/244/234 155/128/127
f 300/311/288 301/312/289 302/313/290
f 243/231/222 139/121/120 138/233/224
f 291/298/276 140/120/119 209/119/118
f 335/180/178 290/297/275 210/178/176
f 335/180/178 334/296/274 290/297/275
f 304/314/291 305/315/292 303/316/293
f 219/317/294 103/318/295 105/319/296
f 225/203/198 103/318/295 104/263/250
f 104/263/250 226/204/199 225/203/198
f 283/285/266 282/284/265 219/317/294
f 306/320/297 307/321/298 308/322/299
f 253/238/229 279/323/262 146/239/230
f 253/238/229 280/324/300 279/323/262
f 310/325/301 309/326/302 311/327/303
f 311/327/303 309/326/302 312/328/304
f 189/160/158 277/278/260 187/329/305
f 187/329/305 22/26/26 189/160/158
f 194/165/163 195/166/164 278/330/306
f 276/277/259 194/165/163 278/330/306
f 199/268/255 31/35/35 274/34/34
f 273/266/253 227/205/200 196/168/166
f 196/168/166 197/167/165 273/266/253
f 179/149/148 14/17/17 346/16/16
f 346/16/16 181/151/150 179/149/148
f 182/13/13 347/153/152 9/10/10
f 112/331/104 234/216/210 235/218/211
f 249/304/282 250/332/307 114/103/103
f 113/102/102 249/304/282 114/103/103
f 115/223/215 237/222/214 248/258/245
f 264/192/188 233/214/209 236/220/212
f 236/220/212 265/333/308 264/192/188
f 321/334/309 322/335/310 323/336/311
f 2/1/1 324/337/312 353/2/2
f 260/252/240 173/143/142 261/253/241
f 173/143/142 260/252/240 174/144/143
f 267/260/247 42/46/46 37/41/41
f 299/33/33 72/75/75 275/271/258
f 22/26/26 190/161/159 189/160/158
f 217/185/183 91/94/94 88/92/92
f 86/88/88 146/239/230 148/241/232
f 138/233/224 87/89/89 254/240/231
f 290/297/275 327/338/313 60/62/62
f 337/179/177 304/314/291 335/180/178
f 306/339/297 338/340/314 339/341/267
f 306/339/297 105/319/296 338/340/314
f 219/317/294 307/342/298 283/285/266
f 214/183/181 309/326/302 215/90/90
f 280/343/300 312/344/304 341/345/315
f 215/90/90 310/325/301 340/87/87
f 314/346/316 195/166/164 193/164/162
f 343/347/317 271/348/252 316/349/318
f 31/35/35 342/350/319 198/351/167
f 108/352/320 317/353/321 223/200/196
f 350/152/151 363/354/322 347/153/152
f 180/150/149 181/151/150 320/355/323
f 166/356/324 352/357/325 8/358/326
f 325/359/327 6/7/7 8/358/326
f 355/137/136 352/357/325 166/356/324
f 368/360/328 354/254/242 261/253/241
f 307/342/298 219/317/294 308/361/299
f 363/354/322 350/152/151 364/362/329
f 364/362/329 266/259/246 365/363/330
f 362/364/331 10/11/11 319/365/332
f 352/357/325 355/137/136 367/366/333
f 369/367/334 172/145/144 326/368/335
f 168/140/139 169/139/138 1/3/3
f 169/139/138 3/4/4 1/3/3
f 177/147/146 57/8/8 6/7/7
f 5/6/6 8/358/326 6/7/7
f 14/17/17 13/15/15 10/11/11
f 16/19/19 15/18/18 186/158/157
f 16/19/19 186/158/157 231/212/207
f 231/212/207 232/211/206 16/19/19
f 22/26/26 23/25/25 190/161/159
f 25/369/30 192/370/336 298/371/337
f 298/371/337 26/372/28 25/369/30
f 299/33/33 30/373/338 28/31/31
f 31/35/35 198/351/167 32/36/36
f 35/39/39 34/38/38 201/291/270
f 38/42/42 37/41/41 42/46/46
f 38/42/42 41/45/45 202/171/169
f 202/171/169 39/43/43 38/42/42
f 284/292/271 53/57/57 49/55/55
f 56/59/59 55/213/208 208/177/175
f 208/177/175 207/176/174 56/59/59
f 207/374/174 58/60/60 56/59/59
f 60/62/62 59/61/61 290/297/275
f 67/375/71 66/182/180 68/376/69
f 271/265/252 66/377/180 67/71/71
f 70/72/72 69/74/74 94/96/96
f 73/242/76 75/243/233 213/378/339
f 213/378/339 74/379/77 73/242/76
f 81/83/83 79/186/184 80/81/81
f 94/96/96 228/208/203 103/318/295
f 111/198/194 110/380/191 221/196/192
f 338/340/314 105/319/296 103/318/295
f 196/168/166 227/205/200 101/190/186
f 228/208/203 104/263/250 103/318/295
f 229/209/204 34/38/38 218/189/185
f 16/19/19 232/211/206 285/381/340
f 285/381/340 172/145/144 16/19/19
f 113/382/102 112/331/104 281/230/221
f 281/230/221 240/229/220 113/382/102
f 248/258/245 249/304/282 115/223/215
f 130/67/67 245/299/277 117/224/216
f 119/105/105 152/107/107 247/270/257
f 122/383/279 121/226/218 239/247/237
f 171/142/141 129/384/219 126/385/110
f 287/386/173 136/117/112 133/116/116
f 122/383/279 239/247/237 288/293/272
f 242/283/264 55/213/208 130/67/67
f 123/225/217 118/157/156 44/48/48
f 125/289/268 140/120/119 291/298/276
f 291/298/276 205/387/341 125/289/268
f 245/299/277 186/158/157 117/224/216
f 119/105/105 247/270/257 293/303/281
f 115/223/215 249/304/282 294/305/283
f 294/305/283 5/6/6 115/223/215
f 146/239/230 144/388/261 147/246/236
f 158/276/129 157/389/128 295/306/284
f 160/133/132 85/86/86 162/134/133
f 21/24/24 20/23/23 143/273/227
f 141/234/225 257/262/249 19/21/21
f 144/388/261 192/370/336 147/246/236
f 14/17/17 262/255/243 13/15/15
f 169/139/138 113/102/102 240/294/220
f 3/4/4 52/56/56 53/57/57
f 53/57/57 4/5/5 3/4/4
f 49/55/55 52/56/56 171/142/141
f 171/142/141 54/390/58 49/55/55
f 285/381/340 286/391/342 172/145/144
f 16/19/19 172/145/144 174/144/143
f 115/223/215 5/6/6 176/146/145
f 56/59/59 57/8/8 178/148/147
f 58/60/60 7/9/9 57/8/8
f 179/149/148 174/144/143 260/252/240
f 42/46/46 267/260/247 350/152/151
f 182/13/13 62/65/65 63/64/64
f 62/65/65 61/63/63 60/62/62
f 184/155/154 48/52/52 45/49/49
f 15/18/18 45/49/49 44/48/48
f 117/224/216 186/158/157 118/157/156
f 245/299/277 231/212/207 186/158/157
f 22/26/26 263/256/244 24/27/27
f 141/234/225 19/21/21 21/24/24
f 21/24/24 142/235/226 141/234/225
f 20/23/23 144/279/261 143/273/227
f 187/329/305 188/392/343 263/256/244
f 145/264/251 190/161/159 23/25/25
f 190/161/159 85/86/86 83/85/85
f 191/162/160 30/373/338 299/33/33
f 299/33/33 275/271/258 191/162/160
f 144/388/261 298/371/337 192/370/336
f 76/79/79 299/33/33 29/32/32
f 88/92/92 77/163/161 193/164/162
f 196/168/166 101/190/186 102/199/195
f 102/199/195 221/196/192 196/168/166
f 199/393/255 66/377/180 271/265/252
f 218/189/185 34/38/38 200/170/168
f 229/209/204 201/291/270 34/38/38
f 201/291/270 69/74/74 71/73/73
f 41/45/45 60/62/62 327/338/313
f 123/225/217 44/48/48 124/173/171
f 204/394/280 122/383/279 288/293/272
f 62/65/65 284/292/271 61/63/63
f 242/283/264 208/177/175 55/213/208
f 206/174/172 132/113/113 136/112/112
f 210/178/176 209/119/118 337/179/177
f 66/182/180 70/72/72 282/284/265
f 98/100/100 97/70/70 100/395/202
f 69/74/74 92/97/97 94/96/96
f 92/97/97 95/98/98 93/95/95
f 148/241/232 213/378/339 75/243/233
f 90/93/93 328/307/285 89/91/91
f 129/228/219 102/199/195 126/110/110
f 219/317/294 70/72/72 94/96/96
f 108/352/320 220/194/190 109/193/189
f 223/200/196 218/189/185 200/170/168
f 226/204/199 107/206/201 106/202/187
f 11/12/12 53/57/57 284/292/271
f 232/211/206 56/59/59 178/148/147
f 178/148/147 285/381/340 232/211/206
f 111/198/194 235/218/211 233/217/209
f 117/224/216 64/68/68 130/67/67
f 153/125/124 247/270/257 152/107/107
f 121/226/218 154/126/125 239/247/237
f 81/83/83 244/232/223 79/186/184
f 207/374/174 287/386/173 58/60/60
f 240/294/220 129/384/219 171/142/141
f 241/282/263 132/113/113 206/174/172
f 119/105/105 289/295/273 243/231/222
f 115/223/215 176/146/145 116/221/213
f 245/299/277 130/67/67 55/213/208
f 246/269/256 121/396/218 122/301/279
f 122/301/279 292/300/278 246/269/256
f 251/290/269 125/289/268 205/387/341
f 205/387/341 128/109/109 251/290/269
f 146/239/230 86/88/88 252/237/228
f 256/245/235 78/80/80 328/307/285
f 157/389/128 84/84/84 85/86/86
f 85/86/86 295/306/284 157/389/128
f 160/133/132 158/276/129 295/306/284
f 145/264/251 23/25/25 257/262/249
f 150/122/121 148/241/232 75/243/233
f 153/125/124 296/308/286 258/250/238
f 20/23/23 298/397/337 144/279/261
f 165/135/134 216/184/182 259/251/239
f 13/15/15 262/255/243 324/337/312
f 324/337/312 2/1/1 13/15/15
f 187/329/305 263/256/244 22/26/26
f 24/27/27 263/256/244 18/22/22
f 249/304/282 248/258/245 250/332/307
f 350/152/151 267/260/247 348/398/344
f 17/20/20 268/399/345 266/259/246
f 48/52/52 184/155/154 267/260/247
f 267/260/247 37/41/41 48/52/52
f 196/168/166 221/196/192 198/169/167
f 221/400/192 110/195/191 32/36/36
f 230/210/205 4/5/5 53/57/57
f 269/401/248 135/187/115 218/189/185
f 218/189/185 270/402/346 269/401/248
f 237/222/214 116/221/213 238/403/347
f 107/206/201 226/204/199 257/262/249
f 257/262/249 141/234/225 107/206/201
f 97/70/70 227/205/200 67/71/71
f 201/291/270 71/73/73 35/39/39
f 199/268/255 274/34/34 71/73/73
f 246/269/256 156/249/126 121/396/218
f 191/162/160 275/271/258 25/30/30
f 64/68/68 124/173/171 164/181/179
f 80/81/81 98/100/100 100/395/202
f 79/186/184 244/232/223 140/120/119
f 140/120/119 125/289/268 79/186/184
f 81/83/83 138/233/224 244/232/223
f 134/188/114 137/274/117 229/209/204
f 229/209/204 218/189/185 134/188/114
f 276/277/259 189/160/158 83/85/85
f 83/85/85 217/185/183 276/277/259
f 120/106/106 243/231/222 254/240/231
f 81/83/83 82/82/82 214/183/181
f 88/92/92 89/91/91 77/163/161
f 65/66/66 64/68/68 163/136/135
f 242/283/264 130/67/67 65/66/66
f 33/37/37 32/36/36 110/195/191
f 110/195/191 220/194/190 33/37/37
f 36/40/40 33/37/37 220/194/190
f 220/194/190 108/352/320 36/40/40
f 281/230/221 235/218/211 111/198/194
f 111/198/194 222/197/193 281/230/221
f 281/230/221 102/199/195 129/228/219
f 102/199/195 101/190/186 126/110/110
f 200/170/168 36/40/40 108/352/320
f 66/182/180 282/284/265 68/376/69
f 339/341/267 338/340/314 225/203/198
f 251/290/269 127/108/108 101/190/186
f 101/190/186 99/101/101 251/290/269
f 100/207/202 97/404/70 106/202/187
f 162/134/133 145/264/251 104/263/250
f 161/132/131 104/263/250 228/208/203
f 96/99/99 161/132/131 93/95/95
f 92/97/97 69/74/74 95/98/98
f 183/154/153 11/12/12 284/292/271
f 284/292/271 49/55/55 61/63/63
f 286/391/342 285/381/340 178/148/147
f 286/391/342 175/405/348 172/145/144
f 287/386/173 133/116/116 58/60/60
f 288/293/272 239/247/237 124/173/171
f 204/394/280 288/293/272 47/51/51
f 47/51/51 46/50/50 204/394/280
f 171/142/141 126/385/110 54/390/58
f 241/282/263 206/174/172 242/283/264
f 202/171/169 327/338/313 289/295/273
f 243/231/222 289/295/273 333/406/349
f 333/406/349 331/407/350 243/231/222
f 290/297/275 59/61/61 210/178/176
f 327/338/313 290/297/275 289/295/273
f 41/45/45 327/338/313 202/171/169
f 186/158/157 44/48/48 185/156/155
f 118/157/156 185/156/155 44/48/48
f 15/18/18 44/48/48 186/158/157
f 51/54/54 209/119/118 59/61/61
f 205/387/341 291/298/276 51/54/54
f 51/54/54 50/53/53 205/387/341
f 292/300/278 204/302/280 46/50/50
f 46/50/50 40/44/44 292/300/278
f 246/269/256 292/300/278 293/303/281
f 293/303/281 247/270/257 246/269/256
f 203/172/170 293/303/281 40/44/44
f 40/44/44 39/43/43 203/172/170
f 355/137/136 166/356/324 168/140/139
f 168/140/139 1/3/3 355/137/136
f 166/356/324 294/305/283 168/140/139
f 128/109/109 205/387/341 50/53/53
f 128/109/109 127/108/108 251/290/269
f 21/24/24 143/273/227 142/235/226
f 147/246/236 192/370/336 213/378/339
f 213/378/339 148/241/232 147/246/236
f 74/379/77 213/378/339 192/370/336
f 192/370/336 25/369/30 74/379/77
f 85/86/86 190/161/159 162/134/133
f 257/262/249 23/25/25 19/21/21
f 256/245/235 328/307/285 154/126/125
f 89/91/91 328/307/285 78/80/80
f 78/80/80 76/79/79 89/91/91
f 150/122/121 75/243/233 151/123/122
f 149/124/123 297/408/351 296/308/286
f 258/250/238 296/308/286 155/248/127
f 211/409/287 212/410/352 73/242/76
f 73/242/76 72/411/75 211/409/287
f 26/159/28 298/397/337 20/23/23
f 20/23/23 18/22/22 26/159/28
f 90/93/93 91/94/94 165/135/134
f 165/135/134 163/136/135 90/93/93
f 259/251/239 216/184/182 157/129/128
f 157/129/128 159/131/130 259/251/239
f 212/410/352 297/408/351 149/124/123
f 149/124/123 73/242/76 212/410/352
f 139/121/120 243/231/222 331/407/350
f 334/296/274 333/406/349 289/295/273
f 330/412/353 139/121/120 331/407/350
f 209/119/118 332/413/354 337/179/177
f 219/317/294 94/96/96 103/318/295
f 103/318/295 225/203/198 338/340/314
f 340/87/87 252/237/228 86/88/88
f 82/82/82 341/345/315 214/183/181
f 77/163/161 29/32/32 193/164/162
f 194/165/163 276/277/259 217/185/183
f 217/185/183 88/92/92 194/165/163
f 31/35/35 199/268/255 343/347/317
f 223/200/196 200/170/168 108/352/320
f 109/193/189 264/192/188 238/414/347
f 116/221/213 269/261/248 345/415/355
f 224/201/197 270/402/346 218/189/185
f 116/221/213 345/415/355 238/403/347
f 179/149/148 262/255/243 14/17/17
f 267/260/247 266/259/246 349/416/356
f 349/416/356 348/398/344 267/260/247
f 180/150/149 268/399/345 17/20/20
f 113/102/102 168/140/139 249/304/282
f 264/192/188 110/195/191 233/214/209
f 248/258/245 351/417/357 250/332/307
f 286/391/342 177/147/146 175/405/348
f 5/6/6 294/305/283 8/358/326
f 324/337/312 262/255/243 260/252/240
f 354/254/242 353/2/2 324/337/312
f 16/19/19 174/144/143 180/150/149
f 180/150/149 17/20/20 16/19/19
f 30/373/338 191/162/160 263/256/244
f 263/256/244 188/392/343 30/373/338
f 238/414/347 264/192/188 237/418/214
f 198/351/167 221/400/192 32/36/36
f 81/83/83 87/89/89 138/233/224
f 138/233/224 254/240/231 243/231/222
f 279/323/262 144/388/261 146/239/230
f 29/32/32 28/31/31 193/164/162
f 281/230/221 112/331/104 235/218/211
f 70/72/72 219/317/294 282/284/265
f 177/147/146 286/391/342 178/148/147
f 177/147/146 6/7/7 175/405/348
f 293/303/281 203/172/170 119/105/105
f 8/358/326 294/305/283 166/356/324
f 300/311/288 256/245/235 301/419/289
f 356/420/358 255/244/234 296/310/286
f 305/315/292 330/412/353 331/407/350
f 331/407/350 303/316/293 305/315/292
f 303/316/293 333/406/349 334/296/274
f 334/296/274 357/421/359 303/316/293
f 357/421/359 334/296/274 335/180/178
f 139/121/120 336/422/360 332/413/354
f 332/413/354 209/119/118 139/121/120
f 139/121/120 330/412/353 336/422/360
f 308/361/299 105/319/296 306/339/297
f 339/341/267 225/203/198 282/288/265
f 310/325/301 215/90/90 309/326/302
f 311/327/303 252/237/228 340/87/87
f 340/87/87 310/325/301 311/327/303
f 279/281/262 280/343/300 341/345/315
f 341/345/315 82/82/82 279/281/262
f 314/346/316 193/164/162 28/31/31
f 28/31/31 313/423/361 314/346/316
f 313/423/361 30/373/338 188/392/343
f 188/392/343 358/424/362 313/423/361
f 277/278/260 359/425/363 358/424/362
f 359/425/363 278/330/306 195/166/164
f 195/166/164 314/346/316 359/425/363
f 315/426/364 198/351/167 342/350/319
f 316/427/318 272/267/254 344/428/365
f 315/429/364 273/266/253 197/167/165
f 199/268/255 271/348/252 343/347/317
f 272/267/254 271/265/252 227/205/200
f 360/430/366 109/193/189 238/414/347
f 224/201/197 318/431/367 361/432/368
f 269/261/248 270/433/346 345/415/355
f 319/365/332 347/153/152 363/354/322
f 364/362/329 348/398/344 349/416/356
f 180/150/149 320/355/323 365/363/330
f 366/434/369 114/103/103 250/332/307
f 264/257/188 265/435/308 351/417/357
f 351/417/357 248/258/245 264/257/188
f 326/368/335 175/405/348 6/7/7
f 6/7/7 325/359/327 326/368/335
f 367/366/333 353/2/2 354/254/242
f 354/254/242 368/360/328 367/366/333
f 369/367/334 261/253/241 173/143/142
f 354/254/242 324/337/312 260/252/240
f 356/436/358 302/313/290 301/312/289
f 212/410/352 211/409/287 302/437/290
f 300/311/288 302/313/290 211/309/287
f 211/309/287 76/79/79 300/311/288
f 296/308/286 297/408/351 356/438/358
f 302/437/290 356/438/358 297/408/351
f 297/408/351 212/410/352 302/437/290
f 301/419/289 256/245/235 255/244/234
f 356/420/358 301/419/289 255/244/234
f 329/78/78 300/311/288 76/79/79
f 329/78/78 256/245/235 300/311/288
f 304/314/291 303/316/293 357/421/359
f 357/421/359 335/180/178 304/314/291
f 305/315/292 304/314/291 337/179/177
f 337/179/177 332/413/354 305/315/292
f 330/412/353 305/315/292 336/422/360
f 336/422/360 305/315/292 332/413/354
f 303/316/293 331/407/350 333/406/349
f 307/321/298 306/339/297 339/341/267
f 219/317/294 105/319/296 308/361/299
f 283/285/266 307/342/298 339/286/267
f 253/238/229 252/237/228 311/327/303
f 311/327/303 312/328/304 280/324/300
f 280/324/300 253/238/229 311/327/303
f 312/344/304 309/326/302 214/183/181
f 214/183/181 341/345/315 312/344/304
f 313/423/361 358/424/362 314/346/316
f 358/424/362 359/425/363 314/346/316
f 359/425/363 276/277/259 278/330/306
f 277/278/260 276/277/259 359/425/363
f 30/373/338 313/423/361 28/31/31
f 188/392/343 187/329/305 358/424/362
f 187/329/305 277/278/260 358/424/362
f 316/349/318 315/426/364 342/350/319
f 344/439/365 315/426/364 316/349/318
f 344/428/365 272/267/254 273/266/253
f 315/429/364 344/428/365 273/266/253
f 271/265/252 272/267/254 316/427/318
f 316/349/318 342/350/319 31/35/35
f 31/35/35 343/347/317 316/349/318
f 197/440/165 198/351/167 315/426/364
f 317/441/321 360/442/366 318/443/367
f 360/442/366 361/444/368 318/443/367
f 361/444/368 360/442/366 238/403/347
f 238/403/347 345/415/355 361/444/368
f 224/201/197 223/200/196 318/431/367
f 318/431/367 223/200/196 317/353/321
f 345/415/355 270/433/346 361/444/368
f 270/402/346 224/201/197 361/432/368
f 317/353/321 108/352/320 109/193/189
f 360/430/366 317/353/321 109/193/189
f 362/364/331 319/365/332 320/355/323
f 363/354/322 364/362/329 319/365/332
f 364/362/329 320/355/323 319/365/332
f 365/363/330 320/355/323 364/362/329
f 362/364/331 320/355/323 181/151/150
f 181/151/150 346/16/16 362/364/331
f 348/398/344 364/362/329 350/152/151
f 268/399/345 365/363/330 266/259/246
f 266/259/246 364/362/329 349/416/356
f 268/399/345 180/150/149 365/363/330
f 9/10/10 319/365/332 10/11/11
f 10/11/11 362/364/331 346/16/16
f 9/10/10 347/153/152 319/365/332
f 321/334/309 366/445/369 322/335/310
f 322/446/310 366/434/369 250/332/307
f 250/332/307 351/417/357 322/446/310
f 236/220/212 234/219/210 323/336/311
f 321/447/309 323/448/311 234/216/210
f 234/216/210 112/331/104 321/447/309
f 321/449/309 112/104/104 114/103/103
f 366/434/369 321/449/309 114/103/103
f 351/417/357 265/435/308 322/446/310
f 323/336/311 322/335/310 265/333/308
f 265/333/308 236/220/212 323/336/311
f 325/359/327 367/366/333 326/368/335
f 352/357/325 367/366/333 325/359/327
f 367/366/333 368/360/328 326/368/335
f 369/367/334 326/368/335 368/360/328
f 353/2/2 367/366/333 355/137/136
f 325/359/327 8/358/326 352/357/325
f 175/405/348 326/368/335 172/145/144
f 172/145/144 369/367/334 173/143/142
f 369/367/334 368/360/328 261/253/241
