# Blender v2.82 (sub 7) OBJ File: ''
# www.blender.org
o asteroid1.001
v 0.850402 -0.170977 0.128383
v 0.762334 -0.344766 0.081275
v 0.684578 -0.398389 0.240243
v 0.712081 0.433129 0.180111
v 1.263406 -0.239319 -0.659152
v 1.118122 -0.408559 -0.610405
v 1.243385 -0.270810 -0.787471
v 1.053127 -0.452459 -0.752316
v 1.129919 -0.366098 -0.535089
v 1.280761 0.358861 -0.812052
v 1.296842 0.336120 -0.719030
v 1.227118 0.392964 -0.572427
v -1.563936 -0.479443 1.009594
v -1.370363 -0.667382 0.922073
v -1.314562 -0.654642 1.026009
v -1.657582 0.331557 0.843310
v -1.515345 0.535996 0.765005
v -1.520184 0.241162 1.094805
v -1.517017 -0.261706 -0.344318
v -1.290893 -0.281227 -0.660026
v -1.348258 0.378853 -0.638945
v -1.219138 0.666263 -0.640632
v -1.440574 0.680606 -0.310132
v 0.174495 -0.606880 1.155205
v 0.212548 -0.349844 1.338771
v 0.320108 -0.286347 1.315746
v 0.414941 -0.275623 1.237886
v 0.178365 0.402233 1.191211
v 0.207632 0.254705 1.318808
v 0.345053 0.396708 1.091228
v 0.386540 -0.234198 -1.459397
v 0.671149 -0.432837 -1.186335
v 0.710969 -0.274600 -1.359397
v 0.397622 0.603410 -1.334336
v 0.408173 0.449528 -1.446043
v 0.632351 0.422183 -1.416839
v 0.197290 -1.152970 0.476960
v 0.176121 -1.125208 0.595946
v 0.283416 -1.065485 0.432586
v 0.274285 -0.991067 0.600649
v 0.384885 0.990491 0.217762
v 0.360802 0.866725 0.394935
v 0.294123 -0.966324 -0.313219
v 0.355674 -0.957313 -0.299896
v 0.279229 1.303382 -0.641953
v 0.517134 1.167753 -0.680082
v -0.312502 -0.522964 1.269379
v -0.638806 0.428733 1.185262
v -0.316861 0.365106 1.260785
v -0.658068 0.250908 1.356661
v -0.464148 -0.303991 -1.330057
v -0.463774 -0.350639 -1.290699
v -0.530397 -0.305735 -1.296475
v -0.502078 0.419317 -1.375762
v -0.403772 0.445827 -1.402629
v -0.435155 0.603527 -1.310592
v -0.616530 0.583469 -1.227982
v -0.339361 -1.142758 0.595083
v -0.495060 -1.104372 0.558367
v -0.492902 -1.091761 0.629853
v -0.415939 0.915411 0.512252
v -0.431660 -0.999392 -0.142971
v -0.408502 -0.822525 -0.588821
v -0.228808 -1.060515 -0.144011
v -0.388503 1.237163 -0.709750
v -0.406600 1.355171 -0.498776
v -0.622289 1.285612 -0.510230
v -0.505263 1.350000 -0.093792
v -0.304351 1.381528 -0.210334
v -0.806965 1.146675 0.196952
v -0.669878 1.300421 -0.193078
v -0.902035 1.132468 0.094743
v -0.338638 1.292927 0.052330
v -0.378977 -1.041679 -0.053732
v -0.256503 -1.086832 0.047246
v -0.576532 -1.047648 0.407102
v -0.508115 1.060322 -0.850124
v -0.631204 0.841034 -0.985298
v -0.621410 1.162333 -0.732459
v -0.165248 0.939862 -1.024014
v -0.230086 -0.740840 -0.754411
v -0.228926 -0.891402 -0.533110
v -0.683573 -0.540769 -0.858879
v -0.508424 0.290464 -1.384974
v -0.757560 -0.028459 -1.187791
v -0.618636 0.402824 -1.330015
v -0.241260 -0.023784 -1.435362
v -0.321284 0.950131 0.468128
v -0.360056 -1.024286 0.754200
v -0.141017 -0.934423 0.869569
v -0.366863 0.121824 1.415097
v -0.527564 -0.149193 1.448946
v -0.803842 0.003573 1.404902
v -0.270620 1.311267 -0.643039
v 0.007741 1.322636 -0.602422
v 0.041614 1.190347 -0.776026
v 0.096034 1.340238 -0.439176
v -0.148771 1.370386 -0.472373
v -0.146728 -1.026910 -0.257464
v -0.082159 -0.942247 -0.421896
v -0.096926 -1.052313 -0.126257
v -0.204463 1.178744 0.215285
v -0.016891 1.041008 0.396758
v -0.117111 1.215467 0.148684
v 0.435436 1.221674 -0.263142
v 0.580142 1.134026 -0.360936
v 0.265435 1.257060 -0.169518
v -0.111134 -1.162187 0.556479
v -0.090901 -1.077340 0.700698
v -0.166535 -1.163927 0.360220
v 0.296467 -1.046388 0.054175
v 0.173875 -1.052614 -0.077565
v 0.387685 -0.958269 0.107475
v -0.289349 0.539022 -1.381490
v -0.008169 0.511644 -1.389989
v -0.057867 0.358317 -1.437552
v -0.362446 0.485531 -1.417390
v 0.230184 0.595580 -1.339808
v 0.375895 1.144910 -0.828466
v 0.468145 0.889088 -1.025231
v 0.254888 1.052265 -0.913521
v 0.648589 0.890502 -0.912253
v 0.308467 0.687762 -1.255220
v -0.393660 -0.323271 -1.337352
v 0.336662 -0.311964 -1.404069
v -0.180630 -0.481994 -1.164740
v 0.034786 -0.171484 -1.439327
v 0.334131 -0.911545 -0.424317
v 0.352360 -0.702080 -0.803311
v 0.796656 -0.534102 -0.882017
v 0.607481 0.105049 -1.507097
v 0.394359 0.097333 -1.515536
v 0.436352 0.408632 -1.487931
v 0.756922 0.128463 -1.442468
v -0.014731 0.329468 1.274189
v -0.036835 0.491798 1.093754
v 0.016066 0.217632 1.342648
v -0.276414 0.249066 1.350555
v 0.249367 0.850257 0.565112
v 0.282523 0.677892 0.744356
v 0.375050 0.762358 0.486001
v 0.080987 0.691716 0.822749
v -0.153702 -0.477552 1.292139
v -0.107451 -0.318202 1.362061
v -0.262596 -0.379065 1.363717
v 0.176711 -1.032842 0.722969
v 0.228140 -0.852972 0.842924
v 0.089917 -0.852494 0.924824
v 0.415295 -0.563300 0.951238
v 0.368184 -0.048155 1.335166
v 0.503663 -0.011321 1.190680
v 0.211367 -0.264226 1.369933
v 0.240825 0.067642 1.369892
v -0.073149 -0.128114 1.398943
v -0.684595 1.265636 -0.544641
v -1.031241 1.024994 -0.515461
v -1.059059 1.058682 -0.316805
v -0.880501 0.938342 -0.753642
v -0.704359 0.442841 -1.231792
v -0.951575 0.428243 -0.989261
v -0.812689 0.676354 -0.979479
v -0.697555 0.608652 -1.138011
v -0.577370 -0.778763 -0.534343
v -0.894207 -0.626133 -0.477839
v -0.648564 -0.860200 -0.221366
v -0.611074 -0.323975 -1.227163
v -1.112873 -0.309530 -0.801436
v -1.130071 -0.214109 -0.831195
v -1.005966 -0.429370 -0.746990
v -1.510449 0.316469 -0.487711
v -1.486203 0.014781 -0.486854
v -1.575079 0.001838 -0.241820
v -1.581594 0.342655 -0.362117
v -1.651458 0.237975 -0.031029
v -1.343881 0.058775 -0.658996
v -1.088646 0.764772 0.755654
v -0.898313 0.672178 0.905103
v -1.254024 0.851785 0.399398
v -0.751368 0.321648 1.300194
v -1.033199 0.326080 1.253004
v -0.964144 0.186801 1.334950
v -1.074840 0.538475 1.047889
v -1.582705 0.580130 -0.189262
v -1.648055 0.549806 0.245475
v -1.500994 0.721358 0.023833
v -1.709375 0.366487 0.513230
v -1.700439 0.051130 0.339760
v -1.523758 0.663159 0.376956
v -1.301907 0.887019 0.035794
v -0.873507 -0.913383 0.729157
v -0.961878 -0.868766 0.547420
v -0.651539 -0.937286 0.819775
v -0.752100 -0.514428 1.310134
v -1.015517 -0.527918 1.269422
v -0.719486 -0.626852 1.215902
v -1.174715 -0.424153 1.275478
v -0.926137 -0.719514 1.086550
v -1.510001 -0.416901 -0.047852
v -1.612198 -0.289008 0.176156
v -1.555771 -0.327530 -0.225249
v -1.302869 -0.537986 -0.137044
v -1.656476 -0.069128 1.037523
v -1.484130 -0.075623 1.187063
v -1.700407 -0.115176 0.775790
v -1.710762 0.090797 0.870109
v 0.668618 1.066667 -0.629178
v 0.853825 0.856118 -0.640368
v 0.781551 0.879366 -0.768187
v 0.627964 1.045356 -0.753594
v 1.053112 0.641652 -0.821337
v 0.884750 0.776304 -0.504574
v 0.698034 0.469254 -1.383772
v 1.033611 0.510851 -1.080771
v 1.026619 0.353015 -1.184481
v 0.941610 0.663895 -0.970787
v 0.804609 0.656009 -1.119759
v 0.695136 -0.717754 -0.451367
v 0.602259 -0.800236 -0.260476
v 0.837388 -0.591602 -0.395270
v 0.583284 -0.719612 -0.624775
v 0.960691 -0.315375 -1.160181
v 0.868409 -0.422388 -1.067908
v 1.163852 -0.220211 -1.020144
v 1.008260 -0.161106 -1.210583
v 1.337405 0.145153 -0.765398
v 1.279562 0.257054 -0.909054
v 1.189252 0.116467 -0.420920
v 1.271085 0.044790 -0.945290
v 0.576519 0.665481 0.184211
v 0.448376 0.944588 0.138558
v 0.473407 0.651500 0.455168
v 0.640063 0.334282 0.783202
v 0.502495 0.468582 0.805010
v 0.657060 0.252547 0.837028
v 0.582546 0.511845 0.536649
v 1.089998 0.354551 -0.350786
v 0.991619 0.258657 -0.114668
v 0.796371 0.609128 -0.141165
v 0.851008 0.694647 -0.323285
v 0.407088 -0.767978 0.559163
v 0.508512 -0.683759 0.356765
v 0.638079 -0.643614 0.057104
v 0.430062 -0.879677 0.229865
v 0.491744 -0.330487 1.089335
v 0.661436 -0.319355 0.784520
v 0.605746 -0.191312 0.995542
v 0.574612 -0.513729 0.645053
v 0.510665 -0.534937 0.807902
v 1.194624 -0.252809 -0.519421
v 0.920248 -0.351926 -0.192226
v 0.886721 -0.482565 -0.279993
v 1.023502 -0.123434 -0.168491
v 1.167862 -0.076530 -0.407466
v 0.904504 0.179166 0.160962
v 0.946331 0.032302 0.181033
v 1.040925 0.137458 -0.121338
v 1.048615 -0.003716 -0.128202
v 0.792224 -0.099449 0.607063
v 0.823916 0.105160 0.529842
v 0.885417 -0.135785 0.167417
v 0.953374 -0.140241 -0.065773
v 0.928876 -0.149648 0.020592
v 0.855473 -0.304683 -0.074043
v 0.812316 -0.167498 0.435841
v 0.774920 -0.261373 0.413054
v 0.661711 -0.492391 0.139592
v 0.632835 -0.447189 0.475174
v 0.663091 -0.456911 0.270986
v 0.749785 0.283861 0.539488
v 0.782837 0.420976 0.031082
v 1.303374 -0.145308 -0.839807
v 1.316809 -0.141962 -0.739518
v 1.126694 -0.360668 -0.880679
v 1.211215 0.404897 -0.926904
v 1.119655 0.597229 -0.699836
v -1.607679 -0.457568 1.027151
v -1.539404 -0.468893 1.112778
v -1.568076 -0.569264 0.740006
v -1.637442 -0.488151 0.811590
v -1.407351 -0.553630 1.139237
v -1.288117 -0.671920 1.061061
v -1.273112 -0.740444 0.813898
v -1.351064 -0.715284 0.862806
v -1.649149 0.449288 0.744063
v -1.553554 0.556246 0.717137
v -1.411331 0.349967 1.112083
v -1.495642 0.239963 1.141880
v -1.379306 0.549764 0.919654
v -1.487180 -0.198430 -0.509654
v -1.548458 -0.230183 -0.371672
v -1.243145 -0.309034 -0.726505
v -1.115712 -0.534816 -0.456701
v -1.148601 -0.492126 -0.551104
v -1.201336 0.420652 -0.777899
v -1.110617 0.691623 -0.738596
v -1.199359 0.582745 -0.736457
v -1.301072 0.764108 -0.495897
v -1.329578 0.825803 -0.335778
v -1.443222 0.746680 -0.292019
v 0.105676 -0.405795 1.334741
v 0.206119 0.487299 1.070665
v 0.388537 0.441595 0.999860
v 0.292563 0.451747 1.097336
v 0.077830 0.421635 1.189467
v 0.133994 0.364895 1.273063
v 0.423799 -0.143012 -1.495761
v 0.664832 -0.130075 -1.460707
v 0.348929 -0.423129 -1.273527
v 0.435023 0.696618 -1.239748
v 0.440803 0.652505 -1.306532
v 0.270606 0.465536 -1.441333
v 0.346119 0.494622 -1.444728
v 0.206192 -1.152923 0.361381
v 0.098071 -1.120981 0.660257
v 0.097299 -1.173171 0.559715
v 0.384490 1.085454 0.083349
v 0.384323 1.055701 0.182770
v 0.265827 1.053693 0.313515
v 0.257361 1.256149 -0.723184
v -0.359614 -0.252260 1.424587
v -0.326841 -0.667775 1.140228
v -0.470668 -0.258596 -1.348865
v -0.502930 -0.289216 -1.340519
v -0.522697 -0.407792 -1.186475
v -0.407474 -0.403008 -1.238787
v -0.459470 -0.372801 -1.291680
v -0.536492 0.704959 -1.176771
v -0.552176 0.646887 -1.249058
v -0.339836 -1.158452 0.498808
v -0.383971 1.390396 -0.478182
v -0.553566 1.354528 -0.448153
v -0.486038 0.386682 -1.412515
v -0.649139 0.158512 1.400876
v 0.515474 1.214170 -0.392588
v 0.528286 1.205877 -0.509957
v -0.442943 -0.325606 -1.344588
v 0.599490 0.389669 -1.468353
v 0.296239 0.892391 0.502452
v 0.372310 0.837693 0.446830
v 0.395671 0.234922 1.242576
v 0.305822 0.218427 1.322017
v -0.674006 0.485505 -1.263487
v -0.559409 -0.350310 -1.267576
v -0.536474 1.147181 0.259104
v -1.530355 0.660053 -0.214330
v -1.481668 -0.433954 -0.188757
v -1.578020 0.204916 1.099949
v -1.644007 0.212088 1.026277
v 0.421321 0.958156 0.222821
v 0.416168 0.292756 1.168375
v -1.678139 -0.256306 0.603427
v -1.725456 0.212204 0.693418
v 0.671116 0.032330 0.897671
v 0.535438 0.133610 1.103471
v 1.072152 0.074096 -1.195303
v 0.906371 0.233552 -1.322507
v 0.825248 -0.178739 -1.359211
v 1.185643 -0.061887 -1.054179
v -1.346805 0.061231 1.243056
v -1.137742 -0.168984 1.324473
v -0.682968 -0.312420 1.414411
v -1.385531 -0.354752 1.218320
v -0.027857 -0.012400 1.395151
v 0.249376 0.255884 -1.493344
v -0.392568 0.294199 -1.418260
v 0.031944 0.020637 -1.473300
v -1.012130 0.067779 -0.972218
v -1.259206 0.265918 -0.743715
v -0.373109 0.685170 -1.253214
v -0.002766 -1.122127 0.142592
v -1.381090 0.824710 -0.153126
v -0.931417 1.154014 -0.124910
v -1.036666 -0.783192 0.272076
v 0.037471 1.264548 -0.021255
v -0.235810 1.386752 -0.351312
v 0.153673 1.309842 -0.275248
v 1.292112 0.281571 -0.634293
v 1.292753 -0.141799 -0.634664
v -1.564913 -0.272169 -0.284637
v -1.620130 0.388775 -0.266744
v -1.625088 0.454673 -0.211262
v -1.701449 0.326751 0.823686
v -1.687888 0.249866 0.931203
v 0.842798 -0.172134 0.327834
v 0.677577 0.416868 -1.426528
v 1.245795 -0.201891 -0.913773
v 0.313044 -0.595069 1.047173
v 0.738723 -0.422951 0.088015
v 0.661379 0.636769 -1.233761
v 0.669403 1.077570 -0.504177
v 1.115451 0.557360 -0.562428
v -0.746749 -0.392546 1.382217
v -1.487854 -0.487683 1.137323
v 0.072825 -0.564704 1.225243
v 0.221454 0.233184 1.352654
v -0.399104 0.419727 -1.428515
v -1.346423 -0.220896 -0.681321
v -1.316944 0.370353 -0.709621
v -1.418405 0.318969 -0.611754
v -0.371147 1.238267 -0.733358
v -0.408908 0.630307 -1.320891
v -0.366835 0.572263 -1.370995
v 0.344472 0.609605 -1.356963
v -1.296387 -0.706457 0.977231
v 0.112025 -1.187383 0.454496
v 0.169403 0.437569 1.181209
v 0.253147 0.953865 0.460664
v -0.643928 1.311726 -0.476899
v -0.755532 1.097329 0.322191
v -1.467512 0.577065 0.789428
v -1.125772 -0.439736 -0.675815
v -0.533911 -0.375358 -1.254492
v -1.500560 -0.625089 0.724856
v -1.411836 -0.483209 -0.114677
v -0.686659 1.211967 -0.635855
v -1.184689 0.693826 -0.692890
v -1.225497 0.739250 -0.613289
v 0.314182 1.091315 0.218422
v -0.335644 1.371156 -0.547187
v 0.316040 1.319364 -0.388371
v 0.276134 1.338851 -0.500475
v 0.856041 -0.297525 -0.028472
v 0.912092 -0.204032 -0.033792
v 0.386012 0.412076 1.069821
v 0.164423 0.285344 1.333330
v 0.637045 0.622843 -1.281629
v -0.651150 0.600382 -1.213175
v -1.642630 -0.458664 0.918875
v -1.435028 -0.670387 0.746177
v -1.342413 0.478521 1.033524
v -1.414095 -0.197542 -0.617099
v -1.322044 -0.513345 -0.267621
v -0.555037 -0.310156 -1.296943
v -0.453772 1.194050 -0.767775
v -0.323864 1.312058 -0.658117
v 0.802601 -0.205349 0.298071
v 0.676492 -0.411487 0.419795
v 0.369002 0.261610 1.210295
v 0.614976 0.583350 -1.299880
v -0.606711 0.435313 -1.306330
v -1.598977 -0.501033 0.830367
v -1.438776 -0.644742 0.781069
v -1.375363 0.470051 0.987108
v 0.297213 1.051520 0.256690
v 0.264124 0.944710 0.430322
v -1.573071 0.440582 -0.271442
v -1.161488 -0.432221 -0.602431
v -1.326479 -0.473517 -0.299423
v -0.530865 -0.352748 -1.257806
v -0.604925 1.180301 -0.690956
vt 0.284747 0.195921
vt 0.276943 0.176662
vt 0.304828 0.192733
vt 0.238039 0.100865
vt 0.255068 0.093651
vt 0.257369 0.130393
vt 0.175563 0.211178
vt 0.194785 0.232283
vt 0.164145 0.220693
vt 0.186321 0.249903
vt 0.085662 0.964373
vt 0.117150 0.964235
vt 0.085465 0.974862
vt 0.141778 0.141467
vt 0.146422 0.103137
vt 0.158037 0.130584
vt 0.365726 0.563075
vt 0.326820 0.556070
vt 0.383793 0.559526
vt 0.320507 0.687519
vt 0.326069 0.658898
vt 0.369615 0.660702
vt 0.362552 0.686382
vt 0.413540 0.103101
vt 0.426945 0.142471
vt 0.400380 0.110238
vt 0.358015 0.039245
vt 0.379145 0.050536
vt 0.353785 0.048628
vt 0.154089 0.315833
vt 0.130508 0.362016
vt 0.124162 0.313224
vt 0.098296 0.841009
vt 0.115926 0.843641
vt 0.091659 0.861880
vt 0.110821 0.865274
vt 0.419107 0.249209
vt 0.407655 0.268115
vt 0.390789 0.256790
vt 0.406294 0.232396
vt 0.295990 0.318815
vt 0.274763 0.322888
vt 0.295787 0.306072
vt 0.715968 0.778027
vt 0.696641 0.791676
vt 0.680276 0.740056
vt 0.692694 0.734046
vt 0.710621 0.733565
vt 0.610737 0.774205
vt 0.608642 0.821838
vt 0.595174 0.767245
vt 0.178566 0.504420
vt 0.170726 0.501287
vt 0.166805 0.495877
vt 0.166292 0.726240
vt 0.149044 0.701584
vt 0.184850 0.710150
vt 0.454664 0.366748
vt 0.449685 0.343722
vt 0.463950 0.366120
vt 0.447306 0.858548
vt 0.490187 0.851960
vt 0.490622 0.870445
vt 0.456748 0.897632
vt 0.354527 0.398108
vt 0.292454 0.422020
vt 0.347311 0.369704
vt 0.301015 0.839300
vt 0.281198 0.823471
vt 0.312079 0.819431
vt 0.424465 0.821683
vt 0.373192 0.870923
vt 0.362958 0.835306
vt 0.408277 0.803290
vt 0.331404 0.883623
vt 0.353562 0.906632
vt 0.236425 0.744444
vt 0.286971 0.797285
vt 0.256933 0.791272
vt 0.259690 0.413219
vt 0.294711 0.393797
vt 0.192219 0.422877
vt 0.207599 0.593108
vt 0.167529 0.686255
vt 0.152537 0.665772
vt 0.581621 0.792620
vt 0.530192 0.772913
vt 0.734017 0.772222
vt 0.787445 0.754928
vt 0.778788 0.777441
vt 0.766011 0.725492
vt 0.721664 0.706595
vt 0.636300 0.801971
vt 0.660206 0.771840
vt 0.678912 0.787970
vt 0.663398 0.832843
vt 0.275931 0.845090
vt 0.259940 0.875930
vt 0.237200 0.863098
vt 0.269858 0.899258
vt 0.288356 0.872686
vt 0.327618 0.367587
vt 0.296251 0.363055
vt 0.343118 0.352090
vt 0.502597 0.912233
vt 0.449682 0.911447
vt 0.185271 0.022084
vt 0.196852 0.004220
vt 0.233195 0.014742
vt 0.346528 0.290640
vt 0.336098 0.315425
vt 0.342242 0.271099
vt 0.280103 0.274409
vt 0.138635 0.747880
vt 0.125291 0.785027
vt 0.108821 0.772145
vt 0.140715 0.727713
vt 0.126797 0.822408
vt 0.203691 0.891755
vt 0.164615 0.878200
vt 0.197948 0.865928
vt 0.120914 0.901937
vt 0.160932 0.907404
vt 0.138180 0.837411
vt 0.165988 0.468317
vt 0.222213 0.344430
vt 0.227814 0.298522
vt 0.187773 0.287670
vt 0.055743 0.826789
vt 0.091031 0.840622
vt 0.042527 0.856829
vt 0.628164 0.852453
vt 0.598009 0.856977
vt 0.644152 0.849437
vt 0.626077 0.816787
vt 0.311393 0.031310
vt 0.278674 0.030855
vt 0.288796 0.020687
vt 0.567568 0.894521
vt 0.577584 0.911894
vt 0.544915 0.924069
vt 0.698927 0.810623
vt 0.713187 0.800483
vt 0.736717 0.820853
vt 0.810179 0.807103
vt 0.784282 0.821237
vt 0.780359 0.809114
vt 0.703761 0.846916
vt 0.691051 0.874039
vt 0.671365 0.864972
vt 0.679397 0.822601
vt 0.315132 0.807959
vt 0.327969 0.752567
vt 0.357259 0.765025
vt 0.198550 0.676566
vt 0.251803 0.666234
vt 0.240308 0.709350
vt 0.208331 0.705861
vt 0.299596 0.697997
vt 0.338623 0.510957
vt 0.325569 0.481688
vt 0.357523 0.425125
vt 0.193863 0.530501
vt 0.293035 0.548422
vt 0.287267 0.564212
vt 0.346153 0.646169
vt 0.348352 0.602842
vt 0.379768 0.601913
vt 0.362445 0.646821
vt 0.445198 0.827196
vt 0.505319 0.757306
vt 0.453805 0.741993
vt 0.584578 0.732379
vt 0.605326 0.734418
vt 0.548109 0.741958
vt 0.383779 0.670884
vt 0.444921 0.672283
vt 0.410399 0.697751
vt 0.485378 0.650228
vt 0.382774 0.660117
vt 0.464394 0.610707
vt 0.457763 0.697428
vt 0.408329 0.734791
vt 0.479446 0.439182
vt 0.498996 0.421611
vt 0.686556 0.703023
vt 0.665448 0.685845
vt 0.443000 0.564339
vt 0.408015 0.546870
vt 0.532778 0.594419
vt 0.586300 0.624354
vt 0.543770 0.630679
vt 0.189504 0.939600
vt 0.157101 0.952171
vt 0.158590 0.932620
vt 0.181376 0.921546
vt 0.120285 0.946201
vt 0.167676 0.072379
vt 0.152112 0.059800
vt 0.166572 0.029939
vt 0.093920 0.870810
vt 0.098670 0.923049
vt 0.077857 0.915589
vt 0.123077 0.923546
vt 0.249343 0.276378
vt 0.242467 0.250330
vt 0.025567 0.941549
vt 0.006997 0.930427
vt 0.025068 0.922132
vt 0.173157 0.197842
vt 0.142369 0.167981
vt 0.153529 0.146709
vt 0.187546 0.159706
vt 0.072115 0.957270
vt 0.064285 0.975668
vt 0.049597 0.955839
vt 0.249973 0.061200
vt 0.240291 0.028321
vt 0.289983 0.071153
vt 0.279673 0.049786
vt 0.317405 0.061963
vt 0.341777 0.050728
vt 0.319985 0.084253
vt 0.212506 0.084532
vt 0.191506 0.130780
vt 0.188504 0.079306
vt 0.345568 0.219748
vt 0.358969 0.179984
vt 0.380294 0.212443
vt 0.303086 0.233461
vt 0.348170 0.252448
vt 0.390287 0.127997
vt 0.354120 0.152162
vt 0.367159 0.122604
vt 0.319611 0.139145
vt 0.376926 0.170715
vt 0.193489 0.208021
vt 0.247659 0.209731
vt 0.246295 0.230647
vt 0.233906 0.180494
vt 0.199290 0.182166
vt 0.267277 0.149094
vt 0.226114 0.148760
vt 0.231075 0.164882
vt 0.301039 0.123915
vt 0.275394 0.169610
vt 0.252872 0.181421
vt 0.262736 0.178188
vt 0.306711 0.159319
vt 0.329327 0.185994
vt 0.309558 0.169192
vt 0.301932 0.208061
vt 0.311455 0.197102
vt 0.223823 0.132014
vt 0.151229 0.207022
vt 0.161458 0.201927
vt 0.162475 0.241393
vt 0.506199 0.686507
vt 0.511929 0.671408
vt 0.348933 0.572858
vt 0.364395 0.572264
vt 0.314471 0.554435
vt 0.296749 0.660107
vt 0.306699 0.681013
vt 0.337537 0.700111
vt 0.366049 0.694060
vt 0.357199 0.711819
vt 0.345834 0.034576
vt 0.351401 0.041687
vt 0.618901 0.869931
vt 0.633686 0.872195
vt 0.103762 0.346029
vt 0.105575 0.320438
vt 0.116827 0.353209
vt 0.151799 0.362261
vt 0.818464 0.795132
vt 0.829710 0.791686
vt 0.827566 0.800014
vt 0.672083 0.750292
vt 0.178661 0.535615
vt 0.168030 0.556684
vt 0.170063 0.542997
vt 0.181758 0.475283
vt 0.194354 0.496623
vt 0.182654 0.506308
vt 0.175069 0.486023
vt 0.436842 0.387560
vt 0.437954 0.344713
vt 0.417604 0.890876
vt 0.304108 0.846568
vt 0.317813 0.832383
vt 0.274573 0.812635
vt 0.136977 0.705009
vt 0.811060 0.749934
vt 0.801968 0.734290
vt 0.623673 0.771197
vt 0.180702 0.008995
vt 0.822190 0.771785
vt 0.807778 0.778122
vt 0.234194 0.902312
vt 0.204832 0.920768
vt 0.085115 0.857285
vt 0.279118 0.018266
vt 0.273561 0.025586
vt 0.372294 0.060498
vt 0.382693 0.053730
vt 0.397625 0.080371
vt 0.377050 0.092078
vt 0.183246 0.691910
vt 0.192986 0.708205
vt 0.182489 0.519918
vt 0.378797 0.682769
vt 0.384058 0.546324
vt 0.563295 0.661845
vt 0.554231 0.656686
vt 0.615927 0.654549
vt 0.134495 0.271380
vt 0.157230 0.283319
vt 0.248596 0.022641
vt 0.362749 0.060408
vt 0.349728 0.051630
vt 0.200429 0.222319
vt 0.376570 0.566838
vt 0.410215 0.630216
vt 0.513962 0.636958
vt 0.344021 0.109265
vt 0.360554 0.083722
vt 0.330733 0.093747
vt 0.050806 0.921867
vt 0.015561 0.901711
vt 0.049811 0.880586
vt 0.039317 0.945200
vt 0.398004 0.159854
vt 0.418307 0.189917
vt 0.641755 0.700102
vt 0.633322 0.746741
vt 0.654594 0.661390
vt 0.039450 0.779003
vt 0.061035 0.743884
vt 0.062699 0.779327
vt 0.032112 0.825075
vt 0.253758 0.607956
vt 0.323349 0.567121
vt 0.321880 0.608360
vt 0.205871 0.804103
vt 0.273279 0.825033
vt 0.179917 0.749046
vt 0.373959 0.319352
vt 0.383640 0.713233
vt 0.377763 0.792820
vt 0.293254 0.523231
vt 0.261177 0.487233
vt 0.305246 0.443742
vt 0.444585 0.458175
vt 0.366582 0.381127
vt 0.388307 0.519063
vt 0.285893 0.742874
vt 0.340620 0.945439
vt 0.316578 0.936657
vt 0.309460 0.875038
vt 0.509873 0.575625
vt 0.063205 0.896782
vt 0.602694 0.680801
vt 0.082280 0.812562
vt 0.110349 0.722349
vt 0.302307 0.639059
vt 0.281263 0.918508
vt 0.279831 0.940720
vt 0.539989 0.545913
vt 0.556071 0.551022
vt 0.375758 0.651878
vt 0.542210 0.654492
vt 0.525236 0.658670
vt 0.295132 0.165213
vt 0.089995 0.949295
vt 0.086364 0.867036
vt 0.112146 0.300606
vt 0.321574 0.185394
vt 0.289576 0.202709
vt 0.263594 0.198740
vt 0.292225 0.101976
vt 0.242333 0.014007
vt 0.566706 0.673456
vt 0.669371 0.637092
vt 0.672059 0.645650
vt 0.681442 0.654657
vt 0.717155 0.832208
vt 0.715504 0.845294
vt 0.653480 0.872574
vt 0.644138 0.869351
vt 0.105828 0.822537
vt 0.103729 0.833532
vt 0.131887 0.719468
vt 0.018600 0.731693
vt 0.027556 0.726726
vt 0.022369 0.739724
vt 0.334547 0.572156
vt 0.315624 0.654773
vt 0.331044 0.646824
vt 0.154374 0.734257
vt 0.166420 0.733883
vt 0.119319 0.837366
vt 0.132989 0.853637
vt 0.122778 0.849568
vt 0.546077 0.701992
vt 0.530000 0.703477
vt 0.624112 0.881210
vt 0.539862 0.931917
vt 0.531118 0.932633
vt 0.320601 0.819965
vt 0.329922 0.527023
vt 0.314459 0.533693
vt 0.529679 0.483982
vt 0.538860 0.498225
vt 0.525141 0.510684
vt 0.370100 0.530597
vt 0.394006 0.534429
vt 0.196074 0.732082
vt 0.185043 0.721942
vt 0.310782 0.695427
vt 0.293112 0.845852
vt 0.527692 0.532638
vt 0.524372 0.521416
vt 0.322597 0.699474
vt 0.174913 0.536551
vt 0.018521 0.726324
vt 0.017439 0.729332
vt 0.260588 0.185853
vt 0.268472 0.195246
vt 0.295160 0.171232
vt 0.648312 0.876306
vt 0.629988 0.882046
vt 0.680139 0.630635
vt 0.671062 0.627389
vt 0.543925 0.539055
vt 0.711771 0.648833
vt 0.701037 0.657680
vt 0.546101 0.503926
vt 0.532799 0.514849
vt 0.529923 0.664867
vt 0.515310 0.686718
vt 0.541454 0.696970
vt 0.312189 0.988747
vt 0.312967 0.994709
vt 0.305778 0.986912
vt 0.364601 0.536526
vt 0.325715 0.535483
vt 0.168746 0.540644
vt 0.171936 0.488469
vt 0.160220 0.105765
vt 0.563750 0.540601
vt 0.556585 0.671423
vt 0.747969 0.830956
vt 0.713276 0.858749
vt 0.415408 0.152679
vt 0.307173 0.999000
vt 0.299367 0.988214
vt 0.247824 0.911539
vt 0.220097 0.937894
vt 0.142970 0.717100
vt 0.373896 0.358816
vt 0.107558 0.707240
vt 0.254734 0.925579
vt 0.257680 0.950295
vt 0.410671 0.329323
vt 0.435349 0.312403
vt 0.017864 0.791209
vt 0.302336 0.800087
vt 0.769829 0.697219
vt 0.155117 0.029258
vt 0.567684 0.548073
vt 0.020985 0.874918
vt 0.137907 0.233699
vt 0.394236 0.277710
vt 0.118706 0.876738
vt 0.026888 0.800684
vt 0.710944 0.660174
vt 0.729892 0.660752
vt 0.411415 0.285004
vt 0.424506 0.284268
vt 0.559216 0.688602
vt 0.610985 0.890696
vt 0.522798 0.943735
vt 0.512803 0.696321
vt 0.302680 0.981937
vt 0.292002 0.977355
vt 0.132797 0.200089
vt 0.147315 0.220070
vt 0.701346 0.663427
vt 0.026954 0.844502
vt 0.339000 0.982742
vt 0.227676 0.893198
vt 0.281121 0.836636
vt 0.233085 0.946021
vt 0.424845 0.229299
vt 0.201999 0.947232
vt 0.113797 0.869436
vt 0.128286 0.218741
vt 0.168456 0.013123
vt 0.659985 0.880860
vt 0.717754 0.653273
vt 0.422380 0.275457
vt 0.622333 0.893240
vt 0.296433 0.983670
vt 0.369534 0.056473
vt 0.166632 0.693775
vt 0.274483 0.017121
vt 0.267860 0.023137
vt 0.248647 0.017841
vt 0.167299 0.482888
vt 0.166614 0.485384
vt 0.178372 0.529026
vt 0.290961 0.803508
vt 0.532040 0.936996
vt 0.180937 0.518472
vt 0.179786 0.507391
vn 0.8304 -0.3603 0.4250
vn 0.7216 -0.6515 0.2341
vn 0.9121 -0.3661 0.1844
vn 0.7699 0.4834 0.4165
vn 0.8061 0.5302 0.2629
vn 0.8481 0.4252 0.3163
vn 0.8569 -0.4852 0.1741
vn 0.6841 -0.7228 0.0977
vn 0.7918 -0.5970 -0.1292
vn 0.5508 -0.8125 -0.1909
vn 0.8885 0.4224 -0.1796
vn 0.7605 0.6491 0.0191
vn 0.9219 0.3792 0.0796
vn 0.8245 0.3988 0.4014
vn -0.5879 -0.6527 -0.4778
vn -0.6483 -0.6929 -0.3158
vn -0.8172 -0.5125 -0.2635
vn -0.8295 0.2445 -0.5021
vn -0.7438 0.4866 -0.4582
vn -0.6939 0.4303 -0.5773
vn -0.7833 0.2220 -0.5807
vn 0.5296 -0.3552 0.7703
vn 0.3542 -0.6502 0.6721
vn 0.6989 -0.3417 0.6283
vn 0.5749 0.4837 0.6600
vn 0.4913 0.7421 0.4559
vn 0.3410 0.4990 0.7967
vn 0.2420 -0.8078 -0.5376
vn 0.0040 -0.6551 -0.7556
vn 0.3010 -0.6153 -0.7286
vn 0.3682 0.6964 -0.6160
vn 0.3124 0.4063 -0.8587
vn 0.0504 0.7148 -0.6976
vn 0.0421 0.4892 -0.8711
vn 0.5623 -0.7315 0.3857
vn 0.5694 -0.8056 0.1637
vn 0.7979 -0.5819 0.1571
vn 0.8016 -0.4920 0.3398
vn 0.1331 -0.9315 -0.3384
vn 0.1999 -0.8819 -0.4269
vn 0.3756 -0.8939 -0.2446
vn 0.0460 -0.6123 0.7893
vn 0.0933 -0.4395 0.8934
vn -0.1060 -0.3710 0.9225
vn -0.0282 -0.5717 0.8200
vn -0.0209 -0.7033 0.7106
vn -0.0525 0.5152 0.8555
vn 0.0241 0.7144 0.6993
vn -0.0822 0.6276 0.7742
vn -0.0995 -0.3733 -0.9223
vn -0.0643 -0.8179 -0.5717
vn -0.5624 -0.8071 -0.1797
vn -0.4579 0.2634 -0.8491
vn -0.3827 0.5311 -0.7560
vn -0.3390 0.2844 -0.8968
vn -0.3674 -0.9298 0.0208
vn -0.1268 -0.9239 0.3610
vn -0.2571 -0.8998 0.3525
vn 0.0014 0.7922 0.6103
vn -0.0505 0.8519 0.5212
vn -0.0283 0.7766 0.6293
vn 0.0320 0.8087 0.5873
vn -0.3998 -0.8842 -0.2415
vn -0.2552 -0.8471 -0.4661
vn -0.1053 -0.9614 -0.2544
vn -0.3486 0.7254 -0.5935
vn -0.3961 0.8306 -0.3914
vn -0.1052 0.8142 -0.5710
vn -0.3274 0.8730 0.3614
vn -0.1747 0.9533 0.2465
vn -0.4070 0.9094 0.0857
vn -0.4539 0.8671 0.2052
vn 0.0553 0.9833 0.1733
vn 0.0371 0.8912 0.4522
vn -0.4461 0.5765 -0.6846
vn -0.3139 0.7338 -0.6025
vn -0.2044 0.6237 -0.7545
vn -0.0448 -0.8355 -0.5477
vn -0.0436 -0.8677 -0.4952
vn -0.0596 -0.8128 -0.5795
vn -0.6249 -0.1013 -0.7741
vn -0.5490 0.2400 -0.8006
vn -0.4176 -0.1137 -0.9015
vn 0.0032 0.7653 0.6437
vn -0.0121 0.7873 0.6165
vn 0.0782 -0.6904 0.7192
vn -0.0683 -0.7820 0.6195
vn 0.0118 -0.7299 0.6835
vn -0.1747 -0.8367 0.5191
vn -0.1269 -0.7876 0.6029
vn 0.0556 0.2543 0.9655
vn -0.0135 -0.0238 0.9996
vn 0.0824 -0.2222 0.9715
vn 0.0715 0.0795 0.9943
vn 0.0825 0.8305 -0.5509
vn 0.0340 0.9199 -0.3907
vn -0.0048 0.7388 -0.6739
vn 0.0712 0.9974 0.0056
vn 0.0827 0.9832 -0.1626
vn 0.0800 -0.9317 -0.3543
vn 0.0623 -0.8909 -0.4499
vn 0.0678 -0.9656 -0.2512
vn 0.0465 0.8014 0.5963
vn 0.1217 0.8734 0.4715
vn 0.7363 0.5974 0.3178
vn 0.5089 0.7980 0.3227
vn 0.7448 0.5759 0.3370
vn 0.4895 -0.8635 -0.1217
vn 0.1368 -0.9585 -0.2501
vn 0.7423 -0.6665 0.0690
vn 0.6491 -0.7606 0.0121
vn 0.0625 0.5369 -0.8414
vn -0.0234 0.4090 -0.9122
vn -0.0560 0.2513 -0.9663
vn -0.2308 0.3218 -0.9182
vn -0.0754 0.6425 -0.7626
vn 0.2359 0.7254 -0.6466
vn 0.2490 0.6956 -0.6739
vn 0.0246 0.6732 -0.7391
vn 0.4542 0.6853 -0.5692
vn 0.4540 0.7038 -0.5464
vn -0.0036 0.7297 -0.6837
vn -0.0132 -0.5384 -0.8426
vn 0.1380 -0.8667 -0.4793
vn 0.3639 -0.8608 -0.3558
vn 0.3574 -0.8638 -0.3552
vn -0.0328 -0.0156 -0.9993
vn 0.0598 0.4377 -0.8971
vn 0.2213 -0.0035 -0.9752
vn -0.0501 0.6343 0.7715
vn 0.0071 0.7834 0.6215
vn -0.0148 0.3430 0.9392
vn 0.0701 0.4929 0.8673
vn 0.4729 0.7240 0.5022
vn 0.7584 0.4568 0.4648
vn 0.4952 0.6120 0.6166
vn 0.1624 0.7825 0.6011
vn 0.0831 -0.3151 0.9454
vn 0.0538 -0.5179 0.8537
vn 0.1288 -0.6485 0.7503
vn 0.5049 -0.6440 0.5748
vn 0.6042 -0.6016 0.5225
vn 0.2162 -0.6792 0.7014
vn 0.2028 -0.1964 0.9593
vn 0.5577 -0.0071 0.8300
vn 0.2254 0.0857 0.9705
vn 0.0698 -0.0685 0.9952
vn -0.3255 0.8600 -0.3929
vn -0.5902 0.6976 -0.4062
vn -0.5943 0.7939 -0.1284
vn -0.7519 0.1511 -0.6418
vn -0.6550 0.2144 -0.7245
vn -0.5604 0.4612 -0.6880
vn -0.6261 0.5182 -0.5827
vn -0.5366 0.4267 -0.7280
vn -0.3593 -0.8741 -0.3269
vn -0.4113 -0.8169 -0.4043
vn -0.4463 -0.8529 -0.2709
vn -0.6244 -0.5040 -0.5968
vn -0.4872 -0.5179 -0.7031
vn -0.5817 -0.2443 -0.7758
vn -0.8056 0.2204 -0.5500
vn -0.8510 -0.0049 -0.5251
vn -0.9610 -0.0418 -0.2734
vn -0.8792 0.1572 -0.4499
vn -0.1043 0.8479 0.5198
vn -0.2208 0.8296 0.5128
vn -0.4851 0.8331 0.2657
vn -0.1951 0.5470 0.8141
vn -0.2401 0.2878 0.9271
vn -0.1358 0.7311 0.6686
vn -0.8478 0.4129 -0.3329
vn -0.8849 0.4658 -0.0005
vn -0.7135 0.7007 -0.0071
vn -0.9723 0.2339 -0.0033
vn -0.8954 0.2620 -0.3601
vn -0.9900 -0.0815 -0.1150
vn -0.6585 0.7384 0.1453
vn -0.5875 0.8064 0.0678
vn -0.4566 -0.8852 -0.0893
vn -0.3471 -0.9188 0.1880
vn -0.1670 -0.5586 0.8124
vn -0.2772 -0.2919 0.9154
vn -0.9399 -0.3212 -0.1158
vn -0.7209 -0.6834 -0.1157
vn -0.9926 -0.1113 0.0490
vn -0.8518 -0.0347 0.5228
vn -0.9812 -0.0236 0.1915
vn 0.6700 0.7199 -0.1810
vn 0.7321 0.6808 -0.0234
vn 0.6292 0.6925 -0.3531
vn 0.5559 0.6911 -0.4620
vn 0.6899 0.6792 -0.2507
vn 0.7327 0.6073 0.3072
vn 0.7379 0.6683 0.0942
vn 0.3249 0.5335 -0.7809
vn 0.6275 0.5505 -0.5506
vn 0.6760 0.2892 -0.6778
vn 0.5580 0.7146 -0.4219
vn 0.5474 -0.8287 -0.1168
vn 0.6867 -0.7014 0.1912
vn 0.7195 -0.4248 -0.5494
vn 0.5224 -0.6149 -0.5907
vn 0.6459 -0.2842 -0.7085
vn 0.9168 -0.1935 0.3494
vn 0.9980 0.0417 -0.0468
vn 0.9236 0.1745 0.3412
vn 0.8822 0.0818 0.4638
vn 0.8654 0.1949 -0.4615
vn 0.8789 -0.0151 -0.4767
vn 0.8007 0.4712 0.3699
vn 0.8308 0.4370 0.3446
vn 0.7381 0.6240 0.2565
vn 0.6919 0.6447 0.3249
vn 0.6388 0.6657 0.3858
vn 0.5530 0.7094 0.4369
vn 0.7659 0.5363 0.3547
vn 0.7648 0.4410 0.4696
vn 0.7919 0.3615 0.4922
vn 0.7484 0.5082 0.4262
vn 0.8425 -0.4954 0.2113
vn 0.8337 -0.5262 0.1674
vn 0.8127 -0.5256 0.2516
vn 0.8169 -0.4707 0.3332
vn 0.8234 -0.5419 0.1683
vn 0.7463 -0.4323 0.5061
vn 0.8536 -0.4220 0.3055
vn 0.8600 -0.2059 0.4669
vn 0.9293 -0.1696 0.3281
vn 0.7630 -0.5572 0.3275
vn 0.8083 -0.3689 0.4588
vn 0.7769 -0.4035 0.4834
vn 0.7471 -0.5585 0.3604
vn 0.8098 -0.3876 0.4404
vn 0.8594 -0.1781 0.4793
vn 0.9463 -0.0291 0.3221
vn 0.8927 0.2019 0.4029
vn 0.9067 -0.1514 0.3937
vn 0.9282 0.1804 0.3254
vn 0.8176 -0.5456 0.1842
vn 0.8138 -0.4586 0.3570
vn 0.9016 -0.2955 0.3160
vn 0.8995 -0.3698 0.2329
vn 0.8292 -0.5366 0.1567
vn 0.8292 -0.5117 0.2251
vn 0.8141 -0.5093 0.2790
vn 0.8670 -0.4798 0.1343
vn 0.7931 0.4042 0.4556
vn 0.9171 -0.2821 -0.2817
vn 0.9611 -0.2759 0.0133
vn 0.6027 -0.7330 -0.3153
vn -0.6067 0.6980 0.3804
vn -0.7328 0.5767 0.3611
vn -0.8009 -0.3293 -0.5001
vn -0.8255 -0.4030 -0.3951
vn -0.6069 -0.5505 -0.5732
vn -0.5865 0.1542 -0.7952
vn -0.5900 0.3059 -0.7472
vn -0.7363 0.4318 -0.5210
vn -0.7778 0.5000 -0.3808
vn -0.6384 0.7227 -0.2648
vn 0.2094 0.8438 0.4941
vn 0.4018 0.7271 0.5567
vn -0.0729 0.7952 0.6020
vn 0.1674 0.6878 0.7063
vn 0.0160 -0.2567 -0.9664
vn 0.3219 -0.2938 -0.9000
vn 0.0205 -0.4939 -0.8693
vn 0.0525 -0.8025 -0.5944
vn 0.1569 -0.8029 0.5751
vn 0.1294 -0.9385 0.3202
vn -0.1005 -0.2362 0.9665
vn -0.3930 -0.4499 -0.8020
vn -0.2712 -0.0949 -0.9578
vn -0.5672 -0.1673 -0.8064
vn -0.0875 -0.8312 -0.5490
vn -0.3341 -0.8191 -0.4663
vn -0.3714 -0.6929 -0.6181
vn -0.2575 -0.6560 -0.7095
vn -0.4238 -0.8930 -0.1515
vn -0.2049 -0.9787 -0.0141
vn -0.1721 0.9446 -0.2796
vn -0.2762 0.9217 -0.2725
vn -0.1258 0.7190 -0.6835
vn -0.3707 0.1985 -0.9073
vn -0.0701 0.3019 0.9508
vn 0.5928 0.7898 0.1575
vn -0.0426 -0.9619 0.2699
vn -0.0166 -0.8065 0.5910
vn 0.2216 0.9080 -0.3555
vn 0.4922 0.7920 -0.3612
vn 0.2281 0.4625 -0.8568
vn 0.5830 0.6024 0.5452
vn 0.7951 0.4355 0.4220
vn 0.5670 0.5062 0.6498
vn 0.4463 0.4898 0.7489
vn 0.7947 0.0055 0.6069
vn -0.6051 0.3289 -0.7251
vn -0.5520 0.5152 -0.6556
vn -0.3397 -0.6517 -0.6782
vn -0.8076 0.4942 -0.3218
vn -0.6476 -0.7078 -0.2821
vn -0.6008 0.3961 0.6944
vn -0.7306 0.3936 0.5580
vn -0.5301 -0.0278 0.8475
vn 0.3914 -0.8177 -0.4220
vn 0.8060 0.4348 0.4016
vn 0.5320 0.5801 0.6168
vn 0.6350 0.6072 0.4775
vn 0.7327 -0.5820 0.3528
vn -0.8422 -0.3955 -0.3664
vn -0.9862 -0.0559 -0.1559
vn -0.9994 -0.0055 0.0335
vn 0.8949 0.0572 0.4427
vn 0.8193 0.2374 0.5220
vn 0.8378 0.3388 0.4281
vn 0.7034 0.0022 -0.7108
vn 0.5179 -0.3279 -0.7901
vn 0.4949 0.0298 -0.8684
vn 0.7795 -0.1336 -0.6120
vn 0.7111 -0.5461 0.4428
vn -0.2869 -0.0396 0.9571
vn -0.1891 0.0877 0.9780
vn -0.4162 -0.1536 0.8962
vn -0.1033 -0.3021 -0.9477
vn -0.1822 -0.1125 -0.9768
vn -0.1147 -0.0705 -0.9909
vn -0.6624 -0.0095 -0.7490
vn -0.6882 -0.3603 -0.6297
vn -0.7236 0.0024 -0.6903
vn -0.0373 0.6902 -0.7227
vn -0.2208 0.7785 -0.5875
vn -0.0739 0.7239 -0.6860
vn 0.0143 -0.9723 -0.2334
vn -0.6381 0.7649 -0.0880
vn -0.5237 0.8508 0.0439
vn -0.4011 -0.7559 -0.5175
vn -0.4001 -0.7798 -0.4815
vn -0.3986 -0.8286 -0.3932
vn -0.4625 -0.8655 -0.1923
vn -0.3298 -0.9200 -0.2116
vn -0.4482 -0.8780 -0.1680
vn -0.5174 0.5558 -0.6507
vn 0.1930 0.9218 0.3364
vn 0.3203 0.9392 0.1236
vn -0.9774 -0.1949 -0.0822
vn 0.6018 0.1586 -0.7828
vn -0.3579 0.1184 0.9262
vn -0.1113 0.1268 -0.9857
vn -0.1686 -0.0537 -0.9842
vn -0.6493 -0.0137 -0.7604
vn 0.1585 0.9615 0.2244
vn 0.2880 0.9016 0.3228
vn -0.8314 -0.5478 0.0932
vn -0.8333 -0.5187 0.1913
vn -0.9006 0.1909 -0.3904
vn -0.8127 0.3845 0.4378
vn -0.8054 0.4435 0.3932
vn 0.9243 -0.3564 0.1368
vn 0.7784 0.4602 -0.4270
vn 0.3043 0.4700 -0.8286
vn 0.8094 -0.5679 0.1497
vn 0.8127 -0.5635 0.1482
vn 0.8282 -0.4167 0.3747
vn 0.8450 0.4721 0.2510
vn 0.7210 0.5697 0.3946
vn -0.5214 0.4258 0.7395
vn -0.6102 -0.5239 0.5943
vn -0.5270 -0.5179 0.6739
vn -0.4634 -0.6563 0.5954
vn 0.1118 -0.4668 0.8773
vn 0.3165 -0.4555 0.8321
vn 0.2574 0.5025 0.8254
vn 0.2155 0.5581 0.8013
vn -0.1555 0.4005 -0.9030
vn 0.0309 0.5337 -0.8451
vn -0.0761 0.2242 -0.9716
vn -0.1846 -0.4980 -0.8473
vn -0.7624 -0.2963 -0.5753
vn -0.6957 0.1830 -0.6946
vn -0.7528 0.2104 -0.6238
vn -0.1426 0.5541 -0.8201
vn -0.2143 0.5861 -0.7814
vn 0.0490 0.6500 -0.7583
vn 0.1108 0.7818 -0.6137
vn 0.1106 0.6710 -0.7332
vn -0.4312 0.6620 0.6130
vn -0.4990 0.6735 0.5454
vn 0.2154 0.7614 0.6115
vn 0.4971 0.7316 0.4665
vn -0.3556 0.8772 -0.3225
vn -0.4165 -0.8055 -0.4217
vn -0.4224 -0.7701 -0.4781
vn -0.3551 -0.9346 0.0229
vn -0.4944 -0.8532 0.1659
vn -0.5717 -0.8177 0.0670
vn -0.4794 -0.8124 -0.3321
vn -0.4551 -0.8843 0.1045
vn -0.3605 0.6962 -0.6208
vn -0.4067 0.5292 -0.7447
vn -0.6094 0.4948 -0.6195
vn -0.1337 0.9060 -0.4015
vn -0.7140 -0.6991 0.0393
vn -0.5902 -0.8055 0.0538
vn -0.7128 0.3858 -0.5857
vn 0.8235 -0.5248 0.2157
vn 0.8038 -0.5359 0.2582
vn 0.7555 -0.6548 -0.0196
vn -0.5043 -0.8398 0.2008
vn -0.7480 -0.5366 0.3906
vn -0.5025 -0.8086 0.3062
vn -0.6307 -0.7119 0.3088
vn -0.6489 -0.6996 0.2992
vn -0.6585 -0.6892 0.3024
vn -0.4582 0.6543 0.6016
vn -0.6040 0.5044 0.6170
vn -0.6931 0.5198 0.4994
vn 0.4848 0.7109 0.5094
vn 0.8074 0.5096 0.2975
vn 0.7503 0.3687 0.5487
vn -0.6445 -0.5782 -0.5003
vn -0.7075 -0.6009 -0.3720
vn -0.6188 -0.3296 -0.7131
vn 0.7475 0.5639 0.3512
vn -0.5586 0.7178 0.4156
vn 0.5897 -0.5817 0.5603
vn 0.4078 0.7933 0.4520
vn 0.4964 0.5243 0.6919
vn 0.2174 0.9735 -0.0710
vn 0.5604 0.8230 -0.0933
vn -0.4843 0.4826 -0.7297
vn -0.1133 -0.9747 -0.1924
vn 0.3069 0.9372 0.1658
vn -0.0752 -0.9891 -0.1269
vn -0.3107 0.7874 -0.5325
vn 0.4514 -0.8881 -0.0862
vn 0.3768 0.7278 -0.5730
vn -0.4362 -0.8294 0.3491
vn 0.1201 -0.9928 -0.0036
vn -0.4729 0.5741 0.6684
vn -0.5473 0.6843 0.4819
vn 0.4738 0.7147 0.5145
vn 0.7990 -0.4016 -0.4476
vn -0.3840 -0.7951 0.4695
vn 0.0872 0.7916 -0.6047
vn -0.1097 0.7903 -0.6028
vn 0.3357 0.6777 -0.6542
vn 0.2512 0.7531 0.6081
vn -0.3001 0.5342 -0.7903
vn -0.1434 0.8970 -0.4181
s 1
f 2/1/1 1/2/2 3/3/3
f 270/4/4 4/5/5 254/6/6
f 5/7/7 6/8/8 7/9/9
f 6/8/8 8/10/10 7/9/9
f 10/11/11 275/12/12 11/13/13
f 11/14/13 275/15/12 12/16/14
f 19/17/15 20/18/16 200/19/17
f 22/20/18 21/21/19 446/22/20
f 446/22/20 23/23/21 22/20/18
f 26/24/22 24/25/23 27/26/24
f 28/27/25 29/28/26 30/29/27
f 32/30/28 125/31/29 33/32/30
f 35/33/31 34/34/32 36/35/33
f 36/35/33 34/34/32 439/36/34
f 38/37/35 37/38/36 39/39/37
f 39/39/37 40/40/38 38/37/35
f 43/41/39 128/42/40 44/43/41
f 47/44/42 145/45/43 392/46/44
f 193/47/45 195/48/46 47/44/42
f 50/49/47 49/50/48 179/51/49
f 449/52/50 53/53/51 51/54/52
f 56/55/53 54/56/54 57/57/55
f 59/58/56 58/59/57 60/60/58
f 344/61/59 61/62/60 88/63/61
f 88/63/61 102/64/62 344/61/59
f 62/65/63 63/66/64 64/67/65
f 66/68/66 65/69/67 67/70/68
f 70/71/69 68/72/70 71/73/71
f 71/73/71 72/74/72 70/71/69
f 69/75/73 68/72/70 73/76/74
f 78/77/75 79/78/76 77/79/77
f 81/80/78 82/81/79 63/66/64
f 81/80/78 63/66/64 126/82/80
f 85/83/81 86/84/82 84/85/83
f 48/86/84 88/63/61 177/87/85
f 321/88/86 89/89/87 90/90/88
f 192/91/89 89/89/87 195/48/46
f 195/48/46 197/92/90 192/91/89
f 91/93/91 92/94/92 320/95/93
f 320/95/93 363/96/94 91/93/91
f 94/97/95 95/98/96 96/99/97
f 97/100/98 95/98/96 98/101/99
f 99/102/100 100/103/101 101/104/102
f 102/64/62 103/105/103 104/106/104
f 106/107/105 105/108/106 316/109/107
f 44/43/41 111/110/108 112/111/109
f 113/112/110 111/110/108 218/113/111
f 114/114/112 115/115/113 116/116/114
f 116/116/114 117/117/115 114/114/112
f 118/118/116 115/115/113 114/114/112
f 119/119/117 120/120/118 121/121/119
f 216/122/120 120/120/118 122/123/121
f 121/121/119 120/120/118 123/124/122
f 124/125/123 125/31/29 126/82/80
f 128/42/40 129/126/124 220/127/125
f 220/127/125 129/126/124 32/30/28
f 32/30/28 130/128/126 220/127/125
f 132/129/127 133/130/128 131/131/129
f 49/50/48 135/132/130 136/133/131
f 137/134/132 135/132/130 138/135/133
f 140/136/134 141/137/135 139/138/136
f 142/139/137 140/140/134 139/141/136
f 144/142/138 145/45/43 143/143/139
f 394/144/140 143/143/139 47/44/42
f 146/145/141 147/146/142 148/147/143
f 152/148/144 150/149/145 153/150/146
f 153/150/146 154/151/147 152/148/144
f 155/152/148 156/153/149 157/154/150
f 159/155/151 160/156/152 161/157/153
f 161/157/153 162/158/154 159/155/151
f 161/157/153 160/156/152 295/159/155
f 292/160/156 164/161/157 165/162/158
f 166/163/159 167/164/160 168/165/161
f 170/166/162 171/167/163 172/168/164
f 172/168/164 173/169/165 170/166/162
f 409/170/166 176/171/167 177/87/85
f 178/172/168 176/171/167 70/71/69
f 179/51/49 180/173/169 181/174/170
f 182/175/171 180/173/169 179/51/49
f 183/176/172 184/177/173 185/178/174
f 186/179/175 184/177/173 381/180/176
f 381/180/176 187/181/177 186/179/175
f 185/178/174 184/177/173 188/182/178
f 188/182/178 189/183/179 185/178/174
f 191/184/180 59/58/56 190/185/181
f 193/47/45 194/186/182 195/48/46
f 196/187/183 194/186/182 392/46/44
f 195/48/46 194/186/182 197/92/90
f 199/188/184 200/19/17 198/189/185
f 204/190/186 202/191/187 205/192/188
f 206/193/189 207/194/190 208/195/191
f 208/195/191 209/196/192 206/193/189
f 208/195/191 207/194/190 210/197/193
f 211/198/194 207/199/190 390/200/195
f 212/201/196 213/202/197 214/203/198
f 215/204/199 213/202/197 216/122/120
f 218/113/111 217/205/200 219/206/201
f 8/10/10 217/205/200 220/127/125
f 220/127/125 130/128/126 8/10/10
f 223/207/202 221/208/203 224/209/204
f 378/210/205 225/211/206 377/212/207
f 377/212/207 227/213/208 378/210/205
f 226/214/209 225/215/206 228/216/210
f 229/217/211 230/218/212 141/137/135
f 235/219/213 229/217/211 231/220/214
f 233/221/215 302/222/216 232/223/217
f 233/221/215 232/223/217 235/219/213
f 238/224/218 236/225/219 239/226/220
f 241/227/221 247/228/222 240/229/223
f 242/230/224 241/227/221 243/231/225
f 244/232/226 245/233/227 246/234/228
f 245/233/227 258/235/229 246/234/228
f 247/228/222 245/233/227 248/236/230
f 249/237/231 250/238/232 251/239/233
f 252/240/234 250/238/232 253/241/235
f 254/6/6 255/242/236 256/243/237
f 256/243/237 255/242/236 257/244/238
f 258/235/229 255/242/236 259/245/239
f 255/242/236 260/246/240 261/247/241
f 260/246/240 262/248/242 261/247/241
f 264/249/243 267/250/244 265/251/245
f 267/250/244 241/227/221 266/252/246
f 267/250/244 266/252/246 268/253/247
f 270/4/4 254/6/6 237/254/248
f 271/255/249 272/256/250 5/7/7
f 5/7/7 7/9/9 271/255/249
f 7/9/9 8/10/10 273/257/251
f 285/258/252 188/182/178 284/259/253
f 171/167/163 289/260/254 290/261/255
f 290/261/255 172/168/164 171/167/163
f 168/165/161 167/164/160 291/262/256
f 295/159/155 294/263/257 296/264/258
f 297/265/259 299/266/260 298/267/261
f 302/222/216 301/268/262 303/269/263
f 304/270/264 135/132/130 305/271/265
f 306/272/266 307/273/267 31/274/268
f 129/126/124 308/275/269 32/30/28
f 314/276/270 315/277/271 38/278/35
f 320/95/93 361/279/272 392/46/44
f 392/46/44 145/45/43 320/95/93
f 92/94/92 361/279/272 320/95/93
f 195/48/46 321/88/86 47/44/42
f 433/280/273 322/281/274 323/282/275
f 325/283/276 324/284/277 412/285/278
f 412/285/278 326/286/279 325/283/276
f 59/58/56 76/287/280 329/288/281
f 73/289/74 344/61/59 102/64/62
f 330/290/282 331/291/283 68/72/70
f 68/72/70 69/75/73 330/290/282
f 434/292/284 77/79/77 79/78/76
f 332/293/285 84/85/83 86/84/82
f 58/294/57 89/89/87 192/91/89
f 192/91/89 60/295/58 58/294/57
f 50/49/47 333/296/286 91/93/91
f 91/93/91 138/135/133 50/49/47
f 105/108/106 106/107/105 334/297/287
f 108/298/288 109/299/289 58/294/57
f 119/119/117 45/300/290 46/301/291
f 133/130/128 337/302/292 131/131/129
f 338/303/293 139/138/136 141/137/135
f 141/137/135 339/304/294 338/303/293
f 47/44/42 143/143/139 145/45/43
f 340/305/295 341/306/296 150/307/145
f 150/307/145 151/308/297 340/305/295
f 342/309/298 159/155/151 162/158/154
f 162/158/154 427/310/299 342/309/298
f 166/163/159 433/280/273 343/311/300
f 61/62/60 344/61/59 409/170/166
f 179/51/49 181/174/170 50/49/47
f 183/176/172 185/178/174 345/312/301
f 59/58/56 60/60/58 190/185/181
f 346/313/302 198/189/185 200/19/17
f 347/314/303 348/315/304 202/191/187
f 202/191/187 203/316/305 347/314/303
f 46/301/291 206/193/189 209/196/192
f 32/30/28 33/32/30 221/317/203
f 221/317/203 222/318/306 32/30/28
f 10/11/11 11/13/13 225/215/206
f 225/215/206 226/214/209 10/11/11
f 349/319/307 141/137/135 230/218/212
f 302/222/216 350/320/308 232/223/217
f 424/321/309 350/320/308 302/222/216
f 40/40/38 39/39/37 240/229/223
f 249/237/231 251/239/233 9/322/310
f 256/243/237 236/225/219 237/254/248
f 378/210/205 227/213/208 253/241/235
f 252/240/234 253/241/235 257/244/238
f 187/181/177 379/323/311 199/188/184
f 172/168/164 379/323/311 187/181/177
f 187/181/177 174/324/312 172/168/164
f 174/324/312 187/181/177 381/180/176
f 187/181/177 352/325/313 186/179/175
f 205/192/188 352/325/313 187/181/177
f 187/181/177 204/190/186 205/192/188
f 353/326/314 354/327/315 151/308/297
f 234/328/316 354/327/315 353/326/314
f 226/214/209 228/216/210 355/329/317
f 214/203/198 226/214/209 355/329/317
f 355/329/317 357/330/318 134/331/319
f 224/209/204 357/330/318 355/329/317
f 223/207/202 224/209/204 358/332/320
f 149/333/321 147/334/142 248/236/230
f 218/113/111 219/206/201 113/112/110
f 242/230/224 243/231/225 113/112/110
f 242/230/224 251/239/233 250/238/232
f 130/128/126 32/30/28 222/318/306
f 222/318/306 8/10/10 130/128/126
f 215/204/199 208/195/191 210/197/193
f 239/226/220 230/218/212 229/217/211
f 316/109/107 230/218/212 239/226/220
f 106/107/105 211/198/194 390/200/195
f 360/335/322 361/279/272 93/336/323
f 392/46/44 361/279/272 360/335/322
f 360/335/322 196/187/183 392/46/44
f 360/335/322 362/337/324 196/187/183
f 203/316/305 362/337/324 360/335/322
f 47/44/42 321/88/86 90/90/88
f 90/90/88 394/144/140 47/44/42
f 144/142/138 152/148/144 154/151/147
f 154/151/147 320/95/93 144/142/138
f 154/151/147 363/96/94 320/95/93
f 138/135/133 91/93/91 363/96/94
f 363/96/94 137/134/132 138/135/133
f 363/96/94 154/151/147 153/150/146
f 127/338/325 87/339/326 366/340/327
f 366/340/327 306/341/266 127/338/325
f 132/129/127 306/341/266 366/340/327
f 367/342/328 397/343/329 175/344/330
f 168/165/161 397/343/329 367/342/328
f 367/342/328 159/155/151 85/83/81
f 160/156/152 159/155/151 367/342/328
f 80/345/331 400/346/332 96/99/97
f 369/347/333 118/118/116 114/114/112
f 80/345/331 123/124/122 118/118/116
f 80/345/331 121/121/119 123/124/122
f 101/104/102 112/111/109 370/348/334
f 182/175/171 179/51/49 177/87/85
f 176/171/167 182/175/171 177/87/85
f 179/51/49 48/86/84 177/87/85
f 136/133/131 304/270/264 142/139/137
f 88/63/61 49/50/48 103/105/103
f 189/183/179 371/349/335 185/178/174
f 157/154/150 371/349/335 189/183/179
f 372/350/336 72/74/72 71/73/71
f 72/74/72 178/172/168 70/71/69
f 178/172/168 189/183/179 188/182/178
f 164/161/157 169/351/337 83/352/338
f 83/352/338 163/353/339 164/161/157
f 100/103/101 308/275/269 129/126/124
f 373/354/340 76/287/280 191/184/180
f 373/354/340 74/355/341 76/287/280
f 373/354/340 201/356/342 292/160/156
f 78/77/75 161/157/153 158/357/343
f 158/357/343 161/157/153 295/159/155
f 73/76/74 104/358/104 374/359/344
f 374/359/344 69/75/73 73/76/74
f 98/101/99 375/360/345 69/75/73
f 69/75/73 97/100/98 98/101/99
f 253/241/235 227/213/208 257/244/238
f 257/244/238 227/213/208 256/243/237
f 227/213/208 236/225/219 256/243/237
f 351/361/346 204/190/186 187/181/177
f 187/181/177 199/188/184 351/361/346
f 259/245/239 234/328/316 353/326/314
f 259/245/239 353/326/314 258/235/229
f 258/235/229 353/326/314 246/234/228
f 358/332/320 224/209/204 355/329/317
f 355/329/317 228/216/210 358/332/320
f 356/362/347 214/203/198 355/329/317
f 240/229/223 247/228/222 248/236/230
f 248/236/230 147/334/142 240/229/223
f 251/239/233 242/230/224 113/112/110
f 113/112/110 219/206/201 251/239/233
f 235/219/213 231/220/214 233/221/215
f 216/122/120 122/123/121 215/204/199
f 239/226/220 211/198/194 106/107/105
f 239/226/220 229/217/211 238/224/218
f 359/363/348 203/316/305 360/335/322
f 359/363/348 360/335/322 93/336/323
f 93/336/323 181/174/170 359/363/348
f 314/276/270 148/147/143 90/90/88
f 90/90/88 109/299/289 314/276/270
f 364/364/349 132/129/127 366/340/327
f 364/364/349 366/340/327 365/365/350
f 365/365/350 116/116/114 364/364/349
f 368/366/351 160/156/152 367/342/328
f 367/342/328 175/344/330 368/366/351
f 85/83/81 168/165/161 367/342/328
f 80/345/331 118/118/116 369/347/333
f 80/345/331 96/99/97 121/121/119
f 142/139/137 103/105/103 136/133/131
f 136/133/131 103/105/103 49/50/48
f 72/74/72 372/350/336 178/172/168
f 178/172/168 372/350/336 189/183/179
f 372/350/336 157/154/150 189/183/179
f 308/275/269 100/103/101 126/82/80
f 373/354/340 292/160/156 165/162/158
f 69/75/73 374/359/344 376/367/352
f 376/367/352 97/100/98 69/75/73
f 374/359/344 107/368/353 376/367/352
f 351/361/346 279/369/354 428/370/355
f 379/323/311 172/168/164 290/261/255
f 381/180/176 380/371/356 174/324/312
f 174/324/312 380/371/356 173/169/165
f 383/372/357 382/373/358 352/325/313
f 352/325/313 205/192/188 383/372/357
f 382/373/358 186/179/175 352/325/313
f 264/249/243 265/251/245 384/374/359
f 260/246/240 255/242/236 264/249/243
f 340/305/295 354/327/315 350/320/308
f 354/327/315 234/328/316 350/320/308
f 340/305/295 151/308/297 354/327/315
f 274/375/360 10/11/11 226/214/209
f 385/376/361 134/331/319 337/302/292
f 33/32/30 307/273/267 357/377/318
f 267/250/244 268/253/247 437/378/362
f 9/322/310 219/206/201 6/8/8
f 217/205/200 111/110/108 44/43/41
f 39/39/37 113/112/110 243/231/225
f 388/379/363 266/252/246 263/380/364
f 266/252/246 250/238/232 263/380/364
f 302/222/216 303/269/263 424/321/309
f 4/5/5 235/219/213 269/381/365
f 349/319/307 230/218/212 316/109/107
f 316/109/107 317/382/366 349/319/307
f 390/200/195 334/297/287 106/107/105
f 359/363/348 287/383/367 347/314/303
f 347/314/303 203/316/305 359/363/348
f 50/49/47 181/174/170 333/296/286
f 277/384/368 393/385/369 362/337/324
f 362/337/324 393/385/369 280/386/370
f 280/386/370 196/187/183 362/337/324
f 58/294/57 109/299/289 89/89/87
f 152/148/144 300/387/371 25/388/372
f 363/96/94 153/150/146 395/389/373
f 363/96/94 395/389/373 425/390/374
f 425/390/374 137/134/132 363/96/94
f 311/391/375 312/392/376 133/130/128
f 311/391/375 133/130/128 364/364/349
f 365/365/350 332/293/285 396/393/377
f 336/394/378 322/395/274 124/396/123
f 168/165/161 291/262/256 397/343/329
f 431/397/379 175/344/330 397/343/329
f 159/155/151 342/309/298 86/84/82
f 398/398/380 368/366/351 399/399/381
f 368/366/351 175/344/330 399/399/381
f 402/400/382 401/401/383 369/347/333
f 369/347/333 114/114/112 402/400/382
f 403/402/384 123/124/122 309/403/385
f 309/403/385 310/404/386 403/402/384
f 430/405/387 176/171/167 288/406/388
f 304/270/264 305/271/265 406/407/389
f 139/141/136 338/408/293 407/409/390
f 298/267/261 299/266/260 371/349/335
f 371/349/335 299/266/260 345/312/301
f 345/312/301 185/178/174 371/349/335
f 408/410/391 71/73/71 331/291/283
f 292/160/156 293/411/392 411/412/393
f 292/160/156 411/412/393 169/351/337
f 169/351/337 164/161/157 292/160/156
f 412/285/278 324/284/277 166/163/159
f 166/163/159 343/311/300 412/285/278
f 282/413/394 283/414/395 429/415/396
f 432/416/397 201/356/342 414/417/398
f 414/417/398 346/313/302 432/416/397
f 432/416/397 292/160/156 201/356/342
f 427/310/299 162/158/154 327/418/399
f 327/418/399 328/419/400 427/310/299
f 295/159/155 296/264/258 416/420/401
f 419/421/402 330/290/282 375/360/345
f 375/360/345 98/101/99 419/421/402
f 330/290/282 69/75/73 375/360/345
f 279/369/354 278/422/403 413/423/404
f 299/266/260 297/265/259 417/424/405
f 53/425/51 433/280/273 323/282/275
f 323/426/275 336/394/378 51/427/52
f 1/2/2 262/248/242 260/246/240
f 423/428/406 1/2/2 2/1/1
f 422/429/407 423/428/406 2/1/1
f 265/251/245 437/378/362 436/430/408
f 437/378/362 3/3/3 436/430/408
f 303/269/263 28/27/25 30/29/27
f 305/271/265 29/431/26 28/432/25
f 328/419/400 56/55/53 57/57/55
f 13/433/409 277/384/368 276/434/410
f 441/435/411 279/369/354 413/423/404
f 14/436/412 15/437/413 393/385/369
f 393/385/369 13/433/409 14/436/412
f 283/414/395 14/438/412 442/439/414
f 284/259/253 16/440/415 17/441/416
f 17/441/416 285/258/252 284/259/253
f 288/406/388 17/441/416 443/442/417
f 318/443/418 445/444/419 444/445/420
f 296/264/258 21/21/19 22/20/18
f 417/424/405 22/20/18 23/23/21
f 23/23/21 299/266/260 417/424/405
f 19/17/15 290/261/255 289/260/254
f 293/411/392 448/446/421 447/447/422
f 323/282/275 51/448/52 53/425/51
f 52/449/423 449/52/50 51/54/52
f 326/286/279 449/52/50 52/449/423
f 1/2/2 436/430/408 3/3/3
f 5/7/7 9/322/310 6/8/8
f 391/450/424 12/16/14 275/15/12
f 14/438/412 13/451/409 441/435/411
f 14/438/412 441/435/411 442/439/414
f 16/440/415 18/452/425 17/441/416
f 17/441/416 18/452/425 443/442/417
f 447/447/422 448/446/421 20/18/16
f 20/18/16 448/446/421 200/19/17
f 24/453/23 26/454/22 25/388/372
f 387/455/426 27/26/24 24/25/23
f 125/31/29 31/274/268 33/32/30
f 125/31/29 32/30/28 308/275/269
f 42/456/427 41/457/428 444/445/420
f 444/445/420 445/444/419 42/456/427
f 46/301/291 45/300/290 421/458/429
f 421/458/429 335/459/430 46/301/291
f 392/46/44 193/47/45 47/44/42
f 48/86/84 179/51/49 49/50/48
f 56/55/53 55/460/431 54/56/54
f 58/59/57 59/58/56 329/288/281
f 64/67/65 75/461/432 74/355/341
f 400/346/332 80/345/331 77/79/77
f 163/353/339 83/352/338 63/66/64
f 365/365/350 87/339/326 84/462/83
f 61/62/60 177/87/85 88/63/61
f 92/94/92 91/93/91 333/296/286
f 333/296/286 93/336/323 92/94/92
f 95/98/96 94/97/95 98/101/99
f 100/103/101 99/102/100 82/81/79
f 420/463/433 107/368/353 105/464/106
f 329/288/281 110/465/434 108/466/288
f 120/120/118 119/119/117 122/123/121
f 124/396/123 127/338/325 125/467/29
f 135/132/130 49/50/48 138/135/133
f 156/153/149 155/152/148 415/468/435
f 415/468/435 158/357/343 156/153/149
f 164/161/157 163/353/339 165/162/158
f 166/163/159 169/351/337 167/164/160
f 171/167/163 170/166/162 175/344/330
f 409/170/166 70/71/69 176/171/167
f 184/177/173 183/176/172 381/180/176
f 60/295/58 192/91/89 190/469/181
f 194/186/182 193/47/45 392/46/44
f 414/417/398 201/356/342 198/189/185
f 207/199/190 206/470/189 390/200/195
f 213/202/197 212/201/196 216/122/120
f 357/330/318 224/209/204 221/208/203
f 141/137/135 231/220/214 229/217/211
f 236/225/219 12/16/14 391/450/424
f 391/450/424 239/226/220 236/225/219
f 241/227/221 240/229/223 243/231/225
f 245/233/227 244/232/226 149/333/321
f 149/333/321 248/236/230 245/233/227
f 249/237/231 253/241/235 250/238/232
f 254/6/6 259/245/239 255/242/236
f 378/210/205 272/256/250 225/211/206
f 250/238/232 252/240/234 261/247/241
f 261/247/241 263/380/364 250/238/232
f 202/191/187 204/190/186 428/370/355
f 428/370/355 276/471/410 202/191/187
f 186/179/175 284/259/253 184/177/173
f 232/223/217 234/328/316 269/381/365
f 131/131/129 134/331/319 307/472/267
f 223/473/202 273/257/251 221/317/203
f 245/233/227 247/228/222 267/250/244
f 267/250/244 264/249/243 245/233/227
f 147/334/142 149/333/321 387/455/426
f 387/455/426 24/25/23 147/334/142
f 113/112/110 313/474/436 111/110/108
f 241/227/221 242/230/224 266/252/246
f 235/219/213 4/5/5 229/217/211
f 8/10/10 6/8/8 217/205/200
f 120/120/118 216/122/120 389/475/437
f 389/475/437 309/403/385 120/120/118
f 236/225/219 238/224/218 270/4/4
f 207/199/190 211/198/194 391/450/424
f 391/450/424 275/15/12 207/199/190
f 196/187/183 280/386/370 194/186/182
f 321/88/86 195/48/46 89/89/87
f 394/144/140 300/387/371 143/143/139
f 152/148/144 26/454/22 150/149/145
f 84/462/83 87/339/326 322/395/274
f 125/467/29 127/338/325 31/476/268
f 77/79/77 80/345/331 369/347/333
f 369/347/333 327/418/399 77/79/77
f 118/118/116 311/391/375 115/115/113
f 190/469/181 192/91/89 404/477/438
f 404/477/438 282/478/394 190/469/181
f 74/355/341 75/461/432 329/288/281
f 108/466/288 110/465/434 405/479/439
f 405/479/439 315/480/271 108/466/288
f 180/173/169 182/175/171 430/405/387
f 430/405/387 286/481/440 180/173/169
f 140/140/134 142/139/137 301/482/262
f 407/409/390 318/483/418 103/105/103
f 68/72/70 70/71/69 409/170/166
f 409/170/166 73/289/74 68/72/70
f 176/171/167 178/172/168 410/484/441
f 410/484/441 288/406/388 176/171/167
f 63/66/64 83/352/338 324/284/277
f 128/42/40 43/41/39 100/103/101
f 198/189/185 201/356/342 413/423/404
f 413/423/404 278/422/403 198/189/185
f 156/153/149 158/357/343 417/424/405
f 417/424/405 297/265/259 156/153/149
f 105/464/106 107/368/353 418/485/442
f 418/485/442 316/486/107 105/464/106
f 95/98/96 97/100/98 421/458/429
f 421/458/429 45/300/290 95/98/96
f 236/225/219 270/4/4 237/254/248
f 269/381/365 235/219/213 232/223/217
f 229/217/211 4/5/5 270/4/4
f 225/211/206 272/256/250 271/255/249
f 271/255/249 228/487/210 225/211/206
f 223/473/202 386/488/443 273/257/251
f 273/257/251 222/318/306 221/317/203
f 217/205/200 6/8/8 219/206/201
f 274/375/360 214/203/198 213/202/197
f 213/202/197 210/197/193 274/375/360
f 207/194/190 275/12/12 210/197/193
f 202/191/187 276/434/410 277/384/368
f 277/384/368 203/316/305 202/191/187
f 198/189/185 278/422/403 279/369/354
f 279/369/354 199/188/184 198/189/185
f 194/186/182 280/386/370 281/489/444
f 281/489/444 197/92/90 194/186/182
f 282/413/394 191/184/180 190/185/181
f 186/179/175 382/373/358 284/259/253
f 184/177/173 284/259/253 188/182/178
f 180/173/169 286/481/440 287/383/367
f 287/383/367 181/174/170 180/173/169
f 289/260/254 171/167/163 175/344/330
f 175/344/330 431/397/379 289/260/254
f 160/156/152 294/263/257 295/159/155
f 156/153/149 297/265/259 298/267/261
f 298/267/261 157/154/150 156/153/149
f 150/307/145 26/24/22 27/26/24
f 27/26/24 151/308/297 150/307/145
f 152/148/144 25/388/372 26/454/22
f 24/453/23 148/147/143 147/146/142
f 300/387/371 144/142/138 143/143/139
f 140/136/134 301/268/262 302/222/216
f 302/222/216 233/221/215 140/136/134
f 137/134/132 425/390/374 135/132/130
f 304/270/264 136/133/131 135/132/130
f 131/131/129 307/490/267 306/341/266
f 306/341/266 132/129/127 131/131/129
f 308/275/269 126/82/80 125/31/29
f 120/120/118 309/403/385 123/124/122
f 311/391/375 116/116/114 115/115/113
f 113/112/110 39/39/37 313/474/436
f 313/474/436 112/111/109 111/110/108
f 108/298/288 315/277/271 314/276/270
f 314/276/270 109/299/289 108/298/288
f 318/443/418 104/358/104 103/491/103
f 43/41/39 101/104/102 100/103/101
f 95/98/96 45/300/290 319/492/445
f 319/492/445 96/99/97 95/98/96
f 88/63/61 48/86/84 49/50/48
f 84/85/83 322/281/274 433/280/273
f 433/280/273 85/83/81 84/85/83
f 63/66/64 324/284/277 325/283/276
f 325/283/276 126/82/80 63/66/64
f 327/418/399 78/77/75 77/79/77
f 74/355/341 329/288/281 76/287/280
f 344/61/59 73/289/74 409/170/166
f 74/355/341 62/65/63 64/67/65
f 434/292/284 400/346/332 77/79/77
f 82/81/79 64/67/65 63/66/64
f 332/293/285 365/365/350 84/462/83
f 49/50/48 50/49/47 138/135/133
f 94/97/95 435/493/446 419/421/402
f 99/102/100 64/67/65 82/81/79
f 334/494/287 335/459/430 421/458/429
f 421/458/429 420/463/433 334/494/287
f 114/114/112 117/117/115 402/400/382
f 46/301/291 209/196/192 119/119/117
f 146/495/141 38/37/35 40/40/38
f 163/353/339 63/66/64 62/65/63
f 62/65/63 165/162/158 163/353/339
f 346/313/302 414/417/398 198/189/185
f 206/193/189 46/301/291 335/459/430
f 335/459/430 390/496/195 206/193/189
f 426/497/447 389/475/437 212/201/196
f 12/16/14 377/212/207 11/14/13
f 141/137/135 349/319/307 339/304/294
f 244/232/226 27/26/24 387/455/426
f 387/455/426 149/333/321 244/232/226
f 249/237/231 9/322/310 5/7/7
f 249/237/231 378/210/205 253/241/235
f 252/240/234 257/244/238 255/242/236
f 255/242/236 261/247/241 252/240/234
f 351/361/346 199/188/184 279/369/354
f 258/235/229 245/233/227 264/249/243
f 246/234/228 151/308/297 27/26/24
f 254/6/6 269/381/365 259/245/239
f 226/214/209 214/203/198 274/375/360
f 134/331/319 385/376/361 356/362/347
f 358/498/320 228/487/210 271/255/249
f 271/255/249 386/488/443 358/498/320
f 241/227/221 267/250/244 247/228/222
f 147/334/142 40/40/38 240/229/223
f 219/206/201 9/322/310 251/239/233
f 111/110/108 217/205/200 218/113/111
f 250/238/232 266/252/246 242/230/224
f 8/10/10 222/318/306 273/257/251
f 238/224/218 229/217/211 270/4/4
f 359/363/348 181/174/170 287/383/367
f 362/337/324 203/316/305 277/384/368
f 90/90/88 148/147/143 24/453/23
f 24/453/23 394/144/140 90/90/88
f 152/148/144 144/142/138 300/387/371
f 364/364/349 116/116/114 311/391/375
f 87/339/326 127/338/325 124/396/123
f 124/396/123 322/395/274 87/339/326
f 121/121/119 96/99/97 319/492/445
f 319/492/445 119/119/117 121/121/119
f 112/111/109 101/104/102 43/41/39
f 101/104/102 75/461/432 64/67/65
f 370/348/334 112/111/109 313/474/436
f 313/474/436 405/479/439 370/348/334
f 176/171/167 430/405/387 182/175/171
f 139/141/136 407/409/390 142/139/137
f 371/349/335 157/154/150 298/267/261
f 71/73/71 408/410/391 372/350/336
f 188/182/178 285/258/252 178/172/168
f 83/352/338 169/351/337 166/163/159
f 166/163/159 324/284/277 83/352/338
f 81/80/78 100/103/101 82/81/79
f 373/354/340 191/184/180 282/413/394
f 282/413/394 429/415/396 373/354/340
f 161/157/153 78/77/75 327/418/399
f 327/418/399 162/158/154 161/157/153
f 415/468/435 79/78/76 158/357/343
f 374/359/344 104/358/104 318/443/418
f 318/443/418 418/485/442 374/359/344
f 73/289/74 102/64/62 104/106/104
f 376/367/352 107/368/353 420/463/433
f 151/308/297 246/234/228 353/326/314
f 134/331/319 356/362/347 355/329/317
f 140/136/134 233/221/215 231/220/214
f 208/195/191 215/204/199 122/123/121
f 239/226/220 106/107/105 316/109/107
f 87/339/326 365/365/350 366/340/327
f 370/348/334 110/465/434 75/461/432
f 75/461/432 101/104/102 370/348/334
f 81/80/78 126/82/80 100/103/101
f 373/354/340 165/162/158 74/355/341
f 254/6/6 256/243/237 237/254/248
f 377/212/207 225/211/206 11/14/13
f 227/213/208 377/212/207 12/16/14
f 12/16/14 236/225/219 227/213/208
f 378/210/205 249/237/231 5/7/7
f 272/256/250 378/210/205 5/7/7
f 263/380/364 261/247/241 423/428/406
f 428/370/355 204/190/186 351/361/346
f 200/19/17 199/188/184 379/323/311
f 173/169/165 172/168/164 174/324/312
f 348/315/304 383/372/357 205/192/188
f 205/192/188 202/191/187 348/315/304
f 258/235/229 264/249/243 255/242/236
f 246/234/228 27/26/24 244/232/226
f 234/328/316 232/223/217 350/320/308
f 269/381/365 234/328/316 259/245/239
f 254/6/6 4/5/5 269/381/365
f 134/331/319 131/131/129 337/302/292
f 356/362/347 385/376/361 212/201/196
f 212/201/196 214/203/198 356/362/347
f 357/377/318 221/317/203 33/32/30
f 307/472/267 134/331/319 357/330/318
f 33/32/30 31/274/268 307/273/267
f 386/488/443 271/255/249 7/9/9
f 358/498/320 386/488/443 223/473/202
f 273/257/251 386/488/443 7/9/9
f 437/378/362 265/251/245 267/250/244
f 146/495/141 40/40/38 147/334/142
f 243/231/225 240/229/223 39/39/37
f 39/39/37 37/38/36 313/474/436
f 388/379/363 268/253/247 266/252/246
f 141/137/135 140/136/134 231/220/214
f 220/127/125 217/205/200 44/43/41
f 220/127/125 44/43/41 128/42/40
f 215/204/199 210/197/193 213/202/197
f 274/375/360 210/197/193 275/12/12
f 275/12/12 10/11/11 274/375/360
f 119/119/117 209/196/192 122/123/121
f 209/196/192 208/195/191 122/123/121
f 212/201/196 389/475/437 216/122/120
f 309/403/385 389/475/437 426/497/447
f 426/497/447 310/404/386 309/403/385
f 334/297/287 390/200/195 335/499/430
f 391/450/424 211/198/194 239/226/220
f 93/336/323 333/296/286 181/174/170
f 92/94/92 93/336/323 361/279/272
f 38/278/35 146/145/141 314/276/270
f 146/145/141 148/147/143 314/276/270
f 90/90/88 89/89/87 109/299/289
f 300/387/371 394/144/140 24/453/23
f 24/453/23 25/388/372 300/387/371
f 145/45/43 144/142/138 320/95/93
f 341/500/296 395/389/373 153/150/146
f 153/150/146 150/149/145 341/500/296
f 425/390/374 305/271/265 135/132/130
f 133/130/128 132/129/127 364/364/349
f 365/365/350 396/393/377 117/117/115
f 117/117/115 116/116/114 365/365/350
f 31/476/268 127/338/325 306/341/266
f 85/83/81 433/280/273 166/163/159
f 166/163/159 168/165/161 85/83/81
f 86/84/82 85/83/81 159/155/151
f 170/166/162 399/399/381 175/344/330
f 294/263/257 160/156/152 368/366/351
f 398/398/380 296/264/258 294/263/257
f 119/119/117 319/492/445 45/300/290
f 94/97/95 96/99/97 400/346/332
f 327/418/399 369/347/333 401/401/383
f 401/401/383 328/419/400 327/418/399
f 311/391/375 118/118/116 403/402/384
f 403/402/384 312/392/376 311/391/375
f 197/92/90 281/489/444 404/477/438
f 404/477/438 192/91/89 197/92/90
f 404/477/438 283/501/395 282/478/394
f 43/41/39 44/43/41 112/111/109
f 101/104/102 64/67/65 99/102/100
f 329/288/281 108/466/288 58/59/57
f 329/288/281 75/461/432 110/465/434
f 405/479/439 313/474/436 37/38/36
f 405/479/439 110/465/434 370/348/334
f 315/480/271 405/479/439 37/38/36
f 37/38/36 38/502/35 315/480/271
f 177/87/85 61/62/60 409/170/166
f 301/482/262 142/139/137 304/270/264
f 406/407/389 303/503/263 301/482/262
f 103/105/103 102/64/62 88/63/61
f 407/409/390 103/105/103 142/139/137
f 71/73/71 68/72/70 331/291/283
f 372/350/336 408/410/391 155/152/148
f 155/152/148 157/154/150 372/350/336
f 178/172/168 285/258/252 410/484/441
f 167/164/160 169/351/337 411/412/393
f 411/412/393 291/262/256 167/164/160
f 126/82/80 325/283/276 124/125/123
f 128/42/40 100/103/101 129/126/124
f 373/354/340 429/415/396 413/423/404
f 413/423/404 201/356/342 373/354/340
f 59/58/56 191/184/180 76/287/280
f 62/65/63 74/355/341 165/162/158
f 432/416/397 293/411/392 292/160/156
f 79/78/76 78/77/75 158/357/343
f 417/424/405 158/357/343 295/159/155
f 418/485/442 107/368/353 374/359/344
f 418/485/442 317/504/366 316/486/107
f 94/97/95 419/421/402 98/101/99
f 420/463/433 105/464/106 334/494/287
f 376/367/352 420/463/433 421/458/429
f 421/458/429 97/100/98 376/367/352
f 422/429/407 263/380/364 423/428/406
f 261/247/241 262/248/242 423/428/406
f 263/380/364 422/429/407 388/379/363
f 384/374/359 260/246/240 264/249/243
f 29/28/26 341/306/296 340/305/295
f 340/305/295 438/505/448 29/28/26
f 406/407/389 301/482/262 304/270/264
f 36/35/33 337/302/292 133/130/128
f 133/130/128 35/33/31 36/35/33
f 212/201/196 36/35/33 439/36/34
f 403/402/384 118/118/116 123/124/122
f 54/56/54 332/293/285 86/84/82
f 86/84/82 440/506/449 54/56/54
f 18/452/425 348/315/304 347/314/303
f 430/405/387 287/383/367 286/481/440
f 445/507/419 338/303/293 339/304/294
f 339/304/294 42/508/427 445/507/419
f 349/319/307 41/509/428 42/508/427
f 21/21/19 170/166/162 173/169/165
f 173/169/165 446/22/20 21/21/19
f 446/22/20 183/176/172 345/312/301
f 345/312/301 23/23/21 446/22/20
f 295/159/155 416/420/401 417/424/405
f 398/398/380 294/263/257 368/366/351
f 336/510/378 52/449/423 51/511/52
f 433/280/273 53/425/51 449/512/50
f 325/283/276 326/286/279 336/510/378
f 336/510/378 124/125/123 325/283/276
f 322/395/274 336/394/378 323/426/275
f 66/68/66 331/291/283 330/290/282
f 65/69/67 434/292/284 79/78/76
f 79/78/76 450/513/450 65/69/67
f 67/70/68 415/468/435 155/152/148
f 435/493/446 94/97/95 400/346/332
f 1/2/2 260/246/240 384/374/359
f 384/374/359 436/430/408 1/2/2
f 3/3/3 268/253/247 388/379/363
f 388/379/363 2/1/1 3/3/3
f 436/430/408 384/374/359 265/251/245
f 268/253/247 3/3/3 437/378/362
f 262/248/242 1/2/2 423/428/406
f 2/1/1 388/379/363 422/429/407
f 28/432/25 303/503/263 406/407/389
f 29/431/26 305/271/265 425/390/374
f 438/505/448 30/29/27 29/28/26
f 28/432/25 406/407/389 305/271/265
f 30/29/27 424/321/309 303/269/263
f 438/505/448 340/305/295 350/320/308
f 30/29/27 438/505/448 350/320/308
f 350/320/308 424/321/309 30/29/27
f 425/390/374 395/389/373 29/431/26
f 395/389/373 341/500/296 29/431/26
f 34/34/32 310/404/386 426/497/447
f 426/497/447 439/36/34 34/34/32
f 35/33/31 312/392/376 403/402/384
f 403/402/384 34/34/32 35/33/31
f 34/34/32 403/402/384 310/404/386
f 35/33/31 133/130/128 312/392/376
f 36/35/33 385/376/361 337/302/292
f 212/201/196 385/376/361 36/35/33
f 426/497/447 212/201/196 439/36/34
f 56/55/53 328/419/400 401/401/383
f 440/506/449 57/57/55 54/56/54
f 55/460/431 396/393/377 332/293/285
f 117/117/115 396/393/377 55/460/431
f 54/56/54 55/460/431 332/293/285
f 57/57/55 427/310/299 328/419/400
f 56/55/53 401/401/383 402/400/382
f 55/460/431 56/55/53 402/400/382
f 402/400/382 117/117/115 55/460/431
f 440/506/449 86/84/82 342/309/298
f 57/57/55 440/506/449 342/309/298
f 342/309/298 427/310/299 57/57/55
f 13/451/409 276/471/410 428/370/355
f 428/370/355 441/435/411 13/451/409
f 413/423/404 442/439/414 441/435/411
f 15/437/413 281/489/444 280/386/370
f 280/386/370 393/385/369 15/437/413
f 14/436/412 283/501/395 404/477/438
f 404/477/438 15/437/413 14/436/412
f 404/477/438 281/489/444 15/437/413
f 442/439/414 429/415/396 283/414/395
f 413/423/404 429/415/396 442/439/414
f 428/370/355 279/369/354 441/435/411
f 277/384/368 13/433/409 393/385/369
f 16/440/415 284/259/253 382/373/358
f 18/452/425 287/383/367 430/405/387
f 430/405/387 443/442/417 18/452/425
f 17/441/416 288/406/388 410/484/441
f 410/484/441 285/258/252 17/441/416
f 443/442/417 430/405/387 288/406/388
f 16/440/415 382/373/358 383/372/357
f 18/452/425 16/440/415 383/372/357
f 383/372/357 348/315/304 18/452/425
f 347/314/303 287/383/367 18/452/425
f 41/457/428 317/504/366 418/485/442
f 418/485/442 444/445/420 41/457/428
f 445/514/419 318/483/418 407/409/390
f 444/445/420 418/485/442 318/443/418
f 41/509/428 349/319/307 317/382/366
f 339/304/294 349/319/307 42/508/427
f 445/514/419 407/409/390 338/408/293
f 21/21/19 296/264/258 398/398/380
f 21/21/19 398/398/380 399/399/381
f 399/399/381 170/166/162 21/21/19
f 22/20/18 416/420/401 296/264/258
f 417/424/405 416/420/401 22/20/18
f 446/22/20 380/371/356 381/180/176
f 173/169/165 380/371/356 446/22/20
f 381/180/176 183/176/172 446/22/20
f 345/312/301 299/266/260 23/23/21
f 19/17/15 289/260/254 431/397/379
f 431/397/379 20/18/16 19/17/15
f 20/18/16 291/262/256 411/412/393
f 411/412/393 447/447/422 20/18/16
f 448/446/421 293/411/392 432/416/397
f 20/18/16 397/343/329 291/262/256
f 431/397/379 397/343/329 20/18/16
f 447/447/422 411/412/393 293/411/392
f 19/17/15 379/323/311 290/261/255
f 200/19/17 379/323/311 19/17/15
f 448/446/421 432/416/397 346/313/302
f 200/19/17 448/446/421 346/313/302
f 449/52/50 326/286/279 412/285/278
f 336/510/378 326/286/279 52/449/423
f 449/52/50 412/285/278 343/311/300
f 343/311/300 433/515/273 449/516/50
f 450/513/450 67/70/68 65/69/67
f 450/513/450 79/78/76 415/468/435
f 67/70/68 450/513/450 415/468/435
f 67/70/68 408/410/391 331/291/283
f 155/152/148 408/410/391 67/70/68
f 66/68/66 67/70/68 331/291/283
f 66/68/66 330/290/282 419/421/402
f 65/69/67 66/68/66 419/421/402
f 419/421/402 435/493/446 65/69/67
f 65/69/67 400/346/332 434/292/284
f 435/493/446 400/346/332 65/69/67
