# Blender v2.82 (sub 7) OBJ File: ''
# www.blender.org
o asteroid3.002
v 1.562564 -0.411237 0.660697
v 1.648463 -0.323548 0.313744
v 1.358689 -0.687862 0.468214
v 1.261064 0.540182 0.896357
v 1.664660 0.320864 0.548512
v 1.393348 0.669814 0.479627
v 1.425008 -0.250968 -0.302810
v 1.048874 -0.603209 -0.345305
v 1.358802 0.301143 -0.357096
v 1.500345 0.014548 -0.308301
v -1.404610 -0.035167 0.364362
v -1.254117 -0.406029 0.352683
v -1.346586 0.257831 0.328224
v -1.065543 0.539580 0.364595
v -1.889198 -0.174061 -0.747047
v -1.575678 0.714316 -0.917538
v -1.772020 0.364243 -0.504937
v -1.424176 0.845229 -0.698491
v 0.629213 -0.390652 1.218171
v 1.152981 -0.560167 0.935535
v 0.308303 -0.195571 -1.451972
v 0.561252 -0.141758 -1.325013
v -0.242503 0.620985 -1.483692
v 0.409260 0.076009 -1.493214
v 0.795382 -0.974655 0.376311
v 0.687893 -0.942727 0.770453
v 0.845361 0.988212 0.380009
v 1.198195 0.780928 0.647351
v 0.810559 0.784574 0.834350
v 0.398278 -0.875868 -0.348676
v -0.290083 1.269105 -0.770901
v 0.466192 1.195077 -0.690181
v -0.431357 -0.931796 0.749206
v -0.596433 -0.322081 1.073478
v -0.547788 0.070553 1.163451
v -0.313838 0.277495 1.218824
v -0.752890 -0.149177 -1.481971
v -1.472748 -0.179859 -1.135031
v -0.532619 -0.357452 -1.249903
v -0.963671 0.592004 -1.363552
v -1.449484 0.275156 -1.243075
v -0.537985 -1.039126 0.290680
v -0.527118 0.831373 0.393231
v -0.123910 0.930545 0.346927
v -0.322840 -0.882132 -0.360955
v -0.665050 1.195988 -0.716054
v -1.020465 0.942923 -1.067090
v 1.535581 -0.268436 0.055998
v 1.139307 -0.636256 -0.037464
v 1.563106 0.296201 0.072832
v 0.293588 -1.006274 0.001302
v 0.635503 0.878980 -0.076050
v 0.568038 1.047322 0.410889
v -0.941400 -0.161060 0.769626
v -0.799251 -0.792478 0.442642
v -0.566362 -0.945110 0.104794
v 0.129454 0.593817 0.896901
v -1.540584 -0.266158 -0.140755
v -1.713935 -0.242265 -0.298602
v -1.219409 -0.522529 -0.387116
v -1.401909 0.427624 -0.154168
v -1.666294 -0.042234 -0.218249
v 0.668552 -0.446910 -0.856183
v 0.829532 -0.177601 -0.880902
v 0.839966 0.348230 -0.820046
v 0.802870 0.852162 -0.375154
v 0.506752 1.161199 -0.487058
v 0.141938 0.979651 -0.014961
v -0.606525 -0.512576 -0.811042
v 0.037892 -0.549431 -0.844258
v -0.867548 0.808852 -0.142395
v -0.377576 0.993366 -0.156356
v -0.629231 1.167836 -0.564486
v 1.736459 0.108538 0.577665
v 1.395039 -0.143537 0.928984
v 1.125679 -0.812405 0.669567
v 1.660158 0.300500 0.232038
v -1.869567 0.192544 -0.876970
v -1.918567 -0.048707 -0.614668
v -1.566322 -0.340874 -0.838264
v 0.476684 -0.347167 -1.271870
v -0.217136 -0.078245 -1.567960
v 0.440908 0.846079 -1.186825
v -0.256167 1.044625 -1.143831
v -0.070677 -1.053767 0.672465
v 0.082414 -1.017163 -0.098558
v -0.304989 -0.258678 1.250182
v -0.399046 0.505145 0.955723
v -0.803459 0.031876 -1.523568
v 0.510646 -0.955386 -0.073148
v -0.736726 -0.728795 0.679000
v -0.732289 -0.852167 0.525282
v -0.343471 0.574430 0.814139
v -0.853844 -0.652469 0.555214
v 1.061002 0.665861 -0.048951
v 1.646894 0.084336 0.074594
v -1.848127 -0.126001 -0.437359
v 0.579367 0.536308 -1.217287
v 0.181924 -0.770898 1.026022
v 0.224900 -0.127755 1.335999
v 0.527530 0.353937 1.216239
v -0.316575 0.062258 -1.610747
v -0.669495 0.391751 0.908362
v -0.143343 0.513109 0.999372
v 1.738089 0.056137 0.217395
v 0.139264 -1.122695 0.363365
v -0.152418 1.234930 -0.544181
v -1.668164 -0.366782 -0.406281
v -1.841997 -0.016588 -0.395150
v 0.536105 0.852003 -1.026527
v 0.615544 0.664178 -1.062173
v 1.590486 0.182967 0.098797
v -0.754467 -0.694294 0.610684
v 0.436961 -0.937479 -0.061628
v 0.143707 -0.983028 -0.067655
v 0.679776 -0.117844 1.265902
v 0.238014 -0.378825 1.276653
v 0.447155 0.597591 -1.331608
v -1.637352 -0.164309 -0.218630
v -0.419632 -0.207654 -1.523884
vt 0.465375 0.942569
vt 0.469292 0.876303
vt 0.509417 0.909526
vt 0.467768 0.744149
vt 0.409318 0.786603
vt 0.413462 0.731754
vt 0.547542 0.315911
vt 0.483592 0.355438
vt 0.472801 0.313008
vt 0.582282 0.789861
vt 0.641623 0.825497
vt 0.528845 0.844501
vt 0.558102 0.708007
vt 0.568522 0.771303
vt 0.171455 0.261626
vt 0.198900 0.296859
vt 0.162702 0.296177
vt 0.306895 0.372494
vt 0.233251 0.420398
vt 0.207975 0.338075
vt 0.604470 0.868950
vt 0.660307 0.914452
vt 0.585193 0.915917
vt 0.441592 0.709437
vt 0.434028 0.658633
vt 0.487064 0.679863
vt 0.715661 0.848082
vt 0.685310 0.751835
vt 0.726782 0.764572
vt 0.291225 0.231744
vt 0.327794 0.264797
vt 0.288865 0.274718
vt 0.416785 0.370404
vt 0.420044 0.434388
vt 0.383396 0.460881
vt 0.339920 0.422905
vt 0.541987 0.962800
vt 0.486419 0.973675
vt 0.644255 0.480514
vt 0.674761 0.522378
vt 0.629479 0.524601
vt 0.105573 0.234510
vt 0.138883 0.213928
vt 0.463278 0.503001
vt 0.427182 0.447278
vt 0.504738 0.441749
vt 0.449991 0.907000
vt 0.416342 0.964084
vt 0.478642 0.818048
vt 0.543818 0.884333
vt 0.042575 0.161315
vt 0.095405 0.154956
vt 0.311737 0.711078
vt 0.261957 0.658267
vt 0.338770 0.617698
vt 0.362720 0.033903
vt 0.396360 0.020573
vt 0.410971 0.073746
vt 0.608778 0.417328
vt 0.578073 0.458455
vt 0.560706 0.378196
vt 0.626557 0.429828
vt 0.582301 0.276360
vt 0.550834 0.265339
vt 0.579601 0.261147
vt 0.381344 0.333124
vt 0.424364 0.266904
vt 0.657464 0.673980
vt 0.316293 0.515915
vt 0.253677 0.452215
vt 0.642759 0.955306
vt 0.190674 0.092386
vt 0.248915 0.124159
vt 0.167350 0.139311
vt 0.724257 0.715700
vt 0.335443 0.277980
vt 0.509458 0.562659
vt 0.545459 0.517930
vt 0.028242 0.139103
vt 0.083501 0.125146
vt 0.353281 0.760629
vt 0.298686 0.745558
vt 0.754151 0.834103
vt 0.665289 0.542173
vt 0.249911 0.013709
vt 0.287712 0.018936
vt 0.257958 0.040948
vt 0.622156 0.628321
vt 0.563719 0.634284
vt 0.605827 0.574760
vt 0.819490 0.819899
vt 0.769376 0.830194
vt 0.784175 0.771075
vt 0.451589 0.107309
vt 0.463379 0.130579
vt 0.464478 0.169399
vt 0.239309 0.598559
vt 0.307381 0.536317
vt 0.019211 0.173053
vt 0.001000 0.147800
vt 0.412754 0.003896
vt 0.443646 0.062910
vt 0.412376 0.813864
vt 0.250464 0.696730
vt 0.150316 0.106667
vt 0.368518 0.670112
vt 0.613519 0.753662
vt 0.286685 0.302796
vt 0.486756 0.234738
vt 0.359400 0.119091
vt 0.288833 0.170904
vt 0.217758 0.196815
vt 0.434497 0.093125
vt 0.268111 0.078602
vt 0.298758 0.022099
vt 0.458232 0.625471
vt 0.431747 0.566322
vt 0.445735 0.986318
vt 0.390361 0.485618
vt 0.342483 0.561486
vt 0.218245 0.609566
vt 0.203236 0.661743
vt 0.178833 0.646025
vt 0.594227 0.300994
vt 0.203631 0.603094
vt 0.245032 0.581153
vt 0.239511 0.571157
vt 0.604752 0.324472
vt 0.368068 0.776684
vt 0.366891 0.798126
vt 0.308773 0.015599
vt 0.753670 0.853950
vt 0.646945 0.635081
vt 0.411916 0.211369
vt 0.272054 0.293414
vt 0.620759 0.774196
vt 0.331293 0.774860
vt 0.155536 0.100470
vt 0.182963 0.091573
vt 0.188089 0.083741
vt 0.411060 0.163852
vt 0.218594 0.021563
vt 0.223563 0.004239
vt 0.620242 0.963900
vt 0.629467 0.565294
vt 0.389506 0.612396
vt 0.420151 0.115404
vt 0.435460 0.078080
vt 0.848624 0.795413
vt 0.676717 0.872217
vt 0.144583 0.289347
vt 0.090420 0.253903
vt 0.193062 0.061893
vt 0.599246 0.294623
vt 0.458337 0.993734
vt 0.249388 0.457989
vt 0.452869 0.996620
vt 0.761701 0.836927
vt 0.627642 0.964364
vt 0.656344 0.961646
vt 0.618083 0.310158
vt 0.354467 0.781228
vt 0.335938 0.786844
vt 0.345249 0.772683
vt 0.305369 0.011932
vt 0.762858 0.852938
vt 0.652337 0.625033
vn 0.8694 -0.4595 -0.1818
vn 0.7912 -0.4449 0.4196
vn 0.6404 -0.7676 -0.0267
vn 0.4977 0.4683 0.7301
vn 0.8504 0.4579 0.2591
vn 0.6677 0.7445 0.0012
vn -0.8097 0.4544 0.3712
vn -0.5478 0.8195 0.1681
vn -0.6782 0.6379 -0.3649
vn 0.2424 -0.3918 0.8876
vn -0.0172 -0.6466 0.7626
vn 0.4532 -0.4960 0.7407
vn 0.1224 0.4387 0.8903
vn 0.2872 -0.0273 0.9575
vn 0.4097 -0.7223 -0.5572
vn 0.2240 -0.4738 -0.8517
vn 0.7194 -0.2167 -0.6599
vn 0.0007 0.4282 -0.9037
vn 0.4884 0.3687 -0.7909
vn 0.4694 -0.0047 -0.8830
vn 0.2359 -0.8373 0.4933
vn 0.0119 -0.9994 -0.0314
vn 0.3403 -0.9322 -0.1236
vn 0.4735 0.8020 0.3640
vn 0.3464 0.9374 -0.0342
vn 0.0973 0.7614 0.6410
vn -0.3308 -0.7685 0.5478
vn -0.2794 -0.2542 0.9259
vn -0.5691 -0.3167 0.7588
vn -0.1184 -0.8873 -0.4457
vn -0.2604 -0.5492 -0.7941
vn -0.0980 -0.5550 -0.8261
vn -0.3411 0.7590 -0.5546
vn -0.2927 0.9552 -0.0427
vn -0.0516 0.9817 -0.1833
vn 0.0088 0.7602 -0.6496
vn 0.5536 -0.7822 -0.2858
vn 0.7932 -0.4667 -0.3912
vn -0.6987 -0.1251 0.7044
vn -0.5424 0.1176 0.8318
vn -0.5408 0.5377 0.6468
vn 0.7392 -0.2226 -0.6357
vn 0.4557 -0.7073 -0.5405
vn -0.1955 0.9103 0.3648
vn -0.2656 0.8962 0.3553
vn -0.4371 0.8239 0.3607
vn 0.9257 0.0862 0.3684
vn 0.5831 -0.0723 0.8092
vn 0.4683 -0.8141 0.3435
vn 0.7635 -0.4358 -0.4766
vn 0.5265 -0.7411 -0.4166
vn 0.7251 0.4551 -0.5168
vn 0.7794 0.2489 -0.5749
vn 0.6917 0.7132 -0.1133
vn -0.7151 -0.5657 0.4107
vn -0.8183 -0.0359 0.5736
vn -0.7377 -0.4963 0.4578
vn -0.7693 0.4119 0.4883
vn -0.5735 0.7063 0.4150
vn -0.6830 0.5916 0.4284
vn -0.9917 -0.0414 0.1216
vn -0.8939 0.1649 -0.4168
vn -0.8141 -0.4804 -0.3264
vn -0.2766 0.4233 -0.8627
vn -0.5411 0.1009 -0.8349
vn -0.2518 0.4222 0.8708
vn 0.4613 0.8585 -0.2240
vn 0.4988 0.5649 -0.6573
vn 0.1395 -0.9130 -0.3833
vn 0.0525 -0.9745 -0.2181
vn -0.1768 -0.8884 -0.4238
vn 0.1932 -0.8608 -0.4709
vn -0.2736 -0.0638 -0.9597
vn -0.1449 0.9275 0.3445
vn -0.3085 0.8642 0.3974
vn 0.7828 0.4999 -0.3705
vn 0.8448 -0.0021 -0.5351
vn -0.7075 -0.5111 0.4881
vn -0.6972 -0.6518 0.2983
vn -0.4171 -0.9060 -0.0725
vn -0.0385 0.7826 0.6213
vn -0.1447 0.8096 0.5689
vn -0.2071 0.8486 0.4867
vn -0.6576 -0.5572 0.5071
vn -0.8540 -0.3217 0.4090
vn 0.8095 0.3829 -0.4451
vn 0.9067 0.1513 -0.3937
vn -0.8135 0.0365 0.5804
vn 0.3048 -0.9508 0.0550
vn 0.5352 0.8266 -0.1741
vn 0.0114 -0.0193 0.9997
vn -0.0464 -0.0488 -0.9977
vn -0.3676 -0.9154 -0.1638
vn -0.1608 -0.8925 -0.4214
vn 0.0205 -0.8694 -0.4937
vn -0.7211 -0.4067 0.5609
vn -0.4274 -0.8691 -0.2490
vn -0.7017 -0.6959 0.1531
vn 0.0235 0.9818 0.1883
vn 0.0184 0.9823 0.1861
vn 0.9555 0.0310 -0.2934
vn -0.0276 0.9555 0.2938
vn 0.4435 0.8675 0.2253
vn 0.7763 0.2587 -0.5748
vn -0.8323 0.0618 0.5508
vn 0.7988 0.4665 -0.3799
vn 0.8249 0.4621 -0.3255
vn -0.2924 0.8173 0.4966
vn -0.4809 -0.5037 -0.7176
vn 0.0692 -0.3092 -0.9485
vn 0.0069 -0.3924 0.9198
vn -0.1591 -0.9861 -0.0489
vn 0.4897 -0.8060 -0.3325
vn -0.3621 -0.8571 -0.3664
vn -0.1349 -0.9259 0.3527
vn 0.3845 0.9231 0.0019
vn -0.4898 -0.8242 0.2842
vn -0.7008 -0.1350 0.7005
vn 0.9327 0.3522 -0.0776
vn -0.6590 -0.7520 0.0133
s 1
f 2/1/1 1/2/2 3/3/3
f 4/4/4 5/5/5 6/6/6
f 17/7/7 18/8/8 16/9/9
f 19/10/10 99/11/11 20/12/12
f 4/4/4 101/13/13 116/14/14
f 81/15/15 21/16/16 22/17/17
f 23/18/18 118/19/19 24/20/20
f 26/21/21 106/22/22 25/23/23
f 28/24/24 27/25/25 29/26/26
f 33/27/27 87/28/28 34/29/29
f 39/30/30 37/31/31 120/32/32
f 47/33/33 46/34/34 31/35/35
f 31/35/35 84/36/36 47/33/33
f 49/37/37 48/38/38 2/1/1
f 54/39/39 35/40/40 103/41/41
f 22/17/17 64/42/42 63/43/43
f 63/43/43 81/15/15 22/17/17
f 72/44/44 73/45/45 71/46/46
f 1/47/2 2/1/1 74/48/47
f 3/3/3 49/37/37 2/1/1
f 1/2/2 75/49/48 20/12/12
f 3/3/3 1/2/2 76/50/49
f 6/6/6 27/25/25 28/24/24
f 7/51/50 8/52/51 63/43/43
f 64/42/42 7/51/50 63/43/43
f 9/53/52 65/54/53 66/55/54
f 12/56/55 11/57/56 58/58/57
f 13/59/58 14/60/59 61/61/60
f 103/41/41 13/59/58 11/62/56
f 11/62/56 54/39/39 103/41/41
f 79/63/61 17/7/7 78/64/62
f 79/63/61 78/64/62 15/65/63
f 16/9/9 40/66/64 41/67/65
f 75/49/48 4/4/4 116/14/14
f 20/12/12 99/11/11 26/21/21
f 4/4/4 29/26/26 101/13/13
f 4/4/4 28/24/24 29/26/26
f 101/13/13 29/26/26 36/68/66
f 81/15/15 120/32/32 21/16/16
f 32/69/67 83/70/68 84/36/36
f 106/22/22 51/71/69 25/23/23
f 86/72/70 45/73/71 30/74/72
f 87/28/28 36/68/66 35/75/40
f 40/66/64 89/76/73 41/67/65
f 44/77/74 72/44/44 43/78/75
f 8/52/51 7/51/50 48/79/38
f 48/79/38 49/80/37 8/52/51
f 50/81/76 10/82/77 9/53/52
f 91/83/78 33/27/27 34/29/29
f 36/84/66 103/41/41 35/40/40
f 33/85/27 92/86/79 42/87/80
f 104/88/81 57/89/82 93/90/83
f 12/91/55 94/92/84 54/93/39
f 97/94/85 79/95/61 15/96/63
f 17/7/7 61/61/60 18/8/8
f 63/43/43 8/52/51 30/74/72
f 66/55/54 111/97/86 32/98/67
f 7/51/50 10/99/77 96/100/87
f 96/100/87 48/79/38 7/51/50
f 11/57/56 13/101/58 62/102/88
f 75/49/48 74/103/47 4/4/4
f 10/82/77 64/104/42 65/54/53
f 65/54/53 9/53/52 10/82/77
f 76/50/49 1/2/2 20/12/12
f 8/52/51 49/80/37 90/105/89
f 66/55/54 95/106/90 50/81/76
f 50/81/76 9/53/52 66/55/54
f 100/107/91 101/13/13 36/68/66
f 24/20/20 102/108/92 23/18/18
f 41/67/65 15/96/63 78/109/62
f 31/35/35 32/69/67 84/36/36
f 44/77/74 43/78/75 57/89/82
f 61/61/60 14/60/59 71/46/46
f 60/110/93 69/111/94 45/73/71
f 69/111/94 70/112/95 45/73/71
f 70/112/95 30/74/72 45/73/71
f 59/113/96 56/114/97 58/58/57
f 58/58/57 56/114/97 12/56/55
f 56/114/97 55/115/98 12/56/55
f 47/33/33 40/66/64 16/9/9
f 53/116/99 68/117/100 44/77/74
f 68/117/100 72/44/44 44/77/74
f 57/89/82 104/88/81 36/68/66
f 36/68/66 29/26/26 57/89/82
f 53/116/99 57/89/82 29/26/26
f 27/25/25 6/6/6 95/106/90
f 2/1/1 105/118/101 74/48/47
f 107/119/102 68/117/100 67/120/103
f 98/121/104 22/122/17 24/123/20
f 79/63/61 109/124/105 17/7/7
f 23/18/18 83/70/68 118/19/19
f 23/18/18 84/36/36 83/70/68
f 118/125/19 98/121/104 24/123/20
f 32/98/67 110/126/106 83/127/68
f 109/124/105 62/128/88 17/7/7
f 72/44/44 107/119/102 73/45/45
f 46/34/34 107/119/102 31/35/35
f 77/129/107 5/5/5 74/103/47
f 105/130/101 77/129/107 74/103/47
f 55/115/98 42/87/80 92/86/79
f 12/56/55 55/115/98 94/131/84
f 33/27/27 91/83/78 92/132/79
f 93/90/83 57/89/82 43/78/75
f 36/68/66 104/88/81 88/133/108
f 38/134/109 89/76/73 37/31/31
f 38/134/109 41/67/65 89/76/73
f 120/32/32 81/15/15 39/30/30
f 23/18/18 102/108/92 89/76/73
f 89/76/73 40/66/64 23/18/18
f 89/76/73 82/135/110 37/31/31
f 75/49/48 116/14/14 19/10/10
f 19/10/10 20/12/12 75/49/48
f 101/13/13 100/107/91 116/14/14
f 19/10/10 116/14/14 117/136/111
f 50/81/76 96/137/87 10/82/77
f 58/58/57 11/57/56 62/102/88
f 38/134/109 15/96/63 41/67/65
f 54/93/39 91/83/78 34/29/29
f 73/45/45 46/34/34 18/8/8
f 17/7/7 62/128/88 61/61/60
f 90/105/89 114/138/112 86/72/70
f 115/139/113 51/140/69 86/72/70
f 111/97/86 98/121/104 118/125/19
f 5/5/5 4/4/4 74/103/47
f 15/96/63 38/134/109 80/141/114
f 25/23/23 76/50/49 26/21/21
f 53/116/99 29/26/26 27/25/25
f 87/28/28 33/27/27 99/11/11
f 37/31/31 39/30/30 80/141/114
f 80/141/114 38/134/109 37/31/31
f 33/85/27 42/87/80 106/142/22
f 106/142/22 85/143/115 33/85/27
f 51/71/69 90/144/89 49/37/37
f 93/90/83 43/78/75 103/41/41
f 103/41/41 88/145/108 93/90/83
f 52/146/116 68/117/100 53/116/99
f 53/116/99 27/25/25 52/146/116
f 51/71/69 49/37/37 25/23/23
f 56/114/97 86/72/70 42/87/80
f 52/146/116 67/120/103 68/117/100
f 63/43/43 70/112/95 81/15/15
f 108/147/117 80/141/114 60/110/93
f 119/148/118 59/113/96 58/58/57
f 25/23/23 3/3/3 76/50/49
f 64/42/42 10/99/77 7/51/50
f 12/91/55 54/93/39 11/149/56
f 13/59/58 103/41/41 14/60/59
f 16/9/9 78/64/62 17/7/7
f 18/8/8 46/34/34 47/33/33
f 47/33/33 16/9/9 18/8/8
f 76/50/49 20/12/12 26/21/21
f 117/136/111 87/28/28 99/11/11
f 85/150/115 99/11/11 33/27/27
f 69/111/94 80/141/114 39/30/30
f 69/111/94 39/30/30 70/112/95
f 90/105/89 30/74/72 8/52/51
f 34/29/29 35/75/40 54/93/39
f 95/106/90 52/146/116 27/25/25
f 15/96/63 108/147/117 97/94/85
f 60/110/93 45/73/71 56/114/97
f 67/120/103 32/69/67 107/119/102
f 64/42/42 22/151/17 65/152/53
f 66/55/54 65/54/53 111/97/86
f 61/61/60 62/128/88 13/59/58
f 75/49/48 1/2/2 74/103/47
f 4/4/4 6/6/6 28/24/24
f 95/106/90 66/55/54 52/146/116
f 99/11/11 85/150/115 26/21/21
f 36/68/66 87/28/28 100/107/91
f 120/32/32 82/135/110 21/16/16
f 78/109/62 16/9/9 41/67/65
f 47/33/33 84/36/36 23/18/18
f 23/18/18 40/66/64 47/33/33
f 45/73/71 86/72/70 56/114/97
f 103/41/41 43/78/75 14/60/59
f 43/78/75 71/46/46 14/60/59
f 72/44/44 71/46/46 43/78/75
f 70/112/95 63/43/43 30/74/72
f 56/114/97 59/113/96 60/110/93
f 88/145/108 103/41/41 36/84/66
f 44/77/74 57/89/82 53/116/99
f 56/114/97 42/87/80 55/115/98
f 94/92/84 91/83/78 54/93/39
f 87/28/28 35/75/40 34/29/29
f 49/37/37 3/3/3 25/23/23
f 6/6/6 5/5/5 77/129/107
f 106/22/22 26/21/21 85/150/115
f 51/140/69 106/153/22 42/87/80
f 42/87/80 86/72/70 51/140/69
f 60/110/93 80/141/114 69/111/94
f 68/117/100 107/119/102 72/44/44
f 70/112/95 39/30/30 81/15/15
f 22/122/17 98/121/104 65/54/53
f 71/46/46 18/8/8 61/61/60
f 73/45/45 18/8/8 71/46/46
f 108/147/117 60/110/93 59/113/96
f 80/141/114 108/147/117 15/96/63
f 108/147/117 59/113/96 97/94/85
f 32/98/67 67/120/103 66/55/54
f 67/120/103 52/146/116 66/55/54
f 110/126/106 32/98/67 111/97/86
f 111/97/86 65/54/53 98/121/104
f 58/58/57 62/102/88 119/148/118
f 97/154/85 109/124/105 79/63/61
f 82/135/110 102/108/92 24/20/20
f 19/10/10 117/136/111 99/11/11
f 87/28/28 117/136/111 100/107/91
f 22/17/17 21/16/16 24/20/20
f 82/135/110 24/20/20 21/16/16
f 86/72/70 30/74/72 90/105/89
f 6/6/6 50/81/76 95/106/90
f 6/6/6 77/129/107 50/81/76
f 105/118/101 2/1/1 48/38/38
f 48/38/38 96/155/87 105/118/101
f 32/69/67 31/35/35 107/119/102
f 83/70/68 110/156/106 118/19/19
f 59/113/96 119/148/118 97/94/85
f 109/124/105 97/154/85 62/128/88
f 96/155/87 112/157/119 105/118/101
f 113/158/120 91/83/78 94/92/84
f 114/159/112 51/71/69 115/160/113
f 114/159/112 90/144/89 51/71/69
f 115/139/113 86/72/70 114/138/112
f 120/32/32 37/31/31 82/135/110
f 102/108/92 82/135/110 89/76/73
f 111/97/86 118/125/19 110/126/106
f 62/128/88 97/154/85 119/161/118
f 46/34/34 73/45/45 107/119/102
f 77/162/107 105/163/101 112/164/119
f 96/137/87 50/81/76 112/164/119
f 77/129/107 112/164/119 50/81/76
f 55/115/98 113/165/120 94/131/84
f 113/158/120 55/166/98 92/132/79
f 92/132/79 91/83/78 113/158/120
f 88/133/108 104/88/81 93/167/83
f 100/107/91 117/136/111 116/14/14
