# Blender v2.82 (sub 7) OBJ File: ''
# www.blender.org
o asteroid3.001
v 1.617892 -0.334421 0.604286
v 1.609308 -0.394635 0.442221
v 1.705139 -0.190897 0.418798
v 1.427028 -0.597027 0.587604
v 1.425956 -0.595942 0.392724
v 1.431718 0.501463 0.740814
v 1.659777 0.306647 0.576353
v 1.466850 0.584008 0.539280
v 1.664350 0.330122 0.421164
v 1.419277 -0.073684 -0.375647
v 1.375618 -0.302812 -0.321246
v 1.220104 -0.473102 -0.316277
v 1.333270 0.313982 -0.364664
v 1.393821 0.162226 -0.375283
v 1.515395 0.135026 -0.200160
v -1.366774 -0.168793 0.372694
v -1.310571 -0.358539 0.282319
v -1.191702 -0.348687 0.467201
v -1.137128 -0.483296 0.392445
v -1.288114 0.320286 0.347133
v -1.146378 0.460547 0.366762
v -1.400439 0.168499 0.292108
v -1.311482 0.081933 0.433296
v -1.838987 -0.195970 -0.775142
v -1.814745 -0.268674 -0.587548
v -1.899544 -0.118447 -0.627628
v -1.580852 0.631366 -0.968519
v -1.697357 0.590325 -0.790658
v -1.783888 0.417097 -0.615616
v -1.519496 0.696880 -0.591144
v 0.866941 -0.598549 1.013451
v 0.667331 -0.342680 1.227001
v 0.496193 -0.416920 1.237501
v 1.248043 -0.386299 0.948450
v 0.736074 0.465361 1.110594
v 0.518109 0.588338 1.010162
v 1.021725 0.351046 1.062367
v 1.016253 0.662253 0.897704
v 0.646845 0.171216 1.231611
v 0.343420 -0.191282 -1.438157
v 0.058999 -0.180116 -1.502359
v 0.369431 -0.341441 -1.285578
v 0.570128 -0.215392 -1.279177
v 0.555305 -0.336145 -1.200484
v -0.109261 0.526219 -1.496076
v -0.100712 0.756380 -1.375521
v 0.333796 0.164415 -1.496820
v 0.466907 0.153416 -1.426851
v 0.665602 -1.014500 0.367196
v 0.591400 -1.015575 0.613488
v 0.229634 -1.101318 0.420534
v 0.514479 -0.936539 0.803214
v 0.935329 0.936809 0.423770
v 0.745862 0.993865 0.468246
v 1.189035 0.802638 0.578469
v 0.835798 0.838969 0.750932
v 1.167585 0.752301 0.714012
v 0.512742 -0.834531 -0.362739
v 0.911825 -0.665450 -0.366133
v -0.158187 1.210741 -0.862396
v 0.336665 1.174734 -0.795774
v 0.462343 1.136713 -0.758699
v -0.300598 -0.357823 1.213086
v -0.363230 -0.736758 0.953931
v -0.512889 -0.320745 1.127477
v -0.542632 -0.675560 0.890009
v -0.465819 0.042233 1.204581
v -0.450425 0.284797 1.148592
v -0.173978 0.324238 1.200469
v -0.758367 -0.145803 -1.489368
v -1.511566 -0.221377 -1.067989
v -1.415846 -0.112789 -1.194764
v -0.532619 -0.357452 -1.249903
v -0.992782 0.757312 -1.244564
v -0.849798 0.474962 -1.430003
v -1.182860 0.476212 -1.307801
v -0.437986 -1.053828 0.418634
v -0.421208 -1.014934 0.595430
v -0.624207 0.818901 0.300556
v -0.276748 0.917064 0.297649
v -0.598485 0.735360 0.480967
v -0.405873 0.782279 0.502494
v -0.087671 -0.892141 -0.377352
v -0.486227 -0.834454 -0.352772
v -1.001660 1.058640 -0.740960
v -0.661305 1.202974 -0.707255
v -0.997003 1.000877 -0.960232
v 1.462444 -0.345810 0.007896
v 1.292968 -0.523398 0.004432
v 1.606015 -0.316406 0.213359
v 1.526923 0.289650 0.024274
v 1.592412 0.325475 0.128000
v 0.491611 -0.964088 -0.039149
v 0.479683 -0.967147 0.033373
v 0.721347 0.873598 0.016574
v 0.037228 0.909844 0.432306
v 0.109302 0.985632 0.257021
v -0.866085 -0.402293 0.719416
v -0.917740 -0.253445 0.740841
v -0.380573 0.567987 0.832654
v -0.411701 0.538785 0.888640
v -0.653607 0.326933 0.981508
v -0.836433 0.333412 0.763378
v -0.935452 0.066082 0.756791
v -0.672123 0.059512 1.043375
v -0.783740 -0.820186 0.325535
v -0.877081 -0.709903 0.411955
v -1.094173 -0.580103 0.257470
v -0.402464 -0.958444 -0.003708
v -0.657094 -0.851571 -0.035789
v -0.022228 0.614298 0.816918
v -1.594561 -0.223541 -0.185090
v -1.418397 -0.350659 -0.030747
v -1.492065 -0.215566 0.009906
v -1.443431 -0.417406 -0.234971
v -1.669879 -0.215360 -0.247063
v -1.246691 -0.519506 -0.328462
v -1.065494 -0.511922 -0.543129
v -1.459165 0.360600 -0.170172
v -1.292046 0.516871 -0.139678
v -1.577711 0.167344 -0.183947
v 0.534025 -0.505036 -0.828067
v 0.811959 -0.208175 -0.894124
v 0.754750 -0.403386 -0.816296
v 0.988875 -0.063959 -0.740714
v 0.807683 0.139889 -0.919826
v 0.792542 0.420736 -0.840327
v 0.968621 0.258844 -0.720427
v 0.916761 0.503700 -0.623603
v 0.802322 0.809583 -0.422687
v 0.826900 0.697393 -0.538514
v 0.780712 0.867694 -0.297790
v 0.366197 1.157776 -0.426098
v 0.504158 0.932110 -0.098965
v 0.690809 0.868543 -0.140965
v 0.526081 1.115899 -0.422818
v 0.208213 1.039701 -0.193559
v -0.325019 -0.615414 -0.714357
v -0.720896 -0.513141 -0.752985
v -0.068986 -0.513116 -0.918684
v -0.705565 0.927158 -0.229497
v -0.282084 1.024929 -0.192029
v -0.544051 1.176804 -0.534355
v -0.513492 0.918386 -0.037818
v -0.905086 0.750538 -0.021496
v 1.753018 0.080618 0.430697
v 1.710120 0.063938 0.606090
v 1.421921 -0.496667 0.751292
v 1.533746 -0.114277 0.802790
v 1.095940 -0.790494 0.733649
v 1.131438 -0.823309 0.583434
v 1.698947 0.229378 0.244195
v 1.643940 0.314810 0.205156
v 1.234540 0.560143 0.859804
v 1.316362 0.324758 0.915671
v 1.283019 0.721013 0.358962
v 1.189126 0.501778 -0.326586
v -1.430314 0.007727 0.296219
v -0.945789 0.626253 0.353096
v -1.889750 0.181742 -0.813896
v -1.913309 0.022099 -0.617320
v -1.901031 -0.058915 -0.761595
v -1.739275 -0.067577 -0.975009
v -1.644486 -0.344095 -0.717619
v -1.370020 0.704317 -1.097308
v -1.496457 0.427475 -1.155805
v -1.345225 0.895974 -0.718409
v 0.617518 -0.105258 1.284151
v 1.244784 -0.107103 1.009233
v 0.706332 -0.200486 1.249565
v 0.620051 -0.808910 0.929009
v 0.238418 -0.380581 1.280265
v 0.067200 0.048438 -1.562103
v 0.308109 -0.022474 -1.500767
v 0.066823 -0.364768 -1.276606
v -0.334160 -0.179923 -1.544298
v -0.226139 -0.090204 -1.582028
v 0.464783 0.865724 -1.137642
v -0.058028 0.968844 -1.192872
v -0.476269 0.505138 -1.493522
v 0.339714 -1.073506 0.285319
v -0.083775 -0.988139 0.764724
v -0.014678 -1.080958 0.600127
v 0.887592 0.931884 0.277189
v 0.438451 1.032219 0.360848
v 0.522125 0.982036 0.528313
v 0.157480 -1.003556 -0.123344
v -0.123548 -0.991067 -0.062944
v 0.268675 -0.889668 -0.356987
v -0.191483 1.270481 -0.704721
v -0.316844 -0.111795 1.259117
v -0.072730 0.134996 1.281978
v -0.441760 -0.901112 0.748362
v -0.358253 0.500248 0.984172
v -1.448977 0.090531 -1.230935
v -0.816960 -0.023009 -1.512125
v -0.981260 0.909271 -1.122236
v -0.626632 -0.977239 0.290565
v -0.314717 -1.078494 0.277982
v 0.430376 -0.959713 -0.119954
v 0.502693 -0.955314 -0.081263
v -0.710145 -0.323946 0.953896
v -0.759980 -0.701405 0.670758
v -0.732289 -0.852167 0.525282
v -0.666638 0.479107 0.771281
v 0.240150 0.594878 0.936096
v -0.279994 0.583954 0.833024
v -0.860682 -0.756451 0.082592
v 0.139415 0.988927 0.125397
v 0.339784 0.966685 0.039116
v -0.880201 -0.603013 0.555507
v -0.853473 -0.652825 0.562104
v 1.032511 0.676032 -0.119715
v 1.322553 0.492294 0.029124
v 1.623673 0.046561 0.042608
v 1.580618 -0.162141 0.061909
v 1.664197 0.071036 0.087181
v 0.122822 -1.024812 0.033998
v 0.200580 -1.016542 -0.011543
v -1.843026 -0.154411 -0.414820
v -1.756566 -0.221325 -0.335961
v -1.719535 0.317616 -0.408371
v 0.598822 0.561124 -1.173392
v 0.542263 0.540587 -1.263538
v 0.581236 1.048779 -0.685913
v 0.334288 1.218054 -0.661792
v 0.545137 1.135055 -0.516291
v -0.659426 1.178342 -0.609117
v 0.006677 1.023188 -0.118672
v 0.139244 -0.623064 -0.730749
v -1.628178 -0.027319 -0.173967
v 1.534869 -0.005820 -0.206155
v 1.490718 -0.165015 -0.231582
v 1.575658 0.199357 0.740605
v 1.098254 -0.671828 0.865251
v 1.015800 -0.709438 -0.026564
v -0.048642 -0.797440 0.979591
v 0.359938 -0.745178 1.028055
v 0.395683 -0.084103 1.322818
v 0.335379 0.295367 1.247797
v 0.191457 -0.218538 1.323641
v -0.268493 0.022001 -1.606492
v -1.764626 0.211083 -0.991545
v -0.503330 1.034636 -1.111080
v -1.326031 0.854359 -0.954513
v -0.602960 0.431339 0.920748
v -0.208669 0.500589 1.016739
v -0.145828 0.534036 0.966905
v -0.074637 0.537619 0.948165
v 0.541218 1.033514 0.273201
v -0.721340 -0.781668 0.639128
v 1.213222 -0.752411 0.372580
v 0.923940 -0.913760 0.374099
v 1.153217 0.681388 0.099781
v 1.739322 0.088875 0.227527
v 1.727313 0.046370 0.179343
v -0.059989 -1.119573 0.369295
v -1.232170 -0.344998 -1.011354
v -0.238572 1.221429 -0.518925
v -0.139614 1.254351 -0.603450
v 0.635183 0.073206 -1.214229
v -1.101050 0.720607 -0.226750
v -1.639419 -0.382654 -0.458487
v -1.676594 -0.353402 -0.392982
v -1.852635 -0.043084 -0.411330
v -1.800085 -0.009485 -0.347728
v 0.568581 0.827862 -1.020213
v 0.677588 0.633836 -0.925353
v 0.469200 0.817671 -1.115828
v 0.444985 0.656057 -1.264067
v -1.657852 -0.164152 -0.265092
v -1.762046 -0.166025 -0.374156
v -1.804436 -0.062407 -0.402993
v -0.597052 1.181899 -0.701022
v -0.216210 1.209843 -0.578941
v -0.257475 1.231559 -0.695742
v 1.620321 0.272634 0.195571
v 1.639450 0.107069 0.127021
v 1.580636 0.242537 0.111749
v -0.737519 -0.800812 0.515180
v -0.795602 -0.673071 0.575307
v -0.805915 -0.725906 0.484038
v -0.345499 0.496466 0.934058
v -0.254067 0.536368 0.873640
v -0.357962 0.533860 0.852983
v 0.436961 -0.937479 -0.061628
v 0.143707 -0.983028 -0.067655
v -0.731362 0.026908 -1.511335
v -0.341005 0.014732 -1.565430
v -0.690705 -0.114835 -1.479402
v -0.316931 -0.121297 -1.532245
v 0.585083 -0.133968 1.254792
v 0.607719 -0.335840 1.209764
v 0.279921 -0.339110 1.258166
v -0.453660 0.790121 -1.336804
v 0.431738 0.788975 -1.239678
v 0.491312 0.580925 -1.251997
v 0.620944 0.692238 -1.049213
v 0.573482 0.624473 -1.117008
v 0.450343 0.622009 -1.333578
v -1.642751 -0.139549 -0.203799
v -1.706852 -0.037386 -0.248720
v -0.442354 1.250912 -0.768271
v 1.580040 0.255980 0.064539
v -0.828234 -0.770009 0.447575
v 0.077279 -1.025201 -0.072496
v -0.562980 -0.200091 -1.505515
v -0.459957 0.081597 -1.595300
v -0.730627 0.056578 -1.547695
v 0.260331 -0.132828 1.332209
v 0.546914 0.776448 -1.039970
v -1.699875 -0.063088 -0.288081
v -0.540826 1.163370 -0.585074
v 1.692585 0.097072 0.211847
v -0.733660 -0.726001 0.622282
v -0.192913 0.498727 0.965457
v 0.264847 -0.164538 1.297966
v 0.489960 -0.045058 -1.394319
vt 0.464382 0.921651
vt 0.444796 0.945921
vt 0.449991 0.907000
vt 0.454790 0.881011
vt 0.497124 0.893214
vt 0.497308 0.917064
vt 0.439925 0.755247
vt 0.412497 0.787977
vt 0.417470 0.745409
vt 0.313893 0.708278
vt 0.315740 0.744962
vt 0.302046 0.725461
vt 0.841192 0.804509
vt 0.831038 0.824525
vt 0.813116 0.810596
vt 0.807086 0.823944
vt 0.617256 0.405587
vt 0.626557 0.429828
vt 0.602069 0.426618
vt 0.443883 0.132713
vt 0.463379 0.130579
vt 0.461421 0.152798
vt 0.533584 0.304404
vt 0.504861 0.342847
vt 0.498392 0.300696
vt 0.561952 0.834601
vt 0.575400 0.790117
vt 0.596511 0.790128
vt 0.622013 0.824850
vt 0.582902 0.704315
vt 0.526315 0.712738
vt 0.536412 0.677281
vt 0.500687 0.745666
vt 0.478341 0.714282
vt 0.553448 0.737244
vt 0.186131 0.267985
vt 0.194601 0.297380
vt 0.152657 0.281782
vt 0.158184 0.260069
vt 0.285135 0.367576
vt 0.301267 0.400183
vt 0.233486 0.419705
vt 0.216127 0.346900
vt 0.197646 0.351172
vt 0.607109 0.889051
vt 0.649878 0.906299
vt 0.601349 0.915436
vt 0.432950 0.668798
vt 0.451051 0.651413
vt 0.433587 0.706242
vt 0.475684 0.680459
vt 0.450302 0.712913
vt 0.152477 0.143281
vt 0.157439 0.107402
vt 0.183228 0.135073
vt 0.701816 0.816699
vt 0.685950 0.766168
vt 0.715264 0.760607
vt 0.723545 0.812851
vt 0.415416 0.200364
vt 0.407668 0.224730
vt 0.328234 0.264507
vt 0.291225 0.231744
vt 0.305145 0.265583
vt 0.398909 0.345108
vt 0.366490 0.322989
vt 0.405335 0.304788
vt 0.511430 0.540655
vt 0.536982 0.505213
vt 0.559141 0.521035
vt 0.550372 0.546768
vt 0.449237 0.392233
vt 0.419827 0.434646
vt 0.427171 0.379912
vt 0.396510 0.448828
vt 0.367841 0.411002
vt 0.520721 0.963068
vt 0.496926 0.969959
vt 0.475425 0.952745
vt 0.348695 0.762418
vt 0.345843 0.750470
vt 0.359578 0.762622
vt 0.622704 0.952944
vt 0.652836 0.958098
vt 0.621283 0.962145
vt 0.507208 0.587776
vt 0.472479 0.577169
vt 0.608217 0.567255
vt 0.642615 0.524395
vt 0.623878 0.497107
vt 0.644255 0.480514
vt 0.663215 0.510946
vt 0.293557 0.040629
vt 0.308703 0.029169
vt 0.339914 0.044835
vt 0.344525 0.025430
vt 0.388689 0.069907
vt 0.405050 0.060299
vt 0.420983 0.079958
vt 0.391446 0.095135
vt 0.109722 0.235109
vt 0.126615 0.216799
vt 0.238684 0.668377
vt 0.263900 0.642977
vt 0.269469 0.672124
vt 0.292324 0.648759
vt 0.309229 0.626286
vt 0.259478 0.613359
vt 0.328838 0.617836
vt 0.361054 0.548945
vt 0.395076 0.595071
vt 0.373953 0.615626
vt 0.348945 0.567079
vt 0.255591 0.174428
vt 0.300199 0.169699
vt 0.229711 0.204971
vt 0.449702 0.507798
vt 0.426841 0.456492
vt 0.481037 0.460202
vt 0.488588 0.494058
vt 0.522087 0.450679
vt 0.427107 0.969931
vt 0.411270 0.961329
vt 0.494416 0.868147
vt 0.459562 0.832168
vt 0.509108 0.835980
vt 0.545120 0.876558
vt 0.542277 0.893541
vt 0.369866 0.786014
vt 0.367775 0.771752
vt 0.395740 0.780733
vt 0.462697 0.737841
vt 0.468500 0.767332
vt 0.408004 0.713158
vt 0.051517 0.162124
vt 0.073900 0.156336
vt 0.326319 0.687595
vt 0.847314 0.777969
vt 0.857272 0.796972
vt 0.866621 0.782322
vt 0.369157 0.033845
vt 0.388804 0.026154
vt 0.767338 0.797824
vt 0.780370 0.780471
vt 0.548928 0.394267
vt 0.568089 0.368121
vt 0.585611 0.448575
vt 0.568170 0.471434
vt 0.576499 0.278545
vt 0.550834 0.265339
vt 0.579601 0.261147
vt 0.455597 0.205013
vt 0.442384 0.321947
vt 0.441186 0.284397
vt 0.470789 0.305239
vt 0.474204 0.360996
vt 0.571843 0.763149
vt 0.496079 0.805143
vt 0.565977 0.778169
vt 0.595973 0.847418
vt 0.641354 0.673382
vt 0.239694 0.321757
vt 0.208570 0.320737
vt 0.223855 0.252722
vt 0.278662 0.280443
vt 0.228408 0.293281
vt 0.313511 0.512763
vt 0.255650 0.459950
vt 0.315699 0.433231
vt 0.250959 0.441556
vt 0.637707 0.924170
vt 0.678112 0.858258
vt 0.675567 0.883733
vt 0.611970 0.864858
vt 0.474232 0.635124
vt 0.459187 0.615377
vt 0.185370 0.100499
vt 0.213093 0.088874
vt 0.221271 0.128312
vt 0.684413 0.731714
vt 0.641337 0.702597
vt 0.709506 0.710575
vt 0.716166 0.845795
vt 0.669702 0.667840
vt 0.646773 0.635435
vt 0.331746 0.286006
vt 0.420982 0.245363
vt 0.337918 0.273299
vt 0.269761 0.044394
vt 0.232578 0.043713
vt 0.249263 0.028039
vt 0.039249 0.136027
vt 0.066842 0.128670
vt 0.397009 0.626626
vt 0.746021 0.771195
vt 0.755676 0.831057
vt 0.665289 0.542173
vt 0.680952 0.528508
vt 0.249911 0.013709
vt 0.287712 0.018936
vt 0.282501 0.081270
vt 0.268783 0.121173
vt 0.248959 0.081269
vt 0.608823 0.523726
vt 0.600693 0.628686
vt 0.570552 0.611955
vt 0.599678 0.585534
vt 0.612823 0.624376
vt 0.774646 0.825068
vt 0.769254 0.830312
vt 0.797278 0.747709
vt 0.362366 0.661885
vt 0.382784 0.689187
vt 0.363706 0.712297
vt 0.451382 0.108624
vt 0.363703 0.112755
vt 0.344297 0.141328
vt 0.561050 0.327049
vt 0.156972 0.209693
vt 0.110398 0.153994
vt 0.306997 0.562902
vt 0.334232 0.526099
vt 0.332950 0.562791
vt 0.202747 0.186572
vt 0.250464 0.696730
vt 0.090420 0.253903
vt 0.076847 0.230365
vt 0.518322 0.413894
vt 0.026650 0.159874
vt 0.008931 0.163932
vt 0.001000 0.147800
vt 0.017360 0.142145
vt 0.325355 0.773514
vt 0.303229 0.757011
vt 0.450167 0.035870
vt 0.438731 0.058364
vt 0.401211 0.016990
vt 0.412754 0.003896
vt 0.436140 0.797784
vt 0.288557 0.739879
vt 0.540235 0.857525
vt 0.095699 0.122566
vt 0.149649 0.106598
vt 0.349660 0.615471
vt 0.611890 0.748504
vt 0.594574 0.749882
vt 0.279943 0.303274
vt 0.303472 0.301606
vt 0.327096 0.345941
vt 0.469035 0.244199
vt 0.352613 0.464317
vt 0.306909 0.067693
vt 0.451419 0.345167
vt 0.410889 0.365005
vt 0.452437 0.570983
vt 0.433103 0.540923
vt 0.425570 0.585573
vt 0.404188 0.556601
vt 0.627751 0.534435
vt 0.559090 0.649414
vt 0.629020 0.634661
vt 0.440557 0.620245
vt 0.750872 0.840654
vt 0.751770 0.725257
vt 0.532699 0.916919
vt 0.419111 0.656976
vt 0.442265 0.986556
vt 0.681857 0.912568
vt 0.375119 0.195549
vt 0.423953 0.152482
vt 0.401934 0.484498
vt 0.113643 0.287030
vt 0.225041 0.610274
vt 0.203236 0.661743
vt 0.178833 0.646025
vt 0.421367 0.112712
vt 0.416328 0.123864
vt 0.593984 0.297834
vt 0.594764 0.307952
vt 0.243186 0.597346
vt 0.248832 0.581011
vt 0.210700 0.608779
vt 0.202716 0.603631
vt 0.239511 0.571157
vt 0.302791 0.538947
vt 0.232069 0.577637
vt 0.210562 0.601541
vt 0.212148 0.594586
vt 0.587782 0.348858
vt 0.606179 0.297920
vt 0.618083 0.310158
vt 0.599101 0.300450
vt 0.415711 0.442239
vt 0.395312 0.480729
vt 0.388310 0.470273
vt 0.390296 0.806029
vt 0.366987 0.798207
vt 0.354467 0.781228
vt 0.336197 0.777603
vt 0.350877 0.769624
vt 0.315629 0.015130
vt 0.753670 0.853950
vt 0.719388 0.868464
vt 0.758179 0.852669
vt 0.769256 0.842688
vt 0.767758 0.853219
vt 0.648701 0.631472
vt 0.647208 0.620489
vt 0.654291 0.626764
vt 0.661637 0.951876
vt 0.327467 0.279562
vt 0.288203 0.298317
vt 0.320933 0.269312
vt 0.282612 0.286317
vt 0.582591 0.783712
vt 0.576151 0.766609
vt 0.616710 0.773349
vt 0.427949 0.440532
vt 0.588306 0.274099
vt 0.230305 0.601040
vt 0.155536 0.100470
vt 0.182963 0.091573
vt 0.186671 0.085385
vt 0.192100 0.090419
vt 0.610452 0.756803
vt 0.029235 0.181947
vt 0.459021 0.160064
vt 0.473870 0.138258
vt 0.494072 0.230832
vt 0.179657 0.320473
vt 0.568294 0.916421
vt 0.667491 0.826350
vt 0.341905 0.380390
vt 0.218594 0.021563
vt 0.223563 0.004239
vt 0.557558 0.962603
vt 0.299836 0.023599
vt 0.618762 0.563526
vt 0.476031 0.977349
vt 0.430713 0.087332
vt 0.434567 0.075639
vt 0.418891 0.823309
vt 0.620904 0.774226
vt 0.276313 0.494455
vt 0.380186 0.475257
vt 0.385248 0.487038
vt 0.605976 0.330452
vt 0.622222 0.755640
vt 0.271339 0.293583
vt 0.488288 0.201507
vt 0.193085 0.077947
vt 0.634905 0.565773
vt 0.449062 0.985862
vt 0.465355 0.993518
vt 0.456340 0.993795
vt 0.193062 0.061893
vt 0.136161 0.306649
vt 0.116977 0.301915
vt 0.438071 0.100810
vt 0.605893 0.319376
vt 0.598603 0.293341
vt 0.332984 0.775244
vt 0.308614 0.015610
vt 0.619492 0.965165
vt 0.483013 0.192996
vt 0.249388 0.457989
vt 0.235753 0.429982
vt 0.446098 0.100106
vt 0.437421 0.083438
vt 0.446284 0.071829
vt 0.456034 0.103553
vt 0.608125 0.313977
vt 0.445051 0.067875
vt 0.421726 0.453480
vt 0.362476 0.775186
vt 0.362831 0.794699
vt 0.445294 0.991311
vt 0.452869 0.996620
vt 0.291428 0.016487
vt 0.300994 0.018447
vt 0.766437 0.833938
vt 0.631678 0.569925
vt 0.612792 0.572304
vt 0.605012 0.593682
vt 0.623942 0.623644
vt 0.627642 0.964364
vt 0.656344 0.961646
vt 0.241522 0.584907
vt 0.228118 0.423410
vt 0.335938 0.786844
vt 0.758582 0.838896
vt 0.305369 0.011932
vn 0.8285 -0.5593 -0.0280
vn 0.9577 -0.2876 0.0105
vn 0.8389 -0.3849 0.3848
vn 0.6802 -0.6996 0.2190
vn 0.6682 -0.7255 -0.1647
vn 0.6373 0.5176 0.5710
vn 0.8620 0.4006 0.3104
vn 0.7067 0.6958 0.1281
vn 0.7006 0.4879 -0.5206
vn 0.8735 0.2688 -0.4059
vn 0.7427 0.1958 -0.6403
vn -0.7869 -0.2162 0.5779
vn -0.7617 -0.5515 0.3402
vn -0.6588 -0.4192 0.6247
vn -0.6436 -0.6439 0.4138
vn -0.8331 0.3194 0.4516
vn -0.7028 0.1349 0.6985
vn -0.7122 0.4938 0.4989
vn -0.7159 -0.6980 0.0156
vn -0.9507 -0.3054 0.0536
vn -0.7386 -0.5254 -0.4223
vn -0.8375 0.4719 0.2756
vn -0.6067 0.6869 0.4002
vn -0.8008 0.5875 -0.1164
vn 0.3036 -0.5248 0.7952
vn 0.1350 -0.2379 0.9619
vn 0.1511 -0.2800 0.9480
vn 0.0574 -0.6561 0.7525
vn 0.0195 0.4152 0.9095
vn 0.1568 0.4932 0.8557
vn -0.0619 0.7150 0.6964
vn 0.3744 0.2589 0.8904
vn 0.2750 0.6338 0.7230
vn 0.2404 0.2072 0.9483
vn 0.2003 -0.8022 -0.5624
vn 0.3293 -0.4954 -0.8039
vn 0.6844 -0.3206 -0.6548
vn 0.5120 -0.6723 -0.5347
vn 0.0746 0.3439 -0.9361
vn 0.0476 0.5537 -0.8314
vn 0.6065 0.4153 -0.6780
vn 0.3515 0.0963 -0.9312
vn 0.6316 0.0333 -0.7745
vn 0.2261 -0.9350 0.2731
vn 0.1107 -0.9933 0.0321
vn 0.3092 -0.9439 -0.1160
vn 0.3990 0.9169 0.0000
vn 0.2121 0.9587 0.1897
vn 0.4983 0.8423 0.2054
vn 0.1103 0.8118 0.5734
vn 0.4184 0.7693 0.4828
vn 0.2705 -0.8430 -0.4650
vn 0.1834 -0.9809 -0.0652
vn 0.1035 -0.8576 -0.5039
vn -0.3080 -0.5972 0.7406
vn -0.2618 -0.3645 0.8936
vn -0.5419 -0.2762 0.7938
vn -0.5263 -0.5038 0.6850
vn -0.4363 -0.6705 -0.6000
vn -0.4578 -0.3720 -0.8075
vn -0.1364 -0.4777 -0.8679
vn -0.1100 -0.8899 -0.4427
vn -0.1708 -0.4769 -0.8622
vn -0.2890 0.5391 -0.7911
vn -0.2625 0.3043 -0.9157
vn -0.3866 0.2465 -0.8887
vn -0.1935 0.9319 0.3068
vn -0.3493 0.8864 0.3038
vn -0.3413 0.7980 0.4967
vn -0.2059 0.8377 0.5059
vn -0.4105 0.9118 -0.0094
vn -0.1512 0.9861 0.0683
vn -0.3311 0.8556 -0.3979
vn -0.1389 0.9903 -0.0012
vn -0.0886 0.7732 -0.6280
vn 0.6225 -0.7212 -0.3040
vn 0.7553 -0.5506 -0.3554
vn 0.8221 -0.4705 -0.3204
vn 0.8562 0.2845 -0.4312
vn 0.7260 0.4897 -0.4828
vn 0.8000 0.3959 -0.4509
vn 0.2925 -0.9456 -0.1424
vn 0.1751 -0.9555 -0.2375
vn 0.1918 -0.9620 -0.1945
vn -0.1851 0.8679 0.4610
vn -0.1760 0.9737 0.1446
vn -0.0943 0.7821 0.6160
vn -0.5912 0.4371 0.6779
vn -0.6313 0.4458 0.6346
vn -0.6918 0.0746 0.7182
vn -0.6688 0.0526 0.7416
vn -0.6802 -0.7316 0.0454
vn -0.6996 -0.6590 0.2761
vn -0.6369 -0.7505 0.1766
vn -0.6951 -0.6573 0.2911
vn -0.8302 -0.4083 0.3796
vn -0.7338 -0.3969 0.5514
vn -0.5356 -0.8001 0.2701
vn 0.7547 -0.2472 -0.6077
vn 0.5494 -0.6289 -0.5501
vn 0.8006 0.0849 -0.5932
vn 0.7722 0.2858 -0.5675
vn 0.6869 0.2367 -0.6871
vn 0.6369 0.4976 -0.5888
vn 0.7014 0.5491 -0.4545
vn 0.8812 0.3138 -0.3536
vn 0.7340 0.6195 -0.2784
vn 0.1640 0.9193 0.3578
vn 0.2829 0.9329 0.2227
vn 0.4542 0.8800 0.1386
vn 0.3902 0.8407 0.3755
vn -0.1162 -0.8131 -0.5703
vn -0.1793 -0.8900 -0.4192
vn -0.0111 -0.8978 -0.4402
vn -0.1714 0.9047 0.3901
vn -0.1518 0.9682 0.1990
vn -0.3492 0.8340 0.4272
vn -0.3022 0.9213 0.2445
vn -0.4700 0.8417 0.2660
vn 0.9940 0.0647 0.0880
vn 0.9038 0.0331 0.4267
vn 0.6618 -0.4951 0.5629
vn 0.6905 -0.0930 0.7173
vn 0.4892 -0.3198 0.8114
vn 0.4269 -0.7753 0.4655
vn 0.4860 -0.8618 0.1449
vn 0.8542 0.3032 -0.4223
vn 0.8204 0.3422 -0.4581
vn 0.8665 0.4991 0.0119
vn 0.4689 0.5126 0.7193
vn 0.5275 0.2273 0.8186
vn 0.5859 0.7764 -0.2320
vn 0.7178 -0.4734 -0.5105
vn 0.6017 -0.6815 -0.4167
vn 0.6637 0.6485 -0.3728
vn -0.8768 0.0259 0.4801
vn -0.6901 -0.3770 0.6178
vn -0.6793 -0.1915 0.7084
vn -0.6059 0.6883 0.3988
vn -0.7100 0.5336 0.4595
vn -0.6132 0.6469 0.4534
vn -0.5103 0.7664 0.3902
vn -0.9793 0.1091 0.1708
vn -0.9401 0.1947 -0.2797
vn -0.9150 -0.1065 -0.3893
vn -0.6715 -0.2832 -0.6848
vn -0.4749 0.5529 -0.6846
vn -0.5452 0.2662 -0.7949
vn -0.6891 0.5603 -0.4595
vn -0.5236 0.8433 0.1209
vn 0.1270 -0.1726 0.9768
vn 0.4954 -0.0356 0.8679
vn 0.2073 -0.1625 0.9647
vn 0.1858 -0.6848 0.7047
vn -0.1598 0.5257 0.8355
vn 0.1707 -0.0296 -0.9849
vn 0.3686 -0.1251 -0.9212
vn 0.0323 -0.8706 -0.4909
vn -0.1500 -0.3903 -0.9084
vn 0.1366 -0.5382 -0.8317
vn 0.2652 0.8731 -0.4092
vn 0.6262 0.4645 -0.6262
vn 0.0823 0.7261 -0.6827
vn 0.6111 0.4778 -0.6311
vn 0.1463 -0.9715 -0.1865
vn -0.0911 -0.8166 0.5700
vn -0.0303 -0.9421 0.3340
vn 0.1399 -0.8338 0.5341
vn -0.0926 0.8832 0.4598
vn -0.0879 0.9830 0.1612
vn 0.1351 -0.9876 -0.0794
vn -0.1199 -0.9533 -0.2771
vn -0.0706 -0.8757 -0.4777
vn -0.2745 -0.0719 0.9589
vn -0.1118 0.2168 0.9698
vn -0.4655 0.0766 0.8817
vn -0.3796 -0.7233 0.5769
vn -0.3911 0.4185 0.8197
vn -0.1176 0.8913 0.4380
vn -0.1410 -0.2608 -0.9550
vn -0.5141 -0.0551 -0.8559
vn -0.2281 -0.1819 -0.9565
vn -0.5196 -0.8524 -0.0582
vn -0.1967 -0.9647 -0.1750
vn -0.3151 -0.9421 0.1150
vn 0.3685 0.8970 -0.2441
vn -0.6822 -0.2530 0.6860
vn -0.7367 -0.5445 0.4010
vn -0.3293 -0.8619 0.3857
vn -0.7353 -0.5866 0.3395
vn -0.4185 -0.8773 -0.2349
vn -0.2615 -0.8783 -0.4003
vn -0.2507 -0.9242 -0.2880
vn -0.4703 0.7098 0.5244
vn -0.1103 0.9299 0.3509
vn -0.1352 0.8369 0.5304
vn -0.2173 0.9665 0.1365
vn -0.0902 0.8498 0.5194
vn -0.7249 -0.4729 0.5009
vn -0.7173 -0.5652 0.4075
vn 0.3969 0.9027 0.1660
vn 0.5275 0.7621 -0.3754
vn 0.6361 0.6937 -0.3378
vn -0.7901 -0.2245 0.5703
vn -0.3803 -0.9169 -0.1215
vn -0.2678 -0.9097 -0.3173
vn -0.7414 0.4075 0.5332
vn 0.2416 -0.8451 -0.4769
vn 0.4509 -0.7890 -0.4173
vn 0.7651 0.5796 -0.2805
vn 0.2469 0.9670 -0.0628
vn 0.5358 0.8424 0.0569
vn 0.0600 -0.8125 -0.5799
vn 0.6885 -0.0352 -0.7244
vn -0.4816 0.7541 0.4466
vn 0.8565 -0.3322 -0.3951
vn 0.8930 -0.0301 -0.4491
vn 0.8688 0.0041 -0.4952
vn 0.8600 -0.3154 -0.4011
vn -0.7808 0.3395 0.5245
vn -0.8183 0.0277 0.5741
vn 0.7043 0.1890 0.6843
vn 0.7397 -0.0980 -0.6658
vn 0.4170 -0.5949 0.6872
vn 0.4973 -0.8183 -0.2880
vn 0.1640 -0.9645 -0.2071
vn 0.6312 0.7730 0.0631
vn 0.1620 -0.2210 0.9617
vn 0.1512 -0.1333 0.9795
vn -0.1078 -0.1141 -0.9876
vn -0.1273 -0.1722 -0.9768
vn -0.1233 0.3686 -0.9214
vn -0.7517 0.1188 -0.6487
vn 0.0563 0.8858 -0.4606
vn -0.5555 -0.8291 -0.0633
vn -0.5039 0.7769 -0.3775
vn -0.2735 0.7288 -0.6278
vn -0.0385 0.9991 0.0161
vn -0.0142 0.9554 0.2950
vn 0.1527 0.9860 -0.0674
vn 0.0962 0.9182 0.3842
vn -0.4783 0.6928 0.5397
vn -0.1479 0.7945 0.5889
vn -0.1348 0.8980 0.4189
vn 0.1386 0.9787 -0.1515
vn -0.7638 -0.5087 0.3971
vn 0.5481 -0.8141 -0.1919
vn 0.3725 0.8822 -0.2880
vn 0.8809 0.1819 -0.4369
vn -0.0471 -0.9983 -0.0342
vn -0.2193 -0.8806 -0.4200
vn -0.3877 -0.8785 -0.2791
vn -0.1498 0.9697 0.1927
vn 0.8263 0.0203 -0.5629
vn 0.7427 0.3970 -0.5392
vn -0.5854 -0.7527 0.3012
vn -0.4073 -0.9133 -0.0033
vn -0.8020 -0.0460 0.5955
vn -0.7663 -0.1070 0.6335
vn 0.7547 0.3821 -0.5333
vn 0.7587 0.3682 -0.5374
vn 0.7447 0.3782 -0.5499
vn 0.4953 0.8178 -0.2929
vn 0.8373 0.0550 -0.5440
vn 0.7013 0.6540 -0.2837
vn 0.9202 0.2980 -0.2538
vn -0.5704 0.2197 0.7914
vn -0.8773 0.0885 0.4717
vn -0.4821 -0.2852 0.8284
vn 0.0778 0.8603 0.5039
vn -0.3655 0.9302 -0.0328
vn -0.2543 0.8207 0.5117
vn 0.7607 0.0005 -0.6491
vn 0.8431 0.5056 -0.1833
vn 0.9610 0.1939 -0.1973
vn -0.8353 -0.1658 0.5242
vn -0.5283 -0.8251 0.2003
vn -0.3882 -0.6185 0.6832
vn 0.1733 0.9649 0.1971
vn -0.3683 0.6390 0.6753
vn 0.1012 0.7605 0.6414
vn 0.0298 -0.9904 -0.1351
vn 0.1210 -0.5268 -0.8414
vn -0.2867 -0.4848 -0.8263
vn 0.0168 -0.0034 -0.9999
vn -0.3549 0.0145 -0.9348
vn -0.0720 0.1311 0.9887
vn -0.0036 -0.4719 0.8817
vn 0.2935 0.0329 0.9554
vn -0.1869 0.9365 0.2966
vn 0.4213 0.5881 -0.6904
vn -0.0084 -0.9738 -0.2271
vn 0.3734 -0.9062 -0.1984
vn -0.0544 -0.9515 -0.3027
vn 0.3673 -0.4351 0.8221
vn 0.6275 -0.1253 -0.7685
vn 0.4001 -0.9041 -0.1504
vn -0.0933 -0.6575 0.7477
vn -0.1048 0.5722 -0.8134
vn -0.7222 -0.6093 0.3276
vn -0.0844 0.8980 0.4318
vn -0.7362 -0.1908 0.6493
vn -0.7444 -0.1757 0.6442
vn 0.0958 -0.3140 0.9446
vn -0.1120 0.9928 0.0423
vn -0.0940 0.9622 0.2556
vn 0.0725 -0.1764 0.9816
vn -0.0601 -0.3053 -0.9504
vn 0.9301 0.0863 -0.3571
vn 0.8224 0.2142 -0.5270
vn -0.7427 -0.1986 0.6395
vn -0.8011 -0.1922 0.5668
vn -0.7769 -0.4483 0.4421
vn -0.0302 0.9988 -0.0382
vn 0.5780 0.4612 -0.6732
vn -0.3819 0.9014 0.2039
vn 0.5515 0.2554 -0.7941
vn -0.8818 -0.4694 0.0466
s 1
f 2/1/1 3/2/2 1/3/3
f 2/1/1 1/4/3 4/5/4
f 4/5/4 5/6/5 2/1/1
f 6/7/6 7/8/7 8/9/8
f 13/10/9 15/11/10 14/12/11
f 16/13/12 17/14/13 18/15/14
f 17/14/13 19/16/15 18/15/14
f 22/17/16 23/18/17 20/19/18
f 25/20/19 26/21/20 24/22/21
f 29/23/22 30/24/23 28/25/24
f 31/26/25 32/27/26 33/28/27
f 33/28/27 238/29/28 31/26/25
f 240/30/29 35/31/30 36/32/31
f 37/33/32 38/34/33 35/31/30
f 37/33/32 35/31/30 39/35/34
f 42/36/35 40/37/36 43/38/37
f 43/38/37 44/39/38 42/36/35
f 45/40/39 46/41/40 300/42/41
f 45/40/39 300/42/41 47/43/42
f 300/42/41 48/44/43 47/43/42
f 50/45/44 51/46/45 49/47/46
f 53/48/47 54/49/48 55/50/49
f 55/50/49 54/49/48 56/51/50
f 56/51/50 57/52/51 55/50/49
f 58/53/52 200/54/53 189/55/54
f 64/56/55 63/57/56 65/58/57
f 65/58/57 66/59/58 64/56/55
f 71/60/59 72/61/60 70/62/61
f 73/63/62 70/62/61 307/64/63
f 74/65/64 75/66/65 76/67/66
f 80/68/67 79/69/68 81/70/69
f 81/70/69 82/71/70 80/68/67
f 85/72/71 86/73/72 87/74/73
f 87/74/73 86/73/72 303/75/74
f 303/75/74 244/76/75 87/74/73
f 89/77/76 88/78/77 90/79/78
f 304/80/79 91/81/80 92/82/81
f 94/83/82 219/84/83 93/85/84
f 80/68/67 96/86/85 97/87/86
f 100/88/87 82/71/70 81/70/69
f 102/89/88 103/90/89 104/91/90
f 104/91/90 105/92/91 102/89/88
f 106/93/92 107/94/93 108/95/94
f 107/94/93 19/96/15 108/95/94
f 113/97/95 114/98/96 112/99/97
f 113/97/95 112/99/97 115/100/98
f 43/38/37 123/101/99 124/102/100
f 124/102/100 44/39/38 43/38/37
f 126/103/101 127/104/102 128/105/103
f 127/104/102 129/106/104 128/105/103
f 131/107/105 268/108/106 130/109/107
f 133/110/108 134/111/109 135/112/110
f 135/112/110 136/113/111 133/110/108
f 138/114/112 139/115/113 140/116/114
f 142/117/115 143/118/116 141/119/117
f 142/117/115 141/119/117 144/120/118
f 141/119/117 145/121/119 144/120/118
f 146/122/120 147/123/121 1/3/3
f 1/3/3 3/2/2 146/122/120
f 5/6/5 90/79/78 2/1/1
f 5/6/5 89/77/76 90/79/78
f 148/124/122 149/125/123 34/126/124
f 150/127/125 151/128/126 4/5/4
f 4/5/4 148/124/122 150/127/125
f 152/129/127 153/130/128 9/131/129
f 154/132/130 155/133/131 6/7/6
f 37/33/32 155/133/131 154/132/130
f 154/132/130 38/34/33 37/33/32
f 156/134/132 55/50/49 8/9/8
f 156/134/132 53/48/47 55/50/49
f 11/135/133 12/136/134 124/102/100
f 123/101/99 11/135/133 124/102/100
f 13/10/9 14/12/11 128/105/103
f 131/107/105 130/109/107 157/137/135
f 157/137/135 129/106/104 131/107/105
f 23/138/17 158/139/136 16/13/12
f 22/140/16 158/139/136 23/138/17
f 114/98/96 113/97/95 17/141/13
f 17/141/13 16/142/12 114/98/96
f 18/15/14 98/143/137 99/144/138
f 120/145/139 119/146/140 20/19/18
f 20/19/18 21/147/141 120/145/139
f 103/90/89 20/19/18 23/18/17
f 23/18/17 104/91/90 103/90/89
f 159/148/142 81/70/69 79/69/68
f 161/149/143 29/23/22 160/150/144
f 161/149/143 160/150/144 162/151/145
f 71/60/59 163/152/146 72/61/60
f 165/153/147 166/154/148 27/155/149
f 76/67/66 166/154/148 165/153/147
f 165/153/147 74/65/64 76/67/66
f 28/25/24 30/24/23 167/156/150
f 39/35/34 168/157/151 169/158/152
f 169/158/152 37/33/32 39/35/34
f 169/158/152 168/157/151 170/159/153
f 31/26/25 238/29/28 171/160/154
f 38/34/33 56/51/50 35/31/30
f 38/34/33 57/52/51 56/51/50
f 240/30/29 36/32/31 69/161/155
f 173/162/156 45/40/39 47/43/42
f 173/162/156 47/43/42 174/163/157
f 175/164/158 176/165/159 41/166/160
f 41/166/160 42/36/35 175/164/158
f 61/167/161 178/168/162 179/169/163
f 179/169/163 178/168/162 296/170/164
f 49/47/46 51/46/45 181/171/165
f 181/171/165 94/83/82 49/47/46
f 182/172/166 183/173/167 50/45/44
f 50/45/44 52/174/168 182/172/166
f 186/175/169 54/49/48 185/176/170
f 187/177/171 188/178/172 83/179/173
f 187/177/171 83/179/173 189/55/54
f 191/180/174 192/181/175 67/182/176
f 193/183/177 64/56/55 66/59/58
f 68/184/178 69/161/155 194/185/179
f 75/66/65 309/186/180 195/187/181
f 195/187/181 76/67/66 75/66/65
f 195/187/181 309/186/180 196/188/182
f 198/189/183 199/190/184 77/191/185
f 80/68/67 144/120/118 79/69/68
f 80/68/67 142/117/115 144/120/118
f 12/136/134 11/135/133 88/192/77
f 88/192/77 89/193/76 12/136/134
f 91/81/80 15/11/10 13/10/9
f 135/112/110 134/111/109 95/194/186
f 65/58/57 202/195/187 203/196/188
f 203/196/188 66/59/58 65/58/57
f 68/197/178 102/89/88 105/92/91
f 105/92/91 67/198/176 68/197/178
f 78/199/189 204/200/190 198/189/183
f 198/189/183 77/191/185 78/199/189
f 110/201/191 84/202/192 109/203/193
f 205/204/194 21/147/141 103/90/89
f 249/205/195 111/206/196 207/207/197
f 207/207/197 248/208/198 249/205/195
f 18/15/14 211/209/199 98/143/137
f 203/196/188 211/209/199 212/210/200
f 104/211/90 16/13/12 99/144/138
f 213/212/201 254/213/202 214/214/203
f 95/194/186 254/213/202 213/212/201
f 220/215/204 26/21/20 25/20/19
f 84/202/192 117/216/205 118/217/206
f 30/24/23 29/23/22 222/218/207
f 222/218/207 120/145/139 30/24/23
f 122/219/208 59/220/209 58/53/52
f 130/109/107 268/108/106 225/221/210
f 226/222/211 133/110/108 136/113/111
f 136/113/111 227/223/212 226/222/211
f 138/114/112 83/179/173 84/202/192
f 230/224/213 138/114/112 140/116/114
f 126/103/101 128/105/103 125/225/214
f 123/101/99 126/226/101 125/227/214
f 145/121/119 262/228/215 120/145/139
f 141/119/117 262/228/215 145/121/119
f 127/104/102 131/107/105 129/106/104
f 233/229/216 232/230/217 215/231/218
f 215/231/218 216/232/219 233/229/216
f 215/233/218 232/234/217 15/11/10
f 121/235/220 231/236/221 158/237/136
f 158/237/136 22/238/16 121/235/220
f 231/236/221 16/142/12 158/237/136
f 155/133/131 169/158/152 149/125/123
f 149/125/123 234/239/222 155/133/131
f 10/240/223 125/225/214 128/105/103
f 128/105/103 14/12/11 10/240/223
f 150/127/125 148/124/122 235/241/224
f 12/136/134 236/242/225 59/220/209
f 59/220/209 236/242/225 201/243/226
f 154/132/130 6/7/6 57/52/51
f 154/132/130 57/52/51 38/34/33
f 124/102/100 12/136/134 59/220/209
f 124/102/100 59/220/209 122/219/208
f 132/244/227 213/212/201 214/214/203
f 214/214/203 157/137/135 132/244/227
f 135/112/110 95/194/186 213/212/201
f 16/13/12 104/211/90 23/138/17
f 192/181/175 310/245/228 239/246/229
f 239/246/229 240/30/29 192/181/175
f 173/162/156 242/247/230 45/40/39
f 45/40/39 242/247/230 308/248/231
f 308/248/231 180/249/232 45/40/39
f 166/154/148 195/187/181 243/250/233
f 195/187/181 163/152/146 243/250/233
f 60/251/234 61/167/161 179/169/163
f 60/251/234 179/169/163 244/76/75
f 19/16/15 211/209/199 18/15/14
f 205/204/194 159/148/142 21/147/141
f 96/86/85 82/71/70 111/206/196
f 120/145/139 21/147/141 159/148/142
f 120/145/139 159/148/142 145/121/119
f 118/217/206 139/115/113 84/202/192
f 138/114/112 230/224/213 83/179/173
f 230/224/213 189/55/54 83/179/173
f 115/100/98 208/252/235 113/97/95
f 113/97/95 208/252/235 108/95/94
f 108/95/94 17/141/13 113/97/95
f 208/252/235 106/93/92 108/95/94
f 110/201/191 208/252/235 117/216/205
f 165/153/147 27/155/149 245/253/236
f 165/153/147 245/253/236 197/254/237
f 197/254/237 74/65/64 165/153/147
f 97/87/86 209/255/238 80/68/67
f 80/68/67 209/255/238 229/256/239
f 229/256/239 142/117/115 80/68/67
f 229/256/239 209/255/238 210/257/240
f 210/257/240 137/258/241 229/256/239
f 102/89/88 68/197/178 246/259/242
f 206/260/243 247/261/244 69/161/155
f 69/161/155 36/32/31 206/260/243
f 248/208/198 247/261/244 249/205/195
f 186/175/169 206/260/243 36/32/31
f 185/176/170 54/49/48 250/262/245
f 203/196/188 251/263/246 66/59/58
f 251/263/246 193/183/177 66/59/58
f 67/182/176 105/264/91 202/195/187
f 202/195/187 65/58/57 67/182/176
f 252/265/247 89/77/76 5/6/5
f 184/266/248 53/48/47 156/134/132
f 184/266/248 156/134/132 254/213/202
f 3/2/2 255/267/249 146/122/120
f 51/46/45 257/268/250 181/171/165
f 258/269/251 118/217/206 164/270/252
f 259/271/253 137/258/241 133/110/108
f 261/272/254 123/101/99 43/38/37
f 223/273/255 261/274/254 48/275/43
f 30/24/23 262/228/215 167/156/150
f 264/276/256 25/20/19 263/277/257
f 161/149/143 265/278/258 222/218/207
f 222/218/207 29/23/22 161/149/143
f 222/218/207 265/278/258 266/279/259
f 268/108/106 298/280/260 267/281/261
f 46/41/40 296/170/164 300/42/41
f 46/41/40 179/169/163 296/170/164
f 224/282/262 223/273/255 48/275/43
f 300/283/41 224/282/262 48/275/43
f 225/221/210 267/281/261 178/284/162
f 178/284/162 62/285/263 225/221/210
f 298/280/260 268/108/106 223/273/255
f 269/286/264 297/287/265 270/288/266
f 231/236/221 112/99/97 114/98/96
f 266/279/259 121/289/220 222/218/207
f 272/290/267 271/291/268 273/292/269
f 303/75/74 60/251/234 244/76/75
f 142/117/115 259/271/253 143/118/116
f 274/293/270 275/294/271 276/295/272
f 152/129/127 9/131/129 146/296/120
f 255/297/249 152/129/127 146/296/120
f 277/298/273 278/299/274 279/300/275
f 106/93/92 198/189/183 204/200/190
f 19/96/15 107/94/93 211/301/199
f 193/183/177 251/263/246 204/302/190
f 204/302/190 78/303/189 193/183/177
f 280/304/276 281/305/277 282/306/278
f 100/88/87 111/206/196 82/71/70
f 69/161/155 247/261/244 194/185/179
f 283/307/279 284/308/280 285/309/281
f 94/83/82 218/310/282 219/84/83
f 72/61/60 196/188/182 70/62/61
f 72/61/60 195/187/181 196/188/182
f 73/63/62 307/64/63 176/165/159
f 176/165/159 175/164/158 73/63/62
f 180/249/232 308/248/231 309/186/180
f 309/186/180 75/66/65 180/249/232
f 288/311/283 289/312/284 290/313/285
f 290/313/285 289/312/284 291/314/286
f 169/158/152 170/159/153 32/27/26
f 32/27/26 34/126/124 169/158/152
f 240/30/29 239/246/229 168/157/151
f 168/157/151 39/35/34 240/30/29
f 293/315/287 292/316/288 294/317/289
f 91/81/80 215/233/218 15/11/10
f 114/98/96 16/142/12 231/236/221
f 34/126/124 149/125/123 169/158/152
f 72/61/60 163/152/146 195/187/181
f 98/143/137 203/196/188 202/195/187
f 146/296/120 9/131/129 7/8/7
f 228/318/290 85/72/71 167/156/150
f 26/319/20 161/149/143 162/151/145
f 119/146/140 120/145/139 222/218/207
f 222/218/207 121/289/220 119/146/140
f 300/283/41 297/287/265 224/282/262
f 223/273/255 299/320/291 298/280/260
f 200/54/53 286/321/292 187/177/171
f 287/322/293 219/323/83 306/324/294
f 306/324/294 187/177/171 287/322/293
f 286/321/292 200/54/53 201/243/226
f 170/159/153 168/157/151 292/316/288
f 310/245/228 317/325/295 239/246/229
f 32/27/26 293/315/287 33/28/27
f 299/320/291 223/273/255 297/287/265
f 149/125/123 148/124/122 1/4/3
f 148/124/122 4/5/4 1/4/3
f 7/8/7 9/131/129 8/9/8
f 7/8/7 6/7/6 234/239/222
f 11/135/133 10/326/223 233/229/216
f 129/106/104 157/137/135 13/10/9
f 163/152/146 71/60/59 24/327/21
f 162/328/145 24/22/21 26/21/20
f 24/327/21 71/60/59 164/270/252
f 24/327/21 164/270/252 25/20/19
f 28/25/24 27/155/149 243/250/233
f 243/250/233 160/329/144 28/25/24
f 31/26/25 34/126/124 32/27/26
f 35/31/30 240/30/29 39/35/34
f 318/330/296 43/38/37 40/37/36
f 174/163/157 40/37/36 41/166/160
f 41/166/160 173/162/156 174/163/157
f 42/36/35 41/166/160 40/37/36
f 50/45/44 49/47/46 253/331/297
f 253/331/297 151/128/126 50/45/44
f 186/175/169 56/51/50 54/49/48
f 61/167/161 60/251/234 226/222/211
f 63/57/56 64/56/55 237/332/298
f 70/62/61 73/63/62 258/269/251
f 258/269/251 71/60/59 70/62/61
f 75/66/65 74/65/64 295/333/299
f 295/333/299 180/249/232 75/66/65
f 78/199/189 77/191/185 257/334/250
f 257/334/250 183/335/167 78/199/189
f 94/83/82 93/85/84 236/336/225
f 99/144/138 98/143/137 202/195/187
f 100/88/87 81/70/69 205/204/194
f 107/94/93 106/93/92 305/337/300
f 205/204/194 101/338/301 100/88/87
f 95/194/186 210/257/240 250/262/245
f 250/262/245 184/266/248 95/194/186
f 94/83/82 236/336/225 253/331/297
f 253/331/297 49/47/46 94/83/82
f 214/214/203 92/82/81 91/81/80
f 216/339/219 90/79/78 88/78/77
f 109/203/193 188/178/172 199/190/184
f 112/99/97 116/340/302 115/100/98
f 230/224/213 140/116/114 122/219/208
f 127/104/102 126/103/101 268/108/106
f 134/111/109 133/110/108 137/258/241
f 122/219/208 140/116/114 175/164/158
f 175/164/158 42/36/35 122/219/208
f 263/277/257 164/270/252 117/216/205
f 301/341/303 116/340/302 112/99/97
f 234/239/222 149/125/123 147/342/121
f 7/8/7 147/342/121 146/296/120
f 31/26/25 235/241/224 34/126/124
f 50/45/44 151/128/126 150/127/125
f 150/127/125 52/174/168 50/45/44
f 253/331/297 252/265/247 151/128/126
f 10/240/223 14/12/11 15/11/10
f 15/11/10 232/234/217 10/240/223
f 11/135/133 123/101/99 125/227/214
f 125/227/214 10/326/223 11/135/133
f 18/15/14 99/144/138 16/13/12
f 20/19/18 103/90/89 21/147/141
f 28/25/24 160/150/144 29/23/22
f 117/216/205 164/270/252 118/217/206
f 167/156/150 85/72/71 87/74/73
f 87/74/73 245/253/236 167/156/150
f 171/160/154 52/174/168 150/127/125
f 150/127/125 235/241/224 171/160/154
f 172/343/304 63/57/56 237/332/298
f 237/332/298 238/29/28 172/343/304
f 186/175/169 36/32/31 56/51/50
f 240/30/29 69/161/155 192/181/175
f 122/219/208 42/36/35 44/39/38
f 178/168/162 61/167/161 62/344/263
f 45/40/39 180/249/232 295/333/299
f 295/333/299 46/41/40 45/40/39
f 78/303/189 183/173/167 182/172/166
f 257/268/250 51/46/45 183/173/167
f 96/86/85 186/175/169 185/176/170
f 185/176/170 97/87/86 96/86/85
f 84/202/192 83/179/173 188/178/172
f 303/75/74 190/345/305 60/251/234
f 68/184/178 67/182/176 192/181/175
f 192/181/175 69/161/155 68/184/178
f 64/56/55 193/183/177 182/172/166
f 182/172/166 237/332/298 64/56/55
f 139/115/113 258/269/251 73/63/62
f 139/115/113 73/63/62 140/116/114
f 197/254/237 87/74/73 244/76/75
f 109/203/193 199/190/184 198/189/183
f 198/189/183 110/201/191 109/203/193
f 91/81/80 13/10/9 157/137/135
f 157/137/135 214/214/203 91/81/80
f 200/54/53 58/53/52 59/220/209
f 59/220/209 201/243/226 200/54/53
f 137/258/241 210/257/240 134/111/109
f 82/71/70 96/86/85 80/68/67
f 205/204/194 103/90/89 102/89/88
f 102/89/88 246/259/242 205/204/194
f 111/206/196 206/260/243 96/86/85
f 208/252/235 110/201/191 198/189/183
f 209/255/238 97/87/86 185/176/170
f 185/176/170 250/262/245 209/255/238
f 104/211/90 99/144/138 202/195/187
f 202/195/187 105/264/91 104/211/90
f 89/77/76 252/265/247 236/336/225
f 254/213/202 95/194/186 184/266/248
f 181/171/165 257/268/250 218/310/282
f 25/20/19 264/276/256 220/215/204
f 117/216/205 84/202/192 110/201/191
f 189/55/54 230/224/213 58/53/52
f 133/110/108 226/222/211 260/346/306
f 228/318/290 141/119/117 143/118/116
f 124/102/100 122/219/208 44/39/38
f 137/258/241 259/271/253 229/256/239
f 123/101/99 261/272/254 126/226/101
f 121/289/220 266/279/259 231/347/221
f 131/107/105 127/104/102 268/108/106
f 10/326/223 232/230/217 233/229/216
f 11/135/133 233/229/216 216/232/219
f 216/232/219 88/192/77 11/135/133
f 119/146/140 121/289/220 22/17/16
f 22/17/16 20/19/18 119/146/140
f 234/239/222 6/7/6 155/133/131
f 169/158/152 155/133/131 37/33/32
f 149/125/123 1/4/3 147/342/121
f 171/160/154 235/241/224 31/26/25
f 34/126/124 235/241/224 148/124/122
f 236/242/225 12/136/134 89/193/76
f 55/50/49 57/52/51 6/7/6
f 6/7/6 8/9/8 55/50/49
f 129/106/104 13/10/9 128/105/103
f 213/212/201 132/244/227 135/112/110
f 130/109/107 132/244/227 157/137/135
f 237/332/298 182/172/166 52/174/168
f 52/174/168 238/29/28 237/332/298
f 192/181/175 191/180/174 310/245/228
f 191/180/174 241/348/307 310/245/228
f 176/165/159 177/349/308 41/166/160
f 243/250/233 27/155/149 166/154/148
f 195/187/181 166/154/148 76/67/66
f 160/329/144 243/250/233 163/152/146
f 163/152/146 162/350/145 160/329/144
f 197/254/237 244/76/75 295/333/299
f 295/333/299 74/65/64 197/254/237
f 19/96/15 17/141/13 108/95/94
f 84/202/192 188/178/172 109/203/193
f 218/351/282 188/178/172 306/324/294
f 306/324/294 219/323/83 218/351/282
f 205/204/194 81/70/69 159/148/142
f 79/69/68 145/121/119 159/148/142
f 144/120/118 145/121/119 79/69/68
f 139/115/113 138/114/112 84/202/192
f 230/224/213 122/219/208 58/53/52
f 208/252/235 115/100/98 117/216/205
f 167/156/150 245/253/236 27/155/149
f 27/155/149 28/25/24 167/156/150
f 87/74/73 197/254/237 245/253/236
f 210/257/240 95/194/186 134/111/109
f 194/352/179 246/259/242 68/197/178
f 206/260/243 249/205/195 247/261/244
f 36/32/31 35/31/30 56/51/50
f 96/86/85 206/260/243 186/175/169
f 208/252/235 198/189/183 106/93/92
f 250/262/245 210/257/240 209/255/238
f 184/266/248 250/262/245 54/49/48
f 54/49/48 53/48/47 184/266/248
f 211/209/199 203/196/188 98/143/137
f 191/180/174 67/182/176 65/58/57
f 151/128/126 252/265/247 5/6/5
f 5/6/5 4/5/4 151/128/126
f 236/336/225 252/265/247 253/331/297
f 153/130/128 156/134/132 8/9/8
f 8/9/8 9/131/129 153/130/128
f 3/2/2 2/1/1 90/79/78
f 255/267/249 3/2/2 90/79/78
f 90/79/78 256/353/309 255/267/249
f 215/354/218 217/355/310 216/339/219
f 51/46/45 50/45/44 183/173/167
f 218/351/282 257/356/250 199/190/184
f 199/190/184 188/178/172 218/351/282
f 257/334/250 77/191/185 199/190/184
f 71/60/59 258/269/251 164/270/252
f 118/217/206 258/269/251 139/115/113
f 60/251/234 190/345/305 226/222/211
f 259/271/253 133/110/108 260/346/306
f 229/256/239 259/271/253 142/117/115
f 140/116/114 73/63/62 175/164/158
f 261/274/254 223/273/255 126/103/101
f 47/43/42 48/44/43 318/330/296
f 318/330/296 174/163/157 47/43/42
f 261/272/254 43/38/37 318/357/296
f 318/357/296 48/358/43 261/272/254
f 262/228/215 30/24/23 120/145/139
f 262/228/215 141/119/117 228/318/290
f 228/318/290 167/156/150 262/228/215
f 115/100/98 264/276/256 263/277/257
f 263/277/257 117/216/205 115/100/98
f 164/270/252 263/277/257 25/20/19
f 264/276/256 221/359/311 220/215/204
f 231/347/221 266/279/259 302/360/312
f 225/221/210 227/223/212 132/244/227
f 132/244/227 130/109/107 225/221/210
f 132/244/227 227/223/212 136/113/111
f 136/113/111 135/112/110 132/244/227
f 267/281/261 225/221/210 268/108/106
f 268/108/106 126/103/101 223/273/255
f 112/99/97 231/236/221 301/341/303
f 220/361/204 265/278/258 161/149/143
f 161/149/143 26/319/20 220/361/204
f 228/318/290 86/73/72 85/72/71
f 91/81/80 304/80/79 217/362/310
f 217/362/310 215/233/218 91/81/80
f 204/200/190 305/337/300 106/93/92
f 305/337/300 212/363/200 107/94/93
f 212/363/200 211/301/199 107/94/93
f 205/204/194 246/259/242 101/338/301
f 100/88/87 207/207/197 111/206/196
f 206/260/243 111/206/196 249/205/195
f 94/83/82 181/171/165 218/310/282
f 177/349/308 242/247/230 173/162/156
f 33/28/27 172/343/304 238/29/28
f 191/180/174 63/57/56 241/348/307
f 236/336/225 93/85/84 201/364/226
f 52/174/168 171/160/154 238/29/28
f 63/57/56 191/180/174 65/58/57
f 63/57/56 172/343/304 241/348/307
f 318/330/296 40/37/36 174/163/157
f 177/349/308 173/162/156 41/166/160
f 179/169/163 46/41/40 295/333/299
f 295/333/299 244/76/75 179/169/163
f 187/177/171 189/55/54 200/54/53
f 246/259/242 194/352/179 101/338/301
f 193/183/177 78/303/189 182/172/166
f 156/134/132 214/214/203 254/213/202
f 92/82/81 214/214/203 156/134/132
f 156/134/132 153/130/128 92/82/81
f 234/239/222 147/342/121 7/8/7
f 256/353/309 90/79/78 216/339/219
f 216/339/219 217/355/310 256/353/309
f 61/167/161 226/222/211 227/223/212
f 227/223/212 62/285/263 61/167/161
f 226/222/211 190/345/305 260/346/306
f 221/359/311 264/276/256 115/100/98
f 115/100/98 116/340/302 221/359/311
f 163/152/146 24/365/21 162/350/145
f 225/221/210 62/285/263 227/223/212
f 296/170/164 269/366/264 270/367/266
f 269/286/264 178/284/162 267/281/261
f 272/368/267 221/359/311 116/340/302
f 116/340/302 271/369/268 272/368/267
f 301/341/303 312/370/313 271/369/268
f 220/215/204 272/368/267 273/371/269
f 266/279/259 273/292/269 312/372/313
f 231/236/221 302/373/312 301/341/303
f 228/318/290 313/374/314 274/293/270
f 275/294/271 260/346/306 190/345/305
f 190/345/305 276/295/272 275/294/271
f 277/375/273 92/82/81 153/130/128
f 314/376/315 152/129/127 255/297/249
f 314/377/315 256/353/309 217/355/310
f 217/355/310 278/378/274 314/377/315
f 280/379/276 305/337/300 204/200/190
f 282/380/278 212/363/200 305/337/300
f 281/381/277 203/196/188 212/210/200
f 283/382/279 101/338/301 194/352/179
f 285/383/281 207/207/197 100/88/87
f 248/208/198 284/384/280 316/385/316
f 286/386/292 201/364/226 93/85/84
f 286/386/292 219/84/83 287/387/293
f 286/386/292 93/85/84 219/84/83
f 287/322/293 187/177/171 286/321/292
f 306/324/294 188/178/172 187/177/171
f 307/64/63 290/313/285 291/314/286
f 308/248/231 289/312/284 288/311/283
f 170/159/153 292/316/288 293/315/287
f 292/316/288 239/246/229 317/325/295
f 292/316/288 168/157/151 239/246/229
f 317/325/295 241/348/307 172/343/304
f 172/343/304 294/317/289 317/325/295
f 269/286/264 311/388/317 297/287/265
f 299/320/291 297/287/265 311/388/317
f 296/170/164 178/168/162 269/366/264
f 269/286/264 267/281/261 311/388/317
f 311/388/317 267/281/261 298/280/260
f 299/320/291 311/388/317 298/280/260
f 297/389/265 300/42/41 270/367/266
f 300/42/41 296/170/164 270/367/266
f 224/282/262 297/287/265 223/273/255
f 312/372/313 273/292/269 271/291/268
f 272/368/267 220/215/204 221/359/311
f 271/369/268 116/340/302 301/341/303
f 301/341/303 302/373/312 312/370/313
f 302/360/312 266/279/259 312/372/313
f 266/279/259 265/278/258 273/292/269
f 265/278/258 220/361/204 273/292/269
f 274/293/270 313/374/314 275/294/271
f 275/294/271 259/271/253 260/346/306
f 303/75/74 86/73/72 274/293/270
f 86/73/72 228/318/290 274/293/270
f 228/318/290 143/118/116 313/374/314
f 275/294/271 313/374/314 143/118/116
f 143/118/116 259/271/253 275/294/271
f 276/295/272 190/345/305 303/75/74
f 274/293/270 276/295/272 303/75/74
f 277/298/273 314/390/315 278/299/274
f 279/300/275 278/299/274 217/362/310
f 217/362/310 304/80/79 279/300/275
f 279/300/275 304/80/79 92/82/81
f 277/375/273 279/300/275 92/82/81
f 314/377/315 255/267/249 256/353/309
f 277/375/273 153/130/128 152/129/127
f 314/376/315 277/375/273 152/129/127
f 280/304/276 315/391/318 281/305/277
f 251/263/246 203/196/188 315/391/318
f 315/391/318 203/196/188 281/381/277
f 282/380/278 281/392/277 212/363/200
f 280/379/276 282/380/278 305/337/300
f 315/391/318 280/304/276 204/302/190
f 204/302/190 251/263/246 315/391/318
f 283/307/279 316/385/316 284/308/280
f 248/208/198 207/207/197 284/384/280
f 285/383/281 284/384/280 207/207/197
f 285/383/281 100/88/87 101/338/301
f 283/382/279 285/383/281 101/338/301
f 316/385/316 283/307/279 194/185/179
f 194/185/179 247/261/244 316/385/316
f 247/261/244 248/208/198 316/385/316
f 177/349/308 176/165/159 291/314/286
f 176/165/159 307/64/63 291/314/286
f 308/248/231 242/247/230 289/312/284
f 291/314/286 289/312/284 242/247/230
f 242/247/230 177/349/308 291/314/286
f 307/64/63 70/62/61 290/313/285
f 288/311/283 290/313/285 70/62/61
f 70/62/61 196/188/182 288/311/283
f 309/186/180 288/311/283 196/188/182
f 309/186/180 308/248/231 288/311/283
f 317/325/295 294/317/289 292/316/288
f 293/315/287 294/317/289 172/343/304
f 172/343/304 33/28/27 293/315/287
f 32/27/26 170/159/153 293/315/287
f 241/348/307 317/325/295 310/245/228
