# Blender v2.82 (sub 7) OBJ File: ''
# www.blender.org
o asteroid4.002
v 2.547702 -0.904683 0.129466
v 2.206181 -1.328776 0.426445
v 2.384199 -1.431002 -0.338194
v 2.236542 -0.996727 -1.511660
v 2.188637 0.773596 -1.451964
v 2.082173 -0.230697 -1.993057
v -2.350599 -0.292611 0.301576
v -2.398898 0.351121 0.289212
v -2.581443 -0.022354 -0.181210
v -2.319962 0.705984 -0.459809
v 0.413588 -0.508201 2.186888
v 0.295282 0.481900 2.158779
v 0.902935 0.677367 1.944737
v 1.072538 -0.767680 -2.758662
v 0.674813 -0.245699 -2.971594
v 0.975636 -1.485054 -1.938262
v 1.041800 0.404363 -2.738212
v 0.589570 0.309122 -2.907547
v 1.135639 -0.057575 -2.892572
v 1.619341 -2.067339 0.047372
v 1.237629 -1.915523 0.514564
v 1.098544 2.696246 0.276996
v 1.867626 1.956469 0.396332
v 0.942611 2.707444 0.515106
v 0.970662 -2.004551 -0.348421
v 1.590360 -1.985489 -0.732669
v 0.074881 2.083048 -0.570601
v -0.300626 -0.328839 2.093666
v -0.241907 0.262538 2.190894
v 0.072889 0.047781 2.376344
v -1.257455 0.153155 -2.306076
v -1.057994 -0.310136 -2.280700
v -2.109971 -0.173087 -1.109728
v -1.272243 0.477763 -2.147733
v -1.791288 0.870095 -1.210747
v -0.260880 -0.976824 0.485012
v -0.633905 -0.917916 -0.067648
v -1.115484 2.047068 0.305721
v -1.005939 2.161492 0.083384
v -0.754697 -0.841317 -0.389546
v -0.508428 -0.951456 -0.219921
v -1.403953 1.862862 -0.287180
v -1.159261 1.487508 -1.182745
v -0.522755 0.614428 1.362695
v 0.120360 1.180845 1.301705
v 0.469922 -0.730223 2.019255
v 1.161092 -0.904809 1.687407
v -0.733767 0.235864 1.457410
v -0.809860 -0.416844 1.167577
v 1.447492 0.708598 1.553470
v 1.263260 -0.226386 1.825179
v 1.807929 -0.572669 1.058500
v 1.726327 0.702377 1.018576
v 1.501350 0.792559 1.374266
v 1.108059 1.341372 -0.995510
v -0.270080 -0.650898 -1.677483
v 0.366134 0.143396 -2.841870
v 0.277851 0.724481 -2.288405
v 0.495230 -1.308275 0.791651
v 0.936189 -1.381928 0.958487
v 1.411785 -1.203061 0.990891
v 0.394782 2.506431 0.185363
v 0.751944 1.671864 1.071126
v 1.202948 1.554949 0.995327
v 0.183716 -1.274272 -0.310559
v 0.244823 -1.270823 -0.901132
v -1.618166 -0.157962 0.691111
v -1.627478 -0.452433 0.497418
v -1.476430 0.529864 0.690567
v -1.257522 -0.644357 -0.217495
v -0.893646 -0.272632 -2.348467
v -0.318944 -0.163261 -2.367941
v -0.375595 0.666241 -2.029951
v -0.469679 0.100601 -2.380471
v -0.180548 2.068238 0.500059
v -0.255376 2.229669 0.056553
v -0.500955 1.736676 0.653696
v -0.512557 1.681251 -0.949736
v 2.299261 -0.300503 0.677902
v 2.616815 0.827108 -0.264684
v 2.156212 1.763656 -0.079773
v 1.527551 -1.484305 -1.766953
v 1.755064 0.972125 -1.546702
v -2.360465 0.760824 -0.201548
v -1.922546 1.168000 0.286808
v -2.203754 -0.356915 -0.421073
v -1.995532 1.206200 -0.468971
v 0.162238 -0.438767 2.236653
v 0.298524 -0.466924 -2.626847
v 0.624743 2.721467 0.484426
v 0.377652 -1.467909 -0.866646
v 0.451409 -1.451105 -1.228374
v -0.555511 0.172958 1.822189
v 0.974972 -0.686778 1.903629
v 1.316401 0.939134 1.566066
v -0.764518 0.127254 1.457839
v -1.049351 0.091937 1.132279
v 0.235826 -0.644089 2.035805
v 1.767970 1.842407 -0.545065
v 1.707480 -0.522130 1.245170
v 0.187211 -0.888281 -1.816545
v 1.874691 -0.142604 1.064026
v -1.020775 0.472131 -2.240124
v 2.674533 0.191034 -0.388307
v 2.711638 0.040693 -0.258601
v 1.771867 -0.100796 1.222369
v 1.852564 -0.403924 -2.301668
v 1.764210 -0.629738 -2.330046
v 1.312301 1.127213 1.330833
v 1.297772 1.152852 1.391102
v -1.963450 0.256052 -1.394612
v -2.012976 1.290423 -0.177441
v -1.010497 -0.774700 -0.166610
v 2.240595 0.656186 0.648336
v -1.035743 0.160094 -2.386097
v -1.145332 0.417732 -2.119496
v -1.091831 0.159462 -2.259325
v 0.453545 -1.377396 -1.091218
v -0.647994 0.147058 1.491050
v -0.532465 0.133821 1.703500
v -0.566106 -0.854858 -0.216250
v -0.890471 -0.724668 -0.186406
v -2.239176 0.742211 -0.283040
v -1.942181 1.186311 -0.314699
v 0.428394 -0.578266 2.019254
v 0.221053 -0.456118 2.104387
v 1.335014 0.779743 1.463035
v 1.946342 -0.947267 -1.836957
v 2.283753 -0.459652 -1.548588
v 1.692649 -0.500640 1.115994
v 1.758358 -0.147916 1.103549
v 2.582417 0.764329 0.198686
v 2.549722 0.712141 -0.250385
v 0.200015 -1.011765 -1.606708
v 0.374656 -1.185256 -1.677196
v -0.639377 0.059323 1.714209
v 1.891923 -0.988899 -2.054160
v 2.708088 0.083361 0.119051
v 2.616781 0.170792 0.088064
vt 0.186875 0.447599
vt 0.235130 0.415424
vt 0.230978 0.467824
vt 0.270108 0.587983
vt 0.302402 0.558765
vt 0.353360 0.642553
vt 0.233951 0.344882
vt 0.318601 0.335029
vt 0.326963 0.394677
vt 0.748514 0.582978
vt 0.698519 0.540385
vt 0.733628 0.502173
vt 0.881942 0.840070
vt 0.919028 0.870324
vt 0.915349 0.916059
vt 0.876145 0.928375
vt 0.847560 0.848982
vt 0.826273 0.889987
vt 0.514753 0.369571
vt 0.488063 0.390253
vt 0.460488 0.350141
vt 0.143418 0.305946
vt 0.208781 0.298248
vt 0.175370 0.361063
vt 0.435052 0.695422
vt 0.377645 0.733771
vt 0.687872 0.437884
vt 0.722694 0.428587
vt 0.772202 0.502234
vt 0.659931 0.642589
vt 0.629754 0.687216
vt 0.639497 0.564966
vt 0.425859 0.262090
vt 0.358152 0.192779
vt 0.426133 0.195112
vt 0.555833 0.712093
vt 0.478161 0.711494
vt 0.565844 0.686598
vt 0.358710 0.761906
vt 0.316598 0.754701
vt 0.320673 0.717222
vt 0.267808 0.242982
vt 0.230337 0.211987
vt 0.279470 0.232199
vt 0.537015 0.622203
vt 0.590079 0.585405
vt 0.168165 0.538736
vt 0.215362 0.527807
vt 0.140918 0.405135
vt 0.286611 0.687966
vt 0.400717 0.489292
vt 0.350353 0.417876
vt 0.382642 0.408243
vt 0.354975 0.368000
vt 0.412647 0.321146
vt 0.458683 0.299923
vt 0.333570 0.297544
vt 0.548725 0.448100
vt 0.459435 0.714202
vt 0.288863 0.258709
vt 0.867153 0.813743
vt 0.898165 0.812506
vt 0.671301 0.453946
vt 0.670827 0.712932
vt 0.869428 0.982545
vt 0.808887 0.936703
vt 0.741583 0.874249
vt 0.795007 0.921741
vt 0.774690 0.918176
vt 0.889502 0.711050
vt 0.860315 0.753209
vt 0.842383 0.713371
vt 0.052517 0.154938
vt 0.071802 0.112800
vt 0.133572 0.227037
vt 0.049552 0.171197
vt 0.893486 0.982126
vt 0.904232 0.949495
vt 0.478161 0.553895
vt 0.421990 0.156531
vt 0.596327 0.459523
vt 0.537679 0.368273
vt 0.607622 0.415671
vt 0.329075 0.780024
vt 0.342789 0.237760
vt 0.845654 0.662717
vt 0.869892 0.655388
vt 0.195034 0.102584
vt 0.225616 0.136320
vt 0.173680 0.165253
vt 0.257420 0.132800
vt 0.253904 0.107743
vt 0.272827 0.087775
vt 0.412881 0.140700
vt 0.238783 0.148552
vt 0.654867 0.444983
vt 0.307721 0.511471
vt 0.294575 0.504768
vt 0.395613 0.383925
vt 0.383318 0.369200
vt 0.241663 0.670532
vt 0.228710 0.652960
vt 0.796856 0.688180
vt 0.043743 0.134317
vt 0.917344 0.852372
vt 0.904877 0.669190
vt 0.703340 0.768034
vt 0.774550 0.818096
vt 0.676240 0.798365
vt 0.904567 0.622857
vt 0.928607 0.635579
vt 0.221384 0.109612
vt 0.507533 0.683089
vt 0.905403 0.757756
vt 0.895576 0.771416
vt 0.129538 0.468297
vt 0.329638 0.248019
vt 0.408975 0.593876
vt 0.190442 0.570053
vt 0.447996 0.136863
vt 0.651757 0.424871
vt 0.283713 0.246419
vt 0.330146 0.234023
vt 0.849589 0.756593
vt 0.735510 0.652657
vt 0.717661 0.618481
vt 0.754693 0.597740
vt 0.793951 0.614044
vt 0.243339 0.627389
vt 0.185514 0.582174
vt 0.277874 0.523288
vt 0.324782 0.545252
vt 0.863257 0.762004
vt 0.882183 0.766658
vt 0.241131 0.137425
vt 0.227284 0.113163
vt 0.797902 0.936390
vt 0.285469 0.527351
vt 0.346927 0.379983
vt 0.367276 0.607023
vt 0.437315 0.501292
vt 0.307007 0.030547
vt 0.301397 0.004255
vt 0.355168 0.056961
vt 0.049958 0.227787
vt 0.021069 0.208787
vt 0.040744 0.204720
vt 0.816653 0.771906
vt 0.109216 0.440495
vt 0.653286 0.724778
vt 0.837102 0.605415
vt 0.808187 0.574494
vt 0.713354 0.601610
vt 0.869985 0.779336
vt 0.138421 0.113100
vt 0.063022 0.274270
vt 0.104925 0.254625
vt 0.479576 0.269807
vt 0.450670 0.182541
vt 0.849915 0.580257
vt 0.044505 0.176957
vt 0.763334 0.913800
vt 0.744916 0.903035
vt 0.012173 0.257118
vt 0.441425 0.122450
vt 0.806557 0.949851
vt 0.008644 0.269391
vt 0.659562 0.427640
vt 0.869667 0.772563
vt 0.249960 0.117487
vt 0.720007 0.609026
vt 0.745548 0.594840
vt 0.045336 0.164371
vt 0.777129 0.924047
vt 0.180884 0.572751
vt 0.317248 0.540743
vt 0.666159 0.443113
vt 0.682431 0.428105
vt 0.450291 0.126858
vt 0.881700 0.774448
vt 0.876856 0.776735
vt 0.042271 0.146704
vt 0.925398 0.859632
vt 0.929043 0.874282
vt 0.927624 0.882267
vt 0.223902 0.664377
vt 0.003076 0.261525
vt 0.166324 0.545482
vt 0.893760 0.991928
vt 0.873121 0.994468
vn 0.6781 -0.4907 0.5471
vn 0.8384 -0.5400 -0.0746
vn 0.9286 -0.2614 0.2635
vn 0.6714 0.2075 0.7114
vn 0.9232 0.2025 0.3266
vn 0.6658 0.5526 0.5014
vn 0.2826 -0.9219 -0.2650
vn 0.3594 -0.7760 -0.5184
vn 0.8295 -0.3562 -0.4301
vn -0.8569 0.4494 -0.2525
vn -0.6850 0.5156 -0.5148
vn -0.8142 0.1347 -0.5647
vn -0.0795 0.0717 0.9943
vn 0.0299 -0.5349 0.8444
vn 0.4081 -0.3514 0.8426
vn 0.6137 -0.0627 0.7870
vn -0.0154 0.5813 0.8135
vn 0.3380 0.3950 0.8542
vn -0.1416 0.4829 -0.8641
vn 0.3421 0.6239 -0.7026
vn 0.4469 0.0998 -0.8890
vn -0.0442 -0.8345 0.5492
vn -0.3979 -0.9168 -0.0343
vn 0.3263 -0.9229 0.2046
vn 0.3196 0.9202 -0.2260
vn 0.1996 0.8214 0.5344
vn -0.4606 0.1725 -0.8707
vn -0.3825 -0.6602 -0.6464
vn -0.7571 -0.4840 -0.4388
vn -0.5507 0.8013 -0.2336
vn -0.2849 0.9586 -0.0056
vn -0.2966 0.7599 -0.5784
vn -0.4703 -0.5745 -0.6699
vn -0.3597 -0.8726 -0.3305
vn -0.3108 -0.5064 -0.8043
vn -0.3584 0.6980 0.6199
vn -0.2300 0.9260 0.2993
vn -0.2915 0.9527 -0.0854
vn -0.3426 0.6161 0.7092
vn 0.0774 0.5474 0.8333
vn -0.7409 -0.6453 -0.1864
vn -0.5782 -0.8159 0.0019
vn -0.8434 -0.5099 -0.1693
vn -0.0162 0.8519 -0.5234
vn -0.1233 0.8152 -0.5659
vn 0.6538 -0.1789 0.7352
vn 0.7472 -0.0683 0.6610
vn 0.4323 0.4744 0.7669
vn 0.7562 0.4124 -0.5079
vn 0.9075 -0.0741 -0.4135
vn 0.8211 0.0644 -0.5671
vn 0.7784 -0.3286 -0.5349
vn 0.1025 -0.5267 -0.8439
vn -0.1695 -0.2352 -0.9571
vn -0.1974 -0.8354 -0.5129
vn -0.1125 0.7921 -0.6000
vn -0.8114 -0.5516 -0.1933
vn -0.5581 0.3712 0.7421
vn -0.6090 -0.4686 0.6400
vn -0.3999 0.4231 -0.8131
vn -0.4508 0.6983 0.5560
vn 0.8720 -0.0964 0.4800
vn 0.7315 0.3849 0.5628
vn 0.7225 0.4636 0.5128
vn 0.7098 0.5894 0.3858
vn -0.5728 -0.6192 0.5371
vn -0.7128 0.0585 0.6990
vn -0.6480 0.0807 0.7574
vn -0.1447 -0.6914 0.7078
vn -0.4541 -0.8323 0.3180
vn -0.0996 -0.6944 0.7127
vn 0.8897 -0.1796 0.4198
vn 0.4432 -0.6005 0.6656
vn 0.0946 0.7874 -0.6092
vn -0.0699 -0.5392 -0.8393
vn -0.1897 0.6524 -0.7338
vn -0.4889 0.1243 -0.8634
vn -0.1804 0.1869 -0.9657
vn -0.5700 -0.7330 -0.3712
vn -0.5144 -0.1888 0.8365
vn -0.3894 -0.7974 0.4611
vn -0.4202 -0.8939 -0.1561
vn -0.4058 -0.8877 0.2175
vn -0.3178 -0.9481 -0.0099
vn -0.2864 -0.9534 -0.0949
vn -0.3727 -0.9249 -0.0756
vn -0.5342 -0.8358 -0.1265
vn -0.2582 0.4587 -0.8503
vn 0.9785 0.1276 -0.1619
vn 0.9943 0.0780 -0.0723
vn 0.7463 -0.0371 -0.6645
vn 0.6933 -0.2640 -0.6705
vn 0.8032 0.4944 0.3324
vn 0.7261 0.4239 0.5413
vn -0.4553 0.2501 0.8545
vn -0.0845 -0.5682 0.8186
vn -0.3111 0.4966 0.8103
vn -0.1549 0.8462 -0.5098
vn -0.8690 0.1767 0.4621
vn 0.4534 -0.5975 0.6614
vn 0.2021 -0.4745 0.8568
vn 0.3585 0.7424 -0.5660
vn 0.6078 -0.0829 0.7897
vn -0.3209 0.2668 -0.9088
vn -0.9356 -0.2597 -0.2390
vn -0.9265 -0.3601 -0.1096
vn -0.7230 0.2857 0.6290
vn -0.6228 0.4668 0.6279
vn -0.8172 0.5733 -0.0583
vn -0.8282 0.5459 -0.1272
vn -0.7764 0.1893 0.6011
vn 0.7243 0.3070 0.6174
vn 0.9648 0.1895 0.1823
vn 0.9854 0.1652 -0.0419
vn -0.6945 0.2456 0.6763
vn 0.3657 0.8459 -0.3882
vn -0.6969 -0.7158 0.0438
vn 0.1276 -0.9800 -0.1527
vn 0.7605 0.6162 0.2048
vn 0.8443 0.3553 -0.4012
vn 0.8073 0.3543 -0.4720
vn 0.7856 0.6130 -0.0842
vn 0.2865 0.7544 -0.5906
vn -0.5092 -0.8464 -0.1561
vn -0.9739 -0.2194 -0.0586
vn -0.6197 0.5347 0.5745
vn -0.0950 -0.7941 0.6003
vn -0.6578 -0.5739 0.4878
vn -0.8149 0.5472 -0.1914
vn -0.3829 0.7314 -0.5644
vn -0.9911 0.0925 0.0956
vn -0.9973 0.0235 -0.0700
vn -0.5627 0.7678 -0.3064
vn -0.5171 -0.4431 0.7323
vn 0.6670 -0.5068 0.5461
vn 0.8853 -0.1824 0.4277
vn -0.1925 -0.0782 -0.9782
vn 0.3747 -0.7400 0.5586
vn 0.8664 0.2873 0.4083
s 1
f 2/1/1 3/2/2 1/3/3
f 114/4/4 132/5/5 23/6/6
f 26/7/7 82/8/8 4/9/9
f 26/7/7 4/9/9 3/2/2
f 10/10/10 35/11/11 111/12/12
f 30/13/13 11/14/14 94/15/15
f 94/15/15 51/16/16 30/13/13
f 12/17/17 30/13/13 13/18/18
f 18/19/19 17/20/20 19/21/21
f 21/22/22 25/23/23 20/24/24
f 23/6/6 22/25/25 24/26/26
f 31/27/27 32/28/28 33/29/29
f 42/30/30 39/31/31 43/32/32
f 89/33/33 56/34/34 72/35/35
f 75/36/36 90/37/37 76/38/38
f 90/39/37 45/40/39 63/41/40
f 91/42/41 65/43/42 66/44/43
f 39/31/31 75/36/36 76/38/38
f 76/38/38 27/45/44 78/46/45
f 52/47/46 2/1/1 79/48/47
f 2/1/1 21/49/22 20/24/24
f 23/6/6 64/50/48 114/4/4
f 5/51/49 129/52/50 6/53/51
f 137/54/52 82/8/8 14/55/53
f 17/20/20 5/51/49 6/53/51
f 6/53/51 19/21/21 17/20/20
f 51/16/16 13/18/18 30/13/13
f 15/56/54 18/19/19 19/21/21
f 15/56/54 19/21/21 14/55/53
f 16/57/55 89/33/33 14/55/53
f 18/19/19 58/58/56 17/20/20
f 24/59/26 22/25/25 90/37/37
f 91/42/41 92/60/57 25/23/23
f 29/61/58 28/62/59 30/13/13
f 34/63/60 35/11/11 43/32/32
f 39/31/31 42/30/30 38/64/61
f 106/65/62 50/66/63 51/16/16
f 63/67/40 95/68/64 110/69/65
f 49/70/66 96/71/67 97/72/68
f 98/73/69 28/74/59 59/75/70
f 98/73/69 59/75/70 46/76/71
f 20/24/24 26/7/7 3/2/2
f 100/77/72 51/16/16 47/78/73
f 27/45/44 55/79/74 58/58/56
f 56/34/34 71/80/75 72/35/35
f 73/81/76 57/82/77 74/83/78
f 90/39/37 75/84/36 45/40/39
f 101/85/79 56/34/34 89/33/33
f 67/86/80 68/87/81 49/70/66
f 68/88/81 37/89/82 36/90/83
f 40/91/84 113/92/85 70/93/86
f 56/34/34 40/91/84 32/94/28
f 56/34/34 41/95/87 40/91/84
f 73/81/76 74/83/78 103/96/88
f 129/52/50 104/97/89 105/98/90
f 6/53/51 107/99/91 19/21/21
f 107/99/91 108/100/92 19/21/21
f 109/101/93 54/102/94 64/50/48
f 14/55/53 82/8/8 16/57/55
f 97/72/68 69/103/95 67/86/80
f 88/104/96 28/74/59 98/73/69
f 30/13/13 28/62/59 88/105/96
f 33/29/29 111/12/12 31/27/27
f 73/81/76 78/46/45 58/58/56
f 36/106/83 49/70/66 68/87/81
f 77/107/97 45/108/39 75/109/36
f 56/34/34 32/94/28 71/80/75
f 70/110/86 113/111/85 68/87/81
f 68/88/81 113/112/85 37/89/82
f 76/38/38 62/113/98 27/45/44
f 28/114/59 93/115/99 96/71/67
f 96/71/67 49/70/66 28/114/59
f 97/72/68 77/107/97 69/103/95
f 12/17/17 63/67/40 45/108/39
f 12/17/17 45/108/39 29/61/58
f 21/49/22 2/1/1 61/116/100
f 22/25/25 62/113/98 90/37/37
f 101/85/79 89/33/33 16/57/55
f 135/117/101 101/85/79 92/60/57
f 64/50/48 23/6/6 24/26/26
f 24/26/26 63/41/40 64/50/48
f 22/25/25 99/118/102 55/79/74
f 102/119/103 79/48/47 114/4/4
f 78/46/45 73/81/76 43/32/32
f 115/120/104 72/35/35 71/80/75
f 111/12/12 34/63/60 31/27/27
f 115/121/104 103/96/88 74/83/78
f 101/85/79 66/44/43 65/43/42
f 25/23/23 65/43/42 91/42/41
f 118/122/105 66/44/43 134/123/106
f 96/71/67 48/124/107 97/72/68
f 85/125/108 112/126/109 84/127/110
f 84/127/110 8/128/111 85/125/108
f 88/105/96 11/14/14 30/13/13
f 82/8/8 137/54/52 4/9/9
f 53/129/112 54/102/94 106/130/62
f 1/3/3 105/98/90 138/131/113
f 80/132/114 104/97/89 5/51/49
f 40/91/84 70/93/86 32/94/28
f 65/43/42 41/95/87 56/34/34
f 91/42/41 118/122/105 92/60/57
f 119/133/115 96/71/67 136/134/116
f 119/133/115 48/124/107 96/71/67
f 37/89/82 121/135/117 41/95/87
f 113/112/85 122/136/118 37/89/82
f 41/95/87 121/135/117 40/91/84
f 50/66/63 127/137/119 95/68/64
f 138/131/113 139/138/120 132/5/5
f 128/139/121 137/54/52 108/100/92
f 108/100/92 107/99/91 6/53/51
f 129/52/50 4/9/9 128/139/121
f 79/48/47 2/1/1 1/3/3
f 81/140/122 23/6/6 132/5/5
f 5/51/49 83/141/123 99/118/102
f 86/142/124 9/143/125 33/144/29
f 16/57/55 25/23/23 92/60/57
f 47/145/73 51/146/16 94/147/15
f 44/148/126 97/72/68 48/124/107
f 5/51/49 99/118/102 81/140/122
f 81/140/122 80/132/114 5/51/49
f 106/130/62 102/119/103 53/129/112
f 21/49/22 61/116/100 60/149/127
f 24/26/26 90/39/37 63/41/40
f 57/82/77 73/81/76 18/19/19
f 58/58/56 55/79/74 17/20/20
f 59/75/70 65/43/42 25/23/23
f 25/23/23 21/22/22 59/75/70
f 53/129/112 102/119/103 114/4/4
f 75/109/36 39/150/31 38/64/61
f 77/107/97 38/64/61 69/103/95
f 4/9/9 105/98/90 3/2/2
f 2/1/1 52/47/46 61/116/100
f 20/24/24 3/2/2 2/1/1
f 53/129/112 114/4/4 64/50/48
f 22/25/25 23/6/6 81/140/122
f 129/52/50 5/51/49 104/97/89
f 14/55/53 108/100/92 137/54/52
f 82/8/8 26/7/7 16/57/55
f 26/7/7 25/23/23 16/57/55
f 55/79/74 99/118/102 83/141/123
f 7/151/128 68/87/81 67/86/80
f 7/151/128 70/110/86 68/87/81
f 69/103/95 85/125/108 8/128/111
f 9/152/125 10/10/10 111/12/12
f 34/63/60 111/12/12 35/11/11
f 42/30/30 35/11/11 87/153/129
f 47/145/73 94/147/15 46/76/71
f 63/67/40 12/17/17 13/18/18
f 12/17/17 29/61/58 30/13/13
f 28/62/59 29/61/58 93/154/99
f 59/75/70 28/74/59 49/155/66
f 29/61/58 45/108/39 44/148/126
f 61/156/100 47/145/73 60/157/127
f 93/154/99 29/61/58 44/148/126
f 95/68/64 63/67/40 13/18/18
f 99/118/102 22/25/25 81/140/122
f 55/79/74 27/45/44 62/113/98
f 37/89/82 65/43/42 36/90/83
f 62/113/98 76/38/38 90/37/37
f 53/129/112 64/50/48 54/102/94
f 55/79/74 62/113/98 22/25/25
f 57/158/77 15/56/54 72/35/35
f 103/96/88 34/63/60 43/32/32
f 77/107/97 75/109/36 38/64/61
f 69/103/95 8/128/111 67/86/80
f 72/35/35 115/120/104 74/159/78
f 7/151/128 86/160/124 70/110/86
f 105/98/90 1/3/3 3/2/2
f 84/127/110 9/152/125 8/128/111
f 8/128/111 9/152/125 7/151/128
f 108/100/92 14/55/53 19/21/21
f 46/76/71 94/147/15 11/161/14
f 109/162/93 64/163/48 63/67/40
f 63/67/40 110/69/65 109/162/93
f 49/70/66 97/72/68 67/86/80
f 72/35/35 74/159/78 57/158/77
f 9/152/125 111/12/12 33/29/29
f 27/45/44 58/58/56 78/46/45
f 36/90/83 59/75/70 49/155/66
f 65/43/42 59/75/70 36/90/83
f 112/126/109 85/125/108 38/64/61
f 38/64/61 42/30/30 112/126/109
f 42/30/30 43/32/32 35/11/11
f 51/16/16 50/66/63 13/18/18
f 61/156/100 100/164/72 47/145/73
f 47/145/73 46/76/71 60/157/127
f 59/75/70 60/157/127 46/76/71
f 77/107/97 97/72/68 44/148/126
f 45/108/39 77/107/97 44/148/126
f 26/7/7 20/24/24 25/23/23
f 18/19/19 73/81/76 58/58/56
f 16/57/55 92/60/57 101/85/79
f 55/79/74 83/141/123 17/20/20
f 5/51/49 17/20/20 83/141/123
f 15/56/54 57/158/77 18/19/19
f 72/35/35 15/56/54 89/33/33
f 15/56/54 14/55/53 89/33/33
f 79/48/47 1/3/3 138/131/113
f 138/131/113 114/4/4 79/48/47
f 21/22/22 60/157/127 59/75/70
f 70/93/86 86/142/124 32/94/28
f 33/144/29 32/94/28 86/142/124
f 38/64/61 85/125/108 69/103/95
f 67/86/80 8/128/111 7/151/128
f 103/96/88 43/32/32 73/81/76
f 9/152/125 86/160/124 7/151/128
f 43/32/32 39/31/31 76/38/38
f 76/38/38 78/46/45 43/32/32
f 31/165/27 115/120/104 71/80/75
f 71/80/75 32/94/28 31/165/27
f 66/44/43 101/85/79 134/123/106
f 135/117/101 134/123/106 101/85/79
f 93/154/99 44/148/126 48/124/107
f 87/153/129 112/126/109 42/30/30
f 95/68/64 13/18/18 50/66/63
f 50/66/63 106/65/62 54/166/94
f 129/52/50 105/98/90 4/9/9
f 52/47/46 79/48/47 102/119/103
f 106/65/62 51/16/16 100/77/72
f 9/152/125 84/127/110 10/10/10
f 37/89/82 41/95/87 65/43/42
f 65/43/42 56/34/34 101/85/79
f 35/11/11 10/10/10 87/153/129
f 61/156/100 52/167/46 100/164/72
f 81/140/122 132/5/5 80/132/114
f 132/5/5 114/4/4 138/131/113
f 117/168/130 103/96/88 115/121/104
f 120/169/131 48/124/107 119/133/115
f 136/134/116 96/71/67 93/115/99
f 40/91/84 121/135/117 122/170/118
f 124/171/132 87/153/129 10/10/10
f 10/10/10 123/172/133 124/171/132
f 123/172/133 10/10/10 84/127/110
f 112/126/109 124/171/132 123/172/133
f 124/171/132 112/126/109 87/153/129
f 125/173/134 98/73/69 46/76/71
f 127/137/119 50/66/63 54/166/94
f 110/69/65 127/137/119 109/174/93
f 131/175/135 52/47/46 102/119/103
f 133/176/136 80/132/114 132/5/5
f 139/138/120 138/131/113 105/98/90
f 105/98/90 104/97/89 139/138/120
f 133/176/136 104/97/89 80/132/114
f 116/177/137 117/178/130 31/27/27
f 31/27/27 34/63/60 116/177/137
f 115/120/104 31/165/27 117/179/130
f 117/168/130 116/177/137 103/96/88
f 34/63/60 103/96/88 116/177/137
f 118/122/105 134/123/106 135/117/101
f 135/117/101 92/60/57 118/122/105
f 66/44/43 118/122/105 91/42/41
f 120/180/131 119/133/115 136/134/116
f 93/154/99 48/124/107 120/169/131
f 93/154/99 120/169/131 136/181/116
f 113/92/85 40/91/84 122/170/118
f 122/136/118 121/135/117 37/89/82
f 84/127/110 112/126/109 123/172/133
f 125/173/134 126/182/138 98/73/69
f 88/104/96 98/73/69 126/182/138
f 126/183/138 125/184/134 11/14/14
f 11/14/14 88/105/96 126/183/138
f 46/185/71 11/14/14 125/184/134
f 109/101/93 127/186/119 54/102/94
f 110/69/65 95/68/64 127/137/119
f 108/100/92 129/52/50 128/139/121
f 6/53/51 129/52/50 108/100/92
f 4/9/9 137/54/52 128/139/121
f 102/119/103 106/130/62 131/175/135
f 100/164/72 52/167/46 130/187/139
f 131/175/135 130/188/139 52/47/46
f 130/189/139 131/190/135 106/65/62
f 106/65/62 100/77/72 130/189/139
f 132/5/5 139/138/120 133/176/136
f 139/138/120 104/97/89 133/176/136
