# Blender v2.82 (sub 7) OBJ File: ''
# www.blender.org
o asteroid2.001
v 1.740032 -0.306262 0.659488
v 1.656152 -0.569745 0.496383
v 1.602435 -0.241659 -0.128172
v 1.535495 -0.811915 0.516803
v 1.486795 0.838954 0.512824
v 1.344822 1.087052 0.763065
v 1.547541 0.492378 -0.031164
v 1.766795 0.416284 0.674102
v 1.278918 -0.188880 -0.864049
v 1.276480 -0.428937 -0.644972
v 1.332124 -0.494388 -0.527999
v 1.242991 0.330571 -0.799435
v 1.309345 0.170905 -0.852134
v -0.830865 -0.386271 0.394701
v -0.699217 -0.336675 1.016974
v -0.848069 0.410957 0.063319
v -0.808635 0.407826 0.407097
v -0.929125 0.148219 0.329887
v -0.780375 0.250799 0.868983
v -0.885385 -0.160748 -0.269735
v -0.818429 -0.356677 -0.284057
v -0.756507 0.245937 -0.481539
v -0.808687 0.399369 -0.257261
v -0.611921 0.526279 -0.471035
v -0.879685 0.085989 -0.328875
v -0.938950 0.158751 -0.087690
v 0.406128 -0.536820 2.104062
v 0.696468 -0.518209 2.067296
v 0.297964 -0.133596 2.296163
v 0.885998 -0.144562 2.040624
v 0.666676 0.613492 2.021413
v 0.352572 0.282243 2.282878
v 0.926963 0.555751 1.954849
v 0.652607 -0.172163 -1.255500
v 0.642053 -0.352474 -1.163438
v 0.923447 -0.228645 -1.189953
v 0.810972 -0.525530 -0.939307
v 0.474408 0.626212 -0.876445
v 0.815358 0.319548 -1.160305
v 0.478727 0.339101 -1.159405
v 0.635248 0.192766 -1.254275
v 0.703991 -1.133255 0.044223
v 0.751899 -1.354937 0.651946
v 0.495781 -1.194686 0.121203
v 0.836974 -1.351717 0.750260
v 0.808101 1.288474 0.474718
v 0.990746 1.282145 0.654085
v 0.996093 1.130729 0.236509
v 0.781722 1.307660 0.658482
v 1.137764 -0.766339 -0.322261
v 0.507941 -0.863712 -0.456273
v 0.382994 -1.059221 -0.155535
v 0.864201 0.719250 -0.543074
v 0.414965 0.935996 -0.385536
v 0.679316 1.134309 0.041174
v 0.375584 0.898630 -0.495629
v -0.256059 -0.237585 2.156717
v -0.048407 -0.314290 2.214579
v -0.129323 -0.069158 2.289128
v -0.318337 -0.438617 1.879905
v -0.378506 -0.276876 1.980028
v -0.247231 0.344929 2.078351
v -0.102157 0.273130 2.224880
v -0.215782 0.142050 2.237753
v -0.194055 -0.047853 -0.993962
v -0.142935 -0.422745 -0.932407
v -0.584461 -0.000157 -0.719993
v -0.209479 -0.488318 -0.848766
v -0.376602 0.390627 -0.776954
v -0.395384 0.167385 -0.847109
v -0.274248 -0.886937 0.587198
v -0.190934 0.991631 0.078274
v -0.049543 1.079920 0.512997
v -0.184308 0.988270 0.581803
v -0.301965 0.864043 0.628191
v -0.350295 -0.822499 -0.288417
v -0.655514 -0.608719 -0.255507
v -0.132376 -0.916208 -0.303278
v -0.236020 0.894824 -0.240694
v -0.566994 0.692807 -0.254107
v -0.272290 0.760076 -0.481210
v -0.433492 0.627859 -0.543694
v -0.153963 0.649411 1.612084
v -0.376073 0.476299 1.718905
v -0.137229 0.903019 0.894167
v -0.156395 -0.694257 1.498733
v -0.405188 -0.491012 1.611490
v 0.966204 1.155030 1.428980
v 1.023936 1.113625 1.479514
v 0.947845 1.205298 1.339417
v 0.809736 -1.053760 1.548733
v 0.639076 -1.043287 1.513267
v 1.036362 -1.062281 1.470293
v 0.872370 -0.851066 1.813679
v -0.476752 0.338699 1.737700
v -0.643641 0.247263 1.339960
v -0.697305 0.170961 1.288675
v -0.481256 -0.341806 1.730318
v 1.187732 0.398311 1.806806
v 1.343010 0.623699 1.594667
v 1.069463 0.806565 1.747078
v 1.473374 0.621027 1.412788
v 1.159399 -0.635672 1.775136
v 1.393360 -0.477366 1.588272
v 1.207277 -0.138961 1.815363
v 1.572163 -0.605916 1.240640
v 1.576000 -0.162992 1.372540
v 1.679363 -0.018409 -0.004417
v 1.811214 0.143205 0.713157
v 1.798033 0.248172 0.659650
v 1.809097 0.086347 0.810955
v 1.447931 -0.597715 -0.182981
v 1.447067 -0.519446 -0.320607
v 1.717574 -0.249920 1.028354
v 1.672121 -0.565190 0.853052
v 1.232523 -1.103506 0.491748
v 1.337225 -1.091495 0.815816
v 1.099414 -1.231631 0.731528
v 1.527398 -0.863556 0.807041
v 1.625896 0.217570 -0.147432
v 1.719409 0.525463 0.979611
v 1.278879 1.092520 1.293973
v 1.726452 0.552213 0.858040
v 1.237957 0.954859 0.185002
v 1.299915 1.093685 0.573669
v 1.334030 0.001135 -0.864866
v 1.096270 -0.231003 -1.074713
v 1.061155 -0.635869 -0.555128
v 1.151422 -0.639038 -0.501002
v 1.121387 0.088280 -1.122972
v 1.055927 0.312363 -1.038248
v 0.943156 0.089208 -1.232809
v 1.023160 0.734464 -0.397128
v 0.963696 0.496549 -0.888231
v -0.956695 -0.019694 0.260227
v -0.873786 -0.431266 0.104840
v -0.938837 -0.208088 0.158720
v -0.636097 -0.663461 0.270887
v -0.730673 -0.596277 0.270491
v -0.806903 -0.490449 0.319304
v -0.719510 0.237936 1.190075
v -0.789533 0.218557 0.960747
v -0.589281 0.638048 0.555514
v -0.953422 -0.000751 -0.102067
v -0.625844 -0.241158 -0.635753
v -0.696122 -0.406689 -0.469245
v -0.783034 -0.082007 -0.490712
v -0.532686 -0.552074 -0.540145
v -0.594296 0.392919 -0.605511
v 0.352400 0.142031 2.316166
v 0.508736 0.143981 2.230057
v 0.236801 0.074865 2.357070
v 0.554902 -0.761256 1.909799
v 0.080680 -0.151655 2.315149
v 0.215962 -0.312703 2.251214
v 0.715905 0.812471 1.870467
v 0.315757 0.653160 1.979015
v 0.404989 0.002773 -1.249704
v 0.737032 0.001424 -1.284767
v 0.490084 -0.585092 -0.918396
v 0.084819 -0.443630 -1.016950
v 0.007762 -0.406815 -1.015894
v 0.451500 0.814204 -0.633205
v 0.437676 0.746591 -0.750538
v 0.123437 0.334504 -1.056783
v 0.115717 0.137104 -1.140932
v 0.254462 -1.181569 0.691442
v 0.303733 -1.217908 0.433100
v 0.381141 -1.269737 0.649756
v 0.529343 -1.314029 0.580931
v 0.112204 1.124203 0.080170
v 0.140482 1.178595 0.565318
v 0.390652 1.169589 0.074905
v 0.205800 1.199578 0.645615
v 0.045399 -0.958751 -0.311044
v 0.174512 0.956540 -0.349000
v 0.179566 0.898559 -0.496283
v 0.250366 0.925053 -0.454684
v -0.277482 0.045403 2.207976
v 0.220394 0.713181 1.856646
v -0.201117 -0.646213 -0.678712
v -0.190213 -0.584027 -0.784674
v -0.147737 0.571745 -0.763236
v -0.238396 -0.967360 0.101809
v -0.379984 -0.875902 0.142451
v -0.153153 0.965503 0.752279
v 0.997833 1.249605 1.206036
v 1.076877 1.240130 1.159963
v 0.617386 -1.280833 0.934833
v 0.768696 -1.323966 0.920611
v 0.819071 -1.346452 0.848075
v -0.442678 0.156681 1.949391
v -0.369335 0.338524 1.945625
v 0.955447 -0.632279 1.915517
v 1.422986 0.106227 1.609754
v 1.488845 0.273720 1.511604
v 1.129085 -0.901742 1.649955
v 1.362501 -0.819334 1.460195
v 1.146204 1.082379 1.468602
v -0.746037 -0.056847 1.090365
v -0.657477 0.065008 1.381665
v -0.715428 0.099768 1.267705
v 0.265449 -0.868824 1.591462
v -0.597919 -0.548367 0.847547
v 0.348079 0.996998 1.370218
v 1.557824 -0.025475 -0.407182
v 1.782163 0.120524 0.989948
v 1.750675 0.266824 1.066713
v 1.317740 -0.763779 -0.115216
v 1.345574 -0.783542 0.020027
v 1.220851 -0.811088 -0.169390
v 1.254778 1.142708 1.229228
v 1.188707 1.194659 1.164205
v 0.965338 -0.477521 -0.919091
v 0.814790 0.526983 -0.924680
v 1.320641 0.677431 -0.157727
v -0.824919 0.081939 0.838316
v -0.782330 0.072474 1.075687
v -0.000352 -0.513644 2.029469
v 0.124207 0.089122 2.377924
v 0.119804 -0.067403 -1.154138
v 0.181688 0.802789 -0.645645
v 0.252065 0.740203 -0.747718
v 0.091278 -1.103573 0.043131
v 0.203256 1.093952 0.940244
v 0.225587 1.184390 0.751907
v 0.478442 1.133189 1.109606
v -0.582306 0.717772 0.063437
v -0.019916 -0.614533 -0.824778
v 0.084178 -0.525605 -0.944857
v -0.785811 -0.549696 0.074774
v -0.728939 -0.617943 0.142554
v 0.912760 0.307436 2.011279
v 1.124077 -1.206193 0.967278
v 1.305358 -1.042583 1.209995
v 1.492824 -0.858626 1.098743
v 0.908296 0.822971 1.831339
v -0.508429 -0.087181 1.807805
v 0.437516 -1.191880 0.960553
v 0.421628 -1.246812 0.830806
v -0.565681 0.489012 1.123221
v 0.677896 -1.291380 0.668562
v 0.477776 -1.243050 0.670607
v -0.879933 -0.407034 0.215782
v -0.807122 -0.443438 0.133881
v -0.728584 -0.532534 0.240448
v -0.804076 -0.433385 0.234096
v -0.126110 -0.530807 -0.794972
v 0.041887 -0.433756 -0.947286
v -0.052858 1.017419 0.571026
v -0.075777 0.969063 0.716191
v 0.154977 1.124096 0.631214
v 0.237067 0.840816 -0.507049
v 0.323648 0.455723 2.162349
v 0.190248 0.225932 2.278817
v 0.302008 0.230895 2.260367
v 0.282750 0.138247 2.288009
v -0.679505 0.182521 1.198080
v -0.750255 0.115248 1.002839
v -0.692697 0.118219 1.188414
v 0.995902 1.126566 1.363375
v 1.055404 1.174839 1.207471
v 1.267193 -0.529047 -0.444529
v 1.156172 -0.669089 -0.361401
v 1.728682 0.421736 1.049913
v 1.692575 0.448561 0.934349
v 1.753656 0.176423 0.778922
v 1.720765 0.398729 0.738326
v 1.475845 -0.235193 -0.478765
v -0.537392 -0.389594 -0.656891
v -0.740425 -0.533522 0.131102
v -0.119532 -0.445913 -0.868483
v -0.014264 1.026011 0.840237
v 0.164301 1.131248 0.839284
v 0.370187 0.718676 -0.791196
v 0.230899 0.297173 2.299039
v 0.091748 0.136967 2.369069
v 0.130047 0.252550 2.328926
v -0.814323 0.121577 0.940104
v 1.225230 1.087073 1.397986
v 1.744103 0.516979 0.739117
v 0.741352 -1.283537 0.840547
v 0.534558 -1.231547 0.834314
v 0.003917 -0.534284 -0.847427
v 0.133226 1.077317 0.779623
v 0.381027 0.812272 -0.558159
v 0.382457 0.729403 -0.694149
v 0.277046 0.733455 -0.683191
v 0.152969 0.123629 2.313384
v -0.735181 0.183247 1.013803
v 1.113558 1.072156 1.400929
v 1.186876 1.110001 1.248897
v 1.375061 -0.560144 -0.249457
v 1.255960 -0.711312 -0.176800
v 1.725561 0.218328 0.975918
v -0.386939 -0.089123 2.059330
vt 0.420056 0.391281
vt 0.508408 0.388721
vt 0.413867 0.427769
vt 0.488590 0.541784
vt 0.465381 0.586050
vt 0.444718 0.510945
vt 0.541570 0.485804
vt 0.448061 0.497361
vt 0.573158 0.959871
vt 0.544489 0.982851
vt 0.486169 0.979924
vt 0.551218 0.915434
vt 0.471578 0.900307
vt 0.538241 0.880173
vt 0.635637 0.874981
vt 0.664081 0.835067
vt 0.672729 0.881435
vt 0.661956 0.922503
vt 0.612397 0.916709
vt 0.136296 0.545996
vt 0.171290 0.507161
vt 0.137619 0.594771
vt 0.222054 0.549465
vt 0.157632 0.607717
vt 0.289300 0.658185
vt 0.215547 0.678706
vt 0.299654 0.628067
vt 0.649778 0.301386
vt 0.588339 0.251205
vt 0.621537 0.228367
vt 0.798838 0.721645
vt 0.858903 0.754896
vt 0.830405 0.763866
vt 0.862753 0.778068
vt 0.342930 0.268187
vt 0.405850 0.222812
vt 0.424046 0.248409
vt 0.490641 0.621851
vt 0.545856 0.599942
vt 0.522604 0.639486
vt 0.494170 0.652537
vt 0.498536 0.216727
vt 0.498946 0.296804
vt 0.656861 0.538564
vt 0.667006 0.629872
vt 0.587978 0.625755
vt 0.687813 0.624917
vt 0.696088 0.581050
vt 0.083083 0.206877
vt 0.057158 0.179522
vt 0.091267 0.175491
vt 0.134776 0.175366
vt 0.113751 0.161192
vt 0.031298 0.141471
vt 0.046296 0.122759
vt 0.047636 0.148927
vt 0.775554 0.855709
vt 0.804532 0.898096
vt 0.755704 0.928946
vt 0.720972 0.881408
vt 0.516897 0.768546
vt 0.529333 0.747153
vt 0.509215 0.789202
vt 0.633591 0.819109
vt 0.636499 0.759872
vt 0.674073 0.771463
vt 0.678437 0.803014
vt 0.254872 0.356089
vt 0.194457 0.378939
vt 0.229774 0.333807
vt 0.144711 0.043568
vt 0.146714 0.050413
vt 0.132576 0.052353
vt 0.348161 0.579279
vt 0.341822 0.621068
vt 0.305733 0.578889
vt 0.275486 0.452177
vt 0.260822 0.514227
vt 0.232852 0.437991
vt 0.322529 0.423950
vt 0.329899 0.475870
vt 0.505425 0.421991
vt 0.429812 0.472661
vt 0.441539 0.481784
vt 0.403394 0.362005
vt 0.494422 0.341940
vt 0.367791 0.445115
vt 0.375140 0.408291
vt 0.347835 0.344019
vt 0.349716 0.313762
vt 0.384384 0.319867
vt 0.365460 0.373488
vt 0.538588 0.444629
vt 0.372122 0.562194
vt 0.416843 0.522807
vt 0.409230 0.606979
vt 0.432797 0.521080
vt 0.542110 0.563591
vt 0.494276 0.582860
vt 0.588718 0.279667
vt 0.630289 0.322772
vt 0.563494 0.327131
vt 0.534847 0.289272
vt 0.527247 0.302119
vt 0.654621 0.373017
vt 0.666379 0.412286
vt 0.632993 0.432671
vt 0.623388 0.401133
vt 0.701594 0.413958
vt 0.683370 0.368312
vt 0.623236 0.528463
vt 0.572766 0.509946
vt 0.671507 0.459969
vt 0.559255 0.939802
vt 0.476664 0.927285
vt 0.627674 0.986513
vt 0.575865 0.992713
vt 0.630086 0.966834
vt 0.349342 0.065355
vt 0.376460 0.102223
vt 0.310739 0.135768
vt 0.416342 0.897339
vt 0.453740 0.908041
vt 0.612088 0.939981
vt 0.648877 0.928382
vt 0.730743 0.948759
vt 0.697281 0.920062
vt 0.732921 0.916521
vt 0.445423 0.100925
vt 0.434085 0.053594
vt 0.481573 0.063565
vt 0.469654 0.039673
vt 0.685934 0.845681
vt 0.192692 0.653110
vt 0.213125 0.635260
vt 0.157223 0.320614
vt 0.226287 0.299384
vt 0.051909 0.210833
vt 0.074756 0.238475
vt 0.248973 0.771013
vt 0.218986 0.721419
vt 0.293219 0.708206
vt 0.269129 0.795669
vt 0.845742 0.809247
vt 0.886940 0.795558
vt 0.881148 0.820386
vt 0.567210 0.202156
vt 0.715358 0.509937
vt 0.713070 0.558323
vt 0.800753 0.809037
vt 0.785451 0.787268
vt 0.443648 0.202338
vt 0.331186 0.229811
vt 0.356408 0.206503
vt 0.344532 0.242122
vt 0.321387 0.211762
vt 0.593342 0.710887
vt 0.521094 0.723273
vt 0.593438 0.664997
vt 0.665646 0.684930
vt 0.694581 0.689611
vt 0.687443 0.668733
vt 0.063257 0.153835
vt 0.169615 0.150917
vt 0.197716 0.204345
vt 0.324548 0.730881
vt 0.336301 0.818645
vt 0.354774 0.784243
vt 0.735485 0.849695
vt 0.721884 0.778358
vt 0.718240 0.822628
vt 0.389906 0.125418
vt 0.468297 0.776799
vt 0.492234 0.771001
vt 0.427405 0.638928
vt 0.431623 0.629963
vt 0.300816 0.267832
vt 0.311008 0.283275
vt 0.086429 0.087659
vt 0.082345 0.116286
vt 0.064922 0.109046
vt 0.145047 0.142060
vt 0.267527 0.600152
vt 0.199225 0.444993
vt 0.311821 0.522918
vt 0.340815 0.535724
vt 0.280125 0.405180
vt 0.240543 0.391470
vt 0.396986 0.613032
vt 0.189522 0.051579
vt 0.148961 0.070910
vt 0.156028 0.052965
vt 0.432683 0.857282
vt 0.324799 0.841865
vt 0.400942 0.716847
vt 0.461444 0.730390
vt 0.551645 0.398768
vt 0.396428 0.483887
vt 0.394657 0.502205
vt 0.612842 0.374842
vt 0.603457 0.347671
vt 0.475918 0.322349
vt 0.458801 0.325397
vt 0.428555 0.618830
vt 0.418095 0.610885
vt 0.481003 0.960831
vt 0.185160 0.026613
vt 0.200602 0.025077
vt 0.178179 0.038286
vt 0.117107 0.225278
vt 0.194622 0.255546
vt 0.018413 0.179609
vt 0.014211 0.172302
vt 0.814501 0.841254
vt 0.720449 0.712608
vt 0.746701 0.717690
vt 0.259597 0.091063
vt 0.405104 0.169844
vt 0.454312 0.133115
vt 0.461749 0.162152
vt 0.481025 0.729569
vt 0.494094 0.718705
vt 0.590227 0.879918
vt 0.590205 0.822870
vt 0.542131 0.131335
vt 0.567323 0.145869
vt 0.301544 0.365995
vt 0.321078 0.326290
vt 0.329357 0.387155
vt 0.333336 0.641213
vt 0.117612 0.122530
vt 0.288186 0.247619
vt 0.308938 0.241192
vt 0.515454 0.835629
vt 0.563807 0.990140
vt 0.329183 0.034719
vt 0.345010 0.047207
vt 0.308893 0.029705
vt 0.399391 0.010048
vt 0.443407 0.016361
vt 0.388173 0.030165
vt 0.369593 0.042826
vt 0.386592 0.012038
vt 0.370947 0.009603
vt 0.385190 0.003749
vt 0.582904 0.144907
vt 0.509293 0.108429
vt 0.532473 0.108354
vt 0.589784 0.758074
vt 0.516731 0.753247
vt 0.498238 0.760631
vt 0.508822 0.728850
vt 0.252046 0.694156
vt 0.007892 0.158545
vt 0.208432 0.693849
vt 0.211937 0.710679
vt 0.200731 0.717017
vt 0.199511 0.703110
vt 0.154413 0.039464
vt 0.175667 0.026540
vt 0.159980 0.043468
vt 0.538565 0.327465
vt 0.489257 0.317429
vt 0.510024 0.305675
vt 0.527498 0.321082
vt 0.403269 0.516457
vt 0.419223 0.512838
vt 0.422577 0.481898
vt 0.436608 0.500385
vt 0.135854 0.627461
vt 0.324213 0.664393
vt 0.313422 0.253291
vt 0.346035 0.036560
vt 0.372336 0.028994
vt 0.561761 0.997840
vt 0.555900 0.993609
vt 0.544670 0.114274
vt 0.808693 0.906096
vt 0.798543 0.912478
vt 0.554112 0.131743
vt 0.701603 0.603488
vt 0.707414 0.681476
vt 0.162739 0.657032
vt 0.155870 0.654541
vt 0.156258 0.651442
vt 0.221652 0.705993
vt 0.442071 0.910924
vt 0.553030 0.371524
vt 0.712254 0.961978
vt 0.690126 0.947298
vt 0.886173 0.839759
vt 0.913808 0.824407
vt 0.695453 0.468335
vt 0.092886 0.147757
vt 0.396474 0.643955
vt 0.409974 0.645990
vt 0.396949 0.882818
vt 0.227085 0.068979
vt 0.515257 0.343514
vt 0.335070 0.282795
vt 0.715037 0.385734
vt 0.389786 0.636764
vt 0.713725 0.360442
vt 0.829613 0.883826
vt 0.820843 0.884828
vt 0.435666 0.697761
vt 0.323088 0.285642
vt 0.389867 0.623474
vt 0.414538 0.472397
vt 0.917919 0.797530
vt 0.138435 0.354104
vt 0.112871 0.289567
vt 0.479254 0.307878
vt 0.170791 0.647208
vt 0.768856 0.712569
vt 0.774146 0.705417
vt 0.294698 0.828687
vt 0.479851 0.754274
vt 0.510144 0.716461
vt 0.800056 0.921314
vt 0.757965 0.942513
vt 0.459016 0.921555
vt 0.335625 0.260937
vt 0.571873 0.998498
vt 0.331923 0.026427
vt 0.806720 0.917091
vt 0.573280 0.133065
vt 0.490329 0.735622
vt 0.714170 0.572086
vt 0.741959 0.706249
vt 0.206073 0.681731
vt 0.184724 0.658462
vt 0.414749 0.905338
vt 0.398120 0.626207
vt 0.414044 0.618577
vt 0.421404 0.631025
vt 0.320169 0.274312
vt 0.329446 0.240492
vt 0.375591 0.020202
vt 0.560310 0.113767
vt 0.825582 0.891368
vt 0.726339 0.681429
vt 0.756115 0.699878
vt 0.006610 0.172102
vt 0.002303 0.163304
vt 0.170725 0.023613
vt 0.449536 0.920208
vt 0.404192 0.637634
vt 0.505503 0.333792
vt 0.404723 0.494116
vn 0.9273 -0.3495 -0.1340
vn 0.9311 -0.2515 -0.2641
vn 0.9771 -0.2064 -0.0523
vn 0.7748 0.5864 -0.2363
vn 0.6861 0.7249 -0.0607
vn 0.9691 0.2449 0.0286
vn 0.8001 0.4961 -0.3372
vn 0.9738 0.1806 0.1384
vn -0.9778 -0.2068 0.0338
vn -0.8837 -0.3906 0.2579
vn -0.8826 -0.3960 0.2534
vn -0.9669 0.2291 0.1120
vn -0.8951 0.4124 0.1696
vn -0.8409 0.5237 0.1365
vn -0.8374 0.4721 -0.2754
vn -0.6681 0.5794 -0.4668
vn -0.7934 0.2524 -0.5538
vn -0.9029 0.1067 -0.4165
vn -0.9636 0.2371 -0.1233
vn -0.0367 -0.5990 0.7999
vn 0.2880 -0.3759 0.8808
vn -0.0070 -0.4585 0.8886
vn 0.4983 -0.0683 0.8643
vn 0.2408 -0.2340 0.9419
vn 0.1779 0.5286 0.8300
vn 0.1649 0.2459 0.9552
vn 0.4638 0.2841 0.8392
vn 0.3625 -0.4161 -0.8339
vn 0.2227 -0.7867 -0.5758
vn 0.0193 -0.5983 -0.8010
vn 0.0664 0.7367 -0.6730
vn 0.2242 0.5803 -0.7830
vn -0.1445 0.5390 -0.8298
vn -0.0092 0.3360 -0.9418
vn -0.0865 -0.9961 -0.0190
vn -0.0463 -0.9369 -0.3466
vn 0.2427 -0.8670 -0.4352
vn 0.3013 0.9481 -0.1013
vn 0.3890 0.8365 -0.3859
vn 0.1043 0.9703 -0.2182
vn -0.0637 0.9972 0.0381
vn 0.1408 -0.8540 -0.5009
vn 0.5560 -0.6673 -0.4955
vn 0.3477 0.8144 -0.4645
vn 0.1329 0.8957 -0.4243
vn 0.1763 0.8842 -0.4325
vn -0.0053 0.8179 -0.5754
vn -0.0607 0.8588 -0.5087
vn -0.2824 -0.5595 0.7792
vn -0.3940 -0.1681 0.9036
vn -0.5680 -0.4201 0.7078
vn -0.5583 -0.7012 0.4434
vn -0.7743 -0.3861 0.5014
vn -0.3496 0.5596 0.7514
vn -0.5349 0.6040 0.5908
vn -0.5687 0.2572 0.7813
vn -0.5147 -0.0490 -0.8560
vn -0.3152 -0.6141 -0.7235
vn -0.6078 -0.3667 -0.7043
vn -0.6700 -0.0021 -0.7423
vn -0.6066 0.7439 -0.2805
vn -0.4951 0.8188 0.2907
vn -0.6489 0.7412 0.1717
vn -0.6289 0.7396 -0.2398
vn -0.3806 0.8710 -0.3106
vn -0.3602 0.7870 -0.5008
vn -0.4736 0.6788 -0.5612
vn 0.2828 -0.8484 0.4475
vn 0.1994 -0.6587 0.7255
vn -0.0063 -0.8611 0.5084
vn -0.9681 0.0820 0.2369
vn -0.9386 0.1584 0.3066
vn -0.8562 0.3692 0.3613
vn 0.7138 0.2877 0.6386
vn 0.5144 0.4462 0.7323
vn 0.6313 0.1484 0.7612
vn 0.7680 -0.1777 0.6153
vn 0.6427 -0.0464 0.7647
vn 0.6208 -0.2704 0.7359
vn 0.8827 -0.3082 0.3547
vn 0.8631 -0.0757 0.4992
vn 0.9729 -0.0587 -0.2237
vn 0.9821 0.1560 0.1059
vn 0.9795 0.1784 0.0933
vn 0.8009 -0.5775 -0.1583
vn 0.6675 -0.5917 -0.4520
vn 0.9508 -0.1775 0.2539
vn 0.9312 -0.3608 0.0519
vn 0.6711 -0.7411 0.0199
vn 0.4358 -0.8947 -0.0975
vn 0.5209 -0.8029 -0.2897
vn 0.8290 -0.5591 0.0131
vn 0.9251 0.2208 -0.3088
vn 0.8079 0.3233 0.4927
vn 0.9727 0.2030 0.1125
vn 0.7362 0.5978 0.3172
vn 0.9626 0.2520 0.0995
vn 0.5852 0.7050 -0.4007
vn 0.6083 0.7637 -0.2163
vn 0.4239 -0.7246 -0.5434
vn 0.5879 -0.4048 -0.7003
vn 0.6453 -0.5582 -0.5215
vn 0.4665 -0.6950 -0.5472
vn 0.5259 -0.7250 -0.4448
vn 0.6312 0.1491 -0.7611
vn 0.5096 0.5773 -0.6380
vn 0.6793 0.5634 -0.4702
vn 0.7952 0.3191 -0.5155
vn 0.3893 0.1673 -0.9058
vn 0.5105 0.6056 -0.6104
vn 0.6322 0.6634 -0.4003
vn 0.3946 0.7391 -0.5459
vn -0.9934 -0.0417 0.1064
vn -0.9804 0.0207 0.1957
vn -0.8642 -0.3825 -0.3268
vn -0.8214 -0.5667 0.0653
vn -0.9215 -0.2063 -0.3291
vn -0.5941 -0.7889 0.1572
vn -0.5668 -0.8239 -0.0048
vn -0.5550 -0.8134 0.1741
vn -0.9098 0.2993 0.2874
vn -0.9877 -0.0405 -0.1510
vn -0.7530 -0.4185 -0.5077
vn -0.8198 -0.0877 -0.5659
vn -0.6715 -0.2268 -0.7054
vn -0.4779 -0.8191 -0.3173
vn -0.6893 -0.6732 -0.2677
vn -0.5628 -0.6300 -0.5351
vn -0.6506 0.3906 -0.6513
vn 0.1611 0.2069 0.9650
vn 0.4668 0.0988 0.8788
vn -0.0963 -0.7290 0.6777
vn -0.2288 -0.8710 0.4347
vn -0.0865 -0.3161 0.9448
vn 0.0840 0.3533 0.9317
vn -0.1690 0.7574 0.6307
vn -0.2300 -0.0245 -0.9729
vn 0.0865 -0.0158 -0.9961
vn -0.0235 -0.3126 -0.9496
vn 0.0111 -0.7913 -0.6114
vn 0.1386 0.8620 -0.4876
vn -0.3790 0.2207 -0.8987
vn -0.3135 0.4917 -0.8124
vn -0.0150 -0.8877 -0.4602
vn -0.2908 -0.9465 0.1402
vn -0.3621 -0.9278 -0.0894
vn -0.1856 -0.9754 0.1190
vn -0.5146 -0.8408 0.1682
vn -0.2696 0.9362 -0.2257
vn -0.4493 0.8698 0.2040
vn -0.0521 0.9519 -0.3019
vn -0.1385 0.9174 -0.3730
vn 0.0283 0.8155 -0.5781
vn 0.0089 0.8554 -0.5178
vn -0.6805 0.0763 0.7288
vn -0.6473 -0.7064 0.2863
vn -0.4733 -0.8239 0.3117
vn -0.3008 0.8104 0.5027
vn -0.6108 0.7128 0.3448
vn -0.4530 0.8212 0.3470
vn -0.5577 0.1757 -0.8112
vn -0.3226 0.6365 -0.7006
vn -0.4958 0.4225 -0.7588
vn -0.4785 -0.8751 -0.0725
vn -0.5766 0.7524 0.3186
vn -0.4778 0.8547 0.2030
vn 0.2197 0.8992 0.3783
vn 0.3237 0.8636 0.3866
vn -0.2926 -0.9494 0.1143
vn -0.1399 -0.9774 0.1584
vn -0.8345 0.4302 0.3443
vn -0.8664 0.1787 0.4664
vn -0.6807 0.5176 0.5185
vn -0.8473 -0.4098 0.3378
vn 0.5019 0.1202 0.8565
vn 0.4426 -0.3362 0.8313
vn 0.7538 0.0306 0.6564
vn 0.8127 0.1113 0.5719
vn 0.7314 -0.4726 0.4916
vn 0.4659 -0.6158 0.6354
vn 0.3983 0.8132 0.4244
vn -0.9408 -0.2108 0.2653
vn -0.9273 0.0125 0.3741
vn -0.9601 0.0961 0.2625
vn -0.7396 0.6354 0.2218
vn -0.3304 0.8661 0.3751
vn -0.3892 0.8440 0.3690
vn 0.9299 -0.0579 -0.3632
vn 0.9742 0.1356 0.1805
vn 0.9800 0.1301 0.1507
vn 0.8452 -0.0377 -0.5332
vn 0.7836 -0.3389 -0.5206
vn 0.5623 -0.6694 -0.4855
vn 0.7073 -0.6481 -0.2823
vn 0.3660 0.8684 0.3346
vn 0.4376 0.8353 0.3329
vn -0.9525 0.1131 0.2826
vn -0.9240 0.2672 0.2735
vn -0.3258 -0.7559 0.5679
vn -0.3558 -0.8356 0.4184
vn 0.1141 0.1984 0.9735
vn 0.0550 0.2735 0.9603
vn -0.3541 -0.1410 -0.9245
vn 0.0519 0.8473 -0.5286
vn 0.0170 0.8767 -0.4808
vn -0.7193 -0.6608 0.2141
vn -0.2707 -0.9366 -0.2226
vn -0.3334 -0.8655 -0.3738
vn -0.1308 -0.8781 -0.4602
vn -0.4717 0.8631 0.1803
vn -0.4663 0.8641 0.1894
vn -0.8603 0.5098 -0.0028
vn -0.6726 0.7400 0.0011
vn -0.3000 -0.5892 -0.7503
vn -0.3859 -0.5866 -0.7120
vn 0.6000 -0.7446 0.2925
vn 0.4066 -0.8950 0.1837
vn 0.8370 -0.5011 0.2197
vn 0.2730 0.6012 0.7510
vn -0.9221 -0.0979 0.3744
vn -0.4115 -0.8414 0.3503
vn -0.2912 -0.9371 0.1923
vn -0.6979 0.6973 0.1634
vn -0.8063 -0.5762 0.1333
vn -0.7213 -0.6521 0.2334
vn -0.8053 -0.5908 0.0497
vn -0.7720 -0.6193 0.1430
vn -0.8068 -0.5908 -0.0042
vn -0.5363 -0.7591 0.3690
vn -0.9154 -0.3466 -0.2048
vn -0.5253 -0.8226 -0.2175
vn -0.3270 -0.5783 -0.7475
vn -0.3489 -0.7900 -0.5041
vn -0.2945 -0.6061 -0.7389
vn -0.4934 0.8637 -0.1028
vn -0.3300 0.8076 0.4888
vn -0.2709 0.9626 0.0087
vn -0.6562 0.6614 0.3632
vn 0.0093 0.6237 0.7816
vn -0.1387 -0.0064 0.9903
vn 0.3620 -0.0841 0.9284
vn 0.4227 0.4537 0.7845
vn -0.1232 0.5339 0.8365
vn -0.9813 -0.1923 0.0074
vn -0.7059 0.5111 0.4904
vn -0.8592 0.5076 0.0642
vn 0.6347 -0.6251 -0.4544
vn 0.5817 -0.4967 -0.6442
vn 0.8150 -0.4964 -0.2990
vn 0.5141 -0.8410 -0.1684
vn 0.9764 0.1631 0.1417
vn 0.9965 -0.0684 -0.0488
vn 0.8915 0.3736 0.2563
vn 0.9361 0.0170 0.3513
vn -0.0070 0.7310 0.6823
vn -0.0395 -0.9806 -0.1921
vn -0.8557 -0.3282 0.4001
vn -0.0909 -0.3590 -0.9289
vn -0.0160 -0.8149 -0.5794
vn -0.2779 -0.5698 -0.7734
vn -0.5657 -0.2727 -0.7782
vn -0.3678 0.6855 -0.6283
vn 0.2306 0.7078 -0.6677
vn 0.1345 0.2437 0.9605
vn -0.8613 -0.2416 0.4470
vn 0.8631 -0.2831 -0.4183
vn 0.2347 0.7797 -0.5805
vn -0.8302 -0.1124 0.5460
vn 0.2473 0.8968 0.3668
vn 0.2020 0.8820 0.4257
vn 0.6673 -0.6486 -0.3661
vn 0.2577 -0.9648 -0.0513
vn 0.2699 0.8756 0.4005
vn -0.3207 -0.5998 -0.7331
vn -0.2986 0.8997 0.3182
vn -0.0865 -0.9719 0.2187
vn 0.3622 0.8461 0.3912
vn 0.9872 0.1307 0.0910
vn 0.5678 -0.7024 -0.4291
vn 0.1865 0.2397 0.9528
vn -0.1080 0.8107 -0.5755
vn -0.4755 0.8589 0.1901
vn -0.4944 0.8547 0.1580
vn -0.3752 -0.8144 0.4427
vn -0.4916 -0.7212 -0.4880
vn -0.5854 0.7990 -0.1375
vn -0.3040 0.8898 -0.3403
vn 0.2447 0.9342 -0.2595
vn 0.1556 0.9864 0.0537
vn -0.0473 0.8921 0.4493
vn 0.4202 0.6550 0.6280
vn -0.4416 -0.8963 -0.0404
vn 0.0034 -0.9453 0.3261
vn 0.5786 0.7796 0.2397
vn 0.3159 -0.7976 -0.5138
vn 0.9378 0.3110 -0.1545
s 1
f 2/1/1 3/2/2 1/3/3
f 5/4/4 6/5/5 281/6/6
f 7/7/7 281/6/6 8/8/8
f 137/9/9 14/10/10 15/11/11
f 18/12/12 19/13/13 17/14/14
f 23/15/15 24/16/16 22/17/17
f 25/18/18 26/19/19 23/15/15
f 27/20/20 28/21/21 155/22/22
f 28/21/21 30/23/23 29/24/24
f 31/25/25 32/26/26 33/27/27
f 36/28/28 37/29/29 35/30/30
f 38/31/31 39/32/32 40/33/33
f 40/33/33 39/32/32 41/34/34
f 43/35/35 44/36/36 42/37/37
f 47/38/38 48/39/39 46/40/40
f 47/38/38 46/40/40 49/41/41
f 51/42/42 37/29/29 50/43/43
f 53/44/44 54/45/45 55/46/46
f 56/47/47 54/45/45 163/48/48
f 58/49/49 59/50/50 57/51/51
f 60/52/52 57/51/51 61/53/53
f 63/54/54 62/55/55 64/56/56
f 65/57/57 66/58/58 270/59/59
f 270/59/59 67/60/60 65/57/57
f 74/61/61 73/62/62 75/63/63
f 80/64/64 79/65/65 81/66/66
f 81/66/66 82/67/67 80/64/64
f 93/68/68 94/69/69 91/70/70
f 141/71/71 97/72/72 96/73/73
f 100/74/74 101/75/75 99/76/76
f 104/77/77 105/78/78 103/79/79
f 106/80/80 107/81/81 104/77/77
f 108/82/82 109/83/83 1/3/3
f 1/3/3 3/2/2 108/82/82
f 110/84/84 109/83/83 108/82/82
f 2/1/1 4/85/85 112/86/86
f 114/87/87 107/81/81 106/80/80
f 114/87/87 106/80/80 115/88/88
f 117/89/89 118/90/90 116/91/91
f 117/89/89 116/91/91 4/85/85
f 4/85/85 119/92/92 117/89/89
f 7/7/7 8/8/8 120/93/93
f 102/94/94 121/95/95 122/96/96
f 121/95/95 123/97/97 122/96/96
f 124/98/98 125/99/99 5/4/4
f 124/98/98 48/39/39 125/99/99
f 214/100/100 127/101/101 10/102/102
f 36/28/28 127/101/101 214/100/100
f 214/100/100 37/29/29 36/28/28
f 50/43/43 128/103/103 129/104/104
f 130/105/105 131/106/106 12/107/107
f 12/107/107 13/108/108 130/105/105
f 39/109/32 131/106/106 130/105/105
f 130/105/105 132/110/109 39/109/32
f 53/44/44 133/111/110 216/112/111
f 216/112/111 134/113/112 53/44/44
f 135/114/113 217/115/114 18/12/12
f 21/116/115 136/117/116 137/9/9
f 137/9/9 20/118/117 21/116/115
f 138/119/118 185/120/119 71/121/120
f 141/122/71 19/13/13 142/123/121
f 144/124/122 25/125/18 20/118/117
f 144/124/122 26/19/19 25/18/18
f 146/126/123 147/127/124 145/128/125
f 145/128/125 67/60/60 270/59/59
f 76/129/126 77/130/127 148/131/128
f 77/130/127 146/132/123 148/131/128
f 22/17/17 24/16/16 149/133/129
f 30/23/23 150/134/130 29/24/24
f 151/135/131 150/134/130 30/23/23
f 153/136/132 92/137/133 91/70/70
f 154/138/134 59/50/50 58/49/49
f 154/138/134 58/49/49 155/139/22
f 63/140/54 278/141/135 157/142/136
f 157/142/136 62/143/55 63/140/54
f 158/144/137 159/145/138 34/146/139
f 41/34/34 159/145/138 158/144/137
f 51/42/42 160/147/140 37/29/29
f 163/48/48 38/148/31 164/149/141
f 166/150/142 165/151/143 40/33/33
f 40/33/33 41/34/34 166/150/142
f 44/36/36 52/152/144 42/37/37
f 169/153/145 168/154/146 170/155/147
f 167/156/148 168/154/146 169/153/145
f 48/39/39 55/46/46 46/40/40
f 48/39/39 53/44/44 55/46/46
f 171/157/149 172/158/150 49/41/41
f 49/41/41 173/159/151 171/157/149
f 79/65/65 176/160/152 177/161/153
f 177/161/153 81/66/66 79/65/65
f 176/160/152 178/162/154 177/161/153
f 59/50/50 179/163/155 57/51/51
f 59/50/50 64/56/56 179/163/155
f 60/52/52 87/164/156 86/165/157
f 180/166/158 84/167/159 62/143/55
f 83/168/160 84/167/159 180/166/158
f 70/169/161 65/57/57 67/60/60
f 82/67/67 183/170/162 69/171/163
f 81/66/66 183/170/162 82/67/67
f 76/129/126 184/172/164 185/120/119
f 185/120/119 77/130/127 76/129/126
f 75/63/63 85/173/165 186/174/166
f 86/165/157 87/164/156 71/121/120
f 49/41/41 187/175/167 188/176/168
f 188/176/168 47/38/38 49/41/41
f 189/177/169 190/178/170 91/70/70
f 91/70/70 92/137/133 189/177/169
f 95/179/171 96/73/73 192/180/172
f 193/181/173 95/179/171 192/180/172
f 98/182/174 60/52/52 61/53/53
f 33/27/27 233/183/175 99/76/76
f 99/76/76 101/75/75 33/27/27
f 30/23/23 194/184/176 103/79/79
f 103/79/79 105/78/78 30/23/23
f 28/21/21 194/184/176 30/23/23
f 107/81/81 195/185/177 104/77/77
f 107/81/81 196/186/178 195/185/177
f 198/187/179 103/79/79 197/188/180
f 197/188/180 94/69/69 93/68/68
f 100/74/74 102/94/94 280/189/181
f 200/190/182 201/191/183 202/192/184
f 241/193/185 95/194/171 84/167/159
f 83/168/160 205/195/186 225/196/187
f 225/196/187 85/173/165 83/168/160
f 120/93/93 110/84/84 108/82/82
f 120/93/93 108/82/82 206/197/188
f 144/124/122 20/118/117 137/9/9
f 26/19/19 144/124/122 135/114/113
f 135/114/113 18/12/12 26/19/19
f 114/87/87 207/198/189 107/81/81
f 107/81/81 207/198/189 208/199/190
f 208/199/190 196/186/178 107/81/81
f 127/101/101 130/105/105 126/200/191
f 126/200/191 9/201/192 127/101/101
f 130/105/105 13/108/108 126/200/191
f 197/188/180 103/79/79 194/184/176
f 197/188/180 194/184/176 94/69/69
f 116/91/91 209/202/193 210/203/194
f 213/204/195 212/205/196 6/5/5
f 133/111/110 124/98/98 216/112/111
f 124/98/98 5/4/4 216/112/111
f 200/206/182 217/115/114 135/114/113
f 135/114/113 137/9/9 200/206/182
f 279/207/197 217/208/114 200/190/182
f 200/190/182 218/209/198 279/207/197
f 153/136/132 219/210/199 203/211/200
f 203/211/200 92/137/133 153/136/132
f 219/210/199 86/165/157 203/211/200
f 154/138/134 220/212/201 59/50/50
f 59/50/50 220/212/201 277/213/202
f 277/213/202 64/56/56 59/50/50
f 158/144/137 34/146/139 221/214/203
f 166/150/142 41/34/34 158/144/137
f 166/150/142 158/144/137 221/214/203
f 147/127/124 22/17/17 67/60/60
f 147/127/124 67/60/60 145/128/125
f 183/170/162 222/215/204 223/216/205
f 71/121/120 87/164/156 204/217/206
f 71/121/120 204/217/206 138/119/118
f 224/218/207 78/219/208 175/220/209
f 168/154/146 224/218/207 44/36/36
f 44/36/36 170/155/147 168/154/146
f 274/221/210 225/196/187 226/222/211
f 16/223/212 228/224/213 80/64/64
f 80/64/64 23/15/15 16/223/212
f 175/220/209 229/225/214 160/147/140
f 160/147/140 229/225/214 230/226/215
f 149/133/129 24/16/16 82/67/67
f 82/67/67 69/171/163 149/133/129
f 176/160/152 171/157/149 173/159/151
f 233/183/175 151/135/131 30/23/23
f 235/227/216 93/68/68 234/228/217
f 236/229/218 198/187/179 235/227/216
f 236/229/218 235/227/216 117/89/89
f 117/89/89 119/92/92 236/229/218
f 33/27/27 101/75/75 237/230/219
f 237/230/219 31/25/25 33/27/27
f 201/191/183 238/231/220 192/180/172
f 239/232/221 86/165/157 167/156/148
f 240/233/222 239/232/221 167/156/148
f 75/63/63 143/234/223 241/193/185
f 143/234/223 17/14/14 241/193/185
f 239/232/221 189/177/169 92/137/133
f 169/153/145 240/233/222 167/156/148
f 136/117/116 244/235/224 137/9/9
f 140/236/225 139/237/226 14/238/10
f 136/239/116 21/240/115 77/130/127
f 231/241/227 136/239/116 77/130/127
f 138/119/118 139/237/226 232/242/228
f 245/243/229 246/244/230 247/245/231
f 160/147/140 230/226/215 161/246/232
f 161/246/232 35/30/30 160/147/140
f 181/247/233 182/248/234 229/225/214
f 72/249/235 73/62/62 172/158/150
f 75/63/63 186/174/166 74/61/61
f 250/250/236 251/251/237 252/252/238
f 178/162/154 176/160/152 54/45/45
f 54/45/45 56/47/47 178/162/154
f 254/253/239 157/142/136 278/141/135
f 151/135/131 33/27/27 32/26/26
f 64/56/56 277/213/202 278/254/135
f 278/254/135 63/54/54 64/56/56
f 256/255/240 255/256/241 289/257/242
f 289/257/242 257/258/243 256/255/240
f 97/72/72 201/191/183 96/73/73
f 97/72/72 202/192/184 201/191/183
f 200/190/182 202/192/184 218/209/198
f 258/259/244 259/260/245 260/261/246
f 102/94/94 122/96/96 280/189/181
f 129/104/104 128/103/103 10/102/102
f 10/102/102 11/262/247 129/104/104
f 4/85/85 210/203/194 112/86/86
f 294/263/248 264/264/249 263/265/250
f 281/6/6 6/5/5 123/97/97
f 8/8/8 110/84/84 120/93/93
f 196/186/178 208/199/190 265/266/251
f 265/266/251 102/94/94 196/186/178
f 266/267/252 267/268/253 268/269/254
f 42/37/37 52/152/144 51/42/42
f 125/99/99 48/39/39 47/38/38
f 47/38/38 6/5/5 125/99/99
f 217/115/114 19/13/13 18/12/12
f 29/24/24 154/270/134 155/22/22
f 65/57/57 166/150/142 221/214/203
f 223/216/205 38/31/31 40/33/33
f 35/30/30 37/29/29 160/147/140
f 21/240/115 146/132/123 77/130/127
f 72/249/235 172/158/150 171/157/149
f 156/271/255 31/25/25 237/230/219
f 240/233/222 283/272/256 189/177/169
f 139/237/226 246/273/230 232/242/228
f 231/241/227 232/242/228 271/274/257
f 246/273/230 139/237/226 140/236/225
f 247/275/231 140/276/225 244/235/224
f 182/248/234 248/277/258 229/225/214
f 66/58/58 272/278/259 68/279/260
f 229/225/214 284/280/261 230/226/215
f 286/281/262 163/48/48 164/149/141
f 177/161/153 253/282/263 222/215/204
f 253/282/263 177/161/153 178/162/154
f 163/48/48 286/281/262 56/47/47
f 289/283/242 277/284/202 220/285/201
f 276/286/264 278/141/135 255/256/241
f 142/123/121 290/287/265 141/122/71
f 202/192/184 260/261/246 218/209/198
f 1/3/3 115/88/88 2/1/1
f 2/1/1 115/88/88 119/92/92
f 119/92/92 4/85/85 2/1/1
f 1/3/3 114/87/87 115/88/88
f 281/6/6 7/7/7 5/4/4
f 10/102/102 9/201/192 269/288/266
f 269/288/266 11/262/247 10/102/102
f 134/113/112 216/112/111 12/107/107
f 216/112/111 7/7/7 12/107/107
f 137/9/9 244/235/224 14/10/10
f 244/235/224 140/276/225 14/10/10
f 17/14/14 16/223/212 18/12/12
f 21/289/115 20/290/117 147/127/124
f 147/127/124 146/126/123 21/289/115
f 22/17/17 25/18/18 23/15/15
f 29/24/24 155/22/22 28/21/21
f 32/26/26 31/25/25 254/253/239
f 35/291/30 34/146/139 36/292/28
f 39/109/32 38/148/31 215/293/267
f 43/35/35 42/37/37 116/91/91
f 173/159/151 49/41/41 46/40/40
f 51/42/42 52/152/144 160/147/140
f 296/294/268 61/53/53 57/51/51
f 57/51/51 60/52/52 219/210/199
f 219/210/199 58/49/49 57/51/51
f 66/58/58 68/279/260 270/59/59
f 183/170/162 165/151/143 69/171/163
f 71/121/120 185/120/119 184/172/164
f 184/172/164 167/156/148 71/121/120
f 73/62/62 72/249/235 228/224/213
f 228/224/213 75/63/63 73/62/62
f 83/168/160 85/173/165 75/63/63
f 75/63/63 84/167/159 83/168/160
f 88/295/269 90/296/270 205/195/186
f 95/194/171 241/193/185 96/297/73
f 15/298/11 98/182/174 238/231/220
f 238/231/220 200/190/182 15/298/11
f 99/76/76 196/186/178 100/74/74
f 103/79/79 198/187/179 104/77/77
f 198/187/179 106/80/80 104/77/77
f 88/295/269 205/195/186 180/166/158
f 180/166/158 156/271/255 88/295/269
f 112/86/86 113/299/271 3/2/2
f 198/187/179 236/229/218 106/80/80
f 43/35/35 116/91/91 118/90/90
f 118/90/90 45/300/272 43/35/35
f 12/107/107 7/7/7 120/93/93
f 120/93/93 13/108/108 12/107/107
f 102/94/94 265/266/251 121/95/95
f 126/200/191 13/108/108 120/93/93
f 120/93/93 206/197/188 126/200/191
f 128/103/103 50/43/43 37/29/29
f 37/29/29 214/100/100 128/103/103
f 132/110/109 41/301/34 39/109/32
f 131/106/106 39/109/32 215/293/267
f 215/293/267 134/113/112 131/106/106
f 53/44/44 163/48/48 54/45/45
f 16/223/212 23/15/15 26/19/19
f 19/13/13 141/122/71 241/193/185
f 143/234/223 75/63/63 228/224/213
f 22/17/17 147/127/124 25/18/18
f 148/131/128 181/247/233 76/129/126
f 149/133/129 69/171/163 70/169/161
f 70/169/161 67/60/60 149/133/129
f 82/67/67 24/16/16 80/64/64
f 153/136/132 91/70/70 94/69/69
f 156/271/255 89/302/273 88/295/269
f 180/166/158 157/142/136 156/271/255
f 159/303/138 41/301/34 132/110/109
f 161/304/232 162/305/274 221/214/203
f 38/148/31 163/48/48 215/293/267
f 69/171/163 165/151/143 166/150/142
f 166/150/142 70/169/161 69/171/163
f 168/154/146 167/156/148 184/172/164
f 54/45/45 173/159/151 55/46/46
f 192/180/172 296/294/268 179/163/155
f 86/165/157 219/210/199 60/52/52
f 65/57/57 70/169/161 166/150/142
f 181/247/233 78/219/208 76/129/126
f 183/170/162 81/66/66 222/215/204
f 184/172/164 76/129/126 78/219/208
f 78/219/208 224/218/207 184/172/164
f 72/249/235 79/65/65 80/64/64
f 80/64/64 228/224/213 72/249/235
f 86/165/157 71/121/120 167/156/148
f 187/175/167 49/41/41 226/222/211
f 226/222/211 227/306/275 187/175/167
f 190/178/170 191/307/276 234/228/217
f 62/55/55 193/181/173 192/180/172
f 192/180/172 64/56/56 62/55/55
f 98/182/174 61/53/53 296/294/268
f 296/294/268 238/231/220 98/182/174
f 99/76/76 105/78/78 195/185/177
f 93/68/68 235/227/216 197/188/180
f 280/189/181 199/308/277 237/230/219
f 237/230/219 101/75/75 280/189/181
f 201/191/183 200/190/182 238/231/220
f 86/165/157 239/232/221 203/211/200
f 241/193/185 84/167/159 75/63/63
f 83/168/160 180/166/158 205/195/186
f 3/2/2 2/1/1 112/86/86
f 3/2/2 206/197/188 108/82/82
f 126/200/191 206/197/188 269/288/266
f 269/288/266 9/201/192 126/200/191
f 16/223/212 26/19/19 18/12/12
f 137/9/9 135/114/113 144/124/122
f 109/83/83 111/309/278 1/3/3
f 9/201/192 10/102/102 127/101/101
f 130/105/105 127/101/101 36/28/28
f 36/28/28 132/110/109 130/105/105
f 159/145/138 132/310/109 36/292/28
f 36/292/28 34/146/139 159/145/138
f 28/21/21 94/69/69 194/184/176
f 153/136/132 94/69/69 28/311/21
f 28/311/21 27/312/20 153/136/132
f 116/91/91 42/37/37 209/202/193
f 210/203/194 4/85/85 116/91/91
f 42/37/37 211/313/279 209/202/193
f 212/205/196 122/96/96 123/97/97
f 123/97/97 6/5/5 212/205/196
f 6/5/5 5/4/4 125/99/99
f 134/113/112 12/107/107 131/106/106
f 124/98/98 133/111/110 53/44/44
f 53/44/44 48/39/39 124/98/98
f 7/7/7 216/112/111 5/4/4
f 15/11/11 200/206/182 137/9/9
f 219/210/199 153/136/132 27/312/20
f 58/49/49 219/210/199 27/312/20
f 27/312/20 155/139/22 58/49/49
f 150/134/130 152/314/280 29/24/24
f 161/304/232 221/214/203 34/146/139
f 34/146/139 35/291/30 161/304/232
f 149/133/129 67/60/60 22/17/17
f 147/127/124 20/290/117 25/18/18
f 165/151/143 183/170/162 223/216/205
f 223/216/205 40/33/33 165/151/143
f 275/315/281 164/316/141 38/31/31
f 204/217/206 15/298/11 14/238/10
f 204/217/206 139/237/226 138/119/118
f 224/218/207 168/154/146 184/172/164
f 224/218/207 175/220/209 52/152/144
f 52/152/144 44/36/36 224/218/207
f 84/167/159 95/194/171 193/317/173
f 193/317/173 62/143/55 84/167/159
f 225/196/187 227/306/275 226/222/211
f 273/318/282 186/174/166 85/173/165
f 172/158/150 174/319/283 49/41/41
f 143/234/223 228/224/213 16/223/212
f 16/223/212 17/14/14 143/234/223
f 148/131/128 182/248/234 181/247/233
f 145/128/125 270/59/59 146/126/123
f 160/147/140 52/152/144 175/220/209
f 77/130/127 185/120/119 231/241/227
f 185/120/119 232/242/228 231/241/227
f 24/16/16 23/15/15 80/64/64
f 171/157/149 176/160/152 79/65/65
f 173/159/151 46/40/40 55/46/46
f 33/27/27 151/135/131 233/183/175
f 30/23/23 105/78/78 99/76/76
f 99/76/76 233/183/175 30/23/23
f 105/78/78 104/77/77 195/185/177
f 190/178/170 234/228/217 93/68/68
f 93/68/68 91/70/70 190/178/170
f 234/228/217 117/89/89 235/227/216
f 197/188/180 235/227/216 198/187/179
f 106/80/80 236/229/218 119/92/92
f 119/92/92 115/88/88 106/80/80
f 101/75/75 100/74/74 280/189/181
f 238/231/220 296/294/268 192/180/172
f 296/294/268 57/51/51 179/163/155
f 239/232/221 92/137/133 203/211/200
f 60/52/52 98/182/174 87/164/156
f 204/217/206 87/164/156 98/182/174
f 98/182/174 15/298/11 204/217/206
f 19/13/13 241/193/185 17/14/14
f 62/143/55 157/142/136 180/166/158
f 156/271/255 157/142/136 254/253/239
f 254/253/239 31/25/25 156/271/255
f 138/119/118 232/242/228 185/120/119
f 68/279/260 182/320/234 148/321/128
f 148/321/128 270/59/59 68/279/260
f 162/305/274 66/58/58 65/57/57
f 65/57/57 221/214/203 162/305/274
f 175/220/209 78/219/208 229/225/214
f 274/221/210 273/318/282 225/196/187
f 273/318/282 85/173/165 225/196/187
f 222/215/204 81/66/66 177/161/153
f 275/315/281 38/31/31 223/216/205
f 278/141/135 276/286/264 254/253/239
f 32/26/26 150/134/130 151/135/131
f 152/314/280 220/285/201 154/270/134
f 154/270/134 29/24/24 152/314/280
f 254/253/239 276/286/264 32/26/26
f 141/122/71 96/297/73 241/193/185
f 217/115/114 279/322/197 142/123/121
f 142/123/121 19/13/13 217/115/114
f 90/296/270 187/175/167 227/306/275
f 156/271/255 237/230/219 89/302/273
f 6/5/5 47/38/38 213/204/195
f 122/96/96 212/205/196 280/189/181
f 113/299/271 11/262/247 269/288/266
f 50/43/43 211/313/279 42/37/37
f 210/203/194 209/202/193 112/86/86
f 111/309/278 207/198/189 114/87/87
f 3/2/2 269/288/266 206/197/188
f 113/299/271 269/288/266 3/2/2
f 100/74/74 196/186/178 102/94/94
f 99/76/76 195/185/177 196/186/178
f 111/309/278 114/87/87 1/3/3
f 42/37/37 51/42/42 50/43/43
f 47/38/38 188/176/168 213/204/195
f 128/103/103 214/100/100 10/102/102
f 53/44/44 134/113/112 215/293/267
f 163/48/48 53/44/44 215/293/267
f 192/180/172 179/163/155 64/56/56
f 139/237/226 204/217/206 14/238/10
f 44/36/36 43/35/35 170/155/147
f 225/196/187 205/195/186 227/306/275
f 90/296/270 227/306/275 205/195/186
f 49/41/41 174/319/283 226/222/211
f 270/59/59 148/321/128 146/126/123
f 229/225/214 78/219/208 181/247/233
f 176/160/152 173/159/151 54/45/45
f 72/249/235 171/157/149 79/65/65
f 234/228/217 118/90/90 117/89/89
f 45/300/272 118/90/90 234/228/217
f 234/228/217 191/307/276 45/300/272
f 237/230/219 199/308/277 89/302/273
f 201/191/183 192/180/172 96/73/73
f 242/323/284 170/155/147 43/35/35
f 239/232/221 240/233/222 189/177/169
f 191/307/276 43/35/35 45/300/272
f 247/275/231 244/235/224 136/117/116
f 136/117/116 245/324/229 247/275/231
f 246/273/230 140/236/225 247/325/231
f 245/243/229 136/239/116 231/241/227
f 248/326/258 68/279/260 272/278/259
f 249/327/285 230/226/215 284/280/261
f 251/251/237 74/61/61 186/174/166
f 285/328/286 273/318/282 274/221/210
f 252/252/238 226/222/211 174/319/283
f 253/282/263 178/162/154 56/47/47
f 56/47/47 286/281/262 253/282/263
f 164/149/141 287/329/287 286/281/262
f 288/330/288 275/315/281 223/216/205
f 256/331/240 32/26/26 276/286/264
f 256/331/240 150/134/130 32/26/26
f 152/314/280 257/332/243 289/283/242
f 258/333/244 141/122/71 290/287/265
f 259/260/245 218/209/198 260/261/246
f 291/334/289 89/302/273 199/308/277
f 292/335/290 280/189/181 212/205/196
f 262/336/291 213/204/195 188/176/168
f 263/265/250 129/104/104 11/262/247
f 266/267/252 123/97/97 121/95/95
f 268/269/254 110/84/84 8/8/8
f 242/323/284 282/337/292 243/338/293
f 282/337/292 283/272/256 243/338/293
f 243/338/293 283/272/256 240/233/222
f 240/233/222 169/153/145 243/338/293
f 191/307/276 190/178/170 282/337/292
f 283/272/256 282/337/292 190/178/170
f 190/178/170 189/177/169 283/272/256
f 243/338/293 169/153/145 170/155/147
f 242/323/284 243/338/293 170/155/147
f 282/337/292 242/323/284 43/35/35
f 43/35/35 191/307/276 282/337/292
f 245/243/229 271/339/257 246/244/230
f 271/274/257 232/242/228 246/273/230
f 245/243/229 231/241/227 271/339/257
f 249/327/285 248/277/258 272/340/259
f 284/280/261 248/277/258 249/327/285
f 284/280/261 229/225/214 248/277/258
f 249/341/285 272/278/259 66/58/58
f 66/58/58 162/305/274 249/341/285
f 162/305/274 161/304/232 249/341/285
f 161/246/232 230/226/215 249/327/285
f 182/320/234 68/279/260 248/326/258
f 285/328/286 252/252/238 251/251/237
f 251/251/237 186/174/166 273/318/282
f 285/328/286 251/251/237 273/318/282
f 73/62/62 74/61/61 250/250/236
f 251/251/237 250/250/236 74/61/61
f 285/328/286 274/221/210 226/222/211
f 252/252/238 285/328/286 226/222/211
f 174/319/283 172/158/150 252/252/238
f 250/250/236 252/252/238 172/158/150
f 172/158/150 73/62/62 250/250/236
f 286/342/262 287/343/287 253/282/263
f 287/343/287 288/330/288 253/282/263
f 287/343/287 164/316/141 275/315/281
f 288/330/288 287/343/287 275/315/281
f 288/330/288 223/216/205 222/215/204
f 253/282/263 288/330/288 222/215/204
f 256/331/240 276/286/264 255/256/241
f 152/314/280 150/134/130 257/332/243
f 257/332/243 150/134/130 256/331/240
f 289/344/242 255/345/241 278/254/135
f 278/254/135 277/213/202 289/344/242
f 220/285/201 152/314/280 289/283/242
f 258/259/244 290/346/265 259/260/245
f 258/259/244 260/261/246 202/192/184
f 202/192/184 97/72/72 258/259/244
f 218/209/198 259/260/245 279/207/197
f 141/71/71 258/259/244 97/72/72
f 259/347/245 290/287/265 142/123/121
f 142/123/121 279/322/197 259/347/245
f 261/348/294 291/334/289 262/336/291
f 291/334/289 292/335/290 262/336/291
f 188/176/168 187/175/167 262/336/291
f 261/348/294 262/336/291 187/175/167
f 187/175/167 90/296/270 261/348/294
f 261/348/294 88/295/269 89/302/273
f 90/296/270 88/295/269 261/348/294
f 291/334/289 261/348/294 89/302/273
f 291/334/289 199/308/277 280/189/181
f 292/335/290 291/334/289 280/189/181
f 292/335/290 212/205/196 213/204/195
f 262/336/291 292/335/290 213/204/195
f 263/265/250 293/349/295 294/263/248
f 50/43/43 129/104/104 264/264/249
f 263/265/250 264/264/249 129/104/104
f 209/202/193 211/313/279 294/263/248
f 264/264/249 294/263/248 211/313/279
f 211/313/279 50/43/43 264/264/249
f 293/349/295 263/265/250 11/262/247
f 11/262/247 113/299/271 293/349/295
f 113/299/271 112/86/86 293/349/295
f 294/263/248 293/349/295 112/86/86
f 112/86/86 209/202/193 294/263/248
f 266/267/252 295/350/296 267/268/253
f 266/267/252 121/95/95 265/266/251
f 295/350/296 266/267/252 265/266/251
f 265/266/251 208/199/190 295/350/296
f 8/8/8 281/6/6 268/269/254
f 266/267/252 268/269/254 281/6/6
f 281/6/6 123/97/97 266/267/252
f 267/268/253 109/83/83 110/84/84
f 111/309/278 109/83/83 267/268/253
f 268/269/254 267/268/253 110/84/84
f 208/199/190 207/198/189 295/350/296
f 267/268/253 295/350/296 207/198/189
f 207/198/189 111/309/278 267/268/253
