# Blender v2.82 (sub 7) OBJ File: ''
# www.blender.org
o asteroid2.002
v 1.531764 -0.901239 0.726344
v 1.358124 1.073833 0.662964
v 1.608902 0.326473 -0.119730
v 1.155853 -0.216990 -1.032566
v 1.327499 -0.493497 -0.525702
v 1.223240 0.154665 -1.038034
v -0.774831 -0.530307 0.322222
v -0.484133 -0.294902 1.838262
v -0.768373 0.547493 0.199411
v -0.785624 0.216673 0.961498
v -0.843847 -0.305902 -0.284189
v -0.860433 0.272285 -0.317714
v -0.987975 0.052297 0.095404
v 0.149364 -0.395673 2.227921
v 0.955660 -0.633384 1.931421
v 0.352572 0.282243 2.282878
v 0.925139 0.459716 1.985686
v 0.800421 -0.168736 -1.271154
v 0.611953 -0.454894 -1.086543
v 0.914182 -0.494257 -0.937023
v 0.414018 0.721554 -0.785036
v 0.585765 0.297676 -1.227834
v 0.685990 -1.346453 0.591715
v 0.884488 1.321780 0.631607
v 0.592171 -1.188860 0.091330
v 0.901537 0.541390 -0.857663
v 0.423813 0.866746 -0.536178
v 0.868413 1.162914 0.179091
v -0.186976 -0.345323 2.150695
v -0.218453 0.056394 2.268163
v -0.218511 0.313000 2.135983
v -0.193680 -0.441501 -0.892427
v -0.538205 0.461560 -0.633350
v -0.582126 -0.040159 -0.749718
v -0.283543 -0.947861 0.260298
v -0.161818 1.010328 0.531003
v -0.583837 -0.665415 -0.328890
v -0.410008 0.853667 -0.174168
v -0.411259 0.484065 1.649119
v -0.108857 0.973178 0.801250
v -0.410923 -0.434904 1.789234
v 0.951727 1.152922 1.445478
v 0.992307 -0.986382 1.662491
v 0.547252 -1.025538 1.500813
v -0.446535 0.282630 1.894404
v -0.699313 0.219457 1.257282
v 1.422649 0.646319 1.491057
v 0.895182 0.824464 1.850574
v 1.490798 -0.631102 1.433990
v 1.016951 -0.187618 1.966484
v 1.816824 0.124290 0.696437
v 1.465787 -0.554064 -0.227690
v 1.789681 0.100883 0.973241
v 1.692399 -0.561830 0.683682
v 1.232523 -1.103506 0.491748
v 1.718826 0.546770 0.950856
v 1.263918 1.151906 1.204435
v 1.294037 0.822088 0.035753
v 1.151655 -0.635429 -0.500223
v 1.037491 0.094226 -1.192547
v -0.893215 -0.403076 0.143077
v -0.593193 -0.456766 -0.584900
v 0.314181 0.088236 2.337348
v 0.249681 0.681107 1.927610
v 0.207571 0.021036 -1.207558
v 0.095277 -0.432502 -1.034751
v 0.383526 -1.267703 0.653354
v 0.257439 1.161658 0.066657
v 0.171440 1.191914 0.584978
v -0.012487 -1.005562 -0.211348
v 0.193311 0.907305 -0.462100
v -0.187703 -0.584332 -0.783399
v -0.311139 0.663306 -0.608718
v 1.014434 1.254258 1.182513
v 0.754186 -1.308807 0.942111
v 0.843173 -1.360125 0.803056
v 1.392215 0.334547 1.643441
v 1.196692 1.077104 1.441894
v -0.810240 0.090555 0.966008
v -0.708533 0.101330 1.266390
v 0.328815 1.087325 1.117644
v 1.605792 -0.084877 -0.290714
v 1.740199 0.326219 1.077353
v 1.312456 -0.763793 -0.116104
v 1.165109 -0.812448 -0.228902
v 0.096180 0.106126 2.377533
v 0.207352 0.759445 -0.714401
v 0.004574 -0.604870 -0.834563
v -0.736436 -0.611499 0.099236
v 1.334741 -1.100265 0.986173
v 0.459276 -1.238110 0.864792
v 0.563648 -1.258983 0.639263
v -0.758202 -0.495520 0.119780
v -0.749188 -0.482211 0.251510
v -0.138458 -0.497218 -0.806109
v 0.041887 -0.433756 -0.947286
v -0.090730 0.970525 0.630818
v 0.175304 1.103624 0.714880
v 0.145787 0.163307 2.293331
v 0.305556 0.200378 2.258525
v -0.674597 0.145292 1.203282
v -0.738493 0.150739 0.992547
v 1.037405 1.085217 1.403653
v 1.131304 1.137240 1.204395
v 1.331543 -0.516620 -0.356643
v 1.690773 0.454140 0.825990
v 1.734203 0.159626 0.887093
v 0.216216 1.166232 0.812652
v 0.152525 0.275868 2.316674
v 1.749136 0.498546 0.710313
v 0.333554 0.713286 -0.706461
v 1.183686 -0.704603 -0.250615
vt 0.569502 0.989834
vt 0.555031 0.992789
vt 0.486169 0.979924
vt 0.584608 0.929721
vt 0.453565 0.908117
vt 0.566386 0.858389
vt 0.202643 0.460794
vt 0.236789 0.536071
vt 0.184110 0.650994
vt 0.328291 0.642915
vt 0.215547 0.678706
vt 0.287004 0.617075
vt 0.649778 0.301386
vt 0.588589 0.269949
vt 0.602838 0.219346
vt 0.420240 0.232684
vt 0.487593 0.303188
vt 0.673150 0.473475
vt 0.691371 0.609043
vt 0.561601 0.609590
vt 0.150610 0.159295
vt 0.094258 0.194977
vt 0.125308 0.133582
vt 0.725440 0.884508
vt 0.801504 0.905368
vt 0.748609 0.937681
vt 0.362115 0.569329
vt 0.322186 0.548896
vt 0.295806 0.428897
vt 0.527315 0.400126
vt 0.427513 0.475682
vt 0.402687 0.403476
vt 0.375385 0.371126
vt 0.502363 0.342540
vt 0.395195 0.482219
vt 0.328360 0.353264
vt 0.328789 0.285731
vt 0.384384 0.319867
vt 0.421012 0.522356
vt 0.419538 0.612748
vt 0.556218 0.538903
vt 0.481230 0.580786
vt 0.623421 0.329145
vt 0.538620 0.327464
vt 0.709206 0.397975
vt 0.637966 0.404432
vt 0.669445 0.370591
vt 0.648877 0.928382
vt 0.628326 0.981192
vt 0.079581 0.242691
vt 0.219738 0.290318
vt 0.230939 0.370834
vt 0.054406 0.159543
vt 0.262828 0.787961
vt 0.219864 0.717288
vt 0.309374 0.719899
vt 0.844655 0.769337
vt 0.898227 0.815394
vt 0.820981 0.818545
vt 0.593393 0.686558
vt 0.517285 0.720904
vt 0.499013 0.636319
vt 0.692618 0.679214
vt 0.688304 0.784533
vt 0.622080 0.790087
vt 0.350941 0.822268
vt 0.308976 0.278315
vt 0.435129 0.723168
vt 0.487041 0.764963
vt 0.539668 0.459545
vt 0.397875 0.507530
vt 0.463040 0.929332
vt 0.016292 0.175921
vt 0.363022 0.122329
vt 0.334150 0.038884
vt 0.375434 0.039020
vt 0.331167 0.229253
vt 0.445407 0.155629
vt 0.343480 0.259247
vt 0.651535 0.889639
vt 0.544649 0.131421
vt 0.579441 0.145121
vt 0.155950 0.053165
vt 0.078768 0.104704
vt 0.309827 0.244701
vt 0.520378 0.762596
vt 0.399391 0.010048
vt 0.443407 0.016361
vt 0.437035 0.065909
vt 0.007892 0.158545
vt 0.041607 0.128609
vt 0.393568 0.618045
vt 0.476153 0.322308
vt 0.445582 0.507437
vt 0.736151 0.715647
vt 0.770972 0.708960
vt 0.477814 0.056030
vt 0.340166 0.032346
vt 0.561761 0.997840
vt 0.532280 0.108355
vt 0.549105 0.114130
vt 0.445815 0.915581
vt 0.403180 0.887484
vt 0.157295 0.041536
vt 0.183426 0.029026
vt 0.706271 0.958008
vt 0.136640 0.596761
vt 0.713035 0.559051
vt 0.690324 0.834677
vt 0.310959 0.835806
vt 0.397920 0.641405
vt 0.527212 0.302179
vt 0.713725 0.360442
vt 0.428577 0.636436
vt 0.487799 0.723938
vt 0.138435 0.354104
vt 0.827539 0.884063
vt 0.886173 0.839759
vt 0.800056 0.921314
vt 0.156062 0.653006
vt 0.144995 0.048361
vt 0.571873 0.998498
vt 0.379597 0.017229
vt 0.573280 0.133065
vt 0.507602 0.756892
vt 0.499134 0.732397
vt 0.714170 0.572086
vt 0.749879 0.702684
vt 0.200124 0.675247
vt 0.162739 0.657032
vt 0.414749 0.905338
vt 0.173204 0.025081
vt 0.401310 0.632210
vt 0.417506 0.624433
vt 0.517208 0.327028
vt 0.427941 0.506593
vt 0.332073 0.249183
vt 0.372336 0.028994
vt 0.825582 0.891368
vt 0.807280 0.913973
vt 0.726339 0.681429
vt 0.204582 0.714839
vt 0.005130 0.169079
vt 0.498830 0.312011
vt 0.413444 0.488147
vn -0.8803 -0.4741 0.0181
vn -0.7748 -0.6296 0.0573
vn -0.8453 -0.2863 0.4512
vn -0.9976 0.0672 -0.0181
vn -0.8978 0.2711 0.3471
vn -0.7976 0.6020 0.0368
vn 0.4253 -0.3918 0.8159
vn 0.5709 -0.0688 0.8181
vn 0.2004 0.1066 0.9739
vn 0.2740 0.6085 0.7448
vn 0.1867 0.2524 0.9494
vn 0.4866 0.2264 0.8438
vn 0.1768 -0.2706 -0.9463
vn 0.3527 -0.7303 -0.5851
vn 0.0462 -0.6979 -0.7147
vn 0.0658 -0.9261 -0.3715
vn 0.5634 -0.6972 -0.4433
vn 0.3781 0.7261 -0.5742
vn 0.0553 0.8506 -0.5229
vn 0.2749 0.8818 -0.3832
vn -0.6278 -0.6881 0.3638
vn -0.4548 -0.5296 0.7161
vn -0.6734 -0.0129 -0.7392
vn -0.3288 -0.4906 -0.8070
vn -0.6630 -0.4610 -0.5898
vn 0.7589 0.3333 0.5594
vn 0.7336 0.1059 0.6713
vn 0.8076 -0.3336 0.4864
vn 0.9311 -0.0887 -0.3539
vn 0.9978 0.0634 0.0168
vn 0.9393 -0.3426 -0.0171
vn 0.8104 -0.5857 -0.0153
vn 0.7271 -0.5385 -0.4258
vn 0.9810 0.0952 0.1691
vn 0.6130 -0.7647 0.1986
vn 0.1379 -0.9878 0.0721
vn 0.5108 -0.8138 -0.2772
vn 0.9508 0.2875 0.1155
vn 0.5246 0.8016 0.2869
vn 0.6284 0.6738 -0.3888
vn 0.6650 0.7348 -0.1334
vn 0.6394 -0.3827 -0.6669
vn 0.6942 -0.6008 -0.3964
vn -0.0044 0.4654 -0.8851
vn 0.7138 0.2820 -0.6410
vn 0.4549 0.2185 -0.8633
vn -0.8795 0.3072 -0.3634
vn -0.8824 -0.3017 -0.3610
vn -0.0607 -0.5229 0.8502
vn -0.2511 -0.8566 0.4508
vn 0.2986 -0.7504 0.5896
vn -0.5653 0.0587 0.8228
vn -0.5101 0.5658 0.6479
vn -0.0035 0.3432 0.9393
vn -0.2379 0.7958 0.5568
vn -0.3371 0.0425 -0.9405
vn -0.1574 0.9444 -0.2885
vn -0.4090 0.9019 0.1393
vn 0.1680 0.9820 -0.0862
vn -0.1180 0.8702 -0.4783
vn -0.3919 0.6885 -0.6103
vn -0.5294 0.8148 -0.2364
vn -0.6447 0.6892 0.3306
vn -0.1515 -0.9460 0.2866
vn -0.3397 0.8691 0.3597
vn -0.4857 0.8571 0.1716
vn 0.8734 0.3456 -0.3430
vn 0.9592 0.1346 0.2488
vn -0.9363 0.0803 0.3418
vn -0.0217 0.1426 0.9895
vn -0.5217 -0.8527 0.0262
vn -0.7777 -0.6283 0.0208
vn -0.2932 -0.9503 0.1049
vn -0.2629 -0.8969 -0.3556
vn -0.0602 -0.9941 -0.0902
vn -0.2469 -0.6806 -0.6898
vn -0.3333 -0.5072 -0.7948
vn -0.9688 0.1241 0.2144
vn -0.8118 0.3410 0.4741
vn -0.3139 -0.9237 0.2195
vn -0.5116 0.8393 0.1840
vn -0.6025 -0.7248 -0.3342
vn 0.4642 0.7503 0.4706
vn 0.5623 -0.7061 -0.4304
vn 0.9546 0.2969 0.0237
vn -0.0579 0.8130 -0.5793
vn 0.0072 0.8355 -0.5494
vn -0.7457 -0.5619 -0.3580
vn -0.3020 -0.6459 -0.7012
vn 0.0202 -0.5321 -0.8464
vn -0.8404 0.1271 0.5269
vn -0.9510 0.2206 0.2165
vn -0.9825 0.1784 0.0535
vn -0.6198 0.4623 -0.6341
vn 0.1091 0.8975 0.4273
vn 0.5727 -0.7042 -0.4197
vn 0.1812 0.9357 0.3027
vn -0.4338 0.8817 0.1853
vn -0.5972 -0.4779 0.6442
vn -0.4863 -0.7548 -0.4402
vn -0.0990 0.9638 0.2476
vn -0.7096 0.6980 0.0963
vn 0.0029 0.9832 -0.1826
vn -0.2700 0.1511 0.9509
vn 0.5179 0.2298 0.8240
vn 0.3933 0.9143 -0.0967
vn 0.1364 0.6974 0.7036
vn 0.3041 -0.9041 -0.3000
vn 0.9742 -0.1186 0.1919
vn -0.1354 -0.8394 0.5263
vn 0.7518 -0.4522 -0.4799
vn 0.8992 0.4359 0.0383
s 1
f 61/1/1 7/2/2 8/3/3
f 13/4/4 10/5/5 9/6/6
f 15/7/7 50/8/8 63/9/9
f 48/10/10 16/11/11 17/12/12
f 18/13/13 20/14/14 19/15/15
f 25/16/16 20/14/14 85/17/17
f 26/18/18 27/19/19 28/20/20
f 41/21/21 29/22/22 8/23/3
f 34/24/23 32/25/24 62/26/25
f 47/27/26 48/10/10 77/28/27
f 49/29/28 50/8/8 15/7/7
f 82/30/29 51/31/30 54/32/31
f 54/32/31 1/33/32 52/34/33
f 53/35/34 49/29/28 54/32/31
f 90/36/35 76/37/36 55/38/37
f 90/36/35 55/38/37 1/33/32
f 47/27/26 56/39/38 57/40/39
f 58/41/40 28/20/20 2/42/41
f 20/14/14 4/43/42 5/44/43
f 18/13/13 4/43/42 20/14/14
f 22/45/44 6/46/45 60/47/46
f 13/4/4 12/48/47 11/49/48
f 14/50/49 44/51/50 43/52/51
f 14/50/49 30/53/52 29/22/22
f 31/54/53 109/55/54 64/56/55
f 22/57/44 18/58/13 65/59/56
f 25/16/16 19/15/15 20/14/14
f 68/60/57 69/61/58 24/62/59
f 71/63/60 73/64/61 38/65/62
f 64/56/55 39/66/63 31/54/53
f 43/52/51 44/51/50 75/67/64
f 77/28/27 48/10/10 17/12/12
f 49/29/28 15/7/7 43/52/51
f 81/68/65 40/69/66 39/66/63
f 3/70/67 51/31/30 82/30/29
f 13/4/4 11/49/48 61/1/1
f 49/29/28 53/35/34 83/71/68
f 83/71/68 77/28/27 49/29/28
f 4/43/42 60/47/46 6/46/45
f 13/4/4 61/1/1 79/72/69
f 14/50/49 29/22/22 44/51/50
f 29/22/22 41/21/21 44/51/50
f 14/50/49 86/73/70 30/53/52
f 35/74/71 41/21/21 7/75/2
f 35/74/71 7/75/2 89/76/72
f 67/77/73 70/78/74 25/16/16
f 25/16/16 23/79/75 67/77/73
f 38/65/62 12/80/47 9/6/6
f 70/78/74 88/81/76 19/15/15
f 19/15/15 88/81/76 66/82/77
f 17/12/12 63/9/9 50/8/8
f 90/36/35 43/52/51 76/37/36
f 1/33/32 49/29/28 90/36/35
f 80/83/78 8/23/3 45/84/79
f 91/85/80 41/21/21 67/77/73
f 36/86/81 9/6/6 39/66/63
f 91/85/80 75/67/64 44/51/50
f 61/87/1 11/88/48 37/89/82
f 89/76/72 61/87/1 37/89/82
f 38/65/62 36/86/81 69/61/58
f 63/9/9 17/12/12 16/11/11
f 30/53/52 86/73/70 109/90/54
f 109/90/54 31/91/53 30/53/52
f 47/27/26 57/40/39 78/92/83
f 1/33/32 84/93/84 52/34/33
f 110/94/85 2/42/41 56/39/38
f 110/94/85 51/31/30 3/70/67
f 83/71/68 47/27/26 77/28/27
f 2/42/41 28/20/20 24/62/59
f 79/72/69 10/5/5 13/4/4
f 87/95/86 21/96/87 22/57/44
f 11/88/48 62/97/25 37/89/82
f 38/65/62 69/61/58 68/60/57
f 7/75/2 94/98/88 89/76/72
f 94/99/88 7/2/2 61/1/1
f 72/100/89 95/101/90 88/81/76
f 10/5/5 102/102/91 46/103/92
f 80/83/78 101/104/93 79/105/69
f 110/94/85 3/70/67 2/42/41
f 5/44/43 4/43/42 82/30/29
f 26/18/18 58/41/40 6/46/45
f 58/41/40 3/70/67 6/46/45
f 34/24/23 62/26/25 11/106/48
f 63/9/9 14/107/49 15/7/7
f 16/11/11 48/10/10 109/55/54
f 22/45/44 21/108/87 26/18/18
f 23/79/75 25/16/16 55/38/37
f 73/64/61 22/57/44 33/109/94
f 36/86/81 38/65/62 9/6/6
f 39/66/63 40/69/66 36/86/81
f 45/110/79 39/66/63 46/103/92
f 42/111/95 81/68/65 64/56/55
f 64/56/55 48/10/10 42/111/95
f 23/79/75 55/38/37 76/37/36
f 47/27/26 83/71/68 56/39/38
f 3/70/67 82/30/29 6/46/45
f 59/112/96 85/17/17 20/14/14
f 6/46/45 22/45/44 26/18/18
f 9/6/6 12/80/47 13/4/4
f 10/5/5 46/103/92 39/66/63
f 62/97/25 72/100/89 37/89/82
f 73/64/61 33/109/94 38/65/62
f 18/113/13 22/45/44 60/47/46
f 21/108/87 27/19/19 26/18/18
f 33/109/94 22/57/44 65/59/56
f 65/59/56 34/24/23 33/109/94
f 27/19/19 68/60/57 28/20/20
f 45/84/79 8/23/3 30/53/52
f 72/100/89 70/78/74 37/89/82
f 35/74/71 37/89/82 70/78/74
f 41/21/21 35/74/71 67/77/73
f 74/114/97 24/62/59 108/115/98
f 108/115/98 81/68/65 74/114/97
f 45/84/79 30/53/52 31/91/53
f 80/83/78 79/105/69 8/23/3
f 41/21/21 91/85/80 44/51/50
f 39/66/63 64/56/55 81/68/65
f 82/30/29 54/32/31 52/34/33
f 82/30/29 4/43/42 6/46/45
f 60/47/46 4/43/42 18/13/13
f 14/50/49 43/52/51 15/116/7
f 55/38/37 25/16/16 84/93/84
f 84/93/84 1/33/32 55/38/37
f 25/16/16 85/17/17 84/93/84
f 56/39/38 2/42/41 57/40/39
f 26/18/18 28/20/20 58/41/40
f 3/70/67 58/41/40 2/42/41
f 8/3/3 79/72/69 61/1/1
f 66/117/77 65/59/56 18/58/13
f 18/58/13 19/118/15 66/117/77
f 33/109/94 34/24/23 12/80/47
f 34/24/23 11/106/48 12/80/47
f 22/57/44 73/64/61 87/95/86
f 70/78/74 67/77/73 35/74/71
f 45/110/79 31/54/53 39/66/63
f 19/15/15 25/16/16 70/78/74
f 37/89/82 35/74/71 89/76/72
f 33/109/94 12/80/47 38/65/62
f 68/60/57 71/63/60 38/65/62
f 68/60/57 24/62/59 28/20/20
f 77/28/27 17/12/12 50/8/8
f 50/8/8 49/29/28 77/28/27
f 75/67/64 76/37/36 43/52/51
f 43/52/51 90/36/35 49/29/28
f 1/33/32 54/32/31 49/29/28
f 48/10/10 47/27/26 78/92/83
f 8/23/3 29/22/22 30/53/52
f 41/21/21 8/23/3 7/75/2
f 10/5/5 39/66/63 9/6/6
f 48/10/10 64/56/55 109/55/54
f 32/25/24 72/119/89 62/26/25
f 66/117/77 32/25/24 34/24/23
f 34/24/23 65/59/56 66/117/77
f 108/115/98 40/69/66 81/68/65
f 87/95/86 73/64/61 71/63/60
f 63/9/9 86/120/70 14/107/49
f 42/111/95 74/114/97 81/68/65
f 2/42/41 24/62/59 57/40/39
f 52/34/33 5/44/43 82/30/29
f 51/31/30 53/35/34 54/32/31
f 24/62/59 74/114/97 57/40/39
f 59/112/96 20/14/14 5/44/43
f 24/62/59 69/61/58 108/115/98
f 88/81/76 70/78/74 72/100/89
f 71/63/60 68/60/57 27/19/19
f 48/10/10 78/92/83 42/111/95
f 80/83/78 45/84/79 46/121/92
f 61/1/1 93/122/99 94/99/88
f 93/123/99 61/87/1 89/76/72
f 96/124/100 66/82/77 88/81/76
f 97/125/101 36/86/81 40/69/66
f 98/126/102 40/69/66 108/115/98
f 98/126/102 108/115/98 69/61/58
f 21/108/87 111/127/103 27/19/19
f 111/128/103 21/96/87 87/95/86
f 100/129/104 16/11/11 109/55/54
f 100/129/104 63/9/9 16/11/11
f 63/9/9 100/129/104 99/130/105
f 101/131/93 46/103/92 102/102/91
f 102/132/91 79/105/69 101/104/93
f 103/133/106 42/111/95 78/92/83
f 104/134/107 78/92/83 57/40/39
f 104/134/107 57/40/39 74/114/97
f 105/135/108 59/112/96 5/44/43
f 106/136/109 51/31/30 110/94/85
f 75/67/64 91/85/80 92/137/110
f 91/85/80 67/77/73 92/137/110
f 92/137/110 67/77/73 23/79/75
f 75/67/64 92/137/110 23/79/75
f 23/79/75 76/37/36 75/67/64
f 93/138/99 89/76/72 94/98/88
f 88/81/76 95/101/90 96/124/100
f 96/139/100 95/140/90 32/25/24
f 32/25/24 66/117/77 96/139/100
f 72/119/89 32/25/24 95/140/90
f 98/126/102 97/125/101 40/69/66
f 97/125/101 98/126/102 69/61/58
f 69/61/58 36/86/81 97/125/101
f 27/141/19 111/128/103 71/63/60
f 71/63/60 111/128/103 87/95/86
f 100/129/104 109/55/54 99/142/105
f 109/90/54 86/73/70 99/143/105
f 86/120/70 63/9/9 99/130/105
f 80/83/78 46/121/92 101/104/93
f 10/5/5 79/72/69 102/102/91
f 103/133/106 104/134/107 74/114/97
f 74/114/97 42/111/95 103/133/106
f 104/134/107 103/133/106 78/92/83
f 85/17/17 59/112/96 112/144/111
f 105/135/108 112/144/111 59/112/96
f 84/93/84 85/17/17 112/144/111
f 5/44/43 52/34/33 105/135/108
f 112/144/111 105/135/108 52/34/33
f 52/34/33 84/93/84 112/144/111
f 106/136/109 56/39/38 83/71/68
f 107/145/112 106/136/109 83/71/68
f 110/94/85 56/39/38 106/136/109
f 106/136/109 107/145/112 51/31/30
f 83/71/68 53/35/34 107/145/112
f 53/35/34 51/31/30 107/145/112
