# Blender v2.82 (sub 7) OBJ File: ''
# www.blender.org
o asteroid1.002
v 0.834557 -0.166403 0.193736
v 0.748488 0.412915 0.096856
v 1.193797 -0.328786 -0.583457
v 1.289144 -0.203803 -0.835331
v 1.110515 -0.396813 -0.831520
v 1.271388 0.338803 -0.606579
v 0.137011 -0.583032 1.201037
v 0.212822 -0.332263 1.358922
v 0.494933 -0.252471 1.165306
v 0.222158 -1.127028 0.531694
v 0.318471 -0.926031 -0.404592
v 0.326929 -0.974168 -0.285684
v 0.587218 1.108021 -0.714951
v -0.362468 -0.569443 1.236658
v -0.429229 0.357677 1.269363
v -0.477133 -0.288254 -1.343808
v -0.386113 -1.131903 0.600732
v -0.377315 0.934848 0.483457
v -0.358149 -1.044119 -0.092082
v -0.484381 -0.803130 -0.578970
v -0.406373 1.377427 -0.140889
v -0.778799 1.250825 -0.167254
v -0.609325 1.157887 -0.738712
v -0.545952 0.756762 -1.107224
v -0.272154 0.757413 -1.190347
v -0.794976 0.019682 -1.162835
v -0.653093 0.424671 -1.297553
v -0.207663 -0.003083 -1.442431
v -0.984497 -0.054431 1.373976
v -0.324438 1.316384 -0.647666
v 0.254810 1.300887 -0.659950
v 0.310085 1.329588 -0.436384
v -0.219842 -0.917942 -0.480215
v -0.192477 -1.046892 -0.193458
v -0.048809 1.139511 0.265749
v 0.530387 1.210819 -0.386132
v -0.275613 -1.173897 0.496091
v -0.242039 -1.084337 0.691015
v 0.303359 -1.051430 0.122912
v -0.359477 0.500441 -1.411730
v 0.263901 0.526766 -1.409300
v -0.351068 0.304683 -1.423465
v 0.365699 1.159544 -0.814098
v 0.553882 0.932265 -0.945068
v -0.444495 -0.323721 -1.340714
v 0.354504 -0.282071 -1.430751
v -0.457056 -0.371855 -1.290416
v 0.410884 -0.150787 -1.492491
v 0.675956 0.091730 -1.492577
v 0.339754 0.200053 -1.511492
v 0.020702 0.277279 1.319223
v -0.356412 0.168570 1.400626
v 0.282523 0.677892 0.744356
v 0.414442 0.725535 0.439624
v 0.025661 0.461426 1.129329
v -0.172020 -0.410177 1.338185
v 0.183153 -0.934594 0.814691
v 0.366931 -0.589683 0.992899
v 0.368184 -0.048155 1.335166
v 0.552070 0.039452 1.123661
v -0.062171 -0.061038 1.403273
v -0.697427 1.239407 -0.588650
v -1.050018 1.048423 -0.448305
v -0.880501 0.938342 -0.753642
v -0.788312 0.524896 -1.110854
v -0.819663 -0.730131 -0.339969
v -0.553786 -0.309673 -1.294771
v -1.132474 -0.272899 -0.813977
v -0.909919 -0.478228 -0.760173
v -1.472382 0.307570 -0.548508
v -1.446544 0.046534 -0.553272
v -1.575079 0.001838 -0.241820
v -1.626925 0.391440 -0.245889
v -0.990517 1.051119 0.259343
v -0.839713 0.315380 1.301836
v -0.769446 0.203919 1.379582
v -0.973348 0.625129 0.969746
v -1.566957 0.612619 -0.191012
v -1.615830 0.607406 0.230543
v -1.356977 0.854681 -0.076106
v -0.526213 -1.092813 0.554891
v -1.056288 -0.810264 0.441969
v -0.817306 -0.562649 1.282236
v -0.926137 -0.719514 1.086550
v -1.487079 -0.422400 -0.190109
v -1.686925 -0.164887 0.421943
v -1.571758 -0.272619 -0.269843
v -1.665514 0.203107 1.013974
v -1.459738 0.023947 1.201839
v -1.732309 0.238543 0.777552
v 0.773251 0.962379 -0.607130
v 1.022290 0.643767 -0.898089
v 0.885244 0.681603 -0.357023
v 0.698934 0.429938 -1.407413
v 0.953355 0.578747 -1.104788
v 1.013421 0.216192 -1.247595
v 0.751152 -0.682348 -0.430847
v 0.825264 -0.303804 -1.289497
v 0.759102 -0.450882 -1.120857
v 1.325978 0.292768 -0.767682
v 1.251876 -0.152334 -0.958557
v 0.414370 0.962453 0.215998
v 0.659221 0.287044 0.808124
v 0.567747 0.463214 0.708055
v 1.016321 0.287205 -0.189901
v 0.445563 -0.762256 0.447046
v 0.524099 -0.747154 0.184379
v 0.633126 -0.385457 0.783751
v 0.929404 -0.407309 -0.250383
v 1.091910 -0.058132 -0.257472
v 0.960930 0.081370 0.178090
v 1.102334 0.121351 -0.259783
v 0.834576 0.176800 0.472214
v 0.915389 -0.133908 0.070019
v 0.908224 -0.224881 -0.066350
v 0.823362 -0.113148 0.507733
v 0.820585 -0.196136 0.384194
v 0.661711 -0.492391 0.139592
v 0.665952 -0.421122 0.414752
v 0.660723 -0.453914 0.263563
v 1.277443 0.325484 -0.892815
v 1.137194 0.576788 -0.634782
v -1.631613 -0.449293 0.981447
v -1.520598 -0.471238 1.126910
v -1.636643 -0.484239 0.807932
v -1.460433 -0.502406 1.160446
v -1.283488 -0.672939 1.058565
v -1.324040 -0.720775 0.901657
v -1.696603 0.361734 0.783558
v -1.530855 0.572768 0.717075
v -1.333210 0.517829 0.997691
v -1.451537 -0.190882 -0.572398
v -1.295957 -0.249034 -0.719733
v -1.108765 -0.473468 -0.636776
v -1.176577 0.642072 -0.722119
v -1.212954 0.745858 -0.629371
v -1.440378 0.746885 -0.288842
v 0.367597 0.430373 1.058187
v 0.137488 0.418577 1.213164
v 0.764076 -0.148856 -1.421099
v 0.348929 -0.423129 -1.273527
v 0.364951 0.638213 -1.327208
v 0.382146 0.427506 -1.481911
v 0.161134 -1.189030 0.484140
v 0.076243 -1.104225 0.684650
v 0.341124 1.090665 0.191139
v 0.272842 1.071862 0.277869
v -0.459138 -0.213323 1.446450
v -0.631428 0.627364 -1.207880
v -0.360822 1.392936 -0.479242
v 0.599490 0.389669 -1.468353
v 0.373084 0.836911 0.433762
v 0.412396 0.241866 1.219990
v 0.217053 0.223622 1.358918
v -0.234578 1.290029 0.062116
v -1.501768 0.223623 1.150172
v -1.304375 0.376274 -0.710752
v 1.308408 -0.166643 -0.677911
v 0.745391 -0.410092 0.072508
v -0.715312 -0.356560 1.399999
v -0.440614 0.387044 -1.425110
v -0.395674 1.212681 -0.756191
v -0.387107 0.619315 -1.332502
v 0.259575 0.922079 0.492151
v -0.615681 1.330600 -0.450092
v -0.978035 0.904204 0.590633
v -0.547266 -0.369432 -1.250285
v 0.636304 0.616605 -1.280290
v -1.499534 -0.626807 0.710186
v -1.331929 -0.504601 -0.254853
vt 0.288665 0.201428
vt 0.283544 0.174695
vt 0.310972 0.196783
vt 0.169111 0.202674
vt 0.195667 0.218405
vt 0.156158 0.212239
vt 0.170985 0.244430
vt 0.141933 0.148412
vt 0.152941 0.104379
vt 0.155608 0.139272
vt 0.311636 0.682531
vt 0.314353 0.655434
vt 0.379553 0.655124
vt 0.365945 0.694673
vt 0.413540 0.103101
vt 0.426945 0.142471
vt 0.390547 0.117200
vt 0.358015 0.039245
vt 0.380462 0.051722
vt 0.351352 0.048747
vt 0.159141 0.302653
vt 0.124974 0.358453
vt 0.128512 0.295609
vt 0.096689 0.838208
vt 0.119913 0.841292
vt 0.089418 0.868671
vt 0.113584 0.869117
vt 0.721533 0.776237
vt 0.706793 0.800913
vt 0.676394 0.744906
vt 0.613439 0.758820
vt 0.600289 0.812806
vt 0.591957 0.756661
vt 0.182266 0.510123
vt 0.170726 0.501287
vt 0.166805 0.495877
vt 0.163034 0.733909
vt 0.174845 0.688739
vt 0.191059 0.710848
vt 0.490388 0.860509
vt 0.476667 0.907958
vt 0.422001 0.886090
vt 0.363023 0.384197
vt 0.297892 0.431255
vt 0.338205 0.369040
vt 0.301368 0.847068
vt 0.275062 0.819130
vt 0.319805 0.824643
vt 0.433534 0.788339
vt 0.353248 0.876984
vt 0.368835 0.818440
vt 0.295069 0.386331
vt 0.176755 0.485992
vt 0.215081 0.595515
vt 0.134831 0.711585
vt 0.537616 0.760087
vt 0.797421 0.766308
vt 0.814534 0.793379
vt 0.808264 0.745322
vt 0.697062 0.727019
vt 0.721664 0.706595
vt 0.668824 0.779271
vt 0.670865 0.828063
vt 0.633496 0.806034
vt 0.280912 0.836977
vt 0.233306 0.898388
vt 0.204195 0.889904
vt 0.253008 0.920310
vt 0.140448 0.730300
vt 0.117216 0.819628
vt 0.110156 0.728616
vt 0.162617 0.894042
vt 0.167323 0.483146
vt 0.069562 0.819381
vt 0.045450 0.866364
vt 0.636986 0.850789
vt 0.608344 0.867332
vt 0.311393 0.031310
vt 0.273851 0.037247
vt 0.277058 0.017757
vt 0.577584 0.911894
vt 0.535873 0.932245
vt 0.742663 0.826192
vt 0.710596 0.845908
vt 0.691051 0.874039
vt 0.655015 0.874154
vt 0.339175 0.646472
vt 0.338915 0.604809
vt 0.379768 0.601913
vt 0.516687 0.633925
vt 0.440529 0.679341
vt 0.485892 0.590117
vt 0.677017 0.656960
vt 0.376866 0.565417
vt 0.384241 0.546328
vt 0.107318 0.914841
vt 0.063520 0.912606
vt 0.250295 0.263818
vt 0.279942 0.321541
vt 0.031414 0.944207
vt 0.006997 0.930427
vt 0.019616 0.888423
vt 0.208608 0.153728
vt 0.078756 0.954308
vt 0.079997 0.970826
vt 0.306815 0.065512
vt 0.326007 0.089572
vt 0.358703 0.160517
vt 0.312639 0.150048
vt 0.264498 0.143848
vt 0.216397 0.174136
vt 0.298348 0.117217
vt 0.267053 0.175263
vt 0.260996 0.188068
vt 0.322226 0.185445
vt 0.301280 0.166909
vt 0.364179 0.215833
vt 0.301932 0.208061
vt 0.245591 0.097666
vt 0.213892 0.131635
vt 0.508854 0.688220
vt 0.520773 0.662820
vt 0.340965 0.572470
vt 0.627550 0.878127
vt 0.103762 0.346029
vt 0.108386 0.311954
vt 0.151799 0.362261
vt 0.829710 0.791686
vt 0.827566 0.800014
vt 0.822190 0.771785
vt 0.192165 0.921188
vt 0.085115 0.857285
vt 0.272556 0.025154
vt 0.369380 0.060051
vt 0.397625 0.080371
vt 0.366197 0.092504
vt 0.229608 0.693816
vt 0.482597 0.783720
vt 0.552006 0.653197
vt 0.610142 0.666026
vt 0.563640 0.671578
vt 0.406240 0.156459
vt 0.421312 0.208019
vt 0.185976 0.077856
vt 0.249068 0.021425
vt 0.242596 0.013986
vt 0.182765 0.013584
vt 0.156244 0.046666
vt 0.637478 0.723753
vt 0.032369 0.823464
vt 0.061256 0.748592
vt 0.319867 0.561367
vt 0.290677 0.554878
vt 0.188610 0.767487
vt 0.393510 0.721851
vt 0.283824 0.512649
vt 0.339349 0.457296
vt 0.463297 0.447980
vt 0.455676 0.374033
vt 0.371694 0.530193
vt 0.318800 0.531527
vt 0.209448 0.736179
vt 0.285893 0.742874
vt 0.247026 0.219451
vt 0.327629 0.243797
vt 0.345657 0.286667
vt 0.121469 0.936594
vt 0.338342 0.756979
vt 0.342118 0.915923
vt 0.539815 0.546216
vt 0.562102 0.549063
vt 0.300186 0.307092
vt 0.407247 0.254855
vt 0.382010 0.675104
vt 0.179029 0.535429
vt 0.714680 0.655771
vt 0.701353 0.663563
vt 0.670383 0.640314
vt 0.675729 0.629058
vt 0.320072 0.697563
vt 0.542137 0.500861
vt 0.525590 0.520942
vt 0.541029 0.702497
vt 0.307173 0.999000
vt 0.299367 0.988214
vt 0.308837 0.987787
vt 0.312967 0.994709
vt 0.235705 0.944852
vt 0.453823 0.350219
vt 0.429754 0.339417
vt 0.284656 0.796722
vt 0.018534 0.731550
vt 0.021514 0.795042
vt 0.308910 0.804131
vt 0.139582 0.220312
vt 0.018049 0.727819
vt 0.769829 0.697219
vt 0.522798 0.943735
vt 0.300102 0.982870
vt 0.174563 0.945030
vt 0.117150 0.964235
vt 0.345834 0.034576
vt 0.026954 0.844502
vt 0.411094 0.282967
vt 0.169395 0.541929
vt 0.795143 0.814811
vt 0.339854 0.963071
vt 0.166614 0.485384
vn 0.3921 -0.7378 -0.5495
vn 0.6109 -0.7887 0.0691
vn 0.9967 -0.0729 0.0346
vn 0.9538 -0.2387 0.1827
vn 0.7746 -0.5760 0.2612
vn 0.8809 -0.4131 -0.2312
vn 0.5939 -0.7567 -0.2733
vn 0.9739 0.2255 -0.0267
vn 0.7787 0.6046 0.1674
vn 0.8775 0.3008 0.3736
vn -0.6551 0.3655 -0.6612
vn -0.7078 0.1646 -0.6870
vn -0.9377 0.1326 -0.3213
vn -0.7638 0.5596 -0.3217
vn 0.3124 -0.3388 0.8875
vn 0.2762 -0.6240 0.7310
vn 0.7567 -0.3089 0.5762
vn 0.0925 0.7482 0.6569
vn 0.2367 0.3619 0.9017
vn 0.5122 0.6828 0.5210
vn 0.3108 -0.8166 -0.4865
vn 0.0452 -0.5909 -0.8055
vn 0.4448 -0.6057 -0.6598
vn -0.0556 0.3486 -0.9356
vn -0.2261 0.7711 -0.5952
vn 0.4325 0.4288 -0.7931
vn 0.2944 0.6694 -0.6821
vn 0.0394 -0.6403 0.7671
vn 0.0732 -0.4251 0.9022
vn -0.1027 -0.3097 0.9453
vn -0.1135 0.3504 0.9297
vn 0.0224 0.6899 0.7236
vn -0.1295 0.6007 0.7889
vn 0.5343 0.5299 -0.6585
vn -0.5101 -0.4391 -0.7396
vn -0.3691 -0.2687 -0.8897
vn -0.1018 0.6037 -0.7907
vn -0.6006 0.1662 -0.7821
vn -0.5351 0.5802 -0.6140
vn -0.0123 0.7867 0.6173
vn 0.0685 0.8216 0.5660
vn 0.0608 0.8939 0.4440
vn -0.2938 -0.9231 -0.2481
vn -0.3165 -0.8426 -0.4357
vn -0.0686 -0.9446 -0.3210
vn -0.1127 0.9729 -0.2021
vn -0.1637 0.7366 -0.6563
vn -0.3875 0.8988 -0.2049
vn -0.4081 0.8677 0.2836
vn -0.0893 0.9707 0.2233
vn -0.4451 0.8923 0.0761
vn -0.0899 -0.8879 -0.4511
vn -0.2506 -0.7340 -0.6312
vn -0.6251 -0.0611 -0.7781
vn -0.2812 0.1329 -0.9504
vn -0.0748 0.7700 0.6337
vn -0.0364 -0.8176 0.5746
vn 0.1681 -0.8179 0.5503
vn -0.1681 -0.9266 0.3365
vn -0.0850 -0.5975 0.7974
vn -0.1351 -0.8013 0.5829
vn 0.0123 -0.1307 0.9913
vn 0.1066 -0.0019 0.9943
vn 0.0380 0.3438 0.9383
vn -0.1792 0.8389 -0.5140
vn 0.1991 0.8895 -0.4113
vn 0.2312 0.7412 -0.6302
vn 0.3156 0.9478 0.0458
vn -0.1589 0.3772 -0.9124
vn -0.0642 0.5139 -0.8554
vn 0.0413 0.0876 -0.9953
vn 0.3983 0.7012 -0.5914
vn -0.2544 -0.5049 -0.8248
vn -0.0429 0.0626 -0.9971
vn 0.3349 -0.0022 -0.9422
vn -0.0258 0.5000 0.8656
vn -0.0036 0.7938 0.6081
vn 0.4919 0.7038 0.5125
vn 0.7680 0.5064 0.3921
vn 0.4307 0.7070 0.5609
vn 0.5270 -0.0176 0.8497
vn -0.7926 0.1886 -0.5799
vn -0.8112 -0.0004 -0.5848
vn -0.9541 -0.0563 -0.2942
vn -0.9879 0.1022 0.1165
vn -0.8336 0.5509 0.0388
vn -0.9786 -0.1735 -0.1110
vn -0.4843 -0.5036 0.7154
vn -0.8854 -0.3424 -0.3143
vn -0.6796 -0.6684 -0.3023
vn 0.5806 0.5884 -0.5627
vn 0.6809 0.1304 -0.7207
vn 0.6221 -0.7829 -0.0016
vn 0.2199 -0.8892 -0.4013
vn 0.8144 -0.2664 -0.5155
vn 0.4242 -0.3026 -0.8535
vn 0.8939 0.1114 0.4342
vn 0.8525 0.3212 -0.4125
vn 0.7069 0.6377 0.3059
vn 0.8231 0.4066 0.3964
vn 0.8414 -0.4331 0.3233
vn 0.9234 -0.2191 0.3151
vn 0.9376 0.1194 0.3267
vn 0.8699 -0.2380 0.4320
vn 0.8961 0.3207 0.3068
vn 0.8806 -0.4216 0.2163
vn 0.8257 -0.4161 0.3808
vn 0.8438 -0.5234 0.1182
vn 0.8534 -0.4954 0.1622
vn 0.8272 -0.5113 0.2329
vn 0.8187 -0.4902 0.2992
vn 0.7840 0.5036 0.3629
vn 0.7999 0.4073 0.4408
vn -0.5874 0.7325 0.3441
vn -0.8390 0.4609 0.2892
vn -0.7973 -0.2324 -0.5570
vn 0.0364 -0.2809 -0.9590
vn 0.0687 -0.7976 -0.5993
vn 0.2983 -0.9466 0.1224
vn 0.6772 -0.6652 0.3144
vn -0.1275 -0.9891 0.0733
vn 0.5809 0.7202 -0.3793
vn 0.2297 0.3831 -0.8947
vn 0.7236 0.3909 0.5689
vn 0.6206 0.4360 0.6518
vn 0.8386 0.0705 0.5402
vn -0.6495 0.3174 -0.6910
vn -0.1868 0.8484 0.4953
vn -0.8073 0.2607 0.5295
vn -0.4915 0.0238 0.8706
vn -0.4899 0.3664 0.7911
vn 0.6491 -0.5606 0.5143
vn 0.5355 -0.6458 0.5442
vn 0.7542 0.5032 0.4219
vn 0.7490 0.4968 0.4384
vn 0.5206 0.7285 0.4452
vn 0.6183 0.7734 0.1401
vn 0.7369 0.6740 -0.0518
vn -0.2551 0.0405 0.9661
vn -0.1599 -0.1002 -0.9820
vn -0.6524 -0.3692 -0.6619
vn -0.4931 -0.4967 -0.7143
vn -0.0723 0.6903 -0.7199
vn -0.6295 0.7770 -0.0046
vn -0.4178 -0.7491 -0.5141
vn -0.4519 -0.8422 -0.2940
vn -0.4532 -0.8775 -0.1569
vn -0.3676 -0.9299 0.0145
vn -0.4975 -0.8073 -0.3172
vn -0.4523 -0.7548 -0.4752
vn -0.3496 0.6542 -0.6706
vn -0.5173 0.5717 -0.6369
vn 0.7708 -0.4921 0.4046
vn 0.8243 -0.5107 0.2445
vn 0.6419 -0.7666 -0.0167
vn 0.6643 0.6804 -0.3095
vn -0.5834 0.7542 -0.3013
vn -0.8799 -0.4739 0.0343
vn -0.8500 -0.4083 0.3330
vn 0.2984 -0.9164 -0.2668
vn -0.8481 0.4568 -0.2684
vn -0.4299 -0.8789 0.2069
vn -0.2949 -0.8073 0.5112
vn -0.6585 -0.3983 0.6386
vn -0.6845 0.4426 -0.5792
vn -0.6152 -0.7873 -0.0413
vn -0.3611 0.6922 0.6249
vn 0.3745 0.7729 0.5123
vn -0.3345 0.6953 -0.6361
vn -0.3892 0.8142 -0.4308
s 1
f 159/1/1 1/2/2 120/3/3
f 158/4/4 3/5/5 4/6/6
f 3/5/5 5/7/7 4/6/6
f 100/8/8 122/9/9 6/10/10
f 135/11/11 157/12/12 73/13/13
f 73/13/13 137/14/14 135/11/11
f 8/15/15 7/16/16 9/17/17
f 139/18/18 154/19/19 138/20/20
f 99/21/21 46/22/22 98/23/23
f 143/24/24 142/25/25 94/26/26
f 94/26/26 142/25/25 168/27/27
f 14/28/28 56/29/29 160/30/30
f 76/31/31 15/32/32 75/33/33
f 167/34/34 67/35/35 16/36/36
f 163/37/37 27/38/38 149/39/39
f 18/40/40 35/41/41 155/42/42
f 19/43/43 20/44/44 34/45/45
f 150/46/46 162/47/47 165/48/48
f 74/49/49 21/50/50 22/51/51
f 33/52/52 20/44/44 47/53/53
f 26/54/54 27/38/38 161/55/55
f 15/32/32 18/40/40 77/56/56
f 14/28/28 38/57/57 145/58/58
f 17/59/59 38/57/57 83/60/60
f 83/60/60 84/61/61 17/59/59
f 148/62/62 61/63/63 52/64/64
f 30/65/65 31/66/66 43/67/67
f 32/68/68 31/66/66 150/46/46
f 40/69/69 41/70/70 42/71/71
f 43/67/67 44/72/72 41/70/70
f 45/73/73 46/22/22 47/53/53
f 50/74/74 143/24/24 49/75/75
f 15/32/32 51/76/76 55/77/77
f 53/78/78 54/79/79 164/80/80
f 55/77/77 53/81/78 164/82/80
f 7/83/16 56/29/29 14/28/28
f 8/84/15 59/85/81 154/86/19
f 154/86/19 61/63/63 8/84/15
f 70/87/82 71/88/83 72/89/84
f 72/89/84 73/13/13 70/87/82
f 90/90/85 79/91/86 73/13/13
f 73/13/13 86/92/87 90/90/85
f 126/93/88 83/60/60 160/30/30
f 86/92/87 87/94/89 85/95/90
f 94/26/26 95/96/91 96/97/92
f 5/7/7 97/98/93 11/99/94
f 11/99/94 99/21/21 5/7/7
f 101/100/95 98/101/23 140/102/96
f 158/4/4 100/8/8 6/10/10
f 6/10/10 112/103/97 158/4/4
f 121/104/98 100/105/8 101/100/95
f 104/106/99 138/20/20 103/107/100
f 108/108/101 116/109/102 9/17/17
f 112/103/97 111/110/103 110/111/104
f 116/109/102 111/110/103 113/112/105
f 111/110/103 114/113/106 115/114/107
f 116/109/102 119/115/108 117/116/109
f 119/115/108 106/117/110 118/118/111
f 119/115/108 118/118/111 120/3/3
f 2/119/112 111/110/103 105/120/113
f 130/121/114 79/91/86 129/122/115
f 71/88/83 132/123/116 87/94/89
f 87/94/89 72/89/84 71/88/83
f 55/77/77 51/76/76 139/124/18
f 48/125/117 140/126/96 46/22/22
f 11/99/94 141/127/118 99/21/21
f 145/58/58 144/128/119 10/129/120
f 160/30/30 56/29/29 148/62/62
f 150/46/46 165/48/48 21/50/50
f 37/130/121 38/57/57 17/59/59
f 43/67/67 31/66/66 13/131/122
f 143/24/24 151/132/123 49/75/75
f 54/79/79 152/133/124 164/80/80
f 153/134/125 154/19/19 59/135/81
f 59/135/81 60/136/126 153/134/125
f 65/137/127 149/39/39 27/38/38
f 18/40/40 155/42/42 166/138/128
f 88/139/129 89/140/130 156/141/131
f 138/20/20 153/134/125 103/107/100
f 158/4/4 112/103/97 110/111/104
f 72/89/84 87/94/89 86/92/87
f 86/92/87 73/13/13 72/89/84
f 121/104/98 101/100/95 96/97/92
f 96/97/92 140/102/96 49/75/75
f 58/142/132 57/143/133 108/108/101
f 93/144/134 102/145/135 54/79/79
f 146/146/136 102/145/135 93/144/134
f 36/147/137 93/144/134 91/148/138
f 29/149/139 126/93/88 160/30/30
f 89/140/130 126/93/88 29/149/139
f 145/58/58 7/83/16 14/28/28
f 56/29/29 8/84/15 61/63/63
f 61/63/63 148/62/62 56/29/29
f 61/63/63 51/76/76 52/64/64
f 50/74/74 48/150/117 28/151/140
f 26/54/54 133/152/141 71/88/83
f 68/153/142 133/152/141 26/54/54
f 65/137/127 27/38/38 26/54/54
f 25/154/143 162/47/47 43/67/67
f 25/154/143 41/70/70 40/69/69
f 25/154/143 43/67/67 41/70/70
f 75/33/33 15/32/32 77/56/56
f 18/40/40 15/32/32 35/41/41
f 74/49/49 80/155/144 79/91/86
f 69/156/145 20/44/44 66/157/146
f 33/52/52 141/127/118 11/99/94
f 82/158/147 19/43/43 81/159/148
f 82/158/147 170/160/149 134/161/150
f 24/162/151 65/137/127 64/163/152
f 64/163/152 65/137/127 135/11/11
f 21/50/50 32/68/68 150/46/46
f 113/112/105 103/107/100 60/136/126
f 113/112/105 60/136/126 116/109/102
f 116/109/102 60/136/126 9/17/17
f 101/100/95 140/102/96 96/97/92
f 108/108/101 57/143/133 106/117/110
f 109/164/153 107/165/154 39/166/155
f 39/166/155 97/98/93 109/164/153
f 95/96/91 44/72/72 92/167/156
f 29/149/139 76/31/31 89/140/130
f 50/74/74 28/151/140 42/71/71
f 157/12/12 65/137/127 26/54/54
f 26/54/54 71/88/83 157/12/12
f 55/77/77 35/41/41 15/32/32
f 74/49/49 22/51/51 80/155/144
f 22/51/51 63/168/157 80/155/144
f 141/127/118 33/52/52 47/53/53
f 82/158/147 134/161/150 66/157/146
f 21/50/50 155/169/42 32/68/68
f 86/92/87 125/170/158 123/171/159
f 88/139/129 129/122/115 90/90/85
f 114/113/106 111/110/103 116/109/102
f 60/136/126 103/107/100 153/134/125
f 94/26/26 49/75/75 151/132/123
f 97/98/93 39/166/155 12/172/160
f 10/173/120 39/166/155 107/165/154
f 159/1/1 118/118/111 115/114/107
f 118/118/111 109/164/153 115/114/107
f 2/119/112 104/106/99 113/112/105
f 154/86/19 51/76/76 61/63/63
f 41/70/70 143/24/24 50/74/74
f 132/123/116 71/88/83 133/152/141
f 157/12/12 71/88/83 70/87/82
f 25/154/143 40/69/69 163/37/37
f 80/155/144 137/14/14 78/174/161
f 78/174/161 79/91/86 80/155/144
f 69/156/145 66/157/146 134/161/150
f 167/34/34 47/53/53 67/175/35
f 149/39/39 65/137/127 24/162/151
f 115/114/107 1/2/2 159/1/1
f 117/116/109 119/115/108 1/2/2
f 119/115/108 120/3/3 1/2/2
f 128/176/162 127/177/163 124/178/164
f 124/178/164 123/179/159 128/176/162
f 136/180/165 135/11/11 137/14/14
f 47/53/53 167/34/34 16/36/36
f 128/181/162 123/171/159 125/170/158
f 128/181/162 125/170/158 169/182/166
f 129/122/115 156/141/131 130/121/114
f 130/121/114 156/141/131 131/183/167
f 134/161/150 170/160/149 133/152/141
f 133/152/141 170/160/149 87/94/89
f 58/142/132 9/17/17 7/16/16
f 46/22/22 99/21/21 141/127/118
f 152/184/124 102/185/135 147/186/168
f 147/186/168 164/187/80 152/184/124
f 13/131/122 31/66/66 32/68/68
f 32/68/68 36/188/137 13/131/122
f 160/30/30 83/60/60 14/28/28
f 163/37/37 161/55/55 27/38/38
f 17/189/59 81/159/148 37/190/121
f 162/47/47 25/154/143 23/191/169
f 42/71/71 28/151/140 161/55/55
f 148/62/62 52/64/64 76/31/31
f 76/31/31 29/149/139 148/62/62
f 31/66/66 30/65/65 150/46/46
f 45/192/73 48/150/117 46/193/22
f 51/76/76 15/32/32 52/64/64
f 62/194/170 64/163/152 63/168/157
f 67/175/35 69/156/145 68/153/142
f 79/91/86 78/174/161 73/13/13
f 105/120/113 6/10/10 122/9/9
f 122/9/9 93/144/134 105/120/113
f 108/108/101 9/17/17 58/142/132
f 3/5/5 110/111/104 109/164/153
f 109/164/153 110/111/104 115/114/107
f 88/139/129 90/90/85 123/171/159
f 90/90/85 129/122/115 79/91/86
f 101/195/95 5/7/7 98/23/23
f 119/115/108 116/109/102 108/108/101
f 58/142/132 7/16/16 57/143/133
f 106/117/110 107/165/154 118/118/111
f 104/106/99 2/119/112 54/79/79
f 5/7/7 3/5/5 97/98/93
f 44/72/72 95/96/91 168/27/27
f 168/27/27 142/25/25 44/72/72
f 105/120/113 93/144/134 2/119/112
f 91/148/138 93/144/134 122/9/9
f 14/28/28 83/60/60 38/57/57
f 7/83/16 8/84/15 56/29/29
f 161/55/55 28/151/140 16/196/36
f 25/154/143 24/162/151 23/191/169
f 81/197/148 17/59/59 128/176/162
f 75/33/33 77/56/56 131/183/167
f 131/183/167 156/141/131 75/33/33
f 53/81/78 55/77/77 139/124/18
f 164/82/80 147/198/168 35/41/41
f 21/50/50 74/49/49 166/138/128
f 166/138/128 155/42/42 21/50/50
f 166/138/128 74/49/49 130/121/114
f 130/121/114 131/183/167 166/138/128
f 20/44/44 69/156/145 47/53/53
f 85/95/90 170/160/149 169/182/166
f 63/168/157 64/163/152 136/180/165
f 36/188/137 32/68/68 146/199/136
f 113/112/105 104/106/99 103/107/100
f 100/8/8 158/4/4 4/6/6
f 4/6/6 101/195/95 100/8/8
f 5/7/7 99/21/21 98/23/23
f 121/104/98 96/97/92 95/96/91
f 95/96/91 92/167/156 121/104/98
f 91/200/138 122/201/9 92/167/156
f 88/139/129 123/179/159 124/178/164
f 124/178/164 89/140/130 88/139/129
f 85/95/90 169/182/166 125/170/158
f 125/170/158 86/92/87 85/95/90
f 83/60/60 126/93/88 127/177/163
f 127/177/163 84/61/61 83/60/60
f 128/181/162 82/158/147 81/159/148
f 156/141/131 76/31/31 75/33/33
f 65/137/127 157/12/12 135/11/11
f 63/168/157 136/180/165 137/14/14
f 59/135/81 8/15/15 9/17/17
f 9/17/17 60/136/126 59/135/81
f 53/78/78 139/202/18 138/20/20
f 138/20/20 104/106/99 53/78/78
f 49/75/75 140/203/96 48/150/117
f 48/150/117 50/74/74 49/75/75
f 141/127/118 47/53/53 46/22/22
f 44/72/72 142/25/25 41/70/70
f 39/166/155 10/173/120 144/204/119
f 144/204/119 12/172/160 39/166/155
f 37/130/121 144/128/119 145/58/58
f 145/58/58 38/57/57 37/130/121
f 11/99/94 34/45/45 33/52/52
f 161/55/55 16/205/36 67/175/35
f 67/175/35 26/54/54 161/55/55
f 19/43/43 37/190/121 81/159/148
f 33/52/52 34/45/45 20/44/44
f 15/32/32 76/31/31 52/64/64
f 19/43/43 66/157/146 20/44/44
f 91/200/138 13/131/122 36/188/137
f 54/79/79 102/145/135 152/133/124
f 3/5/5 158/4/4 110/111/104
f 111/110/103 115/114/107 110/111/104
f 49/75/75 94/26/26 96/97/92
f 106/117/110 119/115/108 108/108/101
f 57/143/133 10/173/120 106/117/110
f 97/98/93 3/5/5 109/164/153
f 109/164/153 118/118/111 107/165/154
f 93/144/134 54/79/79 2/119/112
f 89/140/130 76/31/31 156/141/131
f 126/93/88 89/140/130 124/178/164
f 145/58/58 57/206/133 7/83/16
f 50/74/74 42/71/71 41/70/70
f 28/151/140 48/150/117 45/192/73
f 45/192/73 16/196/36 28/151/140
f 12/172/160 34/45/45 11/99/94
f 34/45/45 12/172/160 144/204/119
f 166/138/128 131/183/167 77/56/56
f 80/155/144 63/168/157 137/14/14
f 79/91/86 130/121/114 74/49/49
f 67/175/35 47/53/53 69/156/145
f 128/181/162 169/182/166 82/158/147
f 62/194/170 23/191/169 64/163/152
f 155/169/42 35/207/41 147/186/168
f 147/186/168 146/199/136 155/169/42
f 53/78/78 104/106/99 54/79/79
f 91/200/138 92/167/156 44/72/72
f 93/144/134 36/147/137 146/146/136
f 34/45/45 37/190/121 19/43/43
f 82/158/147 66/157/146 19/43/43
f 111/110/103 112/103/97 105/120/113
f 6/10/10 105/120/113 112/103/97
f 123/171/159 90/90/85 86/92/87
f 111/110/103 2/119/112 113/112/105
f 98/23/23 46/22/22 140/126/96
f 5/7/7 101/195/95 4/6/6
f 107/165/154 106/117/110 10/173/120
f 159/1/1 120/3/3 118/118/111
f 11/99/94 97/98/93 12/172/160
f 121/104/98 92/167/156 122/201/9
f 122/201/9 100/105/8 121/104/98
f 43/67/67 13/131/122 44/72/72
f 13/131/122 91/200/138 44/72/72
f 94/26/26 168/27/27 95/96/91
f 148/62/62 29/149/139 160/30/30
f 10/129/120 57/206/133 145/58/58
f 154/86/19 139/124/18 51/76/76
f 42/71/71 161/55/55 40/69/69
f 67/175/35 68/153/142 26/54/54
f 30/65/65 43/67/67 162/47/47
f 24/162/151 25/154/143 163/37/37
f 163/37/37 149/39/39 24/162/151
f 142/25/25 143/24/24 41/70/70
f 84/61/61 127/177/163 128/176/162
f 128/176/162 17/59/59 84/61/61
f 144/204/119 37/190/121 34/45/45
f 77/56/56 18/40/40 166/138/128
f 164/82/80 35/41/41 55/77/77
f 22/51/51 21/50/50 165/48/48
f 22/51/51 165/48/48 62/194/170
f 62/194/170 63/168/157 22/51/51
f 68/153/142 69/156/145 134/161/150
f 134/161/150 133/152/141 68/153/142
f 169/182/166 170/160/149 82/158/147
f 23/191/169 24/162/151 64/163/152
f 136/180/165 64/163/152 135/11/11
f 146/199/136 32/68/68 155/169/42
f 117/116/109 114/113/106 116/109/102
f 94/26/26 151/132/123 143/24/24
f 157/12/12 70/87/82 73/13/13
f 78/174/161 137/14/14 73/13/13
f 45/73/73 47/53/53 16/208/36
f 1/2/2 114/113/106 117/116/109
f 114/113/106 1/2/2 115/114/107
f 153/134/125 138/20/20 154/19/19
f 163/37/37 40/69/69 161/55/55
f 126/93/88 124/178/164 127/177/163
f 156/141/131 129/122/115 88/139/129
f 146/199/136 147/186/168 102/185/135
f 132/123/116 133/152/141 87/94/89
f 87/94/89 170/160/149 85/95/90
f 23/191/169 165/48/48 162/47/47
f 165/48/48 23/191/169 62/194/170
f 150/46/46 30/65/65 162/47/47
